<?xml version="1.0" encoding="UTF-8" standalone="no"?>
<!DOCTYPE svg PUBLIC "-//W3C//DTD SVG 1.1//EN"
 "http://www.w3.org/Graphics/SVG/1.1/DTD/svg11.dtd">
<!-- Generated by graphviz version 2.38.0 (20140413.2041)
 -->
<!-- Title: noFutureRandDataSp Pages: 1 -->
<svg width="513pt" height="692pt"
 viewBox="0.00 0.00 513.00 692.00" xmlns="http://www.w3.org/2000/svg" xmlns:xlink="http://www.w3.org/1999/xlink">
<g id="graph0" class="graph" transform="scale(1 1) rotate(0) translate(4 688)">
<title>noFutureRandDataSp</title>
<polygon fill="white" stroke="none" points="-4,4 -4,-688 509,-688 509,4 -4,4"/>
<!-- IIdentifier -->
<g id="node1" class="node"><title>IIdentifier</title>
<polygon fill="none" stroke="black" points="247.5,-108 73.5,-108 73.5,-72 247.5,-72 247.5,-108"/>
<text text-anchor="middle" x="160.5" y="-86.3" font-family="Consolas" font-size="14.00">IIdentifier&lt;Pecuniam&gt;</text>
</g>
<!-- ICited -->
<g id="node22" class="node"><title>ICited</title>
<polygon fill="none" stroke="black" points="191.5,-36 129.5,-36 129.5,-0 191.5,-0 191.5,-36"/>
<text text-anchor="middle" x="160.5" y="-14.3" font-family="Consolas" font-size="14.00">ICited</text>
</g>
<!-- IIdentifier&#45;&gt;ICited -->
<g id="edge22" class="edge"><title>IIdentifier&#45;&gt;ICited</title>
<path fill="none" stroke="black" d="M160.5,-71.6966C160.5,-63.9827 160.5,-54.7125 160.5,-46.1124"/>
<polygon fill="black" stroke="black" points="164,-46.1043 160.5,-36.1043 157,-46.1044 164,-46.1043"/>
</g>
<!-- Mortgage -->
<g id="node2" class="node"><title>Mortgage</title>
<polygon fill="none" stroke="black" points="122,-684 45,-684 45,-648 122,-648 122,-684"/>
<text text-anchor="middle" x="83.5" y="-662.3" font-family="Consolas" font-size="14.00">Mortgage</text>
</g>
<!-- SecuredFixedRateLoan -->
<g id="node3" class="node"><title>SecuredFixedRateLoan</title>
<polygon fill="none" stroke="black" points="167,-612 0,-612 0,-576 167,-576 167,-612"/>
<text text-anchor="middle" x="83.5" y="-590.3" font-family="Consolas" font-size="14.00">SecuredFixedRateLoan</text>
</g>
<!-- Mortgage&#45;&gt;SecuredFixedRateLoan -->
<g id="edge1" class="edge"><title>Mortgage&#45;&gt;SecuredFixedRateLoan</title>
<path fill="none" stroke="black" d="M83.5,-647.697C83.5,-639.983 83.5,-630.712 83.5,-622.112"/>
<polygon fill="black" stroke="black" points="87.0001,-622.104 83.5,-612.104 80.0001,-622.104 87.0001,-622.104"/>
</g>
<!-- FixedRateLoan -->
<g id="node4" class="node"><title>FixedRateLoan</title>
<polygon fill="none" stroke="black" points="140.5,-540 26.5,-540 26.5,-504 140.5,-504 140.5,-540"/>
<text text-anchor="middle" x="83.5" y="-518.3" font-family="Consolas" font-size="14.00">FixedRateLoan</text>
</g>
<!-- SecuredFixedRateLoan&#45;&gt;FixedRateLoan -->
<g id="edge2" class="edge"><title>SecuredFixedRateLoan&#45;&gt;FixedRateLoan</title>
<path fill="none" stroke="black" d="M83.5,-575.697C83.5,-567.983 83.5,-558.712 83.5,-550.112"/>
<polygon fill="black" stroke="black" points="87.0001,-550.104 83.5,-540.104 80.0001,-550.104 87.0001,-550.104"/>
</g>
<!-- LoanBase -->
<g id="node7" class="node"><title>LoanBase</title>
<polygon fill="none" stroke="black" points="165,-468 88,-468 88,-432 165,-432 165,-468"/>
<text text-anchor="middle" x="126.5" y="-446.3" font-family="Consolas" font-size="14.00">LoanBase</text>
</g>
<!-- FixedRateLoan&#45;&gt;LoanBase -->
<g id="edge5" class="edge"><title>FixedRateLoan&#45;&gt;LoanBase</title>
<path fill="none" stroke="black" d="M94.1292,-503.697C99.1281,-495.559 105.191,-485.689 110.712,-476.701"/>
<polygon fill="black" stroke="black" points="113.741,-478.457 115.993,-468.104 107.777,-474.793 113.741,-478.457"/>
</g>
<!-- CreditCardAccount -->
<g id="node5" class="node"><title>CreditCardAccount</title>
<polygon fill="none" stroke="black" points="428.5,-612 284.5,-612 284.5,-576 428.5,-576 428.5,-612"/>
<text text-anchor="middle" x="356.5" y="-590.3" font-family="Consolas" font-size="14.00">CreditCardAccount</text>
</g>
<!-- CreditCardAccount&#45;&gt;FixedRateLoan -->
<g id="edge3" class="edge"><title>CreditCardAccount&#45;&gt;FixedRateLoan</title>
<path fill="none" stroke="black" d="M289.839,-575.958C251.643,-566.187 202.544,-553.617 150.488,-540.252"/>
<polygon fill="black" stroke="black" points="151.292,-536.845 140.736,-537.748 149.551,-543.625 151.292,-536.845"/>
</g>
<!-- IAccount -->
<g id="node6" class="node"><title>IAccount</title>
<polygon fill="none" stroke="black" points="479,-324 402,-324 402,-288 479,-288 479,-324"/>
<text text-anchor="middle" x="440.5" y="-302.3" font-family="Consolas" font-size="14.00">IAccount</text>
</g>
<!-- CreditCardAccount&#45;&gt;IAccount -->
<g id="edge4" class="edge"><title>CreditCardAccount&#45;&gt;IAccount</title>
<path fill="none" stroke="black" d="M398.508,-575.818C413.566,-567.385 428.926,-555.615 437.5,-540 473.989,-473.545 458.663,-379.525 447.829,-333.909"/>
<polygon fill="black" stroke="black" points="451.216,-333.026 445.406,-324.166 444.423,-334.716 451.216,-333.026"/>
</g>
<!-- IAsset -->
<g id="node17" class="node"><title>IAsset</title>
<polygon fill="none" stroke="black" points="452.5,-180 390.5,-180 390.5,-144 452.5,-144 452.5,-180"/>
<text text-anchor="middle" x="421.5" y="-158.3" font-family="Consolas" font-size="14.00">IAsset</text>
</g>
<!-- IAccount&#45;&gt;IAsset -->
<g id="edge27" class="edge"><title>IAccount&#45;&gt;IAsset</title>
<path fill="none" stroke="black" d="M438.208,-287.871C434.97,-263.67 429.021,-219.211 425.165,-190.393"/>
<polygon fill="black" stroke="black" points="428.595,-189.637 423.8,-180.189 421.657,-190.565 428.595,-189.637"/>
</g>
<!-- ITempore -->
<g id="node24" class="node"><title>ITempore</title>
<polygon fill="none" stroke="black" points="505,-108 428,-108 428,-72 505,-72 505,-108"/>
<text text-anchor="middle" x="466.5" y="-86.3" font-family="Consolas" font-size="14.00">ITempore</text>
</g>
<!-- IAccount&#45;&gt;ITempore -->
<g id="edge28" class="edge"><title>IAccount&#45;&gt;ITempore</title>
<path fill="none" stroke="black" d="M444.029,-287.694C448.791,-263.646 457.174,-218.709 461.5,-180 463.806,-159.367 465.068,-135.917 465.747,-118.27"/>
<polygon fill="black" stroke="black" points="469.251,-118.224 466.099,-108.109 462.255,-117.982 469.251,-118.224"/>
</g>
<!-- Pondus -->
<g id="node8" class="node"><title>Pondus</title>
<polygon fill="none" stroke="black" points="272.5,-396 210.5,-396 210.5,-360 272.5,-360 272.5,-396"/>
<text text-anchor="middle" x="241.5" y="-374.3" font-family="Consolas" font-size="14.00">Pondus</text>
</g>
<!-- LoanBase&#45;&gt;Pondus -->
<g id="edge6" class="edge"><title>LoanBase&#45;&gt;Pondus</title>
<path fill="none" stroke="black" d="M154.632,-431.876C169.668,-422.724 188.367,-411.342 204.56,-401.485"/>
<polygon fill="black" stroke="black" points="206.538,-404.379 213.26,-396.19 202.898,-398.4 206.538,-404.379"/>
</g>
<!-- ILoan -->
<g id="node23" class="node"><title>ILoan</title>
<polygon fill="none" stroke="black" points="153.5,-396 99.5,-396 99.5,-360 153.5,-360 153.5,-396"/>
<text text-anchor="middle" x="126.5" y="-374.3" font-family="Consolas" font-size="14.00">ILoan</text>
</g>
<!-- LoanBase&#45;&gt;ILoan -->
<g id="edge23" class="edge"><title>LoanBase&#45;&gt;ILoan</title>
<path fill="none" stroke="black" d="M126.5,-431.697C126.5,-423.983 126.5,-414.712 126.5,-406.112"/>
<polygon fill="black" stroke="black" points="130,-406.104 126.5,-396.104 123,-406.104 130,-406.104"/>
</g>
<!-- Receivable -->
<g id="node13" class="node"><title>Receivable</title>
<polygon fill="none" stroke="black" points="287.5,-324 195.5,-324 195.5,-288 287.5,-288 287.5,-324"/>
<text text-anchor="middle" x="241.5" y="-302.3" font-family="Consolas" font-size="14.00">Receivable</text>
</g>
<!-- Pondus&#45;&gt;Receivable -->
<g id="edge29" class="edge"><title>Pondus&#45;&gt;Receivable</title>
<path fill="none" stroke="black" d="M241.5,-359.697C241.5,-351.983 241.5,-342.712 241.5,-334.112"/>
<polygon fill="black" stroke="black" points="245,-334.104 241.5,-324.104 238,-334.104 245,-334.104"/>
</g>
<!-- Rent -->
<g id="node9" class="node"><title>Rent</title>
<polygon fill="none" stroke="black" points="268.5,-468 214.5,-468 214.5,-432 268.5,-432 268.5,-468"/>
<text text-anchor="middle" x="241.5" y="-446.3" font-family="Consolas" font-size="14.00">Rent</text>
</g>
<!-- Rent&#45;&gt;Pondus -->
<g id="edge7" class="edge"><title>Rent&#45;&gt;Pondus</title>
<path fill="none" stroke="black" d="M241.5,-431.697C241.5,-423.983 241.5,-414.712 241.5,-406.112"/>
<polygon fill="black" stroke="black" points="245,-406.104 241.5,-396.104 238,-406.104 245,-406.104"/>
</g>
<!-- CheckingAccount -->
<g id="node10" class="node"><title>CheckingAccount</title>
<polygon fill="none" stroke="black" points="288,-540 159,-540 159,-504 288,-504 288,-540"/>
<text text-anchor="middle" x="223.5" y="-518.3" font-family="Consolas" font-size="14.00">CheckingAccount</text>
</g>
<!-- DepositAccount -->
<g id="node11" class="node"><title>DepositAccount</title>
<polygon fill="none" stroke="black" points="413.5,-468 291.5,-468 291.5,-432 413.5,-432 413.5,-468"/>
<text text-anchor="middle" x="352.5" y="-446.3" font-family="Consolas" font-size="14.00">DepositAccount</text>
</g>
<!-- CheckingAccount&#45;&gt;DepositAccount -->
<g id="edge8" class="edge"><title>CheckingAccount&#45;&gt;DepositAccount</title>
<path fill="none" stroke="black" d="M255.057,-503.876C272.158,-494.596 293.482,-483.025 311.819,-473.075"/>
<polygon fill="black" stroke="black" points="313.702,-476.035 320.822,-468.19 310.363,-469.883 313.702,-476.035"/>
</g>
<!-- DepositAccount&#45;&gt;IAccount -->
<g id="edge11" class="edge"><title>DepositAccount&#45;&gt;IAccount</title>
<path fill="none" stroke="black" d="M363.115,-431.871C378.377,-407.244 406.64,-361.638 424.459,-332.885"/>
<polygon fill="black" stroke="black" points="427.555,-334.533 429.847,-324.189 421.605,-330.846 427.555,-334.533"/>
</g>
<!-- DepositAccount&#45;&gt;Pondus -->
<g id="edge10" class="edge"><title>DepositAccount&#45;&gt;Pondus</title>
<path fill="none" stroke="black" d="M325.346,-431.876C310.967,-422.808 293.119,-411.552 277.59,-401.759"/>
<polygon fill="black" stroke="black" points="279.084,-398.564 268.758,-396.19 275.35,-404.484 279.084,-398.564"/>
</g>
<!-- SavingsAccount -->
<g id="node12" class="node"><title>SavingsAccount</title>
<polygon fill="none" stroke="black" points="428.5,-540 306.5,-540 306.5,-504 428.5,-504 428.5,-540"/>
<text text-anchor="middle" x="367.5" y="-518.3" font-family="Consolas" font-size="14.00">SavingsAccount</text>
</g>
<!-- SavingsAccount&#45;&gt;DepositAccount -->
<g id="edge9" class="edge"><title>SavingsAccount&#45;&gt;DepositAccount</title>
<path fill="none" stroke="black" d="M363.792,-503.697C362.139,-495.983 360.153,-486.712 358.31,-478.112"/>
<polygon fill="black" stroke="black" points="361.683,-477.149 356.165,-468.104 354.838,-478.616 361.683,-477.149"/>
</g>
<!-- IReceivable -->
<g id="node14" class="node"><title>IReceivable</title>
<polygon fill="none" stroke="black" points="381,-252 282,-252 282,-216 381,-216 381,-252"/>
<text text-anchor="middle" x="331.5" y="-230.3" font-family="Consolas" font-size="14.00">IReceivable</text>
</g>
<!-- Receivable&#45;&gt;IReceivable -->
<g id="edge12" class="edge"><title>Receivable&#45;&gt;IReceivable</title>
<path fill="none" stroke="black" d="M263.747,-287.697C275.082,-278.881 289.03,-268.032 301.319,-258.474"/>
<polygon fill="black" stroke="black" points="303.764,-261.007 309.509,-252.104 299.466,-255.481 303.764,-261.007"/>
</g>
<!-- TradeLine -->
<g id="node15" class="node"><title>TradeLine</title>
<polygon fill="none" stroke="black" points="263.5,-252 179.5,-252 179.5,-216 263.5,-216 263.5,-252"/>
<text text-anchor="middle" x="221.5" y="-230.3" font-family="Consolas" font-size="14.00">TradeLine</text>
</g>
<!-- Receivable&#45;&gt;TradeLine -->
<g id="edge13" class="edge"><title>Receivable&#45;&gt;TradeLine</title>
<path fill="none" stroke="black" d="M236.556,-287.697C234.328,-279.898 231.645,-270.509 229.165,-261.829"/>
<polygon fill="black" stroke="black" points="232.5,-260.758 226.387,-252.104 225.769,-262.681 232.5,-260.758"/>
</g>
<!-- ITradeLine -->
<g id="node16" class="node"><title>ITradeLine</title>
<polygon fill="none" stroke="black" points="372.5,-180 280.5,-180 280.5,-144 372.5,-144 372.5,-180"/>
<text text-anchor="middle" x="326.5" y="-158.3" font-family="Consolas" font-size="14.00">ITradeLine</text>
</g>
<!-- IReceivable&#45;&gt;ITradeLine -->
<g id="edge14" class="edge"><title>IReceivable&#45;&gt;ITradeLine</title>
<path fill="none" stroke="black" d="M330.264,-215.697C329.713,-207.983 329.051,-198.712 328.437,-190.112"/>
<polygon fill="black" stroke="black" points="331.925,-189.83 327.722,-180.104 324.943,-190.328 331.925,-189.83"/>
</g>
<!-- IReceivable&#45;&gt;IAsset -->
<g id="edge15" class="edge"><title>IReceivable&#45;&gt;IAsset</title>
<path fill="none" stroke="black" d="M353.747,-215.697C365.082,-206.881 379.03,-196.032 391.319,-186.474"/>
<polygon fill="black" stroke="black" points="393.764,-189.007 399.509,-180.104 389.466,-183.481 393.764,-189.007"/>
</g>
<!-- IMereo -->
<g id="node18" class="node"><title>IMereo</title>
<polygon fill="none" stroke="black" points="169.5,-180 107.5,-180 107.5,-144 169.5,-144 169.5,-180"/>
<text text-anchor="middle" x="138.5" y="-158.3" font-family="Consolas" font-size="14.00">IMereo</text>
</g>
<!-- IReceivable&#45;&gt;IMereo -->
<g id="edge16" class="edge"><title>IReceivable&#45;&gt;IMereo</title>
<path fill="none" stroke="black" stroke-dasharray="1,5" d="M284.287,-215.876C252.063,-204.189 209.817,-188.866 179.102,-177.726"/>
<polygon fill="black" stroke="black" points="180.157,-174.386 169.562,-174.266 177.77,-180.966 180.157,-174.386"/>
</g>
<!-- TradeLine&#45;&gt;ITradeLine -->
<g id="edge24" class="edge"><title>TradeLine&#45;&gt;ITradeLine</title>
<path fill="none" stroke="black" d="M247.186,-215.876C260.788,-206.808 277.672,-195.552 292.361,-185.759"/>
<polygon fill="black" stroke="black" points="294.336,-188.649 300.715,-180.19 290.453,-182.825 294.336,-188.649"/>
</g>
<!-- ITradeLine&#45;&gt;ITempore -->
<g id="edge25" class="edge"><title>ITradeLine&#45;&gt;ITempore</title>
<path fill="none" stroke="black" d="M360.748,-143.876C379.561,-134.469 403.085,-122.708 423.166,-112.667"/>
<polygon fill="black" stroke="black" points="424.741,-115.792 432.12,-108.19 421.611,-109.531 424.741,-115.792"/>
</g>
<!-- ITransactionable -->
<g id="node25" class="node"><title>ITransactionable</title>
<polygon fill="none" stroke="black" points="403,-108 266,-108 266,-72 403,-72 403,-108"/>
<text text-anchor="middle" x="334.5" y="-86.3" font-family="Consolas" font-size="14.00">ITransactionable</text>
</g>
<!-- ITradeLine&#45;&gt;ITransactionable -->
<g id="edge26" class="edge"><title>ITradeLine&#45;&gt;ITransactionable</title>
<path fill="none" stroke="black" d="M328.478,-143.697C329.359,-135.983 330.419,-126.712 331.401,-118.112"/>
<polygon fill="black" stroke="black" points="334.887,-118.437 332.545,-108.104 327.932,-117.642 334.887,-118.437"/>
</g>
<!-- IMereo&#45;&gt;IIdentifier -->
<g id="edge21" class="edge"><title>IMereo&#45;&gt;IIdentifier</title>
<path fill="none" stroke="black" d="M143.938,-143.697C146.389,-135.898 149.34,-126.509 152.068,-117.829"/>
<polygon fill="black" stroke="black" points="155.465,-118.694 155.124,-108.104 148.787,-116.595 155.465,-118.694"/>
</g>
<!-- IVoca -->
<g id="node21" class="node"><title>IVoca</title>
<polygon fill="none" stroke="black" points="55.5,-108 1.5,-108 1.5,-72 55.5,-72 55.5,-108"/>
<text text-anchor="middle" x="28.5" y="-86.3" font-family="Consolas" font-size="14.00">IVoca</text>
</g>
<!-- IMereo&#45;&gt;IVoca -->
<g id="edge19" class="edge"><title>IMereo&#45;&gt;IVoca</title>
<path fill="none" stroke="black" d="M111.591,-143.876C97.3416,-134.808 79.6537,-123.552 64.2644,-113.759"/>
<polygon fill="black" stroke="black" points="65.8282,-110.606 55.5125,-108.19 62.07,-116.511 65.8282,-110.606"/>
</g>
<!-- Mereo -->
<g id="node19" class="node"><title>Mereo</title>
<polygon fill="none" stroke="black" points="106.5,-252 52.5,-252 52.5,-216 106.5,-216 106.5,-252"/>
<text text-anchor="middle" x="79.5" y="-230.3" font-family="Consolas" font-size="14.00">Mereo</text>
</g>
<!-- Mereo&#45;&gt;IMereo -->
<g id="edge18" class="edge"><title>Mereo&#45;&gt;IMereo</title>
<path fill="none" stroke="black" d="M94.0843,-215.697C101.158,-207.305 109.783,-197.07 117.545,-187.861"/>
<polygon fill="black" stroke="black" points="120.315,-190.006 124.083,-180.104 114.963,-185.495 120.315,-190.006"/>
</g>
<!-- VocaBase -->
<g id="node20" class="node"><title>VocaBase</title>
<polygon fill="none" stroke="black" points="78,-180 1,-180 1,-144 78,-144 78,-180"/>
<text text-anchor="middle" x="39.5" y="-158.3" font-family="Consolas" font-size="14.00">VocaBase</text>
</g>
<!-- Mereo&#45;&gt;VocaBase -->
<g id="edge17" class="edge"><title>Mereo&#45;&gt;VocaBase</title>
<path fill="none" stroke="black" d="M69.6124,-215.697C65.0107,-207.644 59.4397,-197.894 54.3471,-188.982"/>
<polygon fill="black" stroke="black" points="57.2742,-187.05 49.2739,-180.104 51.1965,-190.523 57.2742,-187.05"/>
</g>
<!-- VocaBase&#45;&gt;IVoca -->
<g id="edge20" class="edge"><title>VocaBase&#45;&gt;IVoca</title>
<path fill="none" stroke="black" d="M36.7809,-143.697C35.5687,-135.983 34.112,-126.712 32.7605,-118.112"/>
<polygon fill="black" stroke="black" points="36.1979,-117.44 31.1878,-108.104 29.2827,-118.526 36.1979,-117.44"/>
</g>
</g>
</svg>
