<?xml version="1.0" encoding="UTF-8" standalone="no"?>
<!DOCTYPE svg PUBLIC "-//W3C//DTD SVG 1.1//EN"
 "http://www.w3.org/Graphics/SVG/1.1/DTD/svg11.dtd">
<!-- Generated by graphviz version 2.38.0 (20140413.2041)
 -->
<!-- Title: noFutureRandDataSp Pages: 1 -->
<svg width="1236pt" height="898pt"
 viewBox="0.00 0.00 1235.50 898.00" xmlns="http://www.w3.org/2000/svg" xmlns:xlink="http://www.w3.org/1999/xlink">
<g id="graph0" class="graph" transform="scale(1 1) rotate(0) translate(4 894)">
<title>noFutureRandDataSp</title>
<polygon fill="white" stroke="none" points="-4,4 -4,-894 1231.5,-894 1231.5,4 -4,4"/>
<!-- StringId -->
<g id="node1" class="node"><title>StringId</title>
<polygon fill="none" stroke="black" points="1014,-36 892,-36 892,-0 1014,-0 1014,-36"/>
<text text-anchor="middle" x="953" y="-14.3" font-family="Consolas" font-size="14.00">IIdentifier&lt;T&gt;</text>
</g>
<!-- Mortgage -->
<g id="node2" class="node"><title>Mortgage</title>
<polygon fill="none" stroke="black" points="441.5,-890 364.5,-890 364.5,-854 441.5,-854 441.5,-890"/>
<text text-anchor="middle" x="403" y="-868.3" font-family="Consolas" font-size="14.00">Mortgage</text>
</g>
<!-- SecuredFixedRateLoan -->
<g id="node3" class="node"><title>SecuredFixedRateLoan</title>
<polygon fill="none" stroke="black" points="486.5,-817 319.5,-817 319.5,-781 486.5,-781 486.5,-817"/>
<text text-anchor="middle" x="403" y="-795.3" font-family="Consolas" font-size="14.00">SecuredFixedRateLoan</text>
</g>
<!-- Mortgage&#45;&gt;SecuredFixedRateLoan -->
<g id="edge1" class="edge"><title>Mortgage&#45;&gt;SecuredFixedRateLoan</title>
<path fill="none" stroke="black" d="M403,-853.813C403,-845.789 403,-836.047 403,-827.069"/>
<polygon fill="black" stroke="black" points="406.5,-827.029 403,-817.029 399.5,-827.029 406.5,-827.029"/>
</g>
<!-- FixedRateLoan -->
<g id="node4" class="node"><title>FixedRateLoan</title>
<polygon fill="none" stroke="black" points="371,-744 257,-744 257,-708 371,-708 371,-744"/>
<text text-anchor="middle" x="314" y="-722.3" font-family="Consolas" font-size="14.00">FixedRateLoan</text>
</g>
<!-- SecuredFixedRateLoan&#45;&gt;FixedRateLoan -->
<g id="edge2" class="edge"><title>SecuredFixedRateLoan&#45;&gt;FixedRateLoan</title>
<path fill="none" stroke="black" d="M381.456,-780.813C369.977,-771.656 355.692,-760.26 343.227,-750.316"/>
<polygon fill="black" stroke="black" points="345.346,-747.529 335.346,-744.029 340.981,-753.001 345.346,-747.529"/>
</g>
<!-- LoanBase -->
<g id="node7" class="node"><title>LoanBase</title>
<polygon fill="none" stroke="black" points="448.5,-671 371.5,-671 371.5,-635 448.5,-635 448.5,-671"/>
<text text-anchor="middle" x="410" y="-649.3" font-family="Consolas" font-size="14.00">LoanBase</text>
</g>
<!-- FixedRateLoan&#45;&gt;LoanBase -->
<g id="edge5" class="edge"><title>FixedRateLoan&#45;&gt;LoanBase</title>
<path fill="none" stroke="black" d="M337.239,-707.813C349.738,-698.569 365.322,-687.043 378.858,-677.032"/>
<polygon fill="black" stroke="black" points="381.016,-679.789 386.975,-671.029 376.854,-674.161 381.016,-679.789"/>
</g>
<!-- CreditCardAccount -->
<g id="node5" class="node"><title>CreditCardAccount</title>
<polygon fill="none" stroke="black" points="301,-817 157,-817 157,-781 301,-781 301,-817"/>
<text text-anchor="middle" x="229" y="-795.3" font-family="Consolas" font-size="14.00">CreditCardAccount</text>
</g>
<!-- CreditCardAccount&#45;&gt;FixedRateLoan -->
<g id="edge3" class="edge"><title>CreditCardAccount&#45;&gt;FixedRateLoan</title>
<path fill="none" stroke="black" d="M249.576,-780.813C260.434,-771.743 273.922,-760.477 285.746,-750.6"/>
<polygon fill="black" stroke="black" points="288.182,-753.126 293.613,-744.029 283.695,-747.753 288.182,-753.126"/>
</g>
<!-- IAccount -->
<g id="node6" class="node"><title>IAccount</title>
<polygon fill="none" stroke="black" points="382.5,-452 305.5,-452 305.5,-416 382.5,-416 382.5,-452"/>
<text text-anchor="middle" x="344" y="-430.3" font-family="Consolas" font-size="14.00">IAccount</text>
</g>
<!-- CreditCardAccount&#45;&gt;IAccount -->
<g id="edge4" class="edge"><title>CreditCardAccount&#45;&gt;IAccount</title>
<path fill="none" stroke="black" d="M229,-780.784C229,-766.405 229,-745.366 229,-727 229,-727 229,-727 229,-506 229,-472.865 263.994,-454.682 295.374,-445.037"/>
<polygon fill="black" stroke="black" points="296.721,-448.293 305.387,-442.198 294.811,-441.559 296.721,-448.293"/>
</g>
<!-- IValoresTempus -->
<g id="node18" class="node"><title>IValoresTempus</title>
<polygon fill="none" stroke="black" points="494,-371 372,-371 372,-335 494,-335 494,-371"/>
<text text-anchor="middle" x="433" y="-349.3" font-family="Consolas" font-size="14.00">IValoresTempus</text>
</g>
<!-- IAccount&#45;&gt;IValoresTempus -->
<g id="edge22" class="edge"><title>IAccount&#45;&gt;IValoresTempus</title>
<path fill="none" stroke="black" d="M363.312,-415.858C375.791,-404.781 392.21,-390.207 405.977,-377.987"/>
<polygon fill="black" stroke="black" points="408.571,-380.364 413.726,-371.108 403.924,-375.129 408.571,-380.364"/>
</g>
<!-- ITempore -->
<g id="node20" class="node"><title>ITempore</title>
<polygon fill="none" stroke="black" points="465.5,-290 388.5,-290 388.5,-254 465.5,-254 465.5,-290"/>
<text text-anchor="middle" x="427" y="-268.3" font-family="Consolas" font-size="14.00">ITempore</text>
</g>
<!-- IAccount&#45;&gt;ITempore -->
<g id="edge24" class="edge"><title>IAccount&#45;&gt;ITempore</title>
<path fill="none" stroke="black" d="M344.259,-415.661C345.239,-395.214 349.051,-360.754 363,-335 370.917,-320.382 383.465,-307.112 395.36,-296.633"/>
<polygon fill="black" stroke="black" points="397.642,-299.288 403.028,-290.165 393.128,-293.938 397.642,-299.288"/>
</g>
<!-- IBalance -->
<g id="node23" class="node"><title>IBalance</title>
<polygon fill="none" stroke="black" points="365.5,-290 288.5,-290 288.5,-254 365.5,-254 365.5,-290"/>
<text text-anchor="middle" x="327" y="-268.3" font-family="Consolas" font-size="14.00">IBalance</text>
</g>
<!-- IAccount&#45;&gt;IBalance -->
<g id="edge23" class="edge"><title>IAccount&#45;&gt;IBalance</title>
<path fill="none" stroke="black" stroke-dasharray="1,5" d="M330.407,-415.996C321.84,-404.147 311.564,-387.555 307,-371 300.406,-347.085 307.401,-319.342 314.871,-299.491"/>
<polygon fill="black" stroke="black" points="318.139,-300.745 318.634,-290.162 311.647,-298.126 318.139,-300.745"/>
<text text-anchor="middle" x="318.5" y="-351.1" font-family="Consolas" font-size="8.00">HAS&#45;A</text>
</g>
<!-- NamedReceivable -->
<g id="node8" class="node"><title>NamedReceivable</title>
<polygon fill="none" stroke="black" points="609.5,-598 480.5,-598 480.5,-562 609.5,-562 609.5,-598"/>
<text text-anchor="middle" x="545" y="-576.3" font-family="Consolas" font-size="14.00">NamedReceivable</text>
</g>
<!-- LoanBase&#45;&gt;NamedReceivable -->
<g id="edge6" class="edge"><title>LoanBase&#45;&gt;NamedReceivable</title>
<path fill="none" stroke="black" d="M442.336,-634.994C460.652,-625.361 483.762,-613.207 503.415,-602.87"/>
<polygon fill="black" stroke="black" points="505.239,-605.866 512.46,-598.114 501.98,-599.671 505.239,-605.866"/>
</g>
<!-- ILoan -->
<g id="node19" class="node"><title>ILoan</title>
<polygon fill="none" stroke="black" points="424,-598 370,-598 370,-562 424,-562 424,-598"/>
<text text-anchor="middle" x="397" y="-576.3" font-family="Consolas" font-size="14.00">ILoan</text>
</g>
<!-- LoanBase&#45;&gt;ILoan -->
<g id="edge17" class="edge"><title>LoanBase&#45;&gt;ILoan</title>
<path fill="none" stroke="black" d="M406.853,-634.813C405.384,-626.789 403.6,-617.047 401.956,-608.069"/>
<polygon fill="black" stroke="black" points="405.362,-607.235 400.118,-598.029 398.476,-608.496 405.362,-607.235"/>
</g>
<!-- Receivable -->
<g id="node14" class="node"><title>Receivable</title>
<polygon fill="none" stroke="black" points="591,-525 499,-525 499,-489 591,-489 591,-525"/>
<text text-anchor="middle" x="545" y="-503.3" font-family="Consolas" font-size="14.00">Receivable</text>
</g>
<!-- NamedReceivable&#45;&gt;Receivable -->
<g id="edge25" class="edge"><title>NamedReceivable&#45;&gt;Receivable</title>
<path fill="none" stroke="black" d="M545,-561.813C545,-553.789 545,-544.047 545,-535.069"/>
<polygon fill="black" stroke="black" points="548.5,-535.029 545,-525.029 541.5,-535.029 548.5,-535.029"/>
</g>
<!-- Rent -->
<g id="node9" class="node"><title>Rent</title>
<polygon fill="none" stroke="black" points="619,-671 565,-671 565,-635 619,-635 619,-671"/>
<text text-anchor="middle" x="592" y="-649.3" font-family="Consolas" font-size="14.00">Rent</text>
</g>
<!-- Rent&#45;&gt;NamedReceivable -->
<g id="edge7" class="edge"><title>Rent&#45;&gt;NamedReceivable</title>
<path fill="none" stroke="black" d="M580.623,-634.813C575.023,-626.353 568.158,-615.984 561.955,-606.612"/>
<polygon fill="black" stroke="black" points="564.711,-604.435 556.273,-598.029 558.874,-608.299 564.711,-604.435"/>
</g>
<!-- CheckingAccount -->
<g id="node10" class="node"><title>CheckingAccount</title>
<polygon fill="none" stroke="black" points="794.5,-817 665.5,-817 665.5,-781 794.5,-781 794.5,-817"/>
<text text-anchor="middle" x="730" y="-795.3" font-family="Consolas" font-size="14.00">CheckingAccount</text>
</g>
<!-- DepositAccount -->
<g id="node11" class="node"><title>DepositAccount</title>
<polygon fill="none" stroke="black" points="667,-744 545,-744 545,-708 667,-708 667,-744"/>
<text text-anchor="middle" x="606" y="-722.3" font-family="Consolas" font-size="14.00">DepositAccount</text>
</g>
<!-- CheckingAccount&#45;&gt;DepositAccount -->
<g id="edge8" class="edge"><title>CheckingAccount&#45;&gt;DepositAccount</title>
<path fill="none" stroke="black" d="M700.299,-780.994C683.703,-771.491 662.824,-759.536 644.933,-749.292"/>
<polygon fill="black" stroke="black" points="646.306,-746.045 635.889,-744.114 642.827,-752.12 646.306,-746.045"/>
</g>
<!-- Account -->
<g id="node13" class="node"><title>Account</title>
<polygon fill="none" stroke="black" points="546.5,-671 477.5,-671 477.5,-635 546.5,-635 546.5,-671"/>
<text text-anchor="middle" x="512" y="-649.3" font-family="Consolas" font-size="14.00">Account</text>
</g>
<!-- DepositAccount&#45;&gt;Account -->
<g id="edge12" class="edge"><title>DepositAccount&#45;&gt;Account</title>
<path fill="none" stroke="black" d="M583.245,-707.813C571.122,-698.656 556.034,-687.26 542.869,-677.316"/>
<polygon fill="black" stroke="black" points="544.634,-674.263 534.545,-671.029 540.415,-679.849 544.634,-674.263"/>
</g>
<!-- SavingsAccount -->
<g id="node12" class="node"><title>SavingsAccount</title>
<polygon fill="none" stroke="black" points="647,-817 525,-817 525,-781 647,-781 647,-817"/>
<text text-anchor="middle" x="586" y="-795.3" font-family="Consolas" font-size="14.00">SavingsAccount</text>
</g>
<!-- SavingsAccount&#45;&gt;DepositAccount -->
<g id="edge9" class="edge"><title>SavingsAccount&#45;&gt;DepositAccount</title>
<path fill="none" stroke="black" d="M590.841,-780.813C593.126,-772.702 595.905,-762.836 598.457,-753.777"/>
<polygon fill="black" stroke="black" points="601.861,-754.603 601.203,-744.029 595.123,-752.705 601.861,-754.603"/>
</g>
<!-- Account&#45;&gt;IAccount -->
<g id="edge11" class="edge"><title>Account&#45;&gt;IAccount</title>
<path fill="none" stroke="black" d="M498.817,-634.972C469.386,-596.957 398.202,-505.011 363.573,-460.282"/>
<polygon fill="black" stroke="black" points="366.243,-458.013 357.354,-452.249 360.708,-462.299 366.243,-458.013"/>
</g>
<!-- Account&#45;&gt;NamedReceivable -->
<g id="edge10" class="edge"><title>Account&#45;&gt;NamedReceivable</title>
<path fill="none" stroke="black" d="M519.988,-634.813C523.839,-626.528 528.542,-616.41 532.826,-607.193"/>
<polygon fill="black" stroke="black" points="536.044,-608.572 537.085,-598.029 529.696,-605.622 536.044,-608.572"/>
</g>
<!-- IReceivable -->
<g id="node15" class="node"><title>IReceivable</title>
<polygon fill="none" stroke="black" points="499.5,-452 400.5,-452 400.5,-416 499.5,-416 499.5,-452"/>
<text text-anchor="middle" x="450" y="-430.3" font-family="Consolas" font-size="14.00">IReceivable</text>
</g>
<!-- Receivable&#45;&gt;IReceivable -->
<g id="edge13" class="edge"><title>Receivable&#45;&gt;IReceivable</title>
<path fill="none" stroke="black" d="M522.003,-488.813C509.634,-479.569 494.212,-468.043 480.818,-458.032"/>
<polygon fill="black" stroke="black" points="482.89,-455.212 472.785,-452.029 478.7,-460.819 482.89,-455.212"/>
</g>
<!-- TradeLine -->
<g id="node16" class="node"><title>TradeLine</title>
<polygon fill="none" stroke="black" points="602,-452 518,-452 518,-416 602,-416 602,-452"/>
<text text-anchor="middle" x="560" y="-430.3" font-family="Consolas" font-size="14.00">TradeLine</text>
</g>
<!-- Receivable&#45;&gt;TradeLine -->
<g id="edge14" class="edge"><title>Receivable&#45;&gt;TradeLine</title>
<path fill="none" stroke="black" d="M548.631,-488.813C550.326,-480.789 552.384,-471.047 554.281,-462.069"/>
<polygon fill="black" stroke="black" points="557.76,-462.536 556.402,-452.029 550.911,-461.089 557.76,-462.536"/>
</g>
<!-- ITradeLine -->
<g id="node17" class="node"><title>ITradeLine</title>
<polygon fill="none" stroke="black" points="604,-371 512,-371 512,-335 604,-335 604,-371"/>
<text text-anchor="middle" x="558" y="-349.3" font-family="Consolas" font-size="14.00">ITradeLine</text>
</g>
<!-- IReceivable&#45;&gt;ITradeLine -->
<g id="edge15" class="edge"><title>IReceivable&#45;&gt;ITradeLine</title>
<path fill="none" stroke="black" d="M473.434,-415.858C488.861,-404.574 509.249,-389.66 526.141,-377.304"/>
<polygon fill="black" stroke="black" points="528.607,-379.837 534.611,-371.108 524.474,-374.187 528.607,-379.837"/>
</g>
<!-- IReceivable&#45;&gt;IValoresTempus -->
<g id="edge16" class="edge"><title>IReceivable&#45;&gt;IValoresTempus</title>
<path fill="none" stroke="black" d="M446.311,-415.858C444.128,-405.713 441.314,-392.634 438.835,-381.117"/>
<polygon fill="black" stroke="black" points="442.207,-380.148 436.682,-371.108 435.364,-381.621 442.207,-380.148"/>
</g>
<!-- TradeLine&#45;&gt;ITradeLine -->
<g id="edge18" class="edge"><title>TradeLine&#45;&gt;ITradeLine</title>
<path fill="none" stroke="black" d="M559.566,-415.858C559.309,-405.713 558.978,-392.634 558.687,-381.117"/>
<polygon fill="black" stroke="black" points="562.185,-381.017 558.433,-371.108 555.187,-381.194 562.185,-381.017"/>
</g>
<!-- ITradeLine&#45;&gt;ITempore -->
<g id="edge19" class="edge"><title>ITradeLine&#45;&gt;ITempore</title>
<path fill="none" stroke="black" d="M517.021,-334.94C505.722,-329.688 493.649,-323.548 483,-317 473.162,-310.951 463.048,-303.458 454.169,-296.381"/>
<polygon fill="black" stroke="black" points="456.368,-293.658 446.405,-290.051 451.944,-299.083 456.368,-293.658"/>
</g>
<!-- ITransactionable -->
<g id="node21" class="node"><title>ITransactionable</title>
<polygon fill="none" stroke="black" points="565.5,-182 428.5,-182 428.5,-146 565.5,-146 565.5,-182"/>
<text text-anchor="middle" x="497" y="-160.3" font-family="Consolas" font-size="14.00">ITransactionable</text>
</g>
<!-- ITradeLine&#45;&gt;ITransactionable -->
<g id="edge20" class="edge"><title>ITradeLine&#45;&gt;ITransactionable</title>
<path fill="none" stroke="black" d="M543.215,-334.756C533.896,-322.934 522.445,-306.465 516,-290 503.467,-257.985 499.158,-218.355 497.701,-192.411"/>
<polygon fill="black" stroke="black" points="501.187,-192.023 497.235,-182.193 494.194,-192.342 501.187,-192.023"/>
</g>
<!-- IObviate -->
<g id="node22" class="node"><title>IObviate</title>
<polygon fill="none" stroke="black" points="602.5,-290 525.5,-290 525.5,-254 602.5,-254 602.5,-290"/>
<text text-anchor="middle" x="564" y="-268.3" font-family="Consolas" font-size="14.00">IObviate</text>
</g>
<!-- ITradeLine&#45;&gt;IObviate -->
<g id="edge21" class="edge"><title>ITradeLine&#45;&gt;IObviate</title>
<path fill="none" stroke="black" d="M559.302,-334.858C560.072,-324.713 561.066,-311.634 561.94,-300.117"/>
<polygon fill="black" stroke="black" points="565.433,-300.345 562.701,-290.108 558.453,-299.815 565.433,-300.345"/>
</g>
<!-- ITradeLine&#45;&gt;IBalance -->
<g id="edge26" class="edge"><title>ITradeLine&#45;&gt;IBalance</title>
<path fill="none" stroke="black" stroke-dasharray="1,5" d="M511.79,-337.704C508.816,-336.788 505.866,-335.88 503,-335 476.792,-326.952 469.955,-325.83 444,-317 421.106,-309.212 395.974,-299.867 374.891,-291.796"/>
<polygon fill="black" stroke="black" points="376.101,-288.512 365.511,-288.188 373.588,-295.045 376.101,-288.512"/>
<text text-anchor="middle" x="455.5" y="-310.6" font-family="Consolas" font-size="8.00">HAS&#45;A</text>
</g>
<!-- IBalance&#45;&gt;ITransactionable -->
<g id="edge49" class="edge"><title>IBalance&#45;&gt;ITransactionable</title>
<path fill="none" stroke="black" d="M354.313,-253.969C383.225,-235.942 428.996,-207.402 460.875,-187.525"/>
<polygon fill="black" stroke="black" points="462.839,-190.425 469.472,-182.164 459.135,-184.485 462.839,-190.425"/>
</g>
<!-- Balance -->
<g id="node24" class="node"><title>Balance</title>
<polygon fill="none" stroke="black" points="228.5,-371 159.5,-371 159.5,-335 228.5,-335 228.5,-371"/>
<text text-anchor="middle" x="194" y="-349.3" font-family="Consolas" font-size="14.00">Balance</text>
</g>
<!-- Balance&#45;&gt;IBalance -->
<g id="edge27" class="edge"><title>Balance&#45;&gt;IBalance</title>
<path fill="none" stroke="black" d="M222.859,-334.858C242.379,-323.264 268.351,-307.837 289.474,-295.29"/>
<polygon fill="black" stroke="black" points="291.387,-298.224 298.197,-290.108 287.812,-292.206 291.387,-298.224"/>
</g>
<!-- Journal -->
<g id="node25" class="node"><title>Journal</title>
<polygon fill="none" stroke="black" points="142.5,-290 73.5,-290 73.5,-254 142.5,-254 142.5,-290"/>
<text text-anchor="middle" x="108" y="-268.3" font-family="Consolas" font-size="14.00">Journal</text>
</g>
<!-- Balance&#45;&gt;Journal -->
<g id="edge28" class="edge"><title>Balance&#45;&gt;Journal</title>
<path fill="none" stroke="black" d="M175.339,-334.858C163.281,-323.781 147.415,-309.207 134.112,-296.987"/>
<polygon fill="black" stroke="black" points="136.357,-294.296 126.624,-290.108 131.621,-299.451 136.357,-294.296"/>
</g>
<!-- ITransaction -->
<g id="node45" class="node"><title>ITransaction</title>
<polygon fill="none" stroke="black" points="239.5,-182 132.5,-182 132.5,-146 239.5,-146 239.5,-182"/>
<text text-anchor="middle" x="186" y="-160.3" font-family="Consolas" font-size="14.00">ITransaction</text>
</g>
<!-- Journal&#45;&gt;ITransaction -->
<g id="edge51" class="edge"><title>Journal&#45;&gt;ITransaction</title>
<path fill="none" stroke="black" stroke-dasharray="1,5" d="M120.532,-253.969C132.797,-237.301 151.675,-211.646 166.014,-192.161"/>
<polygon fill="black" stroke="black" points="166.128,-192.006 166.462,-184.803 173.24,-182.341 172.906,-189.544 166.128,-192.006"/>
</g>
<!-- VariableRateLoan -->
<g id="node26" class="node"><title>VariableRateLoan</title>
<polygon fill="none" stroke="black" points="526.5,-744 389.5,-744 389.5,-708 526.5,-708 526.5,-744"/>
<text text-anchor="middle" x="458" y="-722.3" font-family="Consolas" font-size="14.00">VariableRateLoan</text>
</g>
<!-- VariableRateLoan&#45;&gt;LoanBase -->
<g id="edge29" class="edge"><title>VariableRateLoan&#45;&gt;LoanBase</title>
<path fill="none" stroke="black" d="M446.381,-707.813C440.603,-699.266 433.506,-688.769 427.12,-679.323"/>
<polygon fill="black" stroke="black" points="430.013,-677.353 421.512,-671.029 424.214,-681.274 430.013,-677.353"/>
</g>
<!-- Security -->
<g id="node27" class="node"><title>Security</title>
<polygon fill="none" stroke="black" points="699.5,-452 622.5,-452 622.5,-416 699.5,-416 699.5,-452"/>
<text text-anchor="middle" x="661" y="-430.3" font-family="Consolas" font-size="14.00">Security</text>
</g>
<!-- Security&#45;&gt;IValoresTempus -->
<g id="edge30" class="edge"><title>Security&#45;&gt;IValoresTempus</title>
<path fill="none" stroke="black" d="M622.323,-419.599C586.566,-407.209 532.915,-388.62 491.846,-374.39"/>
<polygon fill="black" stroke="black" points="492.822,-371.024 482.227,-371.057 490.53,-377.638 492.822,-371.024"/>
</g>
<!-- Pecuniam -->
<g id="node28" class="node"><title>Pecuniam</title>
<polygon fill="none" stroke="black" points="699.5,-371 622.5,-371 622.5,-335 699.5,-335 699.5,-371"/>
<text text-anchor="middle" x="661" y="-349.3" font-family="Consolas" font-size="14.00">Pecuniam</text>
</g>
<!-- Security&#45;&gt;Pecuniam -->
<g id="edge31" class="edge"><title>Security&#45;&gt;Pecuniam</title>
<path fill="none" stroke="black" d="M661,-415.858C661,-405.713 661,-392.634 661,-381.117"/>
<polygon fill="black" stroke="black" points="664.5,-381.108 661,-371.108 657.5,-381.108 664.5,-381.108"/>
</g>
<!-- Cusip -->
<g id="node29" class="node"><title>Cusip</title>
<polygon fill="none" stroke="black" points="772,-371 718,-371 718,-335 772,-335 772,-371"/>
<text text-anchor="middle" x="745" y="-349.3" font-family="Consolas" font-size="14.00">Cusip</text>
</g>
<!-- Security&#45;&gt;Cusip -->
<g id="edge32" class="edge"><title>Security&#45;&gt;Cusip</title>
<path fill="none" stroke="black" stroke-dasharray="1,5" d="M679.227,-415.858C691.005,-404.781 706.502,-390.207 719.495,-377.987"/>
<polygon fill="black" stroke="black" points="721.922,-380.509 726.809,-371.108 717.126,-375.41 721.922,-380.509"/>
<text text-anchor="middle" x="711" y="-391.6" font-family="Consolas" font-size="8.00">Id</text>
</g>
<!-- Currency -->
<g id="node33" class="node"><title>Currency</title>
<polygon fill="none" stroke="black" points="714.5,-236 637.5,-236 637.5,-200 714.5,-200 714.5,-236"/>
<text text-anchor="middle" x="676" y="-214.3" font-family="Consolas" font-size="14.00">Currency</text>
</g>
<!-- Pecuniam&#45;&gt;Currency -->
<g id="edge36" class="edge"><title>Pecuniam&#45;&gt;Currency</title>
<path fill="none" stroke="black" stroke-dasharray="1,5" d="M659.279,-334.809C657.739,-315.085 656.484,-281.874 662,-254 662.541,-251.265 663.29,-248.472 664.162,-245.715"/>
<polygon fill="black" stroke="black" points="667.546,-246.652 667.711,-236.059 660.976,-244.237 667.546,-246.652"/>
<text text-anchor="middle" x="664" y="-310.6" font-family="Consolas" font-size="8.00">Id</text>
</g>
<!-- INumera -->
<g id="node34" class="node"><title>INumera</title>
<polygon fill="none" stroke="black" points="740.5,-290 671.5,-290 671.5,-254 740.5,-254 740.5,-290"/>
<text text-anchor="middle" x="706" y="-268.3" font-family="Consolas" font-size="14.00">INumera</text>
</g>
<!-- Pecuniam&#45;&gt;INumera -->
<g id="edge38" class="edge"><title>Pecuniam&#45;&gt;INumera</title>
<path fill="none" stroke="black" d="M670.764,-334.858C676.72,-324.402 684.451,-310.83 691.154,-299.064"/>
<polygon fill="black" stroke="black" points="694.346,-300.53 696.255,-290.108 688.264,-297.065 694.346,-300.53"/>
</g>
<!-- RIdentifierWithChkDigit -->
<g id="node30" class="node"><title>RIdentifierWithChkDigit</title>
<polygon fill="none" stroke="black" points="947.5,-290 758.5,-290 758.5,-254 947.5,-254 947.5,-290"/>
<text text-anchor="middle" x="853" y="-268.3" font-family="Consolas" font-size="14.00">RIdentifierWithChkDigit</text>
</g>
<!-- Cusip&#45;&gt;RIdentifierWithChkDigit -->
<g id="edge33" class="edge"><title>Cusip&#45;&gt;RIdentifierWithChkDigit</title>
<path fill="none" stroke="black" d="M768.434,-334.858C783.861,-323.574 804.249,-308.66 821.141,-296.304"/>
<polygon fill="black" stroke="black" points="823.607,-298.837 829.611,-290.108 819.474,-293.187 823.607,-298.837"/>
</g>
<!-- RIdentifier -->
<g id="node31" class="node"><title>RIdentifier</title>
<polygon fill="none" stroke="black" points="1002.5,-182 903.5,-182 903.5,-146 1002.5,-146 1002.5,-182"/>
<text text-anchor="middle" x="953" y="-160.3" font-family="Consolas" font-size="14.00">RIdentifier</text>
</g>
<!-- RIdentifierWithChkDigit&#45;&gt;RIdentifier -->
<g id="edge34" class="edge"><title>RIdentifierWithChkDigit&#45;&gt;RIdentifier</title>
<path fill="none" stroke="black" d="M869.067,-253.969C885.443,-236.61 911.016,-209.503 929.633,-189.769"/>
<polygon fill="black" stroke="black" points="932.325,-192.016 936.641,-182.341 927.233,-187.213 932.325,-192.016"/>
</g>
<!-- Identifier -->
<g id="node32" class="node"><title>Identifier</title>
<polygon fill="none" stroke="black" points="999,-109 907,-109 907,-73 999,-73 999,-109"/>
<text text-anchor="middle" x="953" y="-87.3" font-family="Consolas" font-size="14.00">Identifier</text>
</g>
<!-- RIdentifier&#45;&gt;Identifier -->
<g id="edge35" class="edge"><title>RIdentifier&#45;&gt;Identifier</title>
<path fill="none" stroke="black" d="M953,-145.813C953,-137.789 953,-128.047 953,-119.069"/>
<polygon fill="black" stroke="black" points="956.5,-119.029 953,-109.029 949.5,-119.029 956.5,-119.029"/>
</g>
<!-- Identifier&#45;&gt;StringId -->
<g id="edge48" class="edge"><title>Identifier&#45;&gt;StringId</title>
<path fill="none" stroke="black" d="M953,-72.8129C953,-64.7895 953,-55.0475 953,-46.0691"/>
<polygon fill="black" stroke="black" points="956.5,-46.0288 953,-36.0288 949.5,-46.0289 956.5,-46.0288"/>
</g>
<!-- Currency&#45;&gt;Identifier -->
<g id="edge37" class="edge"><title>Currency&#45;&gt;Identifier</title>
<path fill="none" stroke="black" d="M713.935,-199.881C763.836,-177.363 851.525,-137.792 905.7,-113.345"/>
<polygon fill="black" stroke="black" points="907.405,-116.415 915.08,-109.112 904.525,-110.035 907.405,-116.415"/>
</g>
<!-- CreditScore -->
<g id="node35" class="node"><title>CreditScore</title>
<polygon fill="none" stroke="black" points="1180.5,-182 1081.5,-182 1081.5,-146 1180.5,-146 1180.5,-182"/>
<text text-anchor="middle" x="1131" y="-160.3" font-family="Consolas" font-size="14.00">CreditScore</text>
</g>
<!-- CreditScore&#45;&gt;Identifier -->
<g id="edge39" class="edge"><title>CreditScore&#45;&gt;Identifier</title>
<path fill="none" stroke="black" d="M1088.36,-145.994C1063.45,-136.055 1031.81,-123.434 1005.38,-112.894"/>
<polygon fill="black" stroke="black" points="1006.49,-109.568 995.904,-109.114 1003.9,-116.069 1006.49,-109.568"/>
</g>
<!-- PersonalCreditScore -->
<g id="node36" class="node"><title>PersonalCreditScore</title>
<polygon fill="none" stroke="black" points="1227.5,-290 1068.5,-290 1068.5,-254 1227.5,-254 1227.5,-290"/>
<text text-anchor="middle" x="1148" y="-268.3" font-family="Consolas" font-size="14.00">PersonalCreditScore</text>
</g>
<!-- PersonalCreditScore&#45;&gt;CreditScore -->
<g id="edge40" class="edge"><title>PersonalCreditScore&#45;&gt;CreditScore</title>
<path fill="none" stroke="black" d="M1145.27,-253.969C1142.61,-237.378 1138.52,-211.883 1135.4,-192.431"/>
<polygon fill="black" stroke="black" points="1138.82,-191.66 1133.78,-182.341 1131.91,-192.769 1138.82,-191.66"/>
</g>
<!-- CreditCardNumber -->
<g id="node37" class="node"><title>CreditCardNumber</title>
<polygon fill="none" stroke="black" points="927.5,-371 790.5,-371 790.5,-335 927.5,-335 927.5,-371"/>
<text text-anchor="middle" x="859" y="-349.3" font-family="Consolas" font-size="14.00">CreditCardNumber</text>
</g>
<!-- CreditCardNumber&#45;&gt;RIdentifierWithChkDigit -->
<g id="edge41" class="edge"><title>CreditCardNumber&#45;&gt;RIdentifierWithChkDigit</title>
<path fill="none" stroke="black" d="M857.698,-334.858C856.928,-324.713 855.934,-311.634 855.06,-300.117"/>
<polygon fill="black" stroke="black" points="858.547,-299.815 854.299,-290.108 851.567,-300.345 858.547,-299.815"/>
</g>
<!-- VisaCc -->
<g id="node38" class="node"><title>VisaCc</title>
<polygon fill="none" stroke="black" points="738,-598 676,-598 676,-562 738,-562 738,-598"/>
<text text-anchor="middle" x="707" y="-576.3" font-family="Consolas" font-size="14.00">VisaCc</text>
</g>
<!-- CreditCard -->
<g id="node39" class="node"><title>CreditCard</title>
<polygon fill="none" stroke="black" points="905,-525 813,-525 813,-489 905,-489 905,-525"/>
<text text-anchor="middle" x="859" y="-503.3" font-family="Consolas" font-size="14.00">CreditCard</text>
</g>
<!-- VisaCc&#45;&gt;CreditCard -->
<g id="edge42" class="edge"><title>VisaCc&#45;&gt;CreditCard</title>
<path fill="none" stroke="black" d="M738.126,-564.461C759.749,-554.361 788.922,-540.734 813.19,-529.398"/>
<polygon fill="black" stroke="black" points="814.987,-532.422 822.567,-525.018 812.025,-526.079 814.987,-532.422"/>
</g>
<!-- ICreditCard -->
<g id="node43" class="node"><title>ICreditCard</title>
<polygon fill="none" stroke="black" points="908.5,-452 809.5,-452 809.5,-416 908.5,-416 908.5,-452"/>
<text text-anchor="middle" x="859" y="-430.3" font-family="Consolas" font-size="14.00">ICreditCard</text>
</g>
<!-- CreditCard&#45;&gt;ICreditCard -->
<g id="edge46" class="edge"><title>CreditCard&#45;&gt;ICreditCard</title>
<path fill="none" stroke="black" d="M859,-488.813C859,-480.789 859,-471.047 859,-462.069"/>
<polygon fill="black" stroke="black" points="862.5,-462.029 859,-452.029 855.5,-462.029 862.5,-462.029"/>
</g>
<!-- MasterCardCc -->
<g id="node40" class="node"><title>MasterCardCc</title>
<polygon fill="none" stroke="black" points="863.5,-598 756.5,-598 756.5,-562 863.5,-562 863.5,-598"/>
<text text-anchor="middle" x="810" y="-576.3" font-family="Consolas" font-size="14.00">MasterCardCc</text>
</g>
<!-- MasterCardCc&#45;&gt;CreditCard -->
<g id="edge43" class="edge"><title>MasterCardCc&#45;&gt;CreditCard</title>
<path fill="none" stroke="black" d="M821.862,-561.813C827.76,-553.266 835.004,-542.769 841.524,-533.323"/>
<polygon fill="black" stroke="black" points="844.448,-535.247 847.248,-525.029 838.687,-531.271 844.448,-535.247"/>
</g>
<!-- AmexCc -->
<g id="node41" class="node"><title>AmexCc</title>
<polygon fill="none" stroke="black" points="944,-598 882,-598 882,-562 944,-562 944,-598"/>
<text text-anchor="middle" x="913" y="-576.3" font-family="Consolas" font-size="14.00">AmexCc</text>
</g>
<!-- AmexCc&#45;&gt;CreditCard -->
<g id="edge44" class="edge"><title>AmexCc&#45;&gt;CreditCard</title>
<path fill="none" stroke="black" d="M899.928,-561.813C893.362,-553.179 885.281,-542.555 878.04,-533.034"/>
<polygon fill="black" stroke="black" points="880.791,-530.87 871.952,-525.029 875.219,-535.107 880.791,-530.87"/>
</g>
<!-- DiscoverCc -->
<g id="node42" class="node"><title>DiscoverCc</title>
<polygon fill="none" stroke="black" points="1054,-598 962,-598 962,-562 1054,-562 1054,-598"/>
<text text-anchor="middle" x="1008" y="-576.3" font-family="Consolas" font-size="14.00">DiscoverCc</text>
</g>
<!-- DiscoverCc&#45;&gt;CreditCard -->
<g id="edge45" class="edge"><title>DiscoverCc&#45;&gt;CreditCard</title>
<path fill="none" stroke="black" d="M972.311,-561.994C951.82,-552.23 925.895,-539.876 904.016,-529.451"/>
<polygon fill="black" stroke="black" points="905.448,-526.256 894.914,-525.114 902.436,-532.575 905.448,-526.256"/>
</g>
<!-- ICreditCard&#45;&gt;CreditCardNumber -->
<g id="edge47" class="edge"><title>ICreditCard&#45;&gt;CreditCardNumber</title>
<path fill="none" stroke="black" stroke-dasharray="1,5" d="M859,-415.858C859,-405.713 859,-392.634 859,-381.117"/>
<polygon fill="black" stroke="black" points="862.5,-381.108 859,-371.108 855.5,-381.108 862.5,-381.108"/>
<text text-anchor="middle" x="870.5" y="-391.6" font-family="Consolas" font-size="8.00">HAS&#45;A</text>
</g>
<!-- AccountId -->
<g id="node44" class="node"><title>AccountId</title>
<polygon fill="none" stroke="black" points="1050,-290 966,-290 966,-254 1050,-254 1050,-290"/>
<text text-anchor="middle" x="1008" y="-268.3" font-family="Consolas" font-size="14.00">AccountId</text>
</g>
<!-- AccountId&#45;&gt;RIdentifier -->
<g id="edge50" class="edge"><title>AccountId&#45;&gt;RIdentifier</title>
<path fill="none" stroke="black" d="M999.163,-253.969C990.395,-237.071 976.834,-210.935 966.675,-191.356"/>
<polygon fill="black" stroke="black" points="969.71,-189.605 961.997,-182.341 963.496,-192.829 969.71,-189.605"/>
</g>
<!-- ITransactionId -->
<g id="node48" class="node"><title>ITransactionId</title>
<polygon fill="none" stroke="black" points="247,-109 125,-109 125,-73 247,-73 247,-109"/>
<text text-anchor="middle" x="186" y="-87.3" font-family="Consolas" font-size="14.00">ITransactionId</text>
</g>
<!-- ITransaction&#45;&gt;ITransactionId -->
<g id="edge54" class="edge"><title>ITransaction&#45;&gt;ITransactionId</title>
<path fill="none" stroke="black" d="M186,-145.813C186,-137.789 186,-128.047 186,-119.069"/>
<polygon fill="black" stroke="black" points="189.5,-119.029 186,-109.029 182.5,-119.029 189.5,-119.029"/>
</g>
<!-- Transaction -->
<g id="node46" class="node"><title>Transaction</title>
<polygon fill="none" stroke="black" points="259.5,-290 160.5,-290 160.5,-254 259.5,-254 259.5,-290"/>
<text text-anchor="middle" x="210" y="-268.3" font-family="Consolas" font-size="14.00">Transaction</text>
</g>
<!-- Transaction&#45;&gt;ITransaction -->
<g id="edge52" class="edge"><title>Transaction&#45;&gt;ITransaction</title>
<path fill="none" stroke="black" d="M206.144,-253.969C202.37,-237.301 196.561,-211.646 192.15,-192.161"/>
<polygon fill="black" stroke="black" points="195.548,-191.321 189.926,-182.341 188.721,-192.867 195.548,-191.321"/>
</g>
<!-- TransactionId -->
<g id="node47" class="node"><title>TransactionId</title>
<polygon fill="none" stroke="black" points="114,-182 0,-182 0,-146 114,-146 114,-182"/>
<text text-anchor="middle" x="57" y="-160.3" font-family="Consolas" font-size="14.00">TransactionId</text>
</g>
<!-- Transaction&#45;&gt;TransactionId -->
<g id="edge53" class="edge"><title>Transaction&#45;&gt;TransactionId</title>
<path fill="none" stroke="black" d="M185.418,-253.969C159.62,-236.096 118.906,-207.889 90.2509,-188.037"/>
<polygon fill="black" stroke="black" points="91.988,-184.982 81.7748,-182.164 88.0015,-190.736 91.988,-184.982"/>
</g>
<!-- TransactionId&#45;&gt;ITransactionId -->
<g id="edge55" class="edge"><title>TransactionId&#45;&gt;ITransactionId</title>
<path fill="none" stroke="black" d="M87.8987,-145.994C105.322,-136.404 127.284,-124.317 146.008,-114.011"/>
<polygon fill="black" stroke="black" points="147.833,-117.002 154.906,-109.114 144.458,-110.869 147.833,-117.002"/>
</g>
<!-- TraceTransactionId -->
<g id="node49" class="node"><title>TraceTransactionId</title>
<polygon fill="none" stroke="black" points="410,-182 258,-182 258,-146 410,-146 410,-182"/>
<text text-anchor="middle" x="334" y="-160.3" font-family="Consolas" font-size="14.00">TraceTransactionId</text>
</g>
<!-- TraceTransactionId&#45;&gt;ITransactionId -->
<g id="edge56" class="edge"><title>TraceTransactionId&#45;&gt;ITransactionId</title>
<path fill="none" stroke="black" d="M298.55,-145.994C278.197,-136.23 252.446,-123.876 230.714,-113.451"/>
<polygon fill="black" stroke="black" points="232.203,-110.283 221.673,-109.114 229.176,-116.595 232.203,-110.283"/>
</g>
</g>
</svg>
