<?xml version="1.0" encoding="UTF-8" standalone="no"?>
<!DOCTYPE svg PUBLIC "-//W3C//DTD SVG 1.1//EN"
 "http://www.w3.org/Graphics/SVG/1.1/DTD/svg11.dtd">
<!-- Generated by graphviz version 2.38.0 (20140413.2041)
 -->
<!-- Title: noFutureRandDataSp Pages: 1 -->
<svg width="1528pt" height="692pt"
 viewBox="0.00 0.00 1527.50 692.00" xmlns="http://www.w3.org/2000/svg" xmlns:xlink="http://www.w3.org/1999/xlink">
<g id="graph0" class="graph" transform="scale(1 1) rotate(0) translate(4 688)">
<title>noFutureRandDataSp</title>
<polygon fill="white" stroke="none" points="-4,4 -4,-688 1523.5,-688 1523.5,4 -4,4"/>
<!-- LoanBase -->
<g id="node1" class="node"><title>LoanBase</title>
<polygon fill="none" stroke="black" points="988.5,-468 899.5,-468 899.5,-432 988.5,-432 988.5,-468"/>
<text text-anchor="middle" x="944" y="-446.2" font-family="Consolas" font-size="16.00" fill="lightblue">LoanBase</text>
</g>
<!-- ILoan -->
<g id="node7" class="node"><title>ILoan</title>
<polygon fill="none" stroke="black" points="922,-396 860,-396 860,-360 922,-360 922,-396"/>
<text text-anchor="middle" x="891" y="-374.2" font-family="Consolas" font-size="16.00" fill="grey">ILoan</text>
</g>
<!-- LoanBase&#45;&gt;ILoan -->
<g id="edge15" class="edge"><title>LoanBase&#45;&gt;ILoan</title>
<path fill="none" stroke="black" d="M930.899,-431.697C924.609,-423.389 916.953,-413.277 910.035,-404.141"/>
<polygon fill="black" stroke="black" points="912.777,-401.964 903.95,-396.104 907.196,-406.19 912.777,-401.964"/>
</g>
<!-- NamedTradeline -->
<g id="node21" class="node"><title>NamedTradeline</title>
<polygon fill="none" stroke="black" points="1121.5,-396 978.5,-396 978.5,-360 1121.5,-360 1121.5,-396"/>
<text text-anchor="middle" x="1050" y="-374.2" font-family="Consolas" font-size="16.00" fill="blue">NamedTradeline</text>
</g>
<!-- LoanBase&#45;&gt;NamedTradeline -->
<g id="edge7" class="edge"><title>LoanBase&#45;&gt;NamedTradeline</title>
<path fill="none" stroke="black" d="M969.931,-431.876C983.662,-422.808 1000.71,-411.552 1015.54,-401.759"/>
<polygon fill="black" stroke="black" points="1017.55,-404.621 1023.97,-396.19 1013.7,-398.78 1017.55,-404.621"/>
</g>
<!-- CreditCard -->
<g id="node2" class="node"><title>CreditCard</title>
<polygon fill="none" stroke="black" points="523.5,-396 416.5,-396 416.5,-360 523.5,-360 523.5,-396"/>
<text text-anchor="middle" x="470" y="-374.2" font-family="Consolas" font-size="16.00" fill="lightblue">CreditCard</text>
</g>
<!-- ICreditCard -->
<g id="node4" class="node"><title>ICreditCard</title>
<polygon fill="none" stroke="black" points="322,-324 206,-324 206,-288 322,-288 322,-324"/>
<text text-anchor="middle" x="264" y="-302.2" font-family="Consolas" font-size="16.00" fill="grey">ICreditCard</text>
</g>
<!-- CreditCard&#45;&gt;ICreditCard -->
<g id="edge39" class="edge"><title>CreditCard&#45;&gt;ICreditCard</title>
<path fill="none" stroke="black" d="M419.87,-359.966C390.962,-350.142 354.431,-337.729 324.002,-327.389"/>
<polygon fill="black" stroke="black" points="324.949,-324.014 314.355,-324.111 322.697,-330.642 324.949,-324.014"/>
</g>
<!-- CreditScore -->
<g id="node3" class="node"><title>CreditScore</title>
<polygon fill="none" stroke="black" points="153,-252 37,-252 37,-216 153,-216 153,-252"/>
<text text-anchor="middle" x="95" y="-230.2" font-family="Consolas" font-size="16.00" fill="lightblue">CreditScore</text>
</g>
<!-- Identifier -->
<g id="node15" class="node"><title>Identifier</title>
<polygon fill="none" stroke="black" points="467.5,-180 360.5,-180 360.5,-144 467.5,-144 467.5,-180"/>
<text text-anchor="middle" x="414" y="-158.2" font-family="Consolas" font-size="16.00" fill="lightblue">Identifier</text>
</g>
<!-- CreditScore&#45;&gt;Identifier -->
<g id="edge32" class="edge"><title>CreditScore&#45;&gt;Identifier</title>
<path fill="none" stroke="black" d="M153.061,-218.075C156.081,-217.359 159.074,-216.663 162,-216 241.565,-197.962 262.288,-197.376 342,-180 344.673,-179.417 347.399,-178.814 350.151,-178.198"/>
<polygon fill="black" stroke="black" points="351.206,-181.547 360.183,-175.921 349.656,-174.721 351.206,-181.547"/>
</g>
<!-- CreditCardNumber -->
<g id="node34" class="node"><title>CreditCardNumber</title>
<polygon fill="none" stroke="black" points="332.5,-252 171.5,-252 171.5,-216 332.5,-216 332.5,-252"/>
<text text-anchor="middle" x="252" y="-230.2" font-family="Consolas" font-size="16.00" fill="blue">CreditCardNumber</text>
</g>
<!-- ICreditCard&#45;&gt;CreditCardNumber -->
<g id="edge40" class="edge"><title>ICreditCard&#45;&gt;CreditCardNumber</title>
<path fill="none" stroke="black" stroke-dasharray="1,5" d="M261.034,-287.697C259.711,-279.983 258.122,-270.712 256.648,-262.112"/>
<polygon fill="black" stroke="black" points="260.072,-261.369 254.932,-252.104 253.172,-262.552 260.072,-261.369"/>
<text text-anchor="middle" x="249.534" y="-281.297" font-family="Consolas" font-size="8.00">HAS&#45;A</text>
</g>
<!-- IAccount -->
<g id="node5" class="node"><title>IAccount</title>
<polygon fill="none" stroke="black" points="816.5,-252 727.5,-252 727.5,-216 816.5,-216 816.5,-252"/>
<text text-anchor="middle" x="772" y="-230.2" font-family="Consolas" font-size="16.00" fill="grey">IAccount</text>
</g>
<!-- IBalance -->
<g id="node6" class="node"><title>IBalance</title>
<polygon fill="none" stroke="black" points="801.5,-180 712.5,-180 712.5,-144 801.5,-144 801.5,-180"/>
<text text-anchor="middle" x="757" y="-158.2" font-family="Consolas" font-size="16.00" fill="grey">IBalance</text>
</g>
<!-- IAccount&#45;&gt;IBalance -->
<g id="edge20" class="edge"><title>IAccount&#45;&gt;IBalance</title>
<path fill="none" stroke="black" stroke-dasharray="1,5" d="M768.292,-215.697C766.639,-207.983 764.653,-198.712 762.81,-190.112"/>
<polygon fill="black" stroke="black" points="766.183,-189.149 760.665,-180.104 759.338,-190.616 766.183,-189.149"/>
<text text-anchor="middle" x="756.792" y="-209.297" font-family="Consolas" font-size="8.00">HAS&#45;A</text>
</g>
<!-- IValoresTempus -->
<g id="node12" class="node"><title>IValoresTempus</title>
<polygon fill="none" stroke="black" points="962.5,-180 819.5,-180 819.5,-144 962.5,-144 962.5,-180"/>
<text text-anchor="middle" x="891" y="-158.2" font-family="Consolas" font-size="16.00" fill="grey">IValoresTempus</text>
</g>
<!-- IAccount&#45;&gt;IValoresTempus -->
<g id="edge18" class="edge"><title>IAccount&#45;&gt;IValoresTempus</title>
<path fill="none" stroke="black" d="M801.111,-215.876C816.67,-206.724 836.019,-195.342 852.776,-185.485"/>
<polygon fill="black" stroke="black" points="854.933,-188.277 861.777,-180.19 851.383,-182.243 854.933,-188.277"/>
</g>
<!-- IAccount&#45;&gt;Identifier -->
<g id="edge19" class="edge"><title>IAccount&#45;&gt;Identifier</title>
<path fill="none" stroke="black" stroke-dasharray="1,5" d="M727.339,-218.439C724.192,-217.568 721.056,-216.744 718,-216 635.901,-196.013 539.574,-180.537 477.713,-171.599"/>
<polygon fill="black" stroke="black" points="478.105,-168.12 467.71,-170.168 477.113,-175.049 478.105,-168.12"/>
<text text-anchor="middle" x="715.839" y="-212.039" font-family="Consolas" font-size="8.00">HAS&#45;A</text>
</g>
<!-- ITransactionable -->
<g id="node10" class="node"><title>ITransactionable</title>
<polygon fill="none" stroke="black" points="857.5,-108 696.5,-108 696.5,-72 857.5,-72 857.5,-108"/>
<text text-anchor="middle" x="777" y="-86.2" font-family="Consolas" font-size="16.00" fill="grey">ITransactionable</text>
</g>
<!-- IBalance&#45;&gt;ITransactionable -->
<g id="edge41" class="edge"><title>IBalance&#45;&gt;ITransactionable</title>
<path fill="none" stroke="black" d="M761.944,-143.697C764.172,-135.898 766.855,-126.509 769.335,-117.829"/>
<polygon fill="black" stroke="black" points="772.731,-118.681 772.113,-108.104 766,-116.758 772.731,-118.681"/>
</g>
<!-- ITradeLine -->
<g id="node8" class="node"><title>ITradeLine</title>
<polygon fill="none" stroke="black" points="1035.5,-252 928.5,-252 928.5,-216 1035.5,-216 1035.5,-252"/>
<text text-anchor="middle" x="982" y="-230.2" font-family="Consolas" font-size="16.00" fill="grey">ITradeLine</text>
</g>
<!-- ITradeLine&#45;&gt;IBalance -->
<g id="edge22" class="edge"><title>ITradeLine&#45;&gt;IBalance</title>
<path fill="none" stroke="black" stroke-dasharray="1,5" d="M928.492,-216.685C896.777,-206.975 855.556,-194.286 811.063,-180.32"/>
<polygon fill="black" stroke="black" points="812.111,-176.981 801.521,-177.321 810.012,-183.659 812.111,-176.981"/>
<text text-anchor="middle" x="916.992" y="-219.285" font-family="Consolas" font-size="8.00">HAS&#45;A</text>
</g>
<!-- ITradeLine&#45;&gt;ITransactionable -->
<g id="edge17" class="edge"><title>ITradeLine&#45;&gt;ITransactionable</title>
<path fill="none" stroke="black" d="M985.063,-215.69C987.507,-195.924 988.119,-163.775 971,-144 956.845,-127.649 910.961,-114.712 867.37,-105.714"/>
<polygon fill="black" stroke="black" points="868.027,-102.276 857.534,-103.74 866.65,-109.139 868.027,-102.276"/>
</g>
<!-- ITradeLine&#45;&gt;IValoresTempus -->
<g id="edge14" class="edge"><title>ITradeLine&#45;&gt;IValoresTempus</title>
<path fill="none" stroke="black" d="M959.506,-215.697C948.045,-206.881 933.942,-196.032 921.516,-186.474"/>
<polygon fill="black" stroke="black" points="923.296,-183.427 913.236,-180.104 919.028,-188.976 923.296,-183.427"/>
</g>
<!-- ITransaction -->
<g id="node9" class="node"><title>ITransaction</title>
<polygon fill="none" stroke="black" points="678.5,-108 553.5,-108 553.5,-72 678.5,-72 678.5,-108"/>
<text text-anchor="middle" x="616" y="-86.2" font-family="Consolas" font-size="16.00" fill="grey">ITransaction</text>
</g>
<!-- ITransactionId -->
<g id="node11" class="node"><title>ITransactionId</title>
<polygon fill="none" stroke="black" points="517.5,-36 374.5,-36 374.5,-0 517.5,-0 517.5,-36"/>
<text text-anchor="middle" x="446" y="-14.2" font-family="Consolas" font-size="16.00" fill="grey">ITransactionId</text>
</g>
<!-- ITransaction&#45;&gt;ITransactionId -->
<g id="edge47" class="edge"><title>ITransaction&#45;&gt;ITransactionId</title>
<path fill="none" stroke="black" d="M574.413,-71.8761C550.967,-62.2216 521.496,-50.0865 496.703,-39.8775"/>
<polygon fill="black" stroke="black" points="498.031,-36.6395 487.452,-36.0683 495.366,-43.1123 498.031,-36.6395"/>
</g>
<!-- TransactionId -->
<g id="node13" class="node"><title>TransactionId</title>
<polygon fill="none" stroke="black" points="338,-108 204,-108 204,-72 338,-72 338,-108"/>
<text text-anchor="middle" x="271" y="-86.2" font-family="Consolas" font-size="16.00" fill="lightblue">TransactionId</text>
</g>
<!-- TransactionId&#45;&gt;ITransactionId -->
<g id="edge48" class="edge"><title>TransactionId&#45;&gt;ITransactionId</title>
<path fill="none" stroke="black" d="M313.81,-71.8761C337.946,-62.2216 368.284,-50.0865 393.806,-39.8775"/>
<polygon fill="black" stroke="black" points="395.344,-43.032 403.329,-36.0683 392.745,-36.5326 395.344,-43.032"/>
</g>
<!-- DepositAccount -->
<g id="node14" class="node"><title>DepositAccount</title>
<polygon fill="none" stroke="black" points="1353.5,-540 1210.5,-540 1210.5,-504 1353.5,-504 1353.5,-540"/>
<text text-anchor="middle" x="1282" y="-518.2" font-family="Consolas" font-size="16.00" fill="lightblue">DepositAccount</text>
</g>
<!-- Account -->
<g id="node25" class="node"><title>Account</title>
<polygon fill="none" stroke="black" points="1088,-468 1008,-468 1008,-432 1088,-432 1088,-468"/>
<text text-anchor="middle" x="1048" y="-446.2" font-family="Consolas" font-size="16.00" fill="blue">Account</text>
</g>
<!-- DepositAccount&#45;&gt;Account -->
<g id="edge13" class="edge"><title>DepositAccount&#45;&gt;Account</title>
<path fill="none" stroke="black" d="M1219.23,-503.941C1185.69,-494.609 1143.5,-482.533 1097.84,-468.191"/>
<polygon fill="black" stroke="black" points="1098.64,-464.772 1088.05,-465.096 1096.53,-471.447 1098.64,-464.772"/>
</g>
<!-- Transactions -->
<g id="node16" class="node"><title>Transactions</title>
<polygon fill="none" stroke="black" points="694.5,-180 569.5,-180 569.5,-144 694.5,-144 694.5,-180"/>
<text text-anchor="middle" x="632" y="-158.2" font-family="Consolas" font-size="16.00" fill="lightblue">Transactions</text>
</g>
<!-- Transactions&#45;&gt;ITransaction -->
<g id="edge43" class="edge"><title>Transactions&#45;&gt;ITransaction</title>
<path fill="none" stroke="black" stroke-dasharray="1,5" d="M628.045,-143.697C626.398,-136.491 624.441,-127.928 622.588,-119.822"/>
<polygon fill="black" stroke="black" points="622.584,-119.803 617.347,-114.845 619.91,-108.104 625.146,-113.062 622.584,-119.803"/>
</g>
<!-- Transactions&#45;&gt;ITransactionable -->
<g id="edge44" class="edge"><title>Transactions&#45;&gt;ITransactionable</title>
<path fill="none" stroke="black" d="M667.471,-143.876C687.117,-134.392 711.722,-122.513 732.632,-112.419"/>
<polygon fill="black" stroke="black" points="734.16,-115.568 741.644,-108.068 731.117,-109.264 734.16,-115.568"/>
</g>
<!-- Mortgage -->
<g id="node17" class="node"><title>Mortgage</title>
<polygon fill="none" stroke="black" points="1133.5,-684 1044.5,-684 1044.5,-648 1133.5,-648 1133.5,-684"/>
<text text-anchor="middle" x="1089" y="-662.2" font-family="Consolas" font-size="16.00" fill="blue">Mortgage</text>
</g>
<!-- SecuredFixedRateLoan -->
<g id="node18" class="node"><title>SecuredFixedRateLoan</title>
<polygon fill="none" stroke="black" points="1187.5,-612 990.5,-612 990.5,-576 1187.5,-576 1187.5,-612"/>
<text text-anchor="middle" x="1089" y="-590.2" font-family="Consolas" font-size="16.00" fill="blue">SecuredFixedRateLoan</text>
</g>
<!-- Mortgage&#45;&gt;SecuredFixedRateLoan -->
<g id="edge1" class="edge"><title>Mortgage&#45;&gt;SecuredFixedRateLoan</title>
<path fill="none" stroke="black" d="M1089,-647.697C1089,-639.983 1089,-630.712 1089,-622.112"/>
<polygon fill="black" stroke="black" points="1092.5,-622.104 1089,-612.104 1085.5,-622.104 1092.5,-622.104"/>
</g>
<!-- FixedRateLoan -->
<g id="node19" class="node"><title>FixedRateLoan</title>
<polygon fill="none" stroke="black" points="1174,-540 1040,-540 1040,-504 1174,-504 1174,-540"/>
<text text-anchor="middle" x="1107" y="-518.2" font-family="Consolas" font-size="16.00" fill="blue">FixedRateLoan</text>
</g>
<!-- SecuredFixedRateLoan&#45;&gt;FixedRateLoan -->
<g id="edge2" class="edge"><title>SecuredFixedRateLoan&#45;&gt;FixedRateLoan</title>
<path fill="none" stroke="black" d="M1093.45,-575.697C1095.45,-567.898 1097.87,-558.509 1100.1,-549.829"/>
<polygon fill="black" stroke="black" points="1103.5,-550.661 1102.6,-540.104 1096.72,-548.918 1103.5,-550.661"/>
</g>
<!-- FixedRateLoan&#45;&gt;LoanBase -->
<g id="edge6" class="edge"><title>FixedRateLoan&#45;&gt;LoanBase</title>
<path fill="none" stroke="black" d="M1067.13,-503.876C1044.84,-494.307 1016.88,-482.3 993.244,-472.148"/>
<polygon fill="black" stroke="black" points="994.314,-468.798 983.745,-468.068 991.552,-475.23 994.314,-468.798"/>
</g>
<!-- CreditCardAccount -->
<g id="node20" class="node"><title>CreditCardAccount</title>
<polygon fill="none" stroke="black" points="917,-612 747,-612 747,-576 917,-576 917,-612"/>
<text text-anchor="middle" x="832" y="-590.2" font-family="Consolas" font-size="16.00" fill="blue">CreditCardAccount</text>
</g>
<!-- CreditCardAccount&#45;&gt;ICreditCard -->
<g id="edge5" class="edge"><title>CreditCardAccount&#45;&gt;ICreditCard</title>
<path fill="none" stroke="black" stroke-dasharray="1,5" d="M746.889,-585.438C608.521,-571.293 344.059,-535.928 283,-468 250.091,-431.389 253.281,-369.65 258.605,-334.21"/>
<polygon fill="black" stroke="black" points="262.096,-334.552 260.288,-324.113 255.191,-333.401 262.096,-334.552"/>
<text text-anchor="middle" x="735.389" y="-588.038" font-family="Consolas" font-size="8.00">HAS&#45;A</text>
</g>
<!-- CreditCardAccount&#45;&gt;IAccount -->
<g id="edge4" class="edge"><title>CreditCardAccount&#45;&gt;IAccount</title>
<path fill="none" stroke="black" d="M832,-575.951C832,-549.292 832,-496.115 832,-451 832,-451 832,-451 832,-377 832,-336.458 829.04,-324.787 812,-288 807.494,-278.272 800.983,-268.617 794.518,-260.267"/>
<polygon fill="black" stroke="black" points="797.158,-257.965 788.145,-252.396 791.718,-262.371 797.158,-257.965"/>
</g>
<!-- CreditCardAccount&#45;&gt;FixedRateLoan -->
<g id="edge3" class="edge"><title>CreditCardAccount&#45;&gt;FixedRateLoan</title>
<path fill="none" stroke="black" d="M898.921,-575.966C938.514,-565.887 988.819,-553.082 1030.05,-542.588"/>
<polygon fill="black" stroke="black" points="1030.95,-545.97 1039.78,-540.111 1029.22,-539.186 1030.95,-545.97"/>
</g>
<!-- TradeLine -->
<g id="node26" class="node"><title>TradeLine</title>
<polygon fill="none" stroke="black" points="1087,-324 989,-324 989,-288 1087,-288 1087,-324"/>
<text text-anchor="middle" x="1038" y="-302.2" font-family="Consolas" font-size="16.00" fill="blue">TradeLine</text>
</g>
<!-- NamedTradeline&#45;&gt;TradeLine -->
<g id="edge21" class="edge"><title>NamedTradeline&#45;&gt;TradeLine</title>
<path fill="none" stroke="black" d="M1047.03,-359.697C1045.71,-351.983 1044.12,-342.712 1042.65,-334.112"/>
<polygon fill="black" stroke="black" points="1046.07,-333.369 1040.93,-324.104 1039.17,-334.552 1046.07,-333.369"/>
</g>
<!-- Rent -->
<g id="node22" class="node"><title>Rent</title>
<polygon fill="none" stroke="black" points="1160,-468 1106,-468 1106,-432 1160,-432 1160,-468"/>
<text text-anchor="middle" x="1133" y="-446.2" font-family="Consolas" font-size="16.00" fill="blue">Rent</text>
</g>
<!-- Rent&#45;&gt;NamedTradeline -->
<g id="edge8" class="edge"><title>Rent&#45;&gt;NamedTradeline</title>
<path fill="none" stroke="black" d="M1112.48,-431.697C1102.13,-422.965 1089.41,-412.24 1078.16,-402.75"/>
<polygon fill="black" stroke="black" points="1080.18,-399.876 1070.28,-396.104 1075.67,-405.227 1080.18,-399.876"/>
</g>
<!-- CheckingAccount -->
<g id="node23" class="node"><title>CheckingAccount</title>
<polygon fill="none" stroke="black" points="1358,-612 1206,-612 1206,-576 1358,-576 1358,-612"/>
<text text-anchor="middle" x="1282" y="-590.2" font-family="Consolas" font-size="16.00" fill="blue">CheckingAccount</text>
</g>
<!-- CheckingAccount&#45;&gt;DepositAccount -->
<g id="edge9" class="edge"><title>CheckingAccount&#45;&gt;DepositAccount</title>
<path fill="none" stroke="black" d="M1282,-575.697C1282,-567.983 1282,-558.712 1282,-550.112"/>
<polygon fill="black" stroke="black" points="1285.5,-550.104 1282,-540.104 1278.5,-550.104 1285.5,-550.104"/>
</g>
<!-- SavingsAccount -->
<g id="node24" class="node"><title>SavingsAccount</title>
<polygon fill="none" stroke="black" points="1519.5,-612 1376.5,-612 1376.5,-576 1519.5,-576 1519.5,-612"/>
<text text-anchor="middle" x="1448" y="-590.2" font-family="Consolas" font-size="16.00" fill="blue">SavingsAccount</text>
</g>
<!-- SavingsAccount&#45;&gt;DepositAccount -->
<g id="edge10" class="edge"><title>SavingsAccount&#45;&gt;DepositAccount</title>
<path fill="none" stroke="black" d="M1407.39,-575.876C1384.6,-566.264 1355.97,-554.193 1331.83,-544.013"/>
<polygon fill="black" stroke="black" points="1333.05,-540.729 1322.48,-540.068 1330.33,-547.179 1333.05,-540.729"/>
</g>
<!-- Account&#45;&gt;IAccount -->
<g id="edge12" class="edge"><title>Account&#45;&gt;IAccount</title>
<path fill="none" stroke="black" d="M1020.15,-431.935C1004.64,-422.041 985.251,-408.998 969,-396 950.832,-381.469 948.327,-375.524 931,-360 894.126,-326.962 885.046,-318.439 846,-288 833.039,-277.896 818.395,-267.254 805.576,-258.179"/>
<polygon fill="black" stroke="black" points="807.229,-255.063 797.036,-252.173 803.202,-260.789 807.229,-255.063"/>
</g>
<!-- Account&#45;&gt;NamedTradeline -->
<g id="edge11" class="edge"><title>Account&#45;&gt;NamedTradeline</title>
<path fill="none" stroke="black" d="M1048.49,-431.697C1048.71,-423.983 1048.98,-414.712 1049.23,-406.112"/>
<polygon fill="black" stroke="black" points="1052.72,-406.2 1049.51,-396.104 1045.73,-406 1052.72,-406.2"/>
</g>
<!-- TradeLine&#45;&gt;ITradeLine -->
<g id="edge16" class="edge"><title>TradeLine&#45;&gt;ITradeLine</title>
<path fill="none" stroke="black" d="M1024.16,-287.697C1017.51,-279.389 1009.42,-269.277 1002.11,-260.141"/>
<polygon fill="black" stroke="black" points="1004.66,-257.727 995.683,-252.104 999.197,-262.099 1004.66,-257.727"/>
</g>
<!-- Balance -->
<g id="node27" class="node"><title>Balance</title>
<polygon fill="none" stroke="black" points="709,-252 629,-252 629,-216 709,-216 709,-252"/>
<text text-anchor="middle" x="669" y="-230.2" font-family="Consolas" font-size="16.00" fill="blue">Balance</text>
</g>
<!-- Balance&#45;&gt;IBalance -->
<g id="edge23" class="edge"><title>Balance&#45;&gt;IBalance</title>
<path fill="none" stroke="black" d="M690.753,-215.697C701.836,-206.881 715.474,-196.032 727.49,-186.474"/>
<polygon fill="black" stroke="black" points="729.85,-189.069 735.497,-180.104 725.493,-183.59 729.85,-189.069"/>
</g>
<!-- Balance&#45;&gt;Transactions -->
<g id="edge24" class="edge"><title>Balance&#45;&gt;Transactions</title>
<path fill="none" stroke="black" d="M659.854,-215.697C655.597,-207.644 650.444,-197.894 645.734,-188.982"/>
<polygon fill="black" stroke="black" points="648.808,-187.31 641.041,-180.104 642.62,-190.581 648.808,-187.31"/>
</g>
<!-- VariableRateLoan -->
<g id="node28" class="node"><title>VariableRateLoan</title>
<polygon fill="none" stroke="black" points="1021.5,-540 860.5,-540 860.5,-504 1021.5,-504 1021.5,-540"/>
<text text-anchor="middle" x="941" y="-518.2" font-family="Consolas" font-size="16.00" fill="blue">VariableRateLoan</text>
</g>
<!-- VariableRateLoan&#45;&gt;LoanBase -->
<g id="edge25" class="edge"><title>VariableRateLoan&#45;&gt;LoanBase</title>
<path fill="none" stroke="black" d="M941.742,-503.697C942.072,-495.983 942.469,-486.712 942.838,-478.112"/>
<polygon fill="black" stroke="black" points="946.335,-478.245 943.267,-468.104 939.342,-477.945 946.335,-478.245"/>
</g>
<!-- Security -->
<g id="node29" class="node"><title>Security</title>
<polygon fill="none" stroke="black" points="630.5,-396 541.5,-396 541.5,-360 630.5,-360 630.5,-396"/>
<text text-anchor="middle" x="586" y="-374.2" font-family="Consolas" font-size="16.00" fill="blue">Security</text>
</g>
<!-- Security&#45;&gt;IValoresTempus -->
<g id="edge26" class="edge"><title>Security&#45;&gt;IValoresTempus</title>
<path fill="none" stroke="black" d="M630.753,-377.406C680.177,-375.587 759.667,-365.674 812,-324 855.006,-289.754 876.269,-226.157 885.324,-189.989"/>
<polygon fill="black" stroke="black" points="888.759,-190.673 887.658,-180.135 881.947,-189.059 888.759,-190.673"/>
</g>
<!-- Pecuniam -->
<g id="node30" class="node"><title>Pecuniam</title>
<polygon fill="none" stroke="black" points="535.5,-324 446.5,-324 446.5,-288 535.5,-288 535.5,-324"/>
<text text-anchor="middle" x="491" y="-302.2" font-family="Consolas" font-size="16.00" fill="blue">Pecuniam</text>
</g>
<!-- Security&#45;&gt;Pecuniam -->
<g id="edge27" class="edge"><title>Security&#45;&gt;Pecuniam</title>
<path fill="none" stroke="black" d="M562.517,-359.697C550.437,-350.796 535.546,-339.823 522.484,-330.199"/>
<polygon fill="black" stroke="black" points="524.34,-327.219 514.213,-324.104 520.187,-332.854 524.34,-327.219"/>
</g>
<!-- Cusip -->
<g id="node31" class="node"><title>Cusip</title>
<polygon fill="none" stroke="black" points="616,-324 554,-324 554,-288 616,-288 616,-324"/>
<text text-anchor="middle" x="585" y="-302.2" font-family="Consolas" font-size="16.00" fill="blue">Cusip</text>
</g>
<!-- Security&#45;&gt;Cusip -->
<g id="edge28" class="edge"><title>Security&#45;&gt;Cusip</title>
<path fill="none" stroke="black" stroke-dasharray="1,5" d="M585.753,-359.697C585.643,-351.983 585.51,-342.712 585.387,-334.112"/>
<polygon fill="black" stroke="black" points="588.887,-334.053 585.244,-324.104 581.888,-334.153 588.887,-334.053"/>
<text text-anchor="middle" x="580.753" y="-353.297" font-family="Consolas" font-size="8.00">Id</text>
</g>
<!-- Currency -->
<g id="node32" class="node"><title>Currency</title>
<polygon fill="none" stroke="black" points="556.5,-252 467.5,-252 467.5,-216 556.5,-216 556.5,-252"/>
<text text-anchor="middle" x="512" y="-230.2" font-family="Consolas" font-size="16.00" fill="blue">Currency</text>
</g>
<!-- Pecuniam&#45;&gt;Currency -->
<g id="edge30" class="edge"><title>Pecuniam&#45;&gt;Currency</title>
<path fill="none" stroke="black" stroke-dasharray="1,5" d="M496.191,-287.697C498.531,-279.898 501.347,-270.509 503.951,-261.829"/>
<polygon fill="black" stroke="black" points="507.348,-262.688 506.869,-252.104 500.643,-260.677 507.348,-262.688"/>
<text text-anchor="middle" x="491.191" y="-281.297" font-family="Consolas" font-size="8.00">Id</text>
</g>
<!-- Cusip&#45;&gt;Identifier -->
<g id="edge29" class="edge"><title>Cusip&#45;&gt;Identifier</title>
<path fill="none" stroke="black" d="M585.804,-287.726C585.772,-267.994 582.686,-235.877 565,-216 542.849,-191.105 508.308,-177.903 477.849,-170.903"/>
<polygon fill="black" stroke="black" points="478.208,-167.401 467.7,-168.758 476.761,-174.25 478.208,-167.401"/>
</g>
<!-- Currency&#45;&gt;Identifier -->
<g id="edge31" class="edge"><title>Currency&#45;&gt;Identifier</title>
<path fill="none" stroke="black" d="M488.027,-215.876C475.45,-206.893 459.868,-195.763 446.248,-186.034"/>
<polygon fill="black" stroke="black" points="448.237,-183.154 438.066,-180.19 444.169,-188.85 448.237,-183.154"/>
</g>
<!-- PersonalCreditScore -->
<g id="node33" class="node"><title>PersonalCreditScore</title>
<polygon fill="none" stroke="black" points="188,-324 -1.42109e-014,-324 -1.42109e-014,-288 188,-288 188,-324"/>
<text text-anchor="middle" x="94" y="-302.2" font-family="Consolas" font-size="16.00" fill="blue">PersonalCreditScore</text>
</g>
<!-- PersonalCreditScore&#45;&gt;CreditScore -->
<g id="edge33" class="edge"><title>PersonalCreditScore&#45;&gt;CreditScore</title>
<path fill="none" stroke="black" d="M94.2472,-287.697C94.3574,-279.983 94.4898,-270.712 94.6127,-262.112"/>
<polygon fill="black" stroke="black" points="98.1124,-262.153 94.7557,-252.104 91.1131,-262.053 98.1124,-262.153"/>
</g>
<!-- CreditCardNumber&#45;&gt;Identifier -->
<g id="edge34" class="edge"><title>CreditCardNumber&#45;&gt;Identifier</title>
<path fill="none" stroke="black" d="M291.63,-215.876C313.776,-206.307 341.563,-194.3 365.058,-184.148"/>
<polygon fill="black" stroke="black" points="366.708,-187.248 374.499,-180.068 363.931,-180.822 366.708,-187.248"/>
</g>
<!-- VisaCc -->
<g id="node35" class="node"><title>VisaCc</title>
<polygon fill="none" stroke="black" points="720.5,-468 649.5,-468 649.5,-432 720.5,-432 720.5,-468"/>
<text text-anchor="middle" x="685" y="-446.2" font-family="Consolas" font-size="16.00" fill="blue">VisaCc</text>
</g>
<!-- VisaCc&#45;&gt;CreditCard -->
<g id="edge35" class="edge"><title>VisaCc&#45;&gt;CreditCard</title>
<path fill="none" stroke="black" d="M649.208,-435.261C646.102,-434.135 643.001,-433.033 640,-432 605.034,-419.956 565.626,-407.596 533.562,-397.844"/>
<polygon fill="black" stroke="black" points="534.445,-394.454 523.86,-394.904 532.415,-401.154 534.445,-394.454"/>
</g>
<!-- MasterCardCc -->
<g id="node36" class="node"><title>MasterCardCc</title>
<polygon fill="none" stroke="black" points="417.5,-468 292.5,-468 292.5,-432 417.5,-432 417.5,-468"/>
<text text-anchor="middle" x="355" y="-446.2" font-family="Consolas" font-size="16.00" fill="blue">MasterCardCc</text>
</g>
<!-- MasterCardCc&#45;&gt;CreditCard -->
<g id="edge36" class="edge"><title>MasterCardCc&#45;&gt;CreditCard</title>
<path fill="none" stroke="black" d="M383.132,-431.876C398.168,-422.724 416.867,-411.342 433.06,-401.485"/>
<polygon fill="black" stroke="black" points="435.038,-404.379 441.76,-396.19 431.398,-398.4 435.038,-404.379"/>
</g>
<!-- AmexCc -->
<g id="node37" class="node"><title>AmexCc</title>
<polygon fill="none" stroke="black" points="506.5,-468 435.5,-468 435.5,-432 506.5,-432 506.5,-468"/>
<text text-anchor="middle" x="471" y="-446.2" font-family="Consolas" font-size="16.00" fill="blue">AmexCc</text>
</g>
<!-- AmexCc&#45;&gt;CreditCard -->
<g id="edge37" class="edge"><title>AmexCc&#45;&gt;CreditCard</title>
<path fill="none" stroke="black" d="M470.753,-431.697C470.643,-423.983 470.51,-414.712 470.387,-406.112"/>
<polygon fill="black" stroke="black" points="473.887,-406.053 470.244,-396.104 466.888,-406.153 473.887,-406.053"/>
</g>
<!-- DiscoverCc -->
<g id="node38" class="node"><title>DiscoverCc</title>
<polygon fill="none" stroke="black" points="631.5,-468 524.5,-468 524.5,-432 631.5,-432 631.5,-468"/>
<text text-anchor="middle" x="578" y="-446.2" font-family="Consolas" font-size="16.00" fill="blue">DiscoverCc</text>
</g>
<!-- DiscoverCc&#45;&gt;CreditCard -->
<g id="edge38" class="edge"><title>DiscoverCc&#45;&gt;CreditCard</title>
<path fill="none" stroke="black" d="M551.58,-431.876C537.59,-422.808 520.224,-411.552 505.114,-401.759"/>
<polygon fill="black" stroke="black" points="506.817,-398.692 496.521,-396.19 503.009,-404.566 506.817,-398.692"/>
</g>
<!-- AccountId -->
<g id="node39" class="node"><title>AccountId</title>
<polygon fill="none" stroke="black" points="449,-252 351,-252 351,-216 449,-216 449,-252"/>
<text text-anchor="middle" x="400" y="-230.2" font-family="Consolas" font-size="16.00" fill="blue">AccountId</text>
</g>
<!-- AccountId&#45;&gt;Identifier -->
<g id="edge42" class="edge"><title>AccountId&#45;&gt;Identifier</title>
<path fill="none" stroke="black" d="M403.461,-215.697C405.003,-207.983 406.858,-198.712 408.578,-190.112"/>
<polygon fill="black" stroke="black" points="412.05,-190.597 410.579,-180.104 405.186,-189.224 412.05,-190.597"/>
</g>
<!-- Transaction -->
<g id="node40" class="node"><title>Transaction</title>
<polygon fill="none" stroke="black" points="333,-180 217,-180 217,-144 333,-144 333,-180"/>
<text text-anchor="middle" x="275" y="-158.2" font-family="Consolas" font-size="16.00" fill="blue">Transaction</text>
</g>
<!-- Transaction&#45;&gt;ITransaction -->
<g id="edge45" class="edge"><title>Transaction&#45;&gt;ITransaction</title>
<path fill="none" stroke="black" d="M333.046,-147.792C339.103,-146.481 345.172,-145.195 351,-144 433.39,-127.107 456.943,-126.085 543.235,-108.106"/>
<polygon fill="black" stroke="black" points="544.144,-111.491 553.211,-106.01 542.705,-104.641 544.144,-111.491"/>
</g>
<!-- Transaction&#45;&gt;TransactionId -->
<g id="edge46" class="edge"><title>Transaction&#45;&gt;TransactionId</title>
<path fill="none" stroke="black" d="M274.011,-143.697C273.57,-135.983 273.041,-126.712 272.549,-118.112"/>
<polygon fill="black" stroke="black" points="276.042,-117.888 271.977,-108.104 269.054,-118.288 276.042,-117.888"/>
</g>
<!-- TraceTransactionId -->
<g id="node41" class="node"><title>TraceTransactionId</title>
<polygon fill="none" stroke="black" points="535.5,-108 356.5,-108 356.5,-72 535.5,-72 535.5,-108"/>
<text text-anchor="middle" x="446" y="-86.2" font-family="Consolas" font-size="16.00" fill="blue">TraceTransactionId</text>
</g>
<!-- TraceTransactionId&#45;&gt;ITransactionId -->
<g id="edge49" class="edge"><title>TraceTransactionId&#45;&gt;ITransactionId</title>
<path fill="none" stroke="black" d="M446,-71.6966C446,-63.9827 446,-54.7125 446,-46.1124"/>
<polygon fill="black" stroke="black" points="449.5,-46.1043 446,-36.1043 442.5,-46.1044 449.5,-46.1043"/>
</g>
<!-- Journal -->
<g id="node42" class="node"><title>Journal</title>
<polygon fill="none" stroke="black" points="714,-324 634,-324 634,-288 714,-288 714,-324"/>
<text text-anchor="middle" x="674" y="-302.2" font-family="Consolas" font-size="16.00" fill="blue">Journal</text>
</g>
<!-- Journal&#45;&gt;IAccount -->
<g id="edge51" class="edge"><title>Journal&#45;&gt;IAccount</title>
<path fill="none" stroke="black" d="M697.973,-287.876C710.55,-278.893 726.132,-267.763 739.752,-258.034"/>
<polygon fill="black" stroke="black" points="741.831,-260.85 747.934,-252.19 737.763,-255.154 741.831,-260.85"/>
</g>
<!-- Journal&#45;&gt;Balance -->
<g id="edge50" class="edge"><title>Journal&#45;&gt;Balance</title>
<path fill="none" stroke="black" d="M672.764,-287.697C672.213,-279.983 671.551,-270.712 670.937,-262.112"/>
<polygon fill="black" stroke="black" points="674.425,-261.83 670.222,-252.104 667.443,-262.328 674.425,-261.83"/>
</g>
<!-- Ledger -->
<g id="node43" class="node"><title>Ledger</title>
<polygon fill="none" stroke="black" points="803.5,-324 732.5,-324 732.5,-288 803.5,-288 803.5,-324"/>
<text text-anchor="middle" x="768" y="-302.2" font-family="Consolas" font-size="16.00" fill="blue">Ledger</text>
</g>
<!-- Ledger&#45;&gt;IAccount -->
<g id="edge52" class="edge"><title>Ledger&#45;&gt;IAccount</title>
<path fill="none" stroke="black" stroke-dasharray="1,5" d="M768.989,-287.697C769.396,-280.576 769.878,-272.129 770.337,-264.108"/>
<polygon fill="black" stroke="black" points="770.338,-264.085 766.687,-257.866 771.023,-252.104 774.674,-258.323 770.338,-264.085"/>
</g>
</g>
</svg>
