<?xml version="1.0" encoding="UTF-8" standalone="no"?>
<!DOCTYPE svg PUBLIC "-//W3C//DTD SVG 1.1//EN"
 "http://www.w3.org/Graphics/SVG/1.1/DTD/svg11.dtd">
<!-- Generated by graphviz version 2.38.0 (20140413.2041)
 -->
<!-- Title: noFutureRandDataSp Pages: 1 -->
<svg width="1214pt" height="933pt"
 viewBox="0.00 0.00 1213.50 933.00" xmlns="http://www.w3.org/2000/svg" xmlns:xlink="http://www.w3.org/1999/xlink">
<g id="graph0" class="graph" transform="scale(1 1) rotate(0) translate(4 929)">
<title>noFutureRandDataSp</title>
<polygon fill="white" stroke="none" points="-4,4 -4,-929 1209.5,-929 1209.5,4 -4,4"/>
<!-- StringId -->
<g id="node1" class="node"><title>StringId</title>
<polygon fill="none" stroke="black" points="475,-36 353,-36 353,-0 475,-0 475,-36"/>
<text text-anchor="middle" x="414" y="-14.3" font-family="Consolas" font-size="14.00">IIdentifier&lt;T&gt;</text>
</g>
<!-- Mortgage -->
<g id="node2" class="node"><title>Mortgage</title>
<polygon fill="none" stroke="black" points="974.5,-925 897.5,-925 897.5,-889 974.5,-889 974.5,-925"/>
<text text-anchor="middle" x="936" y="-903.3" font-family="Consolas" font-size="14.00">Mortgage</text>
</g>
<!-- SecuredFixedRateLoan -->
<g id="node3" class="node"><title>SecuredFixedRateLoan</title>
<polygon fill="none" stroke="black" points="1019.5,-852 852.5,-852 852.5,-816 1019.5,-816 1019.5,-852"/>
<text text-anchor="middle" x="936" y="-830.3" font-family="Consolas" font-size="14.00">SecuredFixedRateLoan</text>
</g>
<!-- Mortgage&#45;&gt;SecuredFixedRateLoan -->
<g id="edge1" class="edge"><title>Mortgage&#45;&gt;SecuredFixedRateLoan</title>
<path fill="none" stroke="black" d="M936,-888.813C936,-880.789 936,-871.047 936,-862.069"/>
<polygon fill="black" stroke="black" points="939.5,-862.029 936,-852.029 932.5,-862.029 939.5,-862.029"/>
</g>
<!-- FixedRateLoan -->
<g id="node4" class="node"><title>FixedRateLoan</title>
<polygon fill="none" stroke="black" points="993,-779 879,-779 879,-743 993,-743 993,-779"/>
<text text-anchor="middle" x="936" y="-757.3" font-family="Consolas" font-size="14.00">FixedRateLoan</text>
</g>
<!-- SecuredFixedRateLoan&#45;&gt;FixedRateLoan -->
<g id="edge2" class="edge"><title>SecuredFixedRateLoan&#45;&gt;FixedRateLoan</title>
<path fill="none" stroke="black" d="M936,-815.813C936,-807.789 936,-798.047 936,-789.069"/>
<polygon fill="black" stroke="black" points="939.5,-789.029 936,-779.029 932.5,-789.029 939.5,-789.029"/>
</g>
<!-- LoanBase -->
<g id="node7" class="node"><title>LoanBase</title>
<polygon fill="none" stroke="black" points="974.5,-706 897.5,-706 897.5,-670 974.5,-670 974.5,-706"/>
<text text-anchor="middle" x="936" y="-684.3" font-family="Consolas" font-size="14.00">LoanBase</text>
</g>
<!-- FixedRateLoan&#45;&gt;LoanBase -->
<g id="edge5" class="edge"><title>FixedRateLoan&#45;&gt;LoanBase</title>
<path fill="none" stroke="black" d="M936,-742.813C936,-734.789 936,-725.047 936,-716.069"/>
<polygon fill="black" stroke="black" points="939.5,-716.029 936,-706.029 932.5,-716.029 939.5,-716.029"/>
</g>
<!-- CreditCardAccount -->
<g id="node5" class="node"><title>CreditCardAccount</title>
<polygon fill="none" stroke="black" points="735,-852 591,-852 591,-816 735,-816 735,-852"/>
<text text-anchor="middle" x="663" y="-830.3" font-family="Consolas" font-size="14.00">CreditCardAccount</text>
</g>
<!-- CreditCardAccount&#45;&gt;FixedRateLoan -->
<g id="edge3" class="edge"><title>CreditCardAccount&#45;&gt;FixedRateLoan</title>
<path fill="none" stroke="black" d="M728.39,-815.994C770.83,-804.956 825.994,-790.61 868.79,-779.479"/>
<polygon fill="black" stroke="black" points="869.757,-782.844 878.554,-776.94 867.995,-776.07 869.757,-782.844"/>
</g>
<!-- IAccount -->
<g id="node6" class="node"><title>IAccount</title>
<polygon fill="none" stroke="black" points="756.5,-579 679.5,-579 679.5,-543 756.5,-543 756.5,-579"/>
<text text-anchor="middle" x="718" y="-557.3" font-family="Consolas" font-size="14.00">IAccount</text>
</g>
<!-- CreditCardAccount&#45;&gt;IAccount -->
<g id="edge4" class="edge"><title>CreditCardAccount&#45;&gt;IAccount</title>
<path fill="none" stroke="black" d="M608.61,-815.947C585.156,-804.891 563,-787.657 563,-762 563,-762 563,-762 563,-651 563,-601.236 623.828,-578.894 669.273,-569.147"/>
<polygon fill="black" stroke="black" points="670.167,-572.537 679.287,-567.145 668.795,-565.673 670.167,-572.537"/>
</g>
<!-- IAsset -->
<g id="node17" class="node"><title>IAsset</title>
<polygon fill="none" stroke="black" points="808,-371 746,-371 746,-335 808,-335 808,-371"/>
<text text-anchor="middle" x="777" y="-349.3" font-family="Consolas" font-size="14.00">IAsset</text>
</g>
<!-- IAccount&#45;&gt;IAsset -->
<g id="edge22" class="edge"><title>IAccount&#45;&gt;IAsset</title>
<path fill="none" stroke="black" d="M725.406,-542.709C727.671,-537.112 730.071,-530.842 732,-525 748.502,-475.023 763.084,-415.291 770.916,-381.285"/>
<polygon fill="black" stroke="black" points="774.406,-381.721 773.216,-371.193 767.581,-380.166 774.406,-381.721"/>
</g>
<!-- ITempore -->
<g id="node21" class="node"><title>ITempore</title>
<polygon fill="none" stroke="black" points="779.5,-290 702.5,-290 702.5,-254 779.5,-254 779.5,-290"/>
<text text-anchor="middle" x="741" y="-268.3" font-family="Consolas" font-size="14.00">ITempore</text>
</g>
<!-- IAccount&#45;&gt;ITempore -->
<g id="edge23" class="edge"><title>IAccount&#45;&gt;ITempore</title>
<path fill="none" stroke="black" d="M718,-542.938C718,-525.023 718,-496.031 718,-471 718,-471 718,-471 718,-352 718,-334.126 723.495,-314.852 729.113,-299.816"/>
<polygon fill="black" stroke="black" points="732.512,-300.739 732.956,-290.153 726.008,-298.152 732.512,-300.739"/>
</g>
<!-- NamedReceivable -->
<g id="node8" class="node"><title>NamedReceivable</title>
<polygon fill="none" stroke="black" points="1042.5,-633 913.5,-633 913.5,-597 1042.5,-597 1042.5,-633"/>
<text text-anchor="middle" x="978" y="-611.3" font-family="Consolas" font-size="14.00">NamedReceivable</text>
</g>
<!-- LoanBase&#45;&gt;NamedReceivable -->
<g id="edge6" class="edge"><title>LoanBase&#45;&gt;NamedReceivable</title>
<path fill="none" stroke="black" d="M946.167,-669.813C951.12,-661.441 957.179,-651.197 962.677,-641.903"/>
<polygon fill="black" stroke="black" points="965.848,-643.418 967.927,-633.029 959.823,-639.854 965.848,-643.418"/>
</g>
<!-- ILoan -->
<g id="node20" class="node"><title>ILoan</title>
<polygon fill="none" stroke="black" points="800,-633 746,-633 746,-597 800,-597 800,-633"/>
<text text-anchor="middle" x="773" y="-611.3" font-family="Consolas" font-size="14.00">ILoan</text>
</g>
<!-- LoanBase&#45;&gt;ILoan -->
<g id="edge17" class="edge"><title>LoanBase&#45;&gt;ILoan</title>
<path fill="none" stroke="black" d="M897.483,-671.084C874.289,-661.395 843.985,-648.556 809.436,-633.123"/>
<polygon fill="black" stroke="black" points="810.631,-629.823 800.074,-628.924 807.766,-636.21 810.631,-629.823"/>
</g>
<!-- Receivable -->
<g id="node13" class="node"><title>Receivable</title>
<polygon fill="none" stroke="black" points="1008,-525 916,-525 916,-489 1008,-489 1008,-525"/>
<text text-anchor="middle" x="962" y="-503.3" font-family="Consolas" font-size="14.00">Receivable</text>
</g>
<!-- NamedReceivable&#45;&gt;Receivable -->
<g id="edge24" class="edge"><title>NamedReceivable&#45;&gt;Receivable</title>
<path fill="none" stroke="black" d="M975.429,-596.969C972.925,-580.378 969.077,-554.883 966.14,-535.431"/>
<polygon fill="black" stroke="black" points="969.571,-534.706 964.617,-525.341 962.649,-535.751 969.571,-534.706"/>
</g>
<!-- IVoca -->
<g id="node19" class="node"><title>IVoca</title>
<polygon fill="none" stroke="black" points="889,-525 835,-525 835,-489 889,-489 889,-525"/>
<text text-anchor="middle" x="862" y="-503.3" font-family="Consolas" font-size="14.00">IVoca</text>
</g>
<!-- NamedReceivable&#45;&gt;IVoca -->
<g id="edge25" class="edge"><title>NamedReceivable&#45;&gt;IVoca</title>
<path fill="none" stroke="black" d="M959.363,-596.969C940.197,-579.456 910.175,-552.022 888.535,-532.247"/>
<polygon fill="black" stroke="black" points="890.72,-529.503 880.977,-525.341 885.998,-534.67 890.72,-529.503"/>
</g>
<!-- Rent -->
<g id="node9" class="node"><title>Rent</title>
<polygon fill="none" stroke="black" points="1047,-706 993,-706 993,-670 1047,-670 1047,-706"/>
<text text-anchor="middle" x="1020" y="-684.3" font-family="Consolas" font-size="14.00">Rent</text>
</g>
<!-- Rent&#45;&gt;NamedReceivable -->
<g id="edge7" class="edge"><title>Rent&#45;&gt;NamedReceivable</title>
<path fill="none" stroke="black" d="M1009.83,-669.813C1004.88,-661.441 998.821,-651.197 993.323,-641.903"/>
<polygon fill="black" stroke="black" points="996.177,-639.854 988.073,-633.029 990.152,-643.418 996.177,-639.854"/>
</g>
<!-- CheckingAccount -->
<g id="node10" class="node"><title>CheckingAccount</title>
<polygon fill="none" stroke="black" points="860.5,-779 731.5,-779 731.5,-743 860.5,-743 860.5,-779"/>
<text text-anchor="middle" x="796" y="-757.3" font-family="Consolas" font-size="14.00">CheckingAccount</text>
</g>
<!-- DepositAccount -->
<g id="node11" class="node"><title>DepositAccount</title>
<polygon fill="none" stroke="black" points="793,-706 671,-706 671,-670 793,-670 793,-706"/>
<text text-anchor="middle" x="732" y="-684.3" font-family="Consolas" font-size="14.00">DepositAccount</text>
</g>
<!-- CheckingAccount&#45;&gt;DepositAccount -->
<g id="edge8" class="edge"><title>CheckingAccount&#45;&gt;DepositAccount</title>
<path fill="none" stroke="black" d="M780.507,-742.813C772.568,-734.005 762.761,-723.125 754.047,-713.458"/>
<polygon fill="black" stroke="black" points="756.645,-711.113 747.35,-706.029 751.446,-715.8 756.645,-711.113"/>
</g>
<!-- DepositAccount&#45;&gt;IAccount -->
<g id="edge11" class="edge"><title>DepositAccount&#45;&gt;IAccount</title>
<path fill="none" stroke="black" d="M730.083,-669.881C727.76,-649.146 723.819,-613.953 721.071,-589.422"/>
<polygon fill="black" stroke="black" points="724.53,-588.861 719.939,-579.313 717.574,-589.64 724.53,-588.861"/>
</g>
<!-- DepositAccount&#45;&gt;NamedReceivable -->
<g id="edge10" class="edge"><title>DepositAccount&#45;&gt;NamedReceivable</title>
<path fill="none" stroke="black" d="M790.923,-669.994C826.414,-659.75 871.781,-646.657 908.95,-635.929"/>
<polygon fill="black" stroke="black" points="910.068,-639.249 918.705,-633.114 908.127,-632.524 910.068,-639.249"/>
</g>
<!-- SavingsAccount -->
<g id="node12" class="node"><title>SavingsAccount</title>
<polygon fill="none" stroke="black" points="713,-779 591,-779 591,-743 713,-743 713,-779"/>
<text text-anchor="middle" x="652" y="-757.3" font-family="Consolas" font-size="14.00">SavingsAccount</text>
</g>
<!-- SavingsAccount&#45;&gt;DepositAccount -->
<g id="edge9" class="edge"><title>SavingsAccount&#45;&gt;DepositAccount</title>
<path fill="none" stroke="black" d="M671.366,-742.813C681.487,-733.83 694.036,-722.693 705.087,-712.886"/>
<polygon fill="black" stroke="black" points="707.657,-715.284 712.813,-706.029 703.01,-710.049 707.657,-715.284"/>
</g>
<!-- IReceivable -->
<g id="node14" class="node"><title>IReceivable</title>
<polygon fill="none" stroke="black" points="901.5,-452 802.5,-452 802.5,-416 901.5,-416 901.5,-452"/>
<text text-anchor="middle" x="852" y="-430.3" font-family="Consolas" font-size="14.00">IReceivable</text>
</g>
<!-- Receivable&#45;&gt;IReceivable -->
<g id="edge12" class="edge"><title>Receivable&#45;&gt;IReceivable</title>
<path fill="none" stroke="black" d="M935.652,-488.994C921.065,-479.579 902.748,-467.755 886.975,-457.575"/>
<polygon fill="black" stroke="black" points="888.814,-454.596 878.514,-452.114 885.018,-460.477 888.814,-454.596"/>
</g>
<!-- TradeLine -->
<g id="node15" class="node"><title>TradeLine</title>
<polygon fill="none" stroke="black" points="1004,-452 920,-452 920,-416 1004,-416 1004,-452"/>
<text text-anchor="middle" x="962" y="-430.3" font-family="Consolas" font-size="14.00">TradeLine</text>
</g>
<!-- Receivable&#45;&gt;TradeLine -->
<g id="edge13" class="edge"><title>Receivable&#45;&gt;TradeLine</title>
<path fill="none" stroke="black" d="M962,-488.813C962,-480.789 962,-471.047 962,-462.069"/>
<polygon fill="black" stroke="black" points="965.5,-462.029 962,-452.029 958.5,-462.029 965.5,-462.029"/>
</g>
<!-- ITradeLine -->
<g id="node16" class="node"><title>ITradeLine</title>
<polygon fill="none" stroke="black" points="956,-371 864,-371 864,-335 956,-335 956,-371"/>
<text text-anchor="middle" x="910" y="-349.3" font-family="Consolas" font-size="14.00">ITradeLine</text>
</g>
<!-- IReceivable&#45;&gt;ITradeLine -->
<g id="edge14" class="edge"><title>IReceivable&#45;&gt;ITradeLine</title>
<path fill="none" stroke="black" d="M864.585,-415.858C872.414,-405.195 882.622,-391.291 891.376,-379.367"/>
<polygon fill="black" stroke="black" points="894.343,-381.241 897.439,-371.108 888.7,-377.098 894.343,-381.241"/>
</g>
<!-- IReceivable&#45;&gt;IAsset -->
<g id="edge15" class="edge"><title>IReceivable&#45;&gt;IAsset</title>
<path fill="none" stroke="black" d="M835.726,-415.858C825.407,-404.988 811.889,-390.75 800.425,-378.674"/>
<polygon fill="black" stroke="black" points="802.666,-375.951 793.242,-371.108 797.589,-380.77 802.666,-375.951"/>
</g>
<!-- TradeLine&#45;&gt;ITradeLine -->
<g id="edge18" class="edge"><title>TradeLine&#45;&gt;ITradeLine</title>
<path fill="none" stroke="black" d="M950.717,-415.858C943.766,-405.299 934.724,-391.561 926.926,-379.715"/>
<polygon fill="black" stroke="black" points="929.683,-377.537 921.261,-371.108 923.836,-381.386 929.683,-377.537"/>
</g>
<!-- ITradeLine&#45;&gt;ITempore -->
<g id="edge19" class="edge"><title>ITradeLine&#45;&gt;ITempore</title>
<path fill="none" stroke="black" d="M873.33,-334.858C847.972,-323.005 814.047,-307.146 786.895,-294.454"/>
<polygon fill="black" stroke="black" points="788.14,-291.172 777.599,-290.108 785.176,-297.514 788.14,-291.172"/>
</g>
<!-- ITransactionable -->
<g id="node22" class="node"><title>ITransactionable</title>
<polygon fill="none" stroke="black" points="1160.5,-182 1023.5,-182 1023.5,-146 1160.5,-146 1160.5,-182"/>
<text text-anchor="middle" x="1092" y="-160.3" font-family="Consolas" font-size="14.00">ITransactionable</text>
</g>
<!-- ITradeLine&#45;&gt;ITransactionable -->
<g id="edge20" class="edge"><title>ITradeLine&#45;&gt;ITransactionable</title>
<path fill="none" stroke="black" d="M940.614,-334.814C959.253,-323.498 982.88,-307.563 1001,-290 1032.21,-259.751 1060.34,-217.764 1076.8,-190.986"/>
<polygon fill="black" stroke="black" points="1079.94,-192.56 1082.13,-182.193 1073.96,-188.935 1079.94,-192.56"/>
</g>
<!-- IObviate -->
<g id="node23" class="node"><title>IObviate</title>
<polygon fill="none" stroke="black" points="874.5,-290 797.5,-290 797.5,-254 874.5,-254 874.5,-290"/>
<text text-anchor="middle" x="836" y="-268.3" font-family="Consolas" font-size="14.00">IObviate</text>
</g>
<!-- ITradeLine&#45;&gt;IObviate -->
<g id="edge21" class="edge"><title>ITradeLine&#45;&gt;IObviate</title>
<path fill="none" stroke="black" d="M893.943,-334.858C883.761,-323.988 870.424,-309.75 859.113,-297.674"/>
<polygon fill="black" stroke="black" points="861.416,-295.014 852.026,-290.108 856.308,-299.799 861.416,-295.014"/>
</g>
<!-- IBalance -->
<g id="node24" class="node"><title>IBalance</title>
<polygon fill="none" stroke="black" points="1205.5,-290 1128.5,-290 1128.5,-254 1205.5,-254 1205.5,-290"/>
<text text-anchor="middle" x="1167" y="-268.3" font-family="Consolas" font-size="14.00">IBalance</text>
</g>
<!-- ITradeLine&#45;&gt;IBalance -->
<g id="edge26" class="edge"><title>ITradeLine&#45;&gt;IBalance</title>
<path fill="none" stroke="black" stroke-dasharray="1,5" d="M956.035,-339.389C979.435,-332.882 1008.29,-324.71 1034,-317 1069.15,-306.46 1079.86,-303.109 1118.43,-290.152"/>
<polygon fill="black" stroke="black" points="1119.9,-293.348 1128.27,-286.841 1117.67,-286.713 1119.9,-293.348"/>
<text text-anchor="middle" x="1074.5" y="-310.6" font-family="Consolas" font-size="8.00">HAS&#45;A</text>
</g>
<!-- VocaBase -->
<g id="node18" class="node"><title>VocaBase</title>
<polygon fill="none" stroke="black" points="895.5,-633 818.5,-633 818.5,-597 895.5,-597 895.5,-633"/>
<text text-anchor="middle" x="857" y="-611.3" font-family="Consolas" font-size="14.00">VocaBase</text>
</g>
<!-- VocaBase&#45;&gt;IVoca -->
<g id="edge16" class="edge"><title>VocaBase&#45;&gt;IVoca</title>
<path fill="none" stroke="black" d="M857.803,-596.969C858.586,-580.378 859.789,-554.883 860.706,-535.431"/>
<polygon fill="black" stroke="black" points="864.207,-535.494 861.182,-525.341 857.215,-535.165 864.207,-535.494"/>
</g>
<!-- IBalance&#45;&gt;ITransactionable -->
<g id="edge49" class="edge"><title>IBalance&#45;&gt;ITransactionable</title>
<path fill="none" stroke="black" d="M1154.95,-253.969C1142.83,-236.84 1124,-210.221 1110.08,-190.559"/>
<polygon fill="black" stroke="black" points="1112.9,-188.482 1104.27,-182.341 1107.19,-192.525 1112.9,-188.482"/>
</g>
<!-- Balance -->
<g id="node25" class="node"><title>Balance</title>
<polygon fill="none" stroke="black" points="1178.5,-371 1109.5,-371 1109.5,-335 1178.5,-335 1178.5,-371"/>
<text text-anchor="middle" x="1144" y="-349.3" font-family="Consolas" font-size="14.00">Balance</text>
</g>
<!-- Balance&#45;&gt;IBalance -->
<g id="edge27" class="edge"><title>Balance&#45;&gt;IBalance</title>
<path fill="none" stroke="black" d="M1148.99,-334.858C1151.97,-324.609 1155.83,-311.366 1159.21,-299.765"/>
<polygon fill="black" stroke="black" points="1162.58,-300.688 1162.02,-290.108 1155.86,-298.731 1162.58,-300.688"/>
</g>
<!-- Ledger -->
<g id="node26" class="node"><title>Ledger</title>
<polygon fill="none" stroke="black" points="1110,-290 1048,-290 1048,-254 1110,-254 1110,-290"/>
<text text-anchor="middle" x="1079" y="-268.3" font-family="Consolas" font-size="14.00">Ledger</text>
</g>
<!-- Balance&#45;&gt;Ledger -->
<g id="edge28" class="edge"><title>Balance&#45;&gt;Ledger</title>
<path fill="none" stroke="black" d="M1129.9,-334.858C1121.04,-324.092 1109.46,-310.021 1099.59,-298.02"/>
<polygon fill="black" stroke="black" points="1102.13,-295.607 1093.08,-290.108 1096.73,-300.054 1102.13,-295.607"/>
</g>
<!-- ITransaction -->
<g id="node46" class="node"><title>ITransaction</title>
<polygon fill="none" stroke="black" points="1002.5,-182 895.5,-182 895.5,-146 1002.5,-146 1002.5,-182"/>
<text text-anchor="middle" x="949" y="-160.3" font-family="Consolas" font-size="14.00">ITransaction</text>
</g>
<!-- Ledger&#45;&gt;ITransaction -->
<g id="edge51" class="edge"><title>Ledger&#45;&gt;ITransaction</title>
<path fill="none" stroke="black" stroke-dasharray="1,5" d="M1058.11,-253.969C1036.92,-236.687 1003.87,-209.743 979.699,-190.032"/>
<polygon fill="black" stroke="black" points="979.567,-189.924 972.389,-189.232 970.267,-182.341 977.445,-183.032 979.567,-189.924"/>
</g>
<!-- VariableRateLoan -->
<g id="node27" class="node"><title>VariableRateLoan</title>
<polygon fill="none" stroke="black" points="1148.5,-779 1011.5,-779 1011.5,-743 1148.5,-743 1148.5,-779"/>
<text text-anchor="middle" x="1080" y="-757.3" font-family="Consolas" font-size="14.00">VariableRateLoan</text>
</g>
<!-- VariableRateLoan&#45;&gt;LoanBase -->
<g id="edge29" class="edge"><title>VariableRateLoan&#45;&gt;LoanBase</title>
<path fill="none" stroke="black" d="M1045.51,-742.994C1025.79,-733.273 1000.87,-720.987 979.789,-710.59"/>
<polygon fill="black" stroke="black" points="981.226,-707.397 970.709,-706.114 978.13,-713.675 981.226,-707.397"/>
</g>
<!-- Security -->
<g id="node28" class="node"><title>Security</title>
<polygon fill="none" stroke="black" points="509.5,-452 432.5,-452 432.5,-416 509.5,-416 509.5,-452"/>
<text text-anchor="middle" x="471" y="-430.3" font-family="Consolas" font-size="14.00">Security</text>
</g>
<!-- Security&#45;&gt;IAsset -->
<g id="edge30" class="edge"><title>Security&#45;&gt;IAsset</title>
<path fill="none" stroke="black" d="M509.755,-422.995C567.829,-408.002 676.922,-379.837 736.18,-364.539"/>
<polygon fill="black" stroke="black" points="737.136,-367.906 745.944,-362.018 735.387,-361.129 737.136,-367.906"/>
</g>
<!-- Pecuniam -->
<g id="node29" class="node"><title>Pecuniam</title>
<polygon fill="none" stroke="black" points="509.5,-371 432.5,-371 432.5,-335 509.5,-335 509.5,-371"/>
<text text-anchor="middle" x="471" y="-349.3" font-family="Consolas" font-size="14.00">Pecuniam</text>
</g>
<!-- Security&#45;&gt;Pecuniam -->
<g id="edge31" class="edge"><title>Security&#45;&gt;Pecuniam</title>
<path fill="none" stroke="black" d="M471,-415.858C471,-405.713 471,-392.634 471,-381.117"/>
<polygon fill="black" stroke="black" points="474.5,-381.108 471,-371.108 467.5,-381.108 474.5,-381.108"/>
</g>
<!-- Cusip -->
<g id="node30" class="node"><title>Cusip</title>
<polygon fill="none" stroke="black" points="401,-371 347,-371 347,-335 401,-335 401,-371"/>
<text text-anchor="middle" x="374" y="-349.3" font-family="Consolas" font-size="14.00">Cusip</text>
</g>
<!-- Security&#45;&gt;Cusip -->
<g id="edge32" class="edge"><title>Security&#45;&gt;Cusip</title>
<path fill="none" stroke="black" stroke-dasharray="1,5" d="M449.952,-415.858C436.225,-404.678 418.121,-389.934 403.032,-377.645"/>
<polygon fill="black" stroke="black" points="404.971,-374.71 395.006,-371.108 400.55,-380.137 404.971,-374.71"/>
<text text-anchor="middle" x="431" y="-391.6" font-family="Consolas" font-size="8.00">Id</text>
</g>
<!-- Currency -->
<g id="node34" class="node"><title>Currency</title>
<polygon fill="none" stroke="black" points="450.5,-236 373.5,-236 373.5,-200 450.5,-200 450.5,-236"/>
<text text-anchor="middle" x="412" y="-214.3" font-family="Consolas" font-size="14.00">Currency</text>
</g>
<!-- Pecuniam&#45;&gt;Currency -->
<g id="edge36" class="edge"><title>Pecuniam&#45;&gt;Currency</title>
<path fill="none" stroke="black" stroke-dasharray="1,5" d="M456.869,-334.829C447.708,-322.908 436.185,-306.298 429,-290 422.908,-276.181 418.804,-259.846 416.158,-246.33"/>
<polygon fill="black" stroke="black" points="419.55,-245.42 414.337,-236.196 412.661,-246.658 419.55,-245.42"/>
<text text-anchor="middle" x="449" y="-310.6" font-family="Consolas" font-size="8.00">Id</text>
</g>
<!-- INumera -->
<g id="node35" class="node"><title>INumera</title>
<polygon fill="none" stroke="black" points="684.5,-290 615.5,-290 615.5,-254 684.5,-254 684.5,-290"/>
<text text-anchor="middle" x="650" y="-268.3" font-family="Consolas" font-size="14.00">INumera</text>
</g>
<!-- Pecuniam&#45;&gt;INumera -->
<g id="edge38" class="edge"><title>Pecuniam&#45;&gt;INumera</title>
<path fill="none" stroke="black" d="M509.84,-334.858C538.232,-322.328 576.764,-305.322 606.242,-292.312"/>
<polygon fill="black" stroke="black" points="607.735,-295.479 615.47,-288.239 604.909,-289.075 607.735,-295.479"/>
</g>
<!-- RIdentifierWithChkDigit -->
<g id="node31" class="node"><title>RIdentifierWithChkDigit</title>
<polygon fill="none" stroke="black" points="279.5,-290 90.5,-290 90.5,-254 279.5,-254 279.5,-290"/>
<text text-anchor="middle" x="185" y="-268.3" font-family="Consolas" font-size="14.00">RIdentifierWithChkDigit</text>
</g>
<!-- Cusip&#45;&gt;RIdentifierWithChkDigit -->
<g id="edge33" class="edge"><title>Cusip&#45;&gt;RIdentifierWithChkDigit</title>
<path fill="none" stroke="black" d="M346.921,-340.681C317.875,-328.54 271.096,-308.987 235.27,-294.012"/>
<polygon fill="black" stroke="black" points="236.525,-290.743 225.948,-290.116 233.825,-297.202 236.525,-290.743"/>
</g>
<!-- RIdentifier -->
<g id="node32" class="node"><title>RIdentifier</title>
<polygon fill="none" stroke="black" points="385.5,-182 286.5,-182 286.5,-146 385.5,-146 385.5,-182"/>
<text text-anchor="middle" x="336" y="-160.3" font-family="Consolas" font-size="14.00">RIdentifier</text>
</g>
<!-- RIdentifierWithChkDigit&#45;&gt;RIdentifier -->
<g id="edge34" class="edge"><title>RIdentifierWithChkDigit&#45;&gt;RIdentifier</title>
<path fill="none" stroke="black" d="M209.261,-253.969C234.646,-236.149 274.664,-208.057 302.932,-188.214"/>
<polygon fill="black" stroke="black" points="305.124,-190.951 311.298,-182.341 301.102,-185.222 305.124,-190.951"/>
</g>
<!-- Identifier -->
<g id="node33" class="node"><title>Identifier</title>
<polygon fill="none" stroke="black" points="460,-109 368,-109 368,-73 460,-73 460,-109"/>
<text text-anchor="middle" x="414" y="-87.3" font-family="Consolas" font-size="14.00">Identifier</text>
</g>
<!-- RIdentifier&#45;&gt;Identifier -->
<g id="edge35" class="edge"><title>RIdentifier&#45;&gt;Identifier</title>
<path fill="none" stroke="black" d="M354.882,-145.813C364.75,-136.83 376.985,-125.693 387.759,-115.886"/>
<polygon fill="black" stroke="black" points="390.253,-118.349 395.292,-109.029 385.541,-113.172 390.253,-118.349"/>
</g>
<!-- Identifier&#45;&gt;StringId -->
<g id="edge48" class="edge"><title>Identifier&#45;&gt;StringId</title>
<path fill="none" stroke="black" d="M414,-72.8129C414,-64.7895 414,-55.0475 414,-46.0691"/>
<polygon fill="black" stroke="black" points="417.5,-46.0288 414,-36.0288 410.5,-46.0289 417.5,-46.0288"/>
</g>
<!-- Currency&#45;&gt;Identifier -->
<g id="edge37" class="edge"><title>Currency&#45;&gt;Identifier</title>
<path fill="none" stroke="black" d="M412.274,-199.881C412.606,-179.146 413.169,-143.953 413.561,-119.422"/>
<polygon fill="black" stroke="black" points="417.062,-119.368 413.723,-109.313 410.063,-119.256 417.062,-119.368"/>
</g>
<!-- CreditScore -->
<g id="node36" class="node"><title>CreditScore</title>
<polygon fill="none" stroke="black" points="556.5,-182 457.5,-182 457.5,-146 556.5,-146 556.5,-182"/>
<text text-anchor="middle" x="507" y="-160.3" font-family="Consolas" font-size="14.00">CreditScore</text>
</g>
<!-- CreditScore&#45;&gt;Identifier -->
<g id="edge39" class="edge"><title>CreditScore&#45;&gt;Identifier</title>
<path fill="none" stroke="black" d="M484.487,-145.813C472.493,-136.656 457.566,-125.26 444.54,-115.316"/>
<polygon fill="black" stroke="black" points="446.378,-112.315 436.305,-109.029 442.13,-117.879 446.378,-112.315"/>
</g>
<!-- PersonalCreditScore -->
<g id="node37" class="node"><title>PersonalCreditScore</title>
<polygon fill="none" stroke="black" points="597.5,-290 438.5,-290 438.5,-254 597.5,-254 597.5,-290"/>
<text text-anchor="middle" x="518" y="-268.3" font-family="Consolas" font-size="14.00">PersonalCreditScore</text>
</g>
<!-- PersonalCreditScore&#45;&gt;CreditScore -->
<g id="edge40" class="edge"><title>PersonalCreditScore&#45;&gt;CreditScore</title>
<path fill="none" stroke="black" d="M516.233,-253.969C514.511,-237.378 511.865,-211.883 509.847,-192.431"/>
<polygon fill="black" stroke="black" points="513.313,-191.926 508.799,-182.341 506.35,-192.648 513.313,-191.926"/>
</g>
<!-- CreditCardNumber -->
<g id="node38" class="node"><title>CreditCardNumber</title>
<polygon fill="none" stroke="black" points="253.5,-371 116.5,-371 116.5,-335 253.5,-335 253.5,-371"/>
<text text-anchor="middle" x="185" y="-349.3" font-family="Consolas" font-size="14.00">CreditCardNumber</text>
</g>
<!-- CreditCardNumber&#45;&gt;RIdentifierWithChkDigit -->
<g id="edge41" class="edge"><title>CreditCardNumber&#45;&gt;RIdentifierWithChkDigit</title>
<path fill="none" stroke="black" d="M185,-334.858C185,-324.713 185,-311.634 185,-300.117"/>
<polygon fill="black" stroke="black" points="188.5,-300.108 185,-290.108 181.5,-300.108 188.5,-300.108"/>
</g>
<!-- VisaCc -->
<g id="node39" class="node"><title>VisaCc</title>
<polygon fill="none" stroke="black" points="62,-633 0,-633 0,-597 62,-597 62,-633"/>
<text text-anchor="middle" x="31" y="-611.3" font-family="Consolas" font-size="14.00">VisaCc</text>
</g>
<!-- CreditCard -->
<g id="node40" class="node"><title>CreditCard</title>
<polygon fill="none" stroke="black" points="231,-525 139,-525 139,-489 231,-489 231,-525"/>
<text text-anchor="middle" x="185" y="-503.3" font-family="Consolas" font-size="14.00">CreditCard</text>
</g>
<!-- VisaCc&#45;&gt;CreditCard -->
<g id="edge42" class="edge"><title>VisaCc&#45;&gt;CreditCard</title>
<path fill="none" stroke="black" d="M55.7428,-596.969C81.7096,-579.096 122.689,-550.889 151.532,-531.037"/>
<polygon fill="black" stroke="black" points="153.81,-533.717 160.063,-525.164 149.842,-527.951 153.81,-533.717"/>
</g>
<!-- ICreditCard -->
<g id="node44" class="node"><title>ICreditCard</title>
<polygon fill="none" stroke="black" points="234.5,-452 135.5,-452 135.5,-416 234.5,-416 234.5,-452"/>
<text text-anchor="middle" x="185" y="-430.3" font-family="Consolas" font-size="14.00">ICreditCard</text>
</g>
<!-- CreditCard&#45;&gt;ICreditCard -->
<g id="edge46" class="edge"><title>CreditCard&#45;&gt;ICreditCard</title>
<path fill="none" stroke="black" d="M185,-488.813C185,-480.789 185,-471.047 185,-462.069"/>
<polygon fill="black" stroke="black" points="188.5,-462.029 185,-452.029 181.5,-462.029 188.5,-462.029"/>
</g>
<!-- MasterCardCc -->
<g id="node41" class="node"><title>MasterCardCc</title>
<polygon fill="none" stroke="black" points="187.5,-633 80.5,-633 80.5,-597 187.5,-597 187.5,-633"/>
<text text-anchor="middle" x="134" y="-611.3" font-family="Consolas" font-size="14.00">MasterCardCc</text>
</g>
<!-- MasterCardCc&#45;&gt;CreditCard -->
<g id="edge43" class="edge"><title>MasterCardCc&#45;&gt;CreditCard</title>
<path fill="none" stroke="black" d="M142.194,-596.969C150.324,-580.071 162.899,-553.935 172.319,-534.356"/>
<polygon fill="black" stroke="black" points="175.475,-535.869 176.657,-525.341 169.167,-532.834 175.475,-535.869"/>
</g>
<!-- AmexCc -->
<g id="node42" class="node"><title>AmexCc</title>
<polygon fill="none" stroke="black" points="268,-633 206,-633 206,-597 268,-597 268,-633"/>
<text text-anchor="middle" x="237" y="-611.3" font-family="Consolas" font-size="14.00">AmexCc</text>
</g>
<!-- AmexCc&#45;&gt;CreditCard -->
<g id="edge44" class="edge"><title>AmexCc&#45;&gt;CreditCard</title>
<path fill="none" stroke="black" d="M228.645,-596.969C220.355,-580.071 207.534,-553.935 197.929,-534.356"/>
<polygon fill="black" stroke="black" points="201.053,-532.777 193.507,-525.341 194.769,-535.86 201.053,-532.777"/>
</g>
<!-- DiscoverCc -->
<g id="node43" class="node"><title>DiscoverCc</title>
<polygon fill="none" stroke="black" points="378,-633 286,-633 286,-597 378,-597 378,-633"/>
<text text-anchor="middle" x="332" y="-611.3" font-family="Consolas" font-size="14.00">DiscoverCc</text>
</g>
<!-- DiscoverCc&#45;&gt;CreditCard -->
<g id="edge45" class="edge"><title>DiscoverCc&#45;&gt;CreditCard</title>
<path fill="none" stroke="black" d="M308.382,-596.969C283.669,-579.149 244.711,-551.057 217.192,-531.214"/>
<polygon fill="black" stroke="black" points="219.206,-528.351 209.048,-525.341 215.112,-534.028 219.206,-528.351"/>
</g>
<!-- ICreditCard&#45;&gt;CreditCardNumber -->
<g id="edge47" class="edge"><title>ICreditCard&#45;&gt;CreditCardNumber</title>
<path fill="none" stroke="black" stroke-dasharray="1,5" d="M185,-415.858C185,-405.713 185,-392.634 185,-381.117"/>
<polygon fill="black" stroke="black" points="188.5,-381.108 185,-371.108 181.5,-381.108 188.5,-381.108"/>
<text text-anchor="middle" x="196.5" y="-391.6" font-family="Consolas" font-size="8.00">HAS&#45;A</text>
</g>
<!-- AccountId -->
<g id="node45" class="node"><title>AccountId</title>
<polygon fill="none" stroke="black" points="382,-290 298,-290 298,-254 382,-254 382,-290"/>
<text text-anchor="middle" x="340" y="-268.3" font-family="Consolas" font-size="14.00">AccountId</text>
</g>
<!-- AccountId&#45;&gt;RIdentifier -->
<g id="edge50" class="edge"><title>AccountId&#45;&gt;RIdentifier</title>
<path fill="none" stroke="black" d="M339.357,-253.969C338.731,-237.378 337.769,-211.883 337.035,-192.431"/>
<polygon fill="black" stroke="black" points="340.529,-192.201 336.654,-182.341 333.534,-192.466 340.529,-192.201"/>
</g>
<!-- Transaction -->
<g id="node47" class="node"><title>Transaction</title>
<polygon fill="none" stroke="black" points="991.5,-290 892.5,-290 892.5,-254 991.5,-254 991.5,-290"/>
<text text-anchor="middle" x="942" y="-268.3" font-family="Consolas" font-size="14.00">Transaction</text>
</g>
<!-- Transaction&#45;&gt;ITransaction -->
<g id="edge52" class="edge"><title>Transaction&#45;&gt;ITransaction</title>
<path fill="none" stroke="black" d="M943.125,-253.969C944.22,-237.378 945.904,-211.883 947.189,-192.431"/>
<polygon fill="black" stroke="black" points="950.688,-192.55 947.855,-182.341 943.703,-192.088 950.688,-192.55"/>
</g>
</g>
</svg>
