<?xml version="1.0" encoding="UTF-8" standalone="no"?>
<!DOCTYPE svg PUBLIC "-//W3C//DTD SVG 1.1//EN"
 "http://www.w3.org/Graphics/SVG/1.1/DTD/svg11.dtd">
<!-- Generated by graphviz version 2.38.0 (20140413.2041)
 -->
<!-- Title: noFutureRandDataSp Pages: 1 -->
<svg width="1426pt" height="906pt"
 viewBox="0.00 0.00 1425.50 906.00" xmlns="http://www.w3.org/2000/svg" xmlns:xlink="http://www.w3.org/1999/xlink">
<g id="graph0" class="graph" transform="scale(1 1) rotate(0) translate(4 902)">
<title>noFutureRandDataSp</title>
<polygon fill="white" stroke="none" points="-4,4 -4,-902 1421.5,-902 1421.5,4 -4,4"/>
<!-- StringId -->
<g id="node1" class="node"><title>StringId</title>
<polygon fill="none" stroke="black" points="495.5,-36 373.5,-36 373.5,-0 495.5,-0 495.5,-36"/>
<text text-anchor="middle" x="434.5" y="-14.3" font-family="Consolas" font-size="14.00">IIdentifier&lt;T&gt;</text>
</g>
<!-- Mortgage -->
<g id="node2" class="node"><title>Mortgage</title>
<polygon fill="none" stroke="black" points="1223,-898 1146,-898 1146,-862 1223,-862 1223,-898"/>
<text text-anchor="middle" x="1184.5" y="-876.3" font-family="Consolas" font-size="14.00">Mortgage</text>
</g>
<!-- SecuredFixedRateLoan -->
<g id="node3" class="node"><title>SecuredFixedRateLoan</title>
<polygon fill="none" stroke="black" points="1268,-825 1101,-825 1101,-789 1268,-789 1268,-825"/>
<text text-anchor="middle" x="1184.5" y="-803.3" font-family="Consolas" font-size="14.00">SecuredFixedRateLoan</text>
</g>
<!-- Mortgage&#45;&gt;SecuredFixedRateLoan -->
<g id="edge1" class="edge"><title>Mortgage&#45;&gt;SecuredFixedRateLoan</title>
<path fill="none" stroke="black" d="M1184.5,-861.813C1184.5,-853.789 1184.5,-844.047 1184.5,-835.069"/>
<polygon fill="black" stroke="black" points="1188,-835.029 1184.5,-825.029 1181,-835.029 1188,-835.029"/>
</g>
<!-- FixedRateLoan -->
<g id="node4" class="node"><title>FixedRateLoan</title>
<polygon fill="none" stroke="black" points="1070.5,-752 956.5,-752 956.5,-716 1070.5,-716 1070.5,-752"/>
<text text-anchor="middle" x="1013.5" y="-730.3" font-family="Consolas" font-size="14.00">FixedRateLoan</text>
</g>
<!-- SecuredFixedRateLoan&#45;&gt;FixedRateLoan -->
<g id="edge2" class="edge"><title>SecuredFixedRateLoan&#45;&gt;FixedRateLoan</title>
<path fill="none" stroke="black" d="M1143.54,-788.994C1119.71,-779.099 1089.47,-766.545 1064.16,-756.033"/>
<polygon fill="black" stroke="black" points="1065.29,-752.716 1054.72,-752.114 1062.61,-759.181 1065.29,-752.716"/>
</g>
<!-- LoanBase -->
<g id="node7" class="node"><title>LoanBase</title>
<polygon fill="none" stroke="black" points="1052,-679 975,-679 975,-643 1052,-643 1052,-679"/>
<text text-anchor="middle" x="1013.5" y="-657.3" font-family="Consolas" font-size="14.00">LoanBase</text>
</g>
<!-- FixedRateLoan&#45;&gt;LoanBase -->
<g id="edge5" class="edge"><title>FixedRateLoan&#45;&gt;LoanBase</title>
<path fill="none" stroke="black" d="M1013.5,-715.813C1013.5,-707.789 1013.5,-698.047 1013.5,-689.069"/>
<polygon fill="black" stroke="black" points="1017,-689.029 1013.5,-679.029 1010,-689.029 1017,-689.029"/>
</g>
<!-- CreditCardAccount -->
<g id="node5" class="node"><title>CreditCardAccount</title>
<polygon fill="none" stroke="black" points="794.5,-825 650.5,-825 650.5,-789 794.5,-789 794.5,-825"/>
<text text-anchor="middle" x="722.5" y="-803.3" font-family="Consolas" font-size="14.00">CreditCardAccount</text>
</g>
<!-- CreditCardAccount&#45;&gt;FixedRateLoan -->
<g id="edge3" class="edge"><title>CreditCardAccount&#45;&gt;FixedRateLoan</title>
<path fill="none" stroke="black" d="M794.519,-789.036C836.294,-779.12 890.159,-766.208 946.48,-752.236"/>
<polygon fill="black" stroke="black" points="947.417,-755.61 956.277,-749.801 945.728,-748.816 947.417,-755.61"/>
</g>
<!-- IAccount -->
<g id="node6" class="node"><title>IAccount</title>
<polygon fill="none" stroke="black" points="832,-452 755,-452 755,-416 832,-416 832,-452"/>
<text text-anchor="middle" x="793.5" y="-430.3" font-family="Consolas" font-size="14.00">IAccount</text>
</g>
<!-- CreditCardAccount&#45;&gt;IAccount -->
<g id="edge4" class="edge"><title>CreditCardAccount&#45;&gt;IAccount</title>
<path fill="none" stroke="black" d="M735.542,-788.931C744.767,-775.148 755.5,-754.845 755.5,-735 755.5,-735 755.5,-735 755.5,-506 755.5,-489.529 763.548,-473.181 772.236,-460.331"/>
<polygon fill="black" stroke="black" points="775.217,-462.183 778.263,-452.036 769.554,-458.069 775.217,-462.183"/>
</g>
<!-- IAsset -->
<g id="node18" class="node"><title>IAsset</title>
<polygon fill="none" stroke="black" points="829.5,-371 767.5,-371 767.5,-335 829.5,-335 829.5,-371"/>
<text text-anchor="middle" x="798.5" y="-349.3" font-family="Consolas" font-size="14.00">IAsset</text>
</g>
<!-- IAccount&#45;&gt;IAsset -->
<g id="edge23" class="edge"><title>IAccount&#45;&gt;IAsset</title>
<path fill="none" stroke="black" d="M794.585,-415.858C795.227,-405.713 796.055,-392.634 796.784,-381.117"/>
<polygon fill="black" stroke="black" points="800.278,-381.31 797.417,-371.108 793.292,-380.867 800.278,-381.31"/>
</g>
<!-- ITempore -->
<g id="node22" class="node"><title>ITempore</title>
<polygon fill="none" stroke="black" points="798,-290 721,-290 721,-254 798,-254 798,-290"/>
<text text-anchor="middle" x="759.5" y="-268.3" font-family="Consolas" font-size="14.00">ITempore</text>
</g>
<!-- IAccount&#45;&gt;ITempore -->
<g id="edge25" class="edge"><title>IAccount&#45;&gt;ITempore</title>
<path fill="none" stroke="black" d="M780.632,-415.881C772.525,-403.983 762.804,-387.378 758.5,-371 752.379,-347.705 753.333,-320.207 755.409,-300.278"/>
<polygon fill="black" stroke="black" points="758.886,-300.68 756.603,-290.334 751.936,-299.845 758.886,-300.68"/>
</g>
<!-- IBalance -->
<g id="node25" class="node"><title>IBalance</title>
<polygon fill="none" stroke="black" points="1027,-290 950,-290 950,-254 1027,-254 1027,-290"/>
<text text-anchor="middle" x="988.5" y="-268.3" font-family="Consolas" font-size="14.00">IBalance</text>
</g>
<!-- IAccount&#45;&gt;IBalance -->
<g id="edge24" class="edge"><title>IAccount&#45;&gt;IBalance</title>
<path fill="none" stroke="black" stroke-dasharray="1,5" d="M832.027,-419.375C875.044,-403.884 939.811,-379.628 948.5,-371 967.886,-351.749 978.246,-321.806 983.526,-300.082"/>
<polygon fill="black" stroke="black" points="986.978,-300.681 985.726,-290.161 980.144,-299.165 986.978,-300.681"/>
<text text-anchor="middle" x="984" y="-351.1" font-family="Consolas" font-size="8.00">HAS&#45;A</text>
</g>
<!-- NamedReceivable -->
<g id="node8" class="node"><title>NamedReceivable</title>
<polygon fill="none" stroke="black" points="1145,-606 1016,-606 1016,-570 1145,-570 1145,-606"/>
<text text-anchor="middle" x="1080.5" y="-584.3" font-family="Consolas" font-size="14.00">NamedReceivable</text>
</g>
<!-- LoanBase&#45;&gt;NamedReceivable -->
<g id="edge6" class="edge"><title>LoanBase&#45;&gt;NamedReceivable</title>
<path fill="none" stroke="black" d="M1029.72,-642.813C1038.03,-634.005 1048.3,-623.125 1057.42,-613.458"/>
<polygon fill="black" stroke="black" points="1060.11,-615.704 1064.43,-606.029 1055.02,-610.9 1060.11,-615.704"/>
</g>
<!-- ILoan -->
<g id="node21" class="node"><title>ILoan</title>
<polygon fill="none" stroke="black" points="997.5,-606 943.5,-606 943.5,-570 997.5,-570 997.5,-606"/>
<text text-anchor="middle" x="970.5" y="-584.3" font-family="Consolas" font-size="14.00">ILoan</text>
</g>
<!-- LoanBase&#45;&gt;ILoan -->
<g id="edge18" class="edge"><title>LoanBase&#45;&gt;ILoan</title>
<path fill="none" stroke="black" d="M1003.09,-642.813C997.968,-634.353 991.687,-623.984 986.012,-614.612"/>
<polygon fill="black" stroke="black" points="988.987,-612.769 980.813,-606.029 983,-616.396 988.987,-612.769"/>
</g>
<!-- Receivable -->
<g id="node14" class="node"><title>Receivable</title>
<polygon fill="none" stroke="black" points="1023.5,-525 931.5,-525 931.5,-489 1023.5,-489 1023.5,-525"/>
<text text-anchor="middle" x="977.5" y="-503.3" font-family="Consolas" font-size="14.00">Receivable</text>
</g>
<!-- NamedReceivable&#45;&gt;Receivable -->
<g id="edge26" class="edge"><title>NamedReceivable&#45;&gt;Receivable</title>
<path fill="none" stroke="black" d="M1058.15,-569.858C1043.44,-558.574 1023.99,-543.66 1007.88,-531.304"/>
<polygon fill="black" stroke="black" points="1009.87,-528.417 999.806,-525.108 1005.61,-533.972 1009.87,-528.417"/>
</g>
<!-- VocaBase -->
<g id="node19" class="node"><title>VocaBase</title>
<polygon fill="none" stroke="black" points="1119,-525 1042,-525 1042,-489 1119,-489 1119,-525"/>
<text text-anchor="middle" x="1080.5" y="-503.3" font-family="Consolas" font-size="14.00">VocaBase</text>
</g>
<!-- NamedReceivable&#45;&gt;VocaBase -->
<g id="edge59" class="edge"><title>NamedReceivable&#45;&gt;VocaBase</title>
<path fill="none" stroke="black" stroke-dasharray="1,5" d="M1080.5,-569.858C1080.5,-559.713 1080.5,-546.634 1080.5,-535.117"/>
<polygon fill="black" stroke="black" points="1084,-535.108 1080.5,-525.108 1077,-535.108 1084,-535.108"/>
<text text-anchor="middle" x="1092" y="-545.6" font-family="Consolas" font-size="8.00">HAS&#45;A</text>
</g>
<!-- IVoca -->
<g id="node20" class="node"><title>IVoca</title>
<polygon fill="none" stroke="black" points="1157.5,-452 1103.5,-452 1103.5,-416 1157.5,-416 1157.5,-452"/>
<text text-anchor="middle" x="1130.5" y="-430.3" font-family="Consolas" font-size="14.00">IVoca</text>
</g>
<!-- NamedReceivable&#45;&gt;IVoca -->
<g id="edge27" class="edge"><title>NamedReceivable&#45;&gt;IVoca</title>
<path fill="none" stroke="black" d="M1098.29,-569.823C1108.94,-558.277 1121.54,-542.091 1127.5,-525 1134.56,-504.762 1134.91,-480.389 1133.73,-462.114"/>
<polygon fill="black" stroke="black" points="1137.21,-461.807 1132.89,-452.136 1130.24,-462.394 1137.21,-461.807"/>
</g>
<!-- Rent -->
<g id="node9" class="node"><title>Rent</title>
<polygon fill="none" stroke="black" points="1124.5,-679 1070.5,-679 1070.5,-643 1124.5,-643 1124.5,-679"/>
<text text-anchor="middle" x="1097.5" y="-657.3" font-family="Consolas" font-size="14.00">Rent</text>
</g>
<!-- Rent&#45;&gt;NamedReceivable -->
<g id="edge7" class="edge"><title>Rent&#45;&gt;NamedReceivable</title>
<path fill="none" stroke="black" d="M1093.38,-642.813C1091.44,-634.702 1089.08,-624.836 1086.91,-615.777"/>
<polygon fill="black" stroke="black" points="1090.31,-614.939 1084.58,-606.029 1083.5,-616.569 1090.31,-614.939"/>
</g>
<!-- CheckingAccount -->
<g id="node10" class="node"><title>CheckingAccount</title>
<polygon fill="none" stroke="black" points="942,-825 813,-825 813,-789 942,-789 942,-825"/>
<text text-anchor="middle" x="877.5" y="-803.3" font-family="Consolas" font-size="14.00">CheckingAccount</text>
</g>
<!-- DepositAccount -->
<g id="node11" class="node"><title>DepositAccount</title>
<polygon fill="none" stroke="black" points="938.5,-752 816.5,-752 816.5,-716 938.5,-716 938.5,-752"/>
<text text-anchor="middle" x="877.5" y="-730.3" font-family="Consolas" font-size="14.00">DepositAccount</text>
</g>
<!-- CheckingAccount&#45;&gt;DepositAccount -->
<g id="edge8" class="edge"><title>CheckingAccount&#45;&gt;DepositAccount</title>
<path fill="none" stroke="black" d="M877.5,-788.813C877.5,-780.789 877.5,-771.047 877.5,-762.069"/>
<polygon fill="black" stroke="black" points="881,-762.029 877.5,-752.029 874,-762.029 881,-762.029"/>
</g>
<!-- Account -->
<g id="node13" class="node"><title>Account</title>
<polygon fill="none" stroke="black" points="912,-679 843,-679 843,-643 912,-643 912,-679"/>
<text text-anchor="middle" x="877.5" y="-657.3" font-family="Consolas" font-size="14.00">Account</text>
</g>
<!-- DepositAccount&#45;&gt;Account -->
<g id="edge12" class="edge"><title>DepositAccount&#45;&gt;Account</title>
<path fill="none" stroke="black" d="M877.5,-715.813C877.5,-707.789 877.5,-698.047 877.5,-689.069"/>
<polygon fill="black" stroke="black" points="881,-689.029 877.5,-679.029 874,-689.029 881,-689.029"/>
</g>
<!-- SavingsAccount -->
<g id="node12" class="node"><title>SavingsAccount</title>
<polygon fill="none" stroke="black" points="1082.5,-825 960.5,-825 960.5,-789 1082.5,-789 1082.5,-825"/>
<text text-anchor="middle" x="1021.5" y="-803.3" font-family="Consolas" font-size="14.00">SavingsAccount</text>
</g>
<!-- SavingsAccount&#45;&gt;DepositAccount -->
<g id="edge9" class="edge"><title>SavingsAccount&#45;&gt;DepositAccount</title>
<path fill="none" stroke="black" d="M987.008,-788.994C967.294,-779.273 942.374,-766.987 921.289,-756.59"/>
<polygon fill="black" stroke="black" points="922.726,-753.397 912.209,-752.114 919.63,-759.675 922.726,-753.397"/>
</g>
<!-- Account&#45;&gt;IAccount -->
<g id="edge11" class="edge"><title>Account&#45;&gt;IAccount</title>
<path fill="none" stroke="black" d="M871.048,-642.718C856.445,-603.604 820.783,-508.081 803.379,-461.463"/>
<polygon fill="black" stroke="black" points="806.635,-460.177 799.859,-452.033 800.078,-462.625 806.635,-460.177"/>
</g>
<!-- Account&#45;&gt;NamedReceivable -->
<g id="edge10" class="edge"><title>Account&#45;&gt;NamedReceivable</title>
<path fill="none" stroke="black" d="M912.397,-647.795C942.446,-637.285 986.44,-621.898 1021.88,-609.501"/>
<polygon fill="black" stroke="black" points="1023.35,-612.696 1031.64,-606.09 1021.04,-606.088 1023.35,-612.696"/>
</g>
<!-- IReceivable -->
<g id="node15" class="node"><title>IReceivable</title>
<polygon fill="none" stroke="black" points="1052,-452 953,-452 953,-416 1052,-416 1052,-452"/>
<text text-anchor="middle" x="1002.5" y="-430.3" font-family="Consolas" font-size="14.00">IReceivable</text>
</g>
<!-- Receivable&#45;&gt;IReceivable -->
<g id="edge13" class="edge"><title>Receivable&#45;&gt;IReceivable</title>
<path fill="none" stroke="black" d="M983.552,-488.813C986.438,-480.615 989.957,-470.623 993.174,-461.485"/>
<polygon fill="black" stroke="black" points="996.484,-462.624 996.504,-452.029 989.881,-460.299 996.484,-462.624"/>
</g>
<!-- TradeLine -->
<g id="node16" class="node"><title>TradeLine</title>
<polygon fill="none" stroke="black" points="934.5,-452 850.5,-452 850.5,-416 934.5,-416 934.5,-452"/>
<text text-anchor="middle" x="892.5" y="-430.3" font-family="Consolas" font-size="14.00">TradeLine</text>
</g>
<!-- Receivable&#45;&gt;TradeLine -->
<g id="edge14" class="edge"><title>Receivable&#45;&gt;TradeLine</title>
<path fill="none" stroke="black" d="M956.924,-488.813C946.066,-479.743 932.578,-468.477 920.754,-458.6"/>
<polygon fill="black" stroke="black" points="922.805,-455.753 912.887,-452.029 918.318,-461.126 922.805,-455.753"/>
</g>
<!-- ITradeLine -->
<g id="node17" class="node"><title>ITradeLine</title>
<polygon fill="none" stroke="black" points="939.5,-371 847.5,-371 847.5,-335 939.5,-335 939.5,-371"/>
<text text-anchor="middle" x="893.5" y="-349.3" font-family="Consolas" font-size="14.00">ITradeLine</text>
</g>
<!-- IReceivable&#45;&gt;ITradeLine -->
<g id="edge15" class="edge"><title>IReceivable&#45;&gt;ITradeLine</title>
<path fill="none" stroke="black" d="M982.872,-415.632C973.092,-407.259 960.938,-397.265 949.5,-389 943.622,-384.753 937.231,-380.468 930.938,-376.423"/>
<polygon fill="black" stroke="black" points="932.8,-373.459 922.475,-371.082 929.064,-379.379 932.8,-373.459"/>
</g>
<!-- IReceivable&#45;&gt;IAsset -->
<g id="edge16" class="edge"><title>IReceivable&#45;&gt;IAsset</title>
<path fill="none" stroke="black" d="M956.004,-415.992C925.252,-404.614 883.851,-389.051 839.418,-371.303"/>
<polygon fill="black" stroke="black" points="840.477,-367.957 829.893,-367.484 837.872,-374.454 840.477,-367.957"/>
</g>
<!-- TradeLine&#45;&gt;ITradeLine -->
<g id="edge19" class="edge"><title>TradeLine&#45;&gt;ITradeLine</title>
<path fill="none" stroke="black" d="M892.717,-415.858C892.845,-405.713 893.011,-392.634 893.157,-381.117"/>
<polygon fill="black" stroke="black" points="896.656,-381.152 893.283,-371.108 889.657,-381.063 896.656,-381.152"/>
</g>
<!-- ITradeLine&#45;&gt;ITempore -->
<g id="edge20" class="edge"><title>ITradeLine&#45;&gt;ITempore</title>
<path fill="none" stroke="black" d="M847.793,-334.946C835.959,-329.812 823.468,-323.73 812.5,-317 803.076,-311.217 793.547,-303.873 785.217,-296.849"/>
<polygon fill="black" stroke="black" points="787.487,-294.185 777.64,-290.274 782.899,-299.471 787.487,-294.185"/>
</g>
<!-- ITransactionable -->
<g id="node23" class="node"><title>ITransactionable</title>
<polygon fill="none" stroke="black" points="942,-182 805,-182 805,-146 942,-146 942,-182"/>
<text text-anchor="middle" x="873.5" y="-160.3" font-family="Consolas" font-size="14.00">ITransactionable</text>
</g>
<!-- ITradeLine&#45;&gt;ITransactionable -->
<g id="edge21" class="edge"><title>ITradeLine&#45;&gt;ITransactionable</title>
<path fill="none" stroke="black" d="M875.207,-334.938C864.275,-323.438 851.401,-307.26 845.5,-290 834.145,-256.786 847.436,-217.012 859.298,-191.392"/>
<polygon fill="black" stroke="black" points="862.489,-192.833 863.72,-182.31 856.195,-189.769 862.489,-192.833"/>
</g>
<!-- IObviate -->
<g id="node24" class="node"><title>IObviate</title>
<polygon fill="none" stroke="black" points="932,-290 855,-290 855,-254 932,-254 932,-290"/>
<text text-anchor="middle" x="893.5" y="-268.3" font-family="Consolas" font-size="14.00">IObviate</text>
</g>
<!-- ITradeLine&#45;&gt;IObviate -->
<g id="edge22" class="edge"><title>ITradeLine&#45;&gt;IObviate</title>
<path fill="none" stroke="black" d="M893.5,-334.858C893.5,-324.713 893.5,-311.634 893.5,-300.117"/>
<polygon fill="black" stroke="black" points="897,-300.108 893.5,-290.108 890,-300.108 897,-300.108"/>
</g>
<!-- ITradeLine&#45;&gt;IBalance -->
<g id="edge28" class="edge"><title>ITradeLine&#45;&gt;IBalance</title>
<path fill="none" stroke="black" stroke-dasharray="1,5" d="M910.435,-334.678C918.899,-326.316 929.457,-316.318 939.5,-308 944.361,-303.974 949.655,-299.9 954.906,-296.025"/>
<polygon fill="black" stroke="black" points="957.002,-298.829 963.056,-290.135 952.901,-293.156 957.002,-298.829"/>
<text text-anchor="middle" x="951" y="-310.6" font-family="Consolas" font-size="8.00">HAS&#45;A</text>
</g>
<!-- VocaBase&#45;&gt;IVoca -->
<g id="edge17" class="edge"><title>VocaBase&#45;&gt;IVoca</title>
<path fill="none" stroke="black" d="M1092.6,-488.813C1098.62,-480.266 1106.01,-469.769 1112.67,-460.323"/>
<polygon fill="black" stroke="black" points="1115.61,-462.22 1118.51,-452.029 1109.89,-458.19 1115.61,-462.22"/>
</g>
<!-- IBalance&#45;&gt;ITransactionable -->
<g id="edge51" class="edge"><title>IBalance&#45;&gt;ITransactionable</title>
<path fill="none" stroke="black" d="M970.023,-253.969C951.023,-236.456 921.26,-209.022 899.806,-189.247"/>
<polygon fill="black" stroke="black" points="902.038,-186.545 892.313,-182.341 897.294,-191.692 902.038,-186.545"/>
</g>
<!-- Balance -->
<g id="node26" class="node"><title>Balance</title>
<polygon fill="none" stroke="black" points="1148,-371 1079,-371 1079,-335 1148,-335 1148,-371"/>
<text text-anchor="middle" x="1113.5" y="-349.3" font-family="Consolas" font-size="14.00">Balance</text>
</g>
<!-- Balance&#45;&gt;IBalance -->
<g id="edge29" class="edge"><title>Balance&#45;&gt;IBalance</title>
<path fill="none" stroke="black" d="M1086.38,-334.858C1068.11,-323.315 1043.84,-307.974 1024.03,-295.458"/>
<polygon fill="black" stroke="black" points="1025.89,-292.492 1015.57,-290.108 1022.15,-298.41 1025.89,-292.492"/>
</g>
<!-- Ledger -->
<g id="node27" class="node"><title>Ledger</title>
<polygon fill="none" stroke="black" points="1224.5,-290 1162.5,-290 1162.5,-254 1224.5,-254 1224.5,-290"/>
<text text-anchor="middle" x="1193.5" y="-268.3" font-family="Consolas" font-size="14.00">Ledger</text>
</g>
<!-- Balance&#45;&gt;Ledger -->
<g id="edge30" class="edge"><title>Balance&#45;&gt;Ledger</title>
<path fill="none" stroke="black" d="M1130.86,-334.858C1141.97,-323.885 1156.56,-309.479 1168.86,-297.33"/>
<polygon fill="black" stroke="black" points="1171.52,-299.625 1176.18,-290.108 1166.6,-294.644 1171.52,-299.625"/>
</g>
<!-- ITransaction -->
<g id="node47" class="node"><title>ITransaction</title>
<polygon fill="none" stroke="black" points="1247,-182 1140,-182 1140,-146 1247,-146 1247,-182"/>
<text text-anchor="middle" x="1193.5" y="-160.3" font-family="Consolas" font-size="14.00">ITransaction</text>
</g>
<!-- Ledger&#45;&gt;ITransaction -->
<g id="edge53" class="edge"><title>Ledger&#45;&gt;ITransaction</title>
<path fill="none" stroke="black" stroke-dasharray="1,5" d="M1193.5,-253.969C1193.5,-237.993 1193.5,-213.759 1193.5,-194.616"/>
<polygon fill="black" stroke="black" points="1193.5,-194.341 1189.5,-188.341 1193.5,-182.341 1197.5,-188.341 1193.5,-194.341"/>
</g>
<!-- VariableRateLoan -->
<g id="node28" class="node"><title>VariableRateLoan</title>
<polygon fill="none" stroke="black" points="1226,-752 1089,-752 1089,-716 1226,-716 1226,-752"/>
<text text-anchor="middle" x="1157.5" y="-730.3" font-family="Consolas" font-size="14.00">VariableRateLoan</text>
</g>
<!-- VariableRateLoan&#45;&gt;LoanBase -->
<g id="edge31" class="edge"><title>VariableRateLoan&#45;&gt;LoanBase</title>
<path fill="none" stroke="black" d="M1123.01,-715.994C1103.29,-706.273 1078.37,-693.987 1057.29,-683.59"/>
<polygon fill="black" stroke="black" points="1058.73,-680.397 1048.21,-679.114 1055.63,-686.675 1058.73,-680.397"/>
</g>
<!-- Security -->
<g id="node29" class="node"><title>Security</title>
<polygon fill="none" stroke="black" points="587,-452 510,-452 510,-416 587,-416 587,-452"/>
<text text-anchor="middle" x="548.5" y="-430.3" font-family="Consolas" font-size="14.00">Security</text>
</g>
<!-- Security&#45;&gt;IAsset -->
<g id="edge32" class="edge"><title>Security&#45;&gt;IAsset</title>
<path fill="none" stroke="black" d="M587.015,-420.829C633.304,-406.202 710.629,-381.767 757.85,-366.845"/>
<polygon fill="black" stroke="black" points="758.966,-370.163 767.447,-363.813 756.857,-363.489 758.966,-370.163"/>
</g>
<!-- Pecuniam -->
<g id="node30" class="node"><title>Pecuniam</title>
<polygon fill="none" stroke="black" points="587,-371 510,-371 510,-335 587,-335 587,-371"/>
<text text-anchor="middle" x="548.5" y="-349.3" font-family="Consolas" font-size="14.00">Pecuniam</text>
</g>
<!-- Security&#45;&gt;Pecuniam -->
<g id="edge33" class="edge"><title>Security&#45;&gt;Pecuniam</title>
<path fill="none" stroke="black" d="M548.5,-415.858C548.5,-405.713 548.5,-392.634 548.5,-381.117"/>
<polygon fill="black" stroke="black" points="552,-381.108 548.5,-371.108 545,-381.108 552,-381.108"/>
</g>
<!-- Cusip -->
<g id="node31" class="node"><title>Cusip</title>
<polygon fill="none" stroke="black" points="383.5,-371 329.5,-371 329.5,-335 383.5,-335 383.5,-371"/>
<text text-anchor="middle" x="356.5" y="-349.3" font-family="Consolas" font-size="14.00">Cusip</text>
</g>
<!-- Security&#45;&gt;Cusip -->
<g id="edge34" class="edge"><title>Security&#45;&gt;Cusip</title>
<path fill="none" stroke="black" stroke-dasharray="1,5" d="M509.646,-417.013C475.538,-402.979 426.298,-382.719 392.932,-368.99"/>
<polygon fill="black" stroke="black" points="394.124,-365.696 383.545,-365.128 391.461,-372.17 394.124,-365.696"/>
<text text-anchor="middle" x="463.5" y="-391.6" font-family="Consolas" font-size="8.00">Id</text>
</g>
<!-- Currency -->
<g id="node35" class="node"><title>Currency</title>
<polygon fill="none" stroke="black" points="469,-236 392,-236 392,-200 469,-200 469,-236"/>
<text text-anchor="middle" x="430.5" y="-214.3" font-family="Consolas" font-size="14.00">Currency</text>
</g>
<!-- Pecuniam&#45;&gt;Currency -->
<g id="edge38" class="edge"><title>Pecuniam&#45;&gt;Currency</title>
<path fill="none" stroke="black" stroke-dasharray="1,5" d="M509.599,-336.988C488.215,-326.817 462.965,-311.317 447.5,-290 438.307,-277.328 434.027,-260.356 432.06,-246.183"/>
<polygon fill="black" stroke="black" points="435.515,-245.576 430.963,-236.009 428.555,-246.326 435.515,-245.576"/>
<text text-anchor="middle" x="479.5" y="-310.6" font-family="Consolas" font-size="8.00">Id</text>
</g>
<!-- INumera -->
<g id="node36" class="node"><title>INumera</title>
<polygon fill="none" stroke="black" points="703,-290 634,-290 634,-254 703,-254 703,-290"/>
<text text-anchor="middle" x="668.5" y="-268.3" font-family="Consolas" font-size="14.00">INumera</text>
</g>
<!-- Pecuniam&#45;&gt;INumera -->
<g id="edge40" class="edge"><title>Pecuniam&#45;&gt;INumera</title>
<path fill="none" stroke="black" d="M574.538,-334.858C591.993,-323.367 615.165,-308.112 634.131,-295.627"/>
<polygon fill="black" stroke="black" points="636.085,-298.531 642.513,-290.108 632.236,-292.684 636.085,-298.531"/>
</g>
<!-- RIdentifierWithChkDigit -->
<g id="node32" class="node"><title>RIdentifierWithChkDigit</title>
<polygon fill="none" stroke="black" points="298,-290 109,-290 109,-254 298,-254 298,-290"/>
<text text-anchor="middle" x="203.5" y="-268.3" font-family="Consolas" font-size="14.00">RIdentifierWithChkDigit</text>
</g>
<!-- Cusip&#45;&gt;RIdentifierWithChkDigit -->
<g id="edge35" class="edge"><title>Cusip&#45;&gt;RIdentifierWithChkDigit</title>
<path fill="none" stroke="black" d="M329.499,-338.058C306.323,-326.092 272.527,-308.641 245.769,-294.825"/>
<polygon fill="black" stroke="black" points="247.118,-291.583 236.627,-290.105 243.906,-297.802 247.118,-291.583"/>
</g>
<!-- RIdentifier -->
<g id="node33" class="node"><title>RIdentifier</title>
<polygon fill="none" stroke="black" points="406,-182 307,-182 307,-146 406,-146 406,-182"/>
<text text-anchor="middle" x="356.5" y="-160.3" font-family="Consolas" font-size="14.00">RIdentifier</text>
</g>
<!-- RIdentifierWithChkDigit&#45;&gt;RIdentifier -->
<g id="edge36" class="edge"><title>RIdentifierWithChkDigit&#45;&gt;RIdentifier</title>
<path fill="none" stroke="black" d="M228.082,-253.969C253.88,-236.096 294.594,-207.889 323.249,-188.037"/>
<polygon fill="black" stroke="black" points="325.498,-190.736 331.725,-182.164 321.512,-184.982 325.498,-190.736"/>
</g>
<!-- Identifier -->
<g id="node34" class="node"><title>Identifier</title>
<polygon fill="none" stroke="black" points="480.5,-109 388.5,-109 388.5,-73 480.5,-73 480.5,-109"/>
<text text-anchor="middle" x="434.5" y="-87.3" font-family="Consolas" font-size="14.00">Identifier</text>
</g>
<!-- RIdentifier&#45;&gt;Identifier -->
<g id="edge37" class="edge"><title>RIdentifier&#45;&gt;Identifier</title>
<path fill="none" stroke="black" d="M375.382,-145.813C385.25,-136.83 397.485,-125.693 408.259,-115.886"/>
<polygon fill="black" stroke="black" points="410.753,-118.349 415.792,-109.029 406.041,-113.172 410.753,-118.349"/>
</g>
<!-- Identifier&#45;&gt;StringId -->
<g id="edge50" class="edge"><title>Identifier&#45;&gt;StringId</title>
<path fill="none" stroke="black" d="M434.5,-72.8129C434.5,-64.7895 434.5,-55.0475 434.5,-46.0691"/>
<polygon fill="black" stroke="black" points="438,-46.0288 434.5,-36.0288 431,-46.0289 438,-46.0288"/>
</g>
<!-- Currency&#45;&gt;Identifier -->
<g id="edge39" class="edge"><title>Currency&#45;&gt;Identifier</title>
<path fill="none" stroke="black" d="M431.048,-199.881C431.711,-179.146 432.838,-143.953 433.623,-119.422"/>
<polygon fill="black" stroke="black" points="437.124,-119.42 433.946,-109.313 430.128,-119.196 437.124,-119.42"/>
</g>
<!-- CreditScore -->
<g id="node37" class="node"><title>CreditScore</title>
<polygon fill="none" stroke="black" points="573,-182 474,-182 474,-146 573,-146 573,-182"/>
<text text-anchor="middle" x="523.5" y="-160.3" font-family="Consolas" font-size="14.00">CreditScore</text>
</g>
<!-- CreditScore&#45;&gt;Identifier -->
<g id="edge41" class="edge"><title>CreditScore&#45;&gt;Identifier</title>
<path fill="none" stroke="black" d="M501.956,-145.813C490.477,-136.656 476.192,-125.26 463.727,-115.316"/>
<polygon fill="black" stroke="black" points="465.846,-112.529 455.846,-109.029 461.481,-118.001 465.846,-112.529"/>
</g>
<!-- PersonalCreditScore -->
<g id="node38" class="node"><title>PersonalCreditScore</title>
<polygon fill="none" stroke="black" points="616,-290 457,-290 457,-254 616,-254 616,-290"/>
<text text-anchor="middle" x="536.5" y="-268.3" font-family="Consolas" font-size="14.00">PersonalCreditScore</text>
</g>
<!-- PersonalCreditScore&#45;&gt;CreditScore -->
<g id="edge42" class="edge"><title>PersonalCreditScore&#45;&gt;CreditScore</title>
<path fill="none" stroke="black" d="M534.411,-253.969C532.377,-237.378 529.25,-211.883 526.864,-192.431"/>
<polygon fill="black" stroke="black" points="530.318,-191.84 525.627,-182.341 523.37,-192.692 530.318,-191.84"/>
</g>
<!-- CreditCardNumber -->
<g id="node39" class="node"><title>CreditCardNumber</title>
<polygon fill="none" stroke="black" points="272,-371 135,-371 135,-335 272,-335 272,-371"/>
<text text-anchor="middle" x="203.5" y="-349.3" font-family="Consolas" font-size="14.00">CreditCardNumber</text>
</g>
<!-- CreditCardNumber&#45;&gt;RIdentifierWithChkDigit -->
<g id="edge43" class="edge"><title>CreditCardNumber&#45;&gt;RIdentifierWithChkDigit</title>
<path fill="none" stroke="black" d="M203.5,-334.858C203.5,-324.713 203.5,-311.634 203.5,-300.117"/>
<polygon fill="black" stroke="black" points="207,-300.108 203.5,-290.108 200,-300.108 207,-300.108"/>
</g>
<!-- VisaCc -->
<g id="node40" class="node"><title>VisaCc</title>
<polygon fill="none" stroke="black" points="377.5,-606 315.5,-606 315.5,-570 377.5,-570 377.5,-606"/>
<text text-anchor="middle" x="346.5" y="-584.3" font-family="Consolas" font-size="14.00">VisaCc</text>
</g>
<!-- CreditCard -->
<g id="node41" class="node"><title>CreditCard</title>
<polygon fill="none" stroke="black" points="249.5,-525 157.5,-525 157.5,-489 249.5,-489 249.5,-525"/>
<text text-anchor="middle" x="203.5" y="-503.3" font-family="Consolas" font-size="14.00">CreditCard</text>
</g>
<!-- VisaCc&#45;&gt;CreditCard -->
<g id="edge44" class="edge"><title>VisaCc&#45;&gt;CreditCard</title>
<path fill="none" stroke="black" d="M315.471,-569.858C294.296,-558.16 266.06,-542.561 243.24,-529.954"/>
<polygon fill="black" stroke="black" points="244.914,-526.88 234.468,-525.108 241.529,-533.008 244.914,-526.88"/>
</g>
<!-- ICreditCard -->
<g id="node45" class="node"><title>ICreditCard</title>
<polygon fill="none" stroke="black" points="253,-452 154,-452 154,-416 253,-416 253,-452"/>
<text text-anchor="middle" x="203.5" y="-430.3" font-family="Consolas" font-size="14.00">ICreditCard</text>
</g>
<!-- CreditCard&#45;&gt;ICreditCard -->
<g id="edge48" class="edge"><title>CreditCard&#45;&gt;ICreditCard</title>
<path fill="none" stroke="black" d="M203.5,-488.813C203.5,-480.789 203.5,-471.047 203.5,-462.069"/>
<polygon fill="black" stroke="black" points="207,-462.029 203.5,-452.029 200,-462.029 207,-462.029"/>
</g>
<!-- MasterCardCc -->
<g id="node42" class="node"><title>MasterCardCc</title>
<polygon fill="none" stroke="black" points="107,-606 0,-606 0,-570 107,-570 107,-606"/>
<text text-anchor="middle" x="53.5" y="-584.3" font-family="Consolas" font-size="14.00">MasterCardCc</text>
</g>
<!-- MasterCardCc&#45;&gt;CreditCard -->
<g id="edge45" class="edge"><title>MasterCardCc&#45;&gt;CreditCard</title>
<path fill="none" stroke="black" d="M86.0478,-569.858C108.358,-558.108 138.14,-542.423 162.132,-529.787"/>
<polygon fill="black" stroke="black" points="163.799,-532.865 171.016,-525.108 160.537,-526.672 163.799,-532.865"/>
</g>
<!-- AmexCc -->
<g id="node43" class="node"><title>AmexCc</title>
<polygon fill="none" stroke="black" points="187.5,-606 125.5,-606 125.5,-570 187.5,-570 187.5,-606"/>
<text text-anchor="middle" x="156.5" y="-584.3" font-family="Consolas" font-size="14.00">AmexCc</text>
</g>
<!-- AmexCc&#45;&gt;CreditCard -->
<g id="edge46" class="edge"><title>AmexCc&#45;&gt;CreditCard</title>
<path fill="none" stroke="black" d="M166.698,-569.858C172.98,-559.299 181.154,-545.561 188.201,-533.715"/>
<polygon fill="black" stroke="black" points="191.217,-535.492 193.322,-525.108 185.201,-531.913 191.217,-535.492"/>
</g>
<!-- DiscoverCc -->
<g id="node44" class="node"><title>DiscoverCc</title>
<polygon fill="none" stroke="black" points="297.5,-606 205.5,-606 205.5,-570 297.5,-570 297.5,-606"/>
<text text-anchor="middle" x="251.5" y="-584.3" font-family="Consolas" font-size="14.00">DiscoverCc</text>
</g>
<!-- DiscoverCc&#45;&gt;CreditCard -->
<g id="edge47" class="edge"><title>DiscoverCc&#45;&gt;CreditCard</title>
<path fill="none" stroke="black" d="M241.085,-569.858C234.669,-559.299 226.322,-545.561 219.124,-533.715"/>
<polygon fill="black" stroke="black" points="222.079,-531.837 213.895,-525.108 216.096,-535.472 222.079,-531.837"/>
</g>
<!-- ICreditCard&#45;&gt;CreditCardNumber -->
<g id="edge49" class="edge"><title>ICreditCard&#45;&gt;CreditCardNumber</title>
<path fill="none" stroke="black" stroke-dasharray="1,5" d="M203.5,-415.858C203.5,-405.713 203.5,-392.634 203.5,-381.117"/>
<polygon fill="black" stroke="black" points="207,-381.108 203.5,-371.108 200,-381.108 207,-381.108"/>
<text text-anchor="middle" x="215" y="-391.6" font-family="Consolas" font-size="8.00">HAS&#45;A</text>
</g>
<!-- AccountId -->
<g id="node46" class="node"><title>AccountId</title>
<polygon fill="none" stroke="black" points="400.5,-290 316.5,-290 316.5,-254 400.5,-254 400.5,-290"/>
<text text-anchor="middle" x="358.5" y="-268.3" font-family="Consolas" font-size="14.00">AccountId</text>
</g>
<!-- AccountId&#45;&gt;RIdentifier -->
<g id="edge52" class="edge"><title>AccountId&#45;&gt;RIdentifier</title>
<path fill="none" stroke="black" d="M358.179,-253.969C357.866,-237.378 357.385,-211.883 357.018,-192.431"/>
<polygon fill="black" stroke="black" points="360.515,-192.273 356.827,-182.341 353.517,-192.405 360.515,-192.273"/>
</g>
<!-- ITransactionId -->
<g id="node50" class="node"><title>ITransactionId</title>
<polygon fill="none" stroke="black" points="1254.5,-109 1132.5,-109 1132.5,-73 1254.5,-73 1254.5,-109"/>
<text text-anchor="middle" x="1193.5" y="-87.3" font-family="Consolas" font-size="14.00">ITransactionId</text>
</g>
<!-- ITransaction&#45;&gt;ITransactionId -->
<g id="edge56" class="edge"><title>ITransaction&#45;&gt;ITransactionId</title>
<path fill="none" stroke="black" d="M1193.5,-145.813C1193.5,-137.789 1193.5,-128.047 1193.5,-119.069"/>
<polygon fill="black" stroke="black" points="1197,-119.029 1193.5,-109.029 1190,-119.029 1197,-119.029"/>
</g>
<!-- Transaction -->
<g id="node48" class="node"><title>Transaction</title>
<polygon fill="none" stroke="black" points="1144,-290 1045,-290 1045,-254 1144,-254 1144,-290"/>
<text text-anchor="middle" x="1094.5" y="-268.3" font-family="Consolas" font-size="14.00">Transaction</text>
</g>
<!-- Transaction&#45;&gt;ITransaction -->
<g id="edge54" class="edge"><title>Transaction&#45;&gt;ITransaction</title>
<path fill="none" stroke="black" d="M1110.41,-253.969C1126.62,-236.61 1151.94,-209.503 1170.37,-189.769"/>
<polygon fill="black" stroke="black" points="1173.04,-192.038 1177.3,-182.341 1167.92,-187.26 1173.04,-192.038"/>
</g>
<!-- TransactionId -->
<g id="node49" class="node"><title>TransactionId</title>
<polygon fill="none" stroke="black" points="1121.5,-182 1007.5,-182 1007.5,-146 1121.5,-146 1121.5,-182"/>
<text text-anchor="middle" x="1064.5" y="-160.3" font-family="Consolas" font-size="14.00">TransactionId</text>
</g>
<!-- Transaction&#45;&gt;TransactionId -->
<g id="edge55" class="edge"><title>Transaction&#45;&gt;TransactionId</title>
<path fill="none" stroke="black" d="M1089.68,-253.969C1084.96,-237.301 1077.7,-211.646 1072.19,-192.161"/>
<polygon fill="black" stroke="black" points="1075.5,-191.01 1069.41,-182.341 1068.76,-192.916 1075.5,-191.01"/>
</g>
<!-- TransactionId&#45;&gt;ITransactionId -->
<g id="edge57" class="edge"><title>TransactionId&#45;&gt;ITransactionId</title>
<path fill="none" stroke="black" d="M1095.4,-145.994C1112.82,-136.404 1134.78,-124.317 1153.51,-114.011"/>
<polygon fill="black" stroke="black" points="1155.33,-117.002 1162.41,-109.114 1151.96,-110.869 1155.33,-117.002"/>
</g>
<!-- TraceTransactionId -->
<g id="node51" class="node"><title>TraceTransactionId</title>
<polygon fill="none" stroke="black" points="1417.5,-182 1265.5,-182 1265.5,-146 1417.5,-146 1417.5,-182"/>
<text text-anchor="middle" x="1341.5" y="-160.3" font-family="Consolas" font-size="14.00">TraceTransactionId</text>
</g>
<!-- TraceTransactionId&#45;&gt;ITransactionId -->
<g id="edge58" class="edge"><title>TraceTransactionId&#45;&gt;ITransactionId</title>
<path fill="none" stroke="black" d="M1306.05,-145.994C1285.7,-136.23 1259.95,-123.876 1238.21,-113.451"/>
<polygon fill="black" stroke="black" points="1239.7,-110.283 1229.17,-109.114 1236.68,-116.595 1239.7,-110.283"/>
</g>
</g>
</svg>
