<?xml version="1.0" encoding="UTF-8" standalone="no"?>
<!DOCTYPE svg PUBLIC "-//W3C//DTD SVG 1.1//EN"
 "http://www.w3.org/Graphics/SVG/1.1/DTD/svg11.dtd">
<!-- Generated by graphviz version 2.38.0 (20140413.2041)
 -->
<!-- Title: noFutureRandDataSp Pages: 1 -->
<svg width="1455pt" height="898pt"
 viewBox="0.00 0.00 1454.50 898.00" xmlns="http://www.w3.org/2000/svg" xmlns:xlink="http://www.w3.org/1999/xlink">
<g id="graph0" class="graph" transform="scale(1 1) rotate(0) translate(4 894)">
<title>noFutureRandDataSp</title>
<polygon fill="white" stroke="none" points="-4,4 -4,-894 1450.5,-894 1450.5,4 -4,4"/>
<!-- StringId -->
<g id="node1" class="node"><title>StringId</title>
<polygon fill="none" stroke="black" points="495.5,-36 373.5,-36 373.5,-0 495.5,-0 495.5,-36"/>
<text text-anchor="middle" x="434.5" y="-14.3" font-family="Consolas" font-size="14.00">IIdentifier&lt;T&gt;</text>
</g>
<!-- Mortgage -->
<g id="node2" class="node"><title>Mortgage</title>
<polygon fill="none" stroke="black" points="1101,-890 1024,-890 1024,-854 1101,-854 1101,-890"/>
<text text-anchor="middle" x="1062.5" y="-868.3" font-family="Consolas" font-size="14.00">Mortgage</text>
</g>
<!-- SecuredFixedRateLoan -->
<g id="node3" class="node"><title>SecuredFixedRateLoan</title>
<polygon fill="none" stroke="black" points="1146,-817 979,-817 979,-781 1146,-781 1146,-817"/>
<text text-anchor="middle" x="1062.5" y="-795.3" font-family="Consolas" font-size="14.00">SecuredFixedRateLoan</text>
</g>
<!-- Mortgage&#45;&gt;SecuredFixedRateLoan -->
<g id="edge1" class="edge"><title>Mortgage&#45;&gt;SecuredFixedRateLoan</title>
<path fill="none" stroke="black" d="M1062.5,-853.813C1062.5,-845.789 1062.5,-836.047 1062.5,-827.069"/>
<polygon fill="black" stroke="black" points="1066,-827.029 1062.5,-817.029 1059,-827.029 1066,-827.029"/>
</g>
<!-- FixedRateLoan -->
<g id="node4" class="node"><title>FixedRateLoan</title>
<polygon fill="none" stroke="black" points="948.5,-744 834.5,-744 834.5,-708 948.5,-708 948.5,-744"/>
<text text-anchor="middle" x="891.5" y="-722.3" font-family="Consolas" font-size="14.00">FixedRateLoan</text>
</g>
<!-- SecuredFixedRateLoan&#45;&gt;FixedRateLoan -->
<g id="edge2" class="edge"><title>SecuredFixedRateLoan&#45;&gt;FixedRateLoan</title>
<path fill="none" stroke="black" d="M1021.54,-780.994C997.71,-771.099 967.475,-758.545 942.156,-748.033"/>
<polygon fill="black" stroke="black" points="943.295,-744.716 932.717,-744.114 940.611,-751.181 943.295,-744.716"/>
</g>
<!-- LoanBase -->
<g id="node7" class="node"><title>LoanBase</title>
<polygon fill="none" stroke="black" points="930,-671 853,-671 853,-635 930,-635 930,-671"/>
<text text-anchor="middle" x="891.5" y="-649.3" font-family="Consolas" font-size="14.00">LoanBase</text>
</g>
<!-- FixedRateLoan&#45;&gt;LoanBase -->
<g id="edge5" class="edge"><title>FixedRateLoan&#45;&gt;LoanBase</title>
<path fill="none" stroke="black" d="M891.5,-707.813C891.5,-699.789 891.5,-690.047 891.5,-681.069"/>
<polygon fill="black" stroke="black" points="895,-681.029 891.5,-671.029 888,-681.029 895,-681.029"/>
</g>
<!-- CreditCardAccount -->
<g id="node5" class="node"><title>CreditCardAccount</title>
<polygon fill="none" stroke="black" points="672.5,-817 528.5,-817 528.5,-781 672.5,-781 672.5,-817"/>
<text text-anchor="middle" x="600.5" y="-795.3" font-family="Consolas" font-size="14.00">CreditCardAccount</text>
</g>
<!-- CreditCardAccount&#45;&gt;FixedRateLoan -->
<g id="edge3" class="edge"><title>CreditCardAccount&#45;&gt;FixedRateLoan</title>
<path fill="none" stroke="black" d="M672.519,-781.036C714.294,-771.12 768.159,-758.208 824.48,-744.236"/>
<polygon fill="black" stroke="black" points="825.417,-747.61 834.277,-741.801 823.728,-740.816 825.417,-747.61"/>
</g>
<!-- IAccount -->
<g id="node6" class="node"><title>IAccount</title>
<polygon fill="none" stroke="black" points="704,-452 627,-452 627,-416 704,-416 704,-452"/>
<text text-anchor="middle" x="665.5" y="-430.3" font-family="Consolas" font-size="14.00">IAccount</text>
</g>
<!-- CreditCardAccount&#45;&gt;IAccount -->
<g id="edge4" class="edge"><title>CreditCardAccount&#45;&gt;IAccount</title>
<path fill="none" stroke="black" d="M629.957,-780.806C647.155,-768.346 665.5,-749.728 665.5,-727 665.5,-727 665.5,-727 665.5,-506 665.5,-491.651 665.5,-475.671 665.5,-462.511"/>
<polygon fill="black" stroke="black" points="669,-462.216 665.5,-452.216 662,-462.216 669,-462.216"/>
</g>
<!-- IValoresTempus -->
<g id="node18" class="node"><title>IValoresTempus</title>
<polygon fill="none" stroke="black" points="717.5,-371 595.5,-371 595.5,-335 717.5,-335 717.5,-371"/>
<text text-anchor="middle" x="656.5" y="-349.3" font-family="Consolas" font-size="14.00">IValoresTempus</text>
</g>
<!-- IAccount&#45;&gt;IValoresTempus -->
<g id="edge22" class="edge"><title>IAccount&#45;&gt;IValoresTempus</title>
<path fill="none" stroke="black" d="M663.547,-415.858C662.391,-405.713 660.901,-392.634 659.589,-381.117"/>
<polygon fill="black" stroke="black" points="663.059,-380.648 658.449,-371.108 656.104,-381.44 663.059,-380.648"/>
</g>
<!-- NamedReceivable -->
<g id="node8" class="node"><title>NamedReceivable</title>
<polygon fill="none" stroke="black" points="968,-598 839,-598 839,-562 968,-562 968,-598"/>
<text text-anchor="middle" x="903.5" y="-576.3" font-family="Consolas" font-size="14.00">NamedReceivable</text>
</g>
<!-- LoanBase&#45;&gt;NamedReceivable -->
<g id="edge6" class="edge"><title>LoanBase&#45;&gt;NamedReceivable</title>
<path fill="none" stroke="black" d="M894.405,-634.813C895.761,-626.789 897.407,-617.047 898.925,-608.069"/>
<polygon fill="black" stroke="black" points="902.406,-608.472 900.622,-598.029 895.504,-607.306 902.406,-608.472"/>
</g>
<!-- ILoan -->
<g id="node19" class="node"><title>ILoan</title>
<polygon fill="none" stroke="black" points="820.5,-598 766.5,-598 766.5,-562 820.5,-562 820.5,-598"/>
<text text-anchor="middle" x="793.5" y="-576.3" font-family="Consolas" font-size="14.00">ILoan</text>
</g>
<!-- LoanBase&#45;&gt;ILoan -->
<g id="edge17" class="edge"><title>LoanBase&#45;&gt;ILoan</title>
<path fill="none" stroke="black" d="M867.777,-634.813C855.017,-625.569 839.108,-614.043 825.291,-604.032"/>
<polygon fill="black" stroke="black" points="827.156,-601.062 817.005,-598.029 823.049,-606.73 827.156,-601.062"/>
</g>
<!-- Receivable -->
<g id="node14" class="node"><title>Receivable</title>
<polygon fill="none" stroke="black" points="949.5,-525 857.5,-525 857.5,-489 949.5,-489 949.5,-525"/>
<text text-anchor="middle" x="903.5" y="-503.3" font-family="Consolas" font-size="14.00">Receivable</text>
</g>
<!-- NamedReceivable&#45;&gt;Receivable -->
<g id="edge23" class="edge"><title>NamedReceivable&#45;&gt;Receivable</title>
<path fill="none" stroke="black" d="M903.5,-561.813C903.5,-553.789 903.5,-544.047 903.5,-535.069"/>
<polygon fill="black" stroke="black" points="907,-535.029 903.5,-525.029 900,-535.029 907,-535.029"/>
</g>
<!-- Rent -->
<g id="node9" class="node"><title>Rent</title>
<polygon fill="none" stroke="black" points="1002.5,-671 948.5,-671 948.5,-635 1002.5,-635 1002.5,-671"/>
<text text-anchor="middle" x="975.5" y="-649.3" font-family="Consolas" font-size="14.00">Rent</text>
</g>
<!-- Rent&#45;&gt;NamedReceivable -->
<g id="edge7" class="edge"><title>Rent&#45;&gt;NamedReceivable</title>
<path fill="none" stroke="black" d="M958.071,-634.813C949.05,-625.917 937.887,-614.909 928.012,-605.172"/>
<polygon fill="black" stroke="black" points="930.347,-602.558 920.769,-598.029 925.432,-607.542 930.347,-602.558"/>
</g>
<!-- CheckingAccount -->
<g id="node10" class="node"><title>CheckingAccount</title>
<polygon fill="none" stroke="black" points="820,-817 691,-817 691,-781 820,-781 820,-817"/>
<text text-anchor="middle" x="755.5" y="-795.3" font-family="Consolas" font-size="14.00">CheckingAccount</text>
</g>
<!-- DepositAccount -->
<g id="node11" class="node"><title>DepositAccount</title>
<polygon fill="none" stroke="black" points="816.5,-744 694.5,-744 694.5,-708 816.5,-708 816.5,-744"/>
<text text-anchor="middle" x="755.5" y="-722.3" font-family="Consolas" font-size="14.00">DepositAccount</text>
</g>
<!-- CheckingAccount&#45;&gt;DepositAccount -->
<g id="edge8" class="edge"><title>CheckingAccount&#45;&gt;DepositAccount</title>
<path fill="none" stroke="black" d="M755.5,-780.813C755.5,-772.789 755.5,-763.047 755.5,-754.069"/>
<polygon fill="black" stroke="black" points="759,-754.029 755.5,-744.029 752,-754.029 759,-754.029"/>
</g>
<!-- Account -->
<g id="node13" class="node"><title>Account</title>
<polygon fill="none" stroke="black" points="790,-671 721,-671 721,-635 790,-635 790,-671"/>
<text text-anchor="middle" x="755.5" y="-649.3" font-family="Consolas" font-size="14.00">Account</text>
</g>
<!-- DepositAccount&#45;&gt;Account -->
<g id="edge12" class="edge"><title>DepositAccount&#45;&gt;Account</title>
<path fill="none" stroke="black" d="M755.5,-707.813C755.5,-699.789 755.5,-690.047 755.5,-681.069"/>
<polygon fill="black" stroke="black" points="759,-681.029 755.5,-671.029 752,-681.029 759,-681.029"/>
</g>
<!-- SavingsAccount -->
<g id="node12" class="node"><title>SavingsAccount</title>
<polygon fill="none" stroke="black" points="960.5,-817 838.5,-817 838.5,-781 960.5,-781 960.5,-817"/>
<text text-anchor="middle" x="899.5" y="-795.3" font-family="Consolas" font-size="14.00">SavingsAccount</text>
</g>
<!-- SavingsAccount&#45;&gt;DepositAccount -->
<g id="edge9" class="edge"><title>SavingsAccount&#45;&gt;DepositAccount</title>
<path fill="none" stroke="black" d="M865.008,-780.994C845.294,-771.273 820.374,-758.987 799.289,-748.59"/>
<polygon fill="black" stroke="black" points="800.726,-745.397 790.209,-744.114 797.63,-751.675 800.726,-745.397"/>
</g>
<!-- Account&#45;&gt;IAccount -->
<g id="edge11" class="edge"><title>Account&#45;&gt;IAccount</title>
<path fill="none" stroke="black" d="M748.438,-634.972C732.835,-597.353 695.327,-506.917 676.57,-461.692"/>
<polygon fill="black" stroke="black" points="679.718,-460.145 672.654,-452.249 673.252,-462.827 679.718,-460.145"/>
</g>
<!-- Account&#45;&gt;NamedReceivable -->
<g id="edge10" class="edge"><title>Account&#45;&gt;NamedReceivable</title>
<path fill="none" stroke="black" d="M790.199,-635.354C810.683,-625.527 836.827,-612.985 858.838,-602.426"/>
<polygon fill="black" stroke="black" points="860.488,-605.516 867.99,-598.035 857.46,-599.205 860.488,-605.516"/>
</g>
<!-- IReceivable -->
<g id="node15" class="node"><title>IReceivable</title>
<polygon fill="none" stroke="black" points="919,-452 820,-452 820,-416 919,-416 919,-452"/>
<text text-anchor="middle" x="869.5" y="-430.3" font-family="Consolas" font-size="14.00">IReceivable</text>
</g>
<!-- Receivable&#45;&gt;IReceivable -->
<g id="edge13" class="edge"><title>Receivable&#45;&gt;IReceivable</title>
<path fill="none" stroke="black" d="M895.27,-488.813C891.302,-480.528 886.457,-470.41 882.043,-461.193"/>
<polygon fill="black" stroke="black" points="885.13,-459.536 877.655,-452.029 878.817,-462.56 885.13,-459.536"/>
</g>
<!-- TradeLine -->
<g id="node16" class="node"><title>TradeLine</title>
<polygon fill="none" stroke="black" points="1021.5,-452 937.5,-452 937.5,-416 1021.5,-416 1021.5,-452"/>
<text text-anchor="middle" x="979.5" y="-430.3" font-family="Consolas" font-size="14.00">TradeLine</text>
</g>
<!-- Receivable&#45;&gt;TradeLine -->
<g id="edge14" class="edge"><title>Receivable&#45;&gt;TradeLine</title>
<path fill="none" stroke="black" d="M921.897,-488.813C931.513,-479.83 943.434,-468.693 953.932,-458.886"/>
<polygon fill="black" stroke="black" points="956.354,-461.413 961.272,-452.029 951.575,-456.298 956.354,-461.413"/>
</g>
<!-- ITradeLine -->
<g id="node17" class="node"><title>ITradeLine</title>
<polygon fill="none" stroke="black" points="1025.5,-371 933.5,-371 933.5,-335 1025.5,-335 1025.5,-371"/>
<text text-anchor="middle" x="979.5" y="-349.3" font-family="Consolas" font-size="14.00">ITradeLine</text>
</g>
<!-- IReceivable&#45;&gt;ITradeLine -->
<g id="edge15" class="edge"><title>IReceivable&#45;&gt;ITradeLine</title>
<path fill="none" stroke="black" d="M893.368,-415.858C909.224,-404.471 930.228,-389.386 947.524,-376.965"/>
<polygon fill="black" stroke="black" points="949.598,-379.785 955.678,-371.108 945.514,-374.099 949.598,-379.785"/>
</g>
<!-- IReceivable&#45;&gt;IValoresTempus -->
<g id="edge16" class="edge"><title>IReceivable&#45;&gt;IValoresTempus</title>
<path fill="none" stroke="black" d="M823.544,-415.955C790.791,-403.807 746.596,-387.416 711.892,-374.545"/>
<polygon fill="black" stroke="black" points="712.966,-371.21 702.373,-371.014 710.532,-377.773 712.966,-371.21"/>
</g>
<!-- TradeLine&#45;&gt;ITradeLine -->
<g id="edge18" class="edge"><title>TradeLine&#45;&gt;ITradeLine</title>
<path fill="none" stroke="black" d="M979.5,-415.858C979.5,-405.713 979.5,-392.634 979.5,-381.117"/>
<polygon fill="black" stroke="black" points="983,-381.108 979.5,-371.108 976,-381.108 983,-381.108"/>
</g>
<!-- ITempore -->
<g id="node20" class="node"><title>ITempore</title>
<polygon fill="none" stroke="black" points="1018,-290 941,-290 941,-254 1018,-254 1018,-290"/>
<text text-anchor="middle" x="979.5" y="-268.3" font-family="Consolas" font-size="14.00">ITempore</text>
</g>
<!-- ITradeLine&#45;&gt;ITempore -->
<g id="edge19" class="edge"><title>ITradeLine&#45;&gt;ITempore</title>
<path fill="none" stroke="black" d="M979.5,-334.858C979.5,-324.713 979.5,-311.634 979.5,-300.117"/>
<polygon fill="black" stroke="black" points="983,-300.108 979.5,-290.108 976,-300.108 983,-300.108"/>
</g>
<!-- ITransactionable -->
<g id="node21" class="node"><title>ITransactionable</title>
<polygon fill="none" stroke="black" points="938,-182 801,-182 801,-146 938,-146 938,-182"/>
<text text-anchor="middle" x="869.5" y="-160.3" font-family="Consolas" font-size="14.00">ITransactionable</text>
</g>
<!-- ITradeLine&#45;&gt;ITransactionable -->
<g id="edge20" class="edge"><title>ITradeLine&#45;&gt;ITransactionable</title>
<path fill="none" stroke="black" d="M998,-334.931C1017.23,-315.036 1042.46,-281.391 1026.5,-254 1007.48,-221.352 971.538,-199.713 938.84,-185.956"/>
<polygon fill="black" stroke="black" points="939.854,-182.592 929.271,-182.11 937.244,-189.087 939.854,-182.592"/>
</g>
<!-- IObviate -->
<g id="node22" class="node"><title>IObviate</title>
<polygon fill="none" stroke="black" points="1152,-290 1075,-290 1075,-254 1152,-254 1152,-290"/>
<text text-anchor="middle" x="1113.5" y="-268.3" font-family="Consolas" font-size="14.00">IObviate</text>
</g>
<!-- ITradeLine&#45;&gt;IObviate -->
<g id="edge21" class="edge"><title>ITradeLine&#45;&gt;IObviate</title>
<path fill="none" stroke="black" d="M1025.21,-334.946C1037.04,-329.812 1049.53,-323.73 1060.5,-317 1069.92,-311.217 1079.45,-303.873 1087.78,-296.849"/>
<polygon fill="black" stroke="black" points="1090.1,-299.471 1095.36,-290.274 1085.51,-294.185 1090.1,-299.471"/>
</g>
<!-- IBalance -->
<g id="node23" class="node"><title>IBalance</title>
<polygon fill="none" stroke="black" points="798,-290 721,-290 721,-254 798,-254 798,-290"/>
<text text-anchor="middle" x="759.5" y="-268.3" font-family="Consolas" font-size="14.00">IBalance</text>
</g>
<!-- ITradeLine&#45;&gt;IBalance -->
<g id="edge24" class="edge"><title>ITradeLine&#45;&gt;IBalance</title>
<path fill="none" stroke="black" stroke-dasharray="1,5" d="M933.227,-335.458C900.555,-323.769 855.491,-307.627 807.796,-290.463"/>
<polygon fill="black" stroke="black" points="808.82,-287.111 798.225,-287.017 806.449,-293.698 808.82,-287.111"/>
<text text-anchor="middle" x="890" y="-310.6" font-family="Consolas" font-size="8.00">HAS&#45;A</text>
</g>
<!-- IBalance&#45;&gt;ITransactionable -->
<g id="edge47" class="edge"><title>IBalance&#45;&gt;ITransactionable</title>
<path fill="none" stroke="black" d="M777.173,-253.969C795.268,-236.533 823.567,-209.263 844.067,-189.508"/>
<polygon fill="black" stroke="black" points="846.733,-191.8 851.505,-182.341 841.876,-186.759 846.733,-191.8"/>
</g>
<!-- Balance -->
<g id="node24" class="node"><title>Balance</title>
<polygon fill="none" stroke="black" points="805,-371 736,-371 736,-335 805,-335 805,-371"/>
<text text-anchor="middle" x="770.5" y="-349.3" font-family="Consolas" font-size="14.00">Balance</text>
</g>
<!-- Balance&#45;&gt;IBalance -->
<g id="edge25" class="edge"><title>Balance&#45;&gt;IBalance</title>
<path fill="none" stroke="black" d="M768.113,-334.858C766.701,-324.713 764.879,-311.634 763.276,-300.117"/>
<polygon fill="black" stroke="black" points="766.728,-299.53 761.882,-290.108 759.795,-300.496 766.728,-299.53"/>
</g>
<!-- Transactions -->
<g id="node25" class="node"><title>Transactions</title>
<polygon fill="none" stroke="black" points="923,-290 816,-290 816,-254 923,-254 923,-290"/>
<text text-anchor="middle" x="869.5" y="-268.3" font-family="Consolas" font-size="14.00">Transactions</text>
</g>
<!-- Balance&#45;&gt;Transactions -->
<g id="edge26" class="edge"><title>Balance&#45;&gt;Transactions</title>
<path fill="none" stroke="black" d="M791.982,-334.858C805.993,-323.678 824.469,-308.934 839.869,-296.645"/>
<polygon fill="black" stroke="black" points="842.427,-299.081 848.06,-290.108 838.061,-293.61 842.427,-299.081"/>
</g>
<!-- Transactions&#45;&gt;ITransactionable -->
<g id="edge50" class="edge"><title>Transactions&#45;&gt;ITransactionable</title>
<path fill="none" stroke="black" d="M869.5,-253.969C869.5,-237.378 869.5,-211.883 869.5,-192.431"/>
<polygon fill="black" stroke="black" points="873,-192.341 869.5,-182.341 866,-192.341 873,-192.341"/>
</g>
<!-- ITransaction -->
<g id="node45" class="node"><title>ITransaction</title>
<polygon fill="none" stroke="black" points="1144,-182 1037,-182 1037,-146 1144,-146 1144,-182"/>
<text text-anchor="middle" x="1090.5" y="-160.3" font-family="Consolas" font-size="14.00">ITransaction</text>
</g>
<!-- Transactions&#45;&gt;ITransaction -->
<g id="edge49" class="edge"><title>Transactions&#45;&gt;ITransaction</title>
<path fill="none" stroke="black" stroke-dasharray="1,5" d="M905.007,-253.969C942.673,-235.903 1002.35,-207.28 1043.8,-187.398"/>
<polygon fill="black" stroke="black" points="1043.89,-187.354 1047.57,-181.152 1054.71,-182.164 1051.03,-188.366 1043.89,-187.354"/>
</g>
<!-- VariableRateLoan -->
<g id="node26" class="node"><title>VariableRateLoan</title>
<polygon fill="none" stroke="black" points="1104,-744 967,-744 967,-708 1104,-708 1104,-744"/>
<text text-anchor="middle" x="1035.5" y="-722.3" font-family="Consolas" font-size="14.00">VariableRateLoan</text>
</g>
<!-- VariableRateLoan&#45;&gt;LoanBase -->
<g id="edge27" class="edge"><title>VariableRateLoan&#45;&gt;LoanBase</title>
<path fill="none" stroke="black" d="M1001.01,-707.994C981.294,-698.273 956.374,-685.987 935.289,-675.59"/>
<polygon fill="black" stroke="black" points="936.726,-672.397 926.209,-671.114 933.63,-678.675 936.726,-672.397"/>
</g>
<!-- Security -->
<g id="node27" class="node"><title>Security</title>
<polygon fill="none" stroke="black" points="519,-452 442,-452 442,-416 519,-416 519,-452"/>
<text text-anchor="middle" x="480.5" y="-430.3" font-family="Consolas" font-size="14.00">Security</text>
</g>
<!-- Security&#45;&gt;IValoresTempus -->
<g id="edge28" class="edge"><title>Security&#45;&gt;IValoresTempus</title>
<path fill="none" stroke="black" d="M518.689,-415.858C545.212,-403.953 580.736,-388.008 609.074,-375.288"/>
<polygon fill="black" stroke="black" points="610.695,-378.397 618.385,-371.108 607.829,-372.01 610.695,-378.397"/>
</g>
<!-- Pecuniam -->
<g id="node28" class="node"><title>Pecuniam</title>
<polygon fill="none" stroke="black" points="519,-371 442,-371 442,-335 519,-335 519,-371"/>
<text text-anchor="middle" x="480.5" y="-349.3" font-family="Consolas" font-size="14.00">Pecuniam</text>
</g>
<!-- Security&#45;&gt;Pecuniam -->
<g id="edge29" class="edge"><title>Security&#45;&gt;Pecuniam</title>
<path fill="none" stroke="black" d="M480.5,-415.858C480.5,-405.713 480.5,-392.634 480.5,-381.117"/>
<polygon fill="black" stroke="black" points="484,-381.108 480.5,-371.108 477,-381.108 484,-381.108"/>
</g>
<!-- Cusip -->
<g id="node29" class="node"><title>Cusip</title>
<polygon fill="none" stroke="black" points="380.5,-371 326.5,-371 326.5,-335 380.5,-335 380.5,-371"/>
<text text-anchor="middle" x="353.5" y="-349.3" font-family="Consolas" font-size="14.00">Cusip</text>
</g>
<!-- Security&#45;&gt;Cusip -->
<g id="edge30" class="edge"><title>Security&#45;&gt;Cusip</title>
<path fill="none" stroke="black" stroke-dasharray="1,5" d="M452.943,-415.858C434.26,-404.236 409.387,-388.764 389.191,-376.201"/>
<polygon fill="black" stroke="black" points="390.907,-373.147 380.567,-370.837 387.21,-379.091 390.907,-373.147"/>
<text text-anchor="middle" x="426.5" y="-391.6" font-family="Consolas" font-size="8.00">Id</text>
</g>
<!-- Currency -->
<g id="node33" class="node"><title>Currency</title>
<polygon fill="none" stroke="black" points="469,-236 392,-236 392,-200 469,-200 469,-236"/>
<text text-anchor="middle" x="430.5" y="-214.3" font-family="Consolas" font-size="14.00">Currency</text>
</g>
<!-- Pecuniam&#45;&gt;Currency -->
<g id="edge34" class="edge"><title>Pecuniam&#45;&gt;Currency</title>
<path fill="none" stroke="black" stroke-dasharray="1,5" d="M469.884,-334.919C462.716,-322.767 453.504,-305.85 447.5,-290 442.151,-275.877 438.098,-259.521 435.294,-246.069"/>
<polygon fill="black" stroke="black" points="438.678,-245.137 433.312,-236.002 431.81,-246.49 438.678,-245.137"/>
<text text-anchor="middle" x="465.5" y="-310.6" font-family="Consolas" font-size="8.00">Id</text>
</g>
<!-- INumera -->
<g id="node34" class="node"><title>INumera</title>
<polygon fill="none" stroke="black" points="703,-290 634,-290 634,-254 703,-254 703,-290"/>
<text text-anchor="middle" x="668.5" y="-268.3" font-family="Consolas" font-size="14.00">INumera</text>
</g>
<!-- Pecuniam&#45;&gt;INumera -->
<g id="edge36" class="edge"><title>Pecuniam&#45;&gt;INumera</title>
<path fill="none" stroke="black" d="M519.454,-335.631C549.961,-322.811 592.413,-304.973 624.21,-291.611"/>
<polygon fill="black" stroke="black" points="625.848,-294.719 633.711,-287.619 623.136,-288.266 625.848,-294.719"/>
</g>
<!-- RIdentifierWithChkDigit -->
<g id="node30" class="node"><title>RIdentifierWithChkDigit</title>
<polygon fill="none" stroke="black" points="298,-290 109,-290 109,-254 298,-254 298,-290"/>
<text text-anchor="middle" x="203.5" y="-268.3" font-family="Consolas" font-size="14.00">RIdentifierWithChkDigit</text>
</g>
<!-- Cusip&#45;&gt;RIdentifierWithChkDigit -->
<g id="edge31" class="edge"><title>Cusip&#45;&gt;RIdentifierWithChkDigit</title>
<path fill="none" stroke="black" d="M326.336,-337.694C303.604,-325.722 270.81,-308.45 244.823,-294.764"/>
<polygon fill="black" stroke="black" points="246.422,-291.65 235.943,-290.087 243.16,-297.843 246.422,-291.65"/>
</g>
<!-- RIdentifier -->
<g id="node31" class="node"><title>RIdentifier</title>
<polygon fill="none" stroke="black" points="406,-182 307,-182 307,-146 406,-146 406,-182"/>
<text text-anchor="middle" x="356.5" y="-160.3" font-family="Consolas" font-size="14.00">RIdentifier</text>
</g>
<!-- RIdentifierWithChkDigit&#45;&gt;RIdentifier -->
<g id="edge32" class="edge"><title>RIdentifierWithChkDigit&#45;&gt;RIdentifier</title>
<path fill="none" stroke="black" d="M228.082,-253.969C253.88,-236.096 294.594,-207.889 323.249,-188.037"/>
<polygon fill="black" stroke="black" points="325.498,-190.736 331.725,-182.164 321.512,-184.982 325.498,-190.736"/>
</g>
<!-- Identifier -->
<g id="node32" class="node"><title>Identifier</title>
<polygon fill="none" stroke="black" points="480.5,-109 388.5,-109 388.5,-73 480.5,-73 480.5,-109"/>
<text text-anchor="middle" x="434.5" y="-87.3" font-family="Consolas" font-size="14.00">Identifier</text>
</g>
<!-- RIdentifier&#45;&gt;Identifier -->
<g id="edge33" class="edge"><title>RIdentifier&#45;&gt;Identifier</title>
<path fill="none" stroke="black" d="M375.382,-145.813C385.25,-136.83 397.485,-125.693 408.259,-115.886"/>
<polygon fill="black" stroke="black" points="410.753,-118.349 415.792,-109.029 406.041,-113.172 410.753,-118.349"/>
</g>
<!-- Identifier&#45;&gt;StringId -->
<g id="edge46" class="edge"><title>Identifier&#45;&gt;StringId</title>
<path fill="none" stroke="black" d="M434.5,-72.8129C434.5,-64.7895 434.5,-55.0475 434.5,-46.0691"/>
<polygon fill="black" stroke="black" points="438,-46.0288 434.5,-36.0288 431,-46.0289 438,-46.0288"/>
</g>
<!-- Currency&#45;&gt;Identifier -->
<g id="edge35" class="edge"><title>Currency&#45;&gt;Identifier</title>
<path fill="none" stroke="black" d="M431.048,-199.881C431.711,-179.146 432.838,-143.953 433.623,-119.422"/>
<polygon fill="black" stroke="black" points="437.124,-119.42 433.946,-109.313 430.128,-119.196 437.124,-119.42"/>
</g>
<!-- CreditScore -->
<g id="node35" class="node"><title>CreditScore</title>
<polygon fill="none" stroke="black" points="573,-182 474,-182 474,-146 573,-146 573,-182"/>
<text text-anchor="middle" x="523.5" y="-160.3" font-family="Consolas" font-size="14.00">CreditScore</text>
</g>
<!-- CreditScore&#45;&gt;Identifier -->
<g id="edge37" class="edge"><title>CreditScore&#45;&gt;Identifier</title>
<path fill="none" stroke="black" d="M501.956,-145.813C490.477,-136.656 476.192,-125.26 463.727,-115.316"/>
<polygon fill="black" stroke="black" points="465.846,-112.529 455.846,-109.029 461.481,-118.001 465.846,-112.529"/>
</g>
<!-- PersonalCreditScore -->
<g id="node36" class="node"><title>PersonalCreditScore</title>
<polygon fill="none" stroke="black" points="616,-290 457,-290 457,-254 616,-254 616,-290"/>
<text text-anchor="middle" x="536.5" y="-268.3" font-family="Consolas" font-size="14.00">PersonalCreditScore</text>
</g>
<!-- PersonalCreditScore&#45;&gt;CreditScore -->
<g id="edge38" class="edge"><title>PersonalCreditScore&#45;&gt;CreditScore</title>
<path fill="none" stroke="black" d="M534.411,-253.969C532.377,-237.378 529.25,-211.883 526.864,-192.431"/>
<polygon fill="black" stroke="black" points="530.318,-191.84 525.627,-182.341 523.37,-192.692 530.318,-191.84"/>
</g>
<!-- CreditCardNumber -->
<g id="node37" class="node"><title>CreditCardNumber</title>
<polygon fill="none" stroke="black" points="272,-371 135,-371 135,-335 272,-335 272,-371"/>
<text text-anchor="middle" x="203.5" y="-349.3" font-family="Consolas" font-size="14.00">CreditCardNumber</text>
</g>
<!-- CreditCardNumber&#45;&gt;RIdentifierWithChkDigit -->
<g id="edge39" class="edge"><title>CreditCardNumber&#45;&gt;RIdentifierWithChkDigit</title>
<path fill="none" stroke="black" d="M203.5,-334.858C203.5,-324.713 203.5,-311.634 203.5,-300.117"/>
<polygon fill="black" stroke="black" points="207,-300.108 203.5,-290.108 200,-300.108 207,-300.108"/>
</g>
<!-- VisaCc -->
<g id="node38" class="node"><title>VisaCc</title>
<polygon fill="none" stroke="black" points="377.5,-598 315.5,-598 315.5,-562 377.5,-562 377.5,-598"/>
<text text-anchor="middle" x="346.5" y="-576.3" font-family="Consolas" font-size="14.00">VisaCc</text>
</g>
<!-- CreditCard -->
<g id="node39" class="node"><title>CreditCard</title>
<polygon fill="none" stroke="black" points="249.5,-525 157.5,-525 157.5,-489 249.5,-489 249.5,-525"/>
<text text-anchor="middle" x="203.5" y="-503.3" font-family="Consolas" font-size="14.00">CreditCard</text>
</g>
<!-- VisaCc&#45;&gt;CreditCard -->
<g id="edge40" class="edge"><title>VisaCc&#45;&gt;CreditCard</title>
<path fill="none" stroke="black" d="M315.471,-563.594C295.49,-553.673 269.221,-540.631 247.149,-529.672"/>
<polygon fill="black" stroke="black" points="248.49,-526.43 237.977,-525.118 245.377,-532.7 248.49,-526.43"/>
</g>
<!-- ICreditCard -->
<g id="node43" class="node"><title>ICreditCard</title>
<polygon fill="none" stroke="black" points="253,-452 154,-452 154,-416 253,-416 253,-452"/>
<text text-anchor="middle" x="203.5" y="-430.3" font-family="Consolas" font-size="14.00">ICreditCard</text>
</g>
<!-- CreditCard&#45;&gt;ICreditCard -->
<g id="edge44" class="edge"><title>CreditCard&#45;&gt;ICreditCard</title>
<path fill="none" stroke="black" d="M203.5,-488.813C203.5,-480.789 203.5,-471.047 203.5,-462.069"/>
<polygon fill="black" stroke="black" points="207,-462.029 203.5,-452.029 200,-462.029 207,-462.029"/>
</g>
<!-- MasterCardCc -->
<g id="node40" class="node"><title>MasterCardCc</title>
<polygon fill="none" stroke="black" points="107,-598 0,-598 0,-562 107,-562 107,-598"/>
<text text-anchor="middle" x="53.5" y="-576.3" font-family="Consolas" font-size="14.00">MasterCardCc</text>
</g>
<!-- MasterCardCc&#45;&gt;CreditCard -->
<g id="edge41" class="edge"><title>MasterCardCc&#45;&gt;CreditCard</title>
<path fill="none" stroke="black" d="M89.4287,-561.994C110.057,-552.23 136.156,-539.876 158.182,-529.451"/>
<polygon fill="black" stroke="black" points="159.803,-532.555 167.345,-525.114 156.809,-526.228 159.803,-532.555"/>
</g>
<!-- AmexCc -->
<g id="node41" class="node"><title>AmexCc</title>
<polygon fill="none" stroke="black" points="187.5,-598 125.5,-598 125.5,-562 187.5,-562 187.5,-598"/>
<text text-anchor="middle" x="156.5" y="-576.3" font-family="Consolas" font-size="14.00">AmexCc</text>
</g>
<!-- AmexCc&#45;&gt;CreditCard -->
<g id="edge42" class="edge"><title>AmexCc&#45;&gt;CreditCard</title>
<path fill="none" stroke="black" d="M167.877,-561.813C173.477,-553.353 180.342,-542.984 186.545,-533.612"/>
<polygon fill="black" stroke="black" points="189.626,-535.299 192.227,-525.029 183.789,-531.435 189.626,-535.299"/>
</g>
<!-- DiscoverCc -->
<g id="node42" class="node"><title>DiscoverCc</title>
<polygon fill="none" stroke="black" points="297.5,-598 205.5,-598 205.5,-562 297.5,-562 297.5,-598"/>
<text text-anchor="middle" x="251.5" y="-576.3" font-family="Consolas" font-size="14.00">DiscoverCc</text>
</g>
<!-- DiscoverCc&#45;&gt;CreditCard -->
<g id="edge43" class="edge"><title>DiscoverCc&#45;&gt;CreditCard</title>
<path fill="none" stroke="black" d="M239.881,-561.813C234.103,-553.266 227.006,-542.769 220.62,-533.323"/>
<polygon fill="black" stroke="black" points="223.513,-531.353 215.012,-525.029 217.714,-535.274 223.513,-531.353"/>
</g>
<!-- ICreditCard&#45;&gt;CreditCardNumber -->
<g id="edge45" class="edge"><title>ICreditCard&#45;&gt;CreditCardNumber</title>
<path fill="none" stroke="black" stroke-dasharray="1,5" d="M203.5,-415.858C203.5,-405.713 203.5,-392.634 203.5,-381.117"/>
<polygon fill="black" stroke="black" points="207,-381.108 203.5,-371.108 200,-381.108 207,-381.108"/>
<text text-anchor="middle" x="215" y="-391.6" font-family="Consolas" font-size="8.00">HAS&#45;A</text>
</g>
<!-- AccountId -->
<g id="node44" class="node"><title>AccountId</title>
<polygon fill="none" stroke="black" points="400.5,-290 316.5,-290 316.5,-254 400.5,-254 400.5,-290"/>
<text text-anchor="middle" x="358.5" y="-268.3" font-family="Consolas" font-size="14.00">AccountId</text>
</g>
<!-- AccountId&#45;&gt;RIdentifier -->
<g id="edge48" class="edge"><title>AccountId&#45;&gt;RIdentifier</title>
<path fill="none" stroke="black" d="M358.179,-253.969C357.866,-237.378 357.385,-211.883 357.018,-192.431"/>
<polygon fill="black" stroke="black" points="360.515,-192.273 356.827,-182.341 353.517,-192.405 360.515,-192.273"/>
</g>
<!-- ITransactionId -->
<g id="node48" class="node"><title>ITransactionId</title>
<polygon fill="none" stroke="black" points="1280.5,-109 1158.5,-109 1158.5,-73 1280.5,-73 1280.5,-109"/>
<text text-anchor="middle" x="1219.5" y="-87.3" font-family="Consolas" font-size="14.00">ITransactionId</text>
</g>
<!-- ITransaction&#45;&gt;ITransactionId -->
<g id="edge53" class="edge"><title>ITransaction&#45;&gt;ITransactionId</title>
<path fill="none" stroke="black" d="M1121.4,-145.994C1138.82,-136.404 1160.78,-124.317 1179.51,-114.011"/>
<polygon fill="black" stroke="black" points="1181.33,-117.002 1188.41,-109.114 1177.96,-110.869 1181.33,-117.002"/>
</g>
<!-- Transaction -->
<g id="node46" class="node"><title>Transaction</title>
<polygon fill="none" stroke="black" points="1269,-290 1170,-290 1170,-254 1269,-254 1269,-290"/>
<text text-anchor="middle" x="1219.5" y="-268.3" font-family="Consolas" font-size="14.00">Transaction</text>
</g>
<!-- Transaction&#45;&gt;ITransaction -->
<g id="edge51" class="edge"><title>Transaction&#45;&gt;ITransaction</title>
<path fill="none" stroke="black" d="M1198.77,-253.969C1177.27,-236.303 1143.49,-208.54 1119.38,-188.729"/>
<polygon fill="black" stroke="black" points="1121.55,-185.985 1111.6,-182.341 1117.11,-191.394 1121.55,-185.985"/>
</g>
<!-- TransactionId -->
<g id="node47" class="node"><title>TransactionId</title>
<polygon fill="none" stroke="black" points="1276.5,-182 1162.5,-182 1162.5,-146 1276.5,-146 1276.5,-182"/>
<text text-anchor="middle" x="1219.5" y="-160.3" font-family="Consolas" font-size="14.00">TransactionId</text>
</g>
<!-- Transaction&#45;&gt;TransactionId -->
<g id="edge52" class="edge"><title>Transaction&#45;&gt;TransactionId</title>
<path fill="none" stroke="black" d="M1219.5,-253.969C1219.5,-237.378 1219.5,-211.883 1219.5,-192.431"/>
<polygon fill="black" stroke="black" points="1223,-192.341 1219.5,-182.341 1216,-192.341 1223,-192.341"/>
</g>
<!-- TransactionId&#45;&gt;ITransactionId -->
<g id="edge54" class="edge"><title>TransactionId&#45;&gt;ITransactionId</title>
<path fill="none" stroke="black" d="M1219.5,-145.813C1219.5,-137.789 1219.5,-128.047 1219.5,-119.069"/>
<polygon fill="black" stroke="black" points="1223,-119.029 1219.5,-109.029 1216,-119.029 1223,-119.029"/>
</g>
<!-- TraceTransactionId -->
<g id="node49" class="node"><title>TraceTransactionId</title>
<polygon fill="none" stroke="black" points="1446.5,-182 1294.5,-182 1294.5,-146 1446.5,-146 1446.5,-182"/>
<text text-anchor="middle" x="1370.5" y="-160.3" font-family="Consolas" font-size="14.00">TraceTransactionId</text>
</g>
<!-- TraceTransactionId&#45;&gt;ITransactionId -->
<g id="edge55" class="edge"><title>TraceTransactionId&#45;&gt;ITransactionId</title>
<path fill="none" stroke="black" d="M1334.33,-145.994C1313.57,-136.23 1287.29,-123.876 1265.12,-113.451"/>
<polygon fill="black" stroke="black" points="1266.44,-110.201 1255.9,-109.114 1263.46,-116.536 1266.44,-110.201"/>
</g>
<!-- Journal -->
<g id="node50" class="node"><title>Journal</title>
<polygon fill="none" stroke="black" points="802,-525 733,-525 733,-489 802,-489 802,-525"/>
<text text-anchor="middle" x="767.5" y="-503.3" font-family="Consolas" font-size="14.00">Journal</text>
</g>
<!-- Journal&#45;&gt;IAccount -->
<g id="edge57" class="edge"><title>Journal&#45;&gt;IAccount</title>
<path fill="none" stroke="black" d="M744.737,-488.911C736.532,-482.849 727.161,-476.035 718.5,-470 712.726,-465.976 706.536,-461.783 700.497,-457.755"/>
<polygon fill="black" stroke="black" points="702.093,-454.614 691.823,-452.011 698.228,-460.45 702.093,-454.614"/>
</g>
<!-- Journal&#45;&gt;Balance -->
<g id="edge56" class="edge"><title>Journal&#45;&gt;Balance</title>
<path fill="none" stroke="black" d="M767.838,-488.859C768.354,-462.745 769.341,-412.743 769.957,-381.507"/>
<polygon fill="black" stroke="black" points="773.46,-381.379 770.158,-371.311 766.462,-381.24 773.46,-381.379"/>
</g>
<!-- Ledger -->
<g id="node51" class="node"><title>Ledger</title>
<polygon fill="none" stroke="black" points="637.5,-525 575.5,-525 575.5,-489 637.5,-489 637.5,-525"/>
<text text-anchor="middle" x="606.5" y="-503.3" font-family="Consolas" font-size="14.00">Ledger</text>
</g>
<!-- Ledger&#45;&gt;IAccount -->
<g id="edge58" class="edge"><title>Ledger&#45;&gt;IAccount</title>
<path fill="none" stroke="black" stroke-dasharray="1,5" d="M620.782,-488.813C627.595,-480.615 635.898,-470.623 643.492,-461.485"/>
<polygon fill="black" stroke="black" points="643.68,-461.258 644.438,-454.087 651.349,-452.029 650.591,-459.2 643.68,-461.258"/>
</g>
</g>
</svg>
