<?xml version="1.0" encoding="UTF-8" standalone="no"?>
<!DOCTYPE svg PUBLIC "-//W3C//DTD SVG 1.1//EN"
 "http://www.w3.org/Graphics/SVG/1.1/DTD/svg11.dtd">
<!-- Generated by graphviz version 2.38.0 (20140413.2041)
 -->
<!-- Title: noFutureRandDataSp Pages: 1 -->
<svg width="1292pt" height="764pt"
 viewBox="0.00 0.00 1292.00 764.00" xmlns="http://www.w3.org/2000/svg" xmlns:xlink="http://www.w3.org/1999/xlink">
<g id="graph0" class="graph" transform="scale(1 1) rotate(0) translate(4 760)">
<title>noFutureRandDataSp</title>
<polygon fill="white" stroke="none" points="-4,4 -4,-760 1288,-760 1288,4 -4,4"/>
<!-- LoanBase -->
<g id="node1" class="node"><title>LoanBase</title>
<polygon fill="none" stroke="black" points="481.5,-540 404.5,-540 404.5,-504 481.5,-504 481.5,-540"/>
<text text-anchor="middle" x="443" y="-518.3" font-family="Consolas" font-size="14.00" fill="lightblue">LoanBase</text>
</g>
<!-- ILoan -->
<g id="node7" class="node"><title>ILoan</title>
<polygon fill="none" stroke="black" points="513,-468 459,-468 459,-432 513,-432 513,-468"/>
<text text-anchor="middle" x="486" y="-446.3" font-family="Consolas" font-size="14.00" fill="grey">ILoan</text>
</g>
<!-- LoanBase&#45;&gt;ILoan -->
<g id="edge18" class="edge"><title>LoanBase&#45;&gt;ILoan</title>
<path fill="none" stroke="black" d="M470.25,-503.831C470.25,-503.831 470.25,-478.413 470.25,-478.413"/>
<polygon fill="black" stroke="black" points="473.75,-478.413 470.25,-468.413 466.75,-478.413 473.75,-478.413"/>
</g>
<!-- NamedReceivable -->
<g id="node23" class="node"><title>NamedReceivable</title>
<polygon fill="none" stroke="black" points="402.5,-468 273.5,-468 273.5,-432 402.5,-432 402.5,-468"/>
<text text-anchor="middle" x="338" y="-446.3" font-family="Consolas" font-size="14.00" fill="blue">NamedReceivable</text>
</g>
<!-- LoanBase&#45;&gt;NamedReceivable -->
<g id="edge7" class="edge"><title>LoanBase&#45;&gt;NamedReceivable</title>
<path fill="none" stroke="black" d="M404.469,-516C397.732,-516 392.833,-516 392.833,-516 392.833,-516 392.833,-478.035 392.833,-478.035"/>
<polygon fill="black" stroke="black" points="396.333,-478.035 392.833,-468.035 389.333,-478.035 396.333,-478.035"/>
</g>
<!-- CreditCard -->
<g id="node2" class="node"><title>CreditCard</title>
<polygon fill="none" stroke="black" points="852,-468 760,-468 760,-432 852,-432 852,-468"/>
<text text-anchor="middle" x="806" y="-446.3" font-family="Consolas" font-size="14.00" fill="lightblue">CreditCard</text>
</g>
<!-- ICreditCard -->
<g id="node4" class="node"><title>ICreditCard</title>
<polygon fill="none" stroke="black" points="911.5,-396 812.5,-396 812.5,-360 911.5,-360 911.5,-396"/>
<text text-anchor="middle" x="862" y="-374.3" font-family="Consolas" font-size="14.00" fill="grey">ICreditCard</text>
</g>
<!-- CreditCard&#45;&gt;ICreditCard -->
<g id="edge42" class="edge"><title>CreditCard&#45;&gt;ICreditCard</title>
<path fill="none" stroke="black" d="M838.833,-431.831C838.833,-431.831 838.833,-406.413 838.833,-406.413"/>
<polygon fill="black" stroke="black" points="842.333,-406.413 838.833,-396.413 835.333,-406.413 842.333,-406.413"/>
</g>
<!-- CreditScore -->
<g id="node3" class="node"><title>CreditScore</title>
<polygon fill="none" stroke="black" points="1181.5,-324 1082.5,-324 1082.5,-288 1181.5,-288 1181.5,-324"/>
<text text-anchor="middle" x="1132" y="-302.3" font-family="Consolas" font-size="14.00" fill="lightblue">CreditScore</text>
</g>
<!-- Identifier -->
<g id="node17" class="node"><title>Identifier</title>
<polygon fill="none" stroke="black" points="1038,-252 946,-252 946,-216 1038,-216 1038,-252"/>
<text text-anchor="middle" x="992" y="-230.3" font-family="Consolas" font-size="14.00" fill="lightblue">Identifier</text>
</g>
<!-- CreditScore&#45;&gt;Identifier -->
<g id="edge35" class="edge"><title>CreditScore&#45;&gt;Identifier</title>
<path fill="none" stroke="black" d="M1135.25,-287.965C1135.25,-268.424 1135.25,-240 1135.25,-240 1135.25,-240 1048.11,-240 1048.11,-240"/>
<polygon fill="black" stroke="black" points="1048.11,-236.5 1038.11,-240 1048.11,-243.5 1048.11,-236.5"/>
</g>
<!-- CreditCardNumber -->
<g id="node36" class="node"><title>CreditCardNumber</title>
<polygon fill="none" stroke="black" points="930.5,-324 793.5,-324 793.5,-288 930.5,-288 930.5,-324"/>
<text text-anchor="middle" x="862" y="-302.3" font-family="Consolas" font-size="14.00" fill="blue">CreditCardNumber</text>
</g>
<!-- ICreditCard&#45;&gt;CreditCardNumber -->
<g id="edge43" class="edge"><title>ICreditCard&#45;&gt;CreditCardNumber</title>
<path fill="none" stroke="black" stroke-dasharray="1,5" d="M862,-359.831C862,-359.831 862,-334.413 862,-334.413"/>
<polygon fill="black" stroke="black" points="865.5,-334.413 862,-324.413 858.5,-334.413 865.5,-334.413"/>
<text text-anchor="middle" x="850.5" y="-353.431" font-family="Consolas" font-size="8.00">HAS&#45;A</text>
</g>
<!-- IAccount -->
<g id="node5" class="node"><title>IAccount</title>
<polygon fill="none" stroke="black" points="684.5,-324 607.5,-324 607.5,-288 684.5,-288 684.5,-324"/>
<text text-anchor="middle" x="646" y="-302.3" font-family="Consolas" font-size="14.00" fill="grey">IAccount</text>
</g>
<!-- IBalance -->
<g id="node6" class="node"><title>IBalance</title>
<polygon fill="none" stroke="black" points="639.5,-180 562.5,-180 562.5,-144 639.5,-144 639.5,-180"/>
<text text-anchor="middle" x="601" y="-158.3" font-family="Consolas" font-size="14.00" fill="grey">IBalance</text>
</g>
<!-- IAccount&#45;&gt;IBalance -->
<g id="edge23" class="edge"><title>IAccount&#45;&gt;IBalance</title>
<path fill="none" stroke="black" stroke-dasharray="1,5" d="M650.5,-287.959C650.5,-250.552 650.5,-168 650.5,-168 650.5,-168 649.401,-168 649.401,-168"/>
<polygon fill="black" stroke="black" points="649.514,-164.5 639.514,-168 649.514,-171.5 649.514,-164.5"/>
<text text-anchor="middle" x="639" y="-281.559" font-family="Consolas" font-size="8.00">HAS&#45;A</text>
</g>
<!-- IValoresTempus -->
<g id="node13" class="node"><title>IValoresTempus</title>
<polygon fill="none" stroke="black" points="635,-252 513,-252 513,-216 635,-216 635,-252"/>
<text text-anchor="middle" x="574" y="-230.3" font-family="Consolas" font-size="14.00" fill="grey">IValoresTempus</text>
</g>
<!-- IAccount&#45;&gt;IValoresTempus -->
<g id="edge21" class="edge"><title>IAccount&#45;&gt;IValoresTempus</title>
<path fill="none" stroke="black" d="M621.25,-287.831C621.25,-287.831 621.25,-262.413 621.25,-262.413"/>
<polygon fill="black" stroke="black" points="624.75,-262.413 621.25,-252.413 617.75,-262.413 624.75,-262.413"/>
</g>
<!-- IAccount&#45;&gt;Identifier -->
<g id="edge22" class="edge"><title>IAccount&#45;&gt;Identifier</title>
<path fill="none" stroke="black" stroke-dasharray="1,5" d="M678.5,-287.578C678.5,-278.721 678.5,-270 678.5,-270 678.5,-270 959,-270 959,-270 959,-270 959,-262.422 959,-262.422"/>
<polygon fill="black" stroke="black" points="962.5,-262.422 959,-252.422 955.5,-262.422 962.5,-262.422"/>
<text text-anchor="middle" x="667" y="-281.178" font-family="Consolas" font-size="8.00">HAS&#45;A</text>
</g>
<!-- ITransactionable -->
<g id="node11" class="node"><title>ITransactionable</title>
<polygon fill="none" stroke="black" points="661.5,-108 524.5,-108 524.5,-72 661.5,-72 661.5,-108"/>
<text text-anchor="middle" x="593" y="-86.3" font-family="Consolas" font-size="14.00" fill="grey">ITransactionable</text>
</g>
<!-- IBalance&#45;&gt;ITransactionable -->
<g id="edge44" class="edge"><title>IBalance&#45;&gt;ITransactionable</title>
<path fill="none" stroke="black" d="M601,-143.831C601,-143.831 601,-118.413 601,-118.413"/>
<polygon fill="black" stroke="black" points="604.5,-118.413 601,-108.413 597.5,-118.413 604.5,-118.413"/>
</g>
<!-- IReceivable -->
<g id="node8" class="node"><title>IReceivable</title>
<polygon fill="none" stroke="black" points="509.5,-324 410.5,-324 410.5,-288 509.5,-288 509.5,-324"/>
<text text-anchor="middle" x="460" y="-302.3" font-family="Consolas" font-size="14.00" fill="grey">IReceivable</text>
</g>
<!-- ITradeLine -->
<g id="node9" class="node"><title>ITradeLine</title>
<polygon fill="none" stroke="black" points="495,-252 403,-252 403,-216 495,-216 495,-252"/>
<text text-anchor="middle" x="449" y="-230.3" font-family="Consolas" font-size="14.00" fill="grey">ITradeLine</text>
</g>
<!-- IReceivable&#45;&gt;ITradeLine -->
<g id="edge16" class="edge"><title>IReceivable&#45;&gt;ITradeLine</title>
<path fill="none" stroke="black" d="M452.75,-287.831C452.75,-287.831 452.75,-262.413 452.75,-262.413"/>
<polygon fill="black" stroke="black" points="456.25,-262.413 452.75,-252.413 449.25,-262.413 456.25,-262.413"/>
</g>
<!-- IReceivable&#45;&gt;IValoresTempus -->
<g id="edge17" class="edge"><title>IReceivable&#45;&gt;IValoresTempus</title>
<path fill="none" stroke="black" d="M502.25,-287.831C502.25,-266.502 502.25,-234 502.25,-234 502.25,-234 503.309,-234 503.309,-234"/>
<polygon fill="black" stroke="black" points="502.837,-237.5 512.837,-234 502.837,-230.5 502.837,-237.5"/>
</g>
<!-- ITradeLine&#45;&gt;IBalance -->
<g id="edge25" class="edge"><title>ITradeLine&#45;&gt;IBalance</title>
<path fill="none" stroke="black" stroke-dasharray="1,5" d="M464.333,-215.831C464.333,-194.502 464.333,-162 464.333,-162 464.333,-162 552.202,-162 552.202,-162"/>
<polygon fill="black" stroke="black" points="552.202,-165.5 562.202,-162 552.202,-158.5 552.202,-165.5"/>
<text text-anchor="middle" x="452.833" y="-209.431" font-family="Consolas" font-size="8.00">HAS&#45;A</text>
</g>
<!-- ITradeLine&#45;&gt;ITransactionable -->
<g id="edge20" class="edge"><title>ITradeLine&#45;&gt;ITransactionable</title>
<path fill="none" stroke="black" d="M433.667,-215.762C433.667,-177.014 433.667,-90 433.667,-90 433.667,-90 514.041,-90 514.041,-90"/>
<polygon fill="black" stroke="black" points="514.041,-93.5001 524.041,-90 514.041,-86.5001 514.041,-93.5001"/>
</g>
<!-- ITransaction -->
<g id="node10" class="node"><title>ITransaction</title>
<polygon fill="none" stroke="black" points="786.5,-108 679.5,-108 679.5,-72 786.5,-72 786.5,-108"/>
<text text-anchor="middle" x="733" y="-86.3" font-family="Consolas" font-size="14.00" fill="grey">ITransaction</text>
</g>
<!-- ITransactionId -->
<g id="node12" class="node"><title>ITransactionId</title>
<polygon fill="none" stroke="black" points="923,-36 801,-36 801,-0 923,-0 923,-36"/>
<text text-anchor="middle" x="862" y="-14.3" font-family="Consolas" font-size="14.00" fill="grey">ITransactionId</text>
</g>
<!-- ITransaction&#45;&gt;ITransactionId -->
<g id="edge50" class="edge"><title>ITransaction&#45;&gt;ITransactionId</title>
<path fill="none" stroke="black" d="M733,-71.8314C733,-50.502 733,-18 733,-18 733,-18 790.9,-18 790.9,-18"/>
<polygon fill="black" stroke="black" points="790.9,-21.5001 800.9,-18 790.9,-14.5001 790.9,-21.5001"/>
</g>
<!-- Receivable -->
<g id="node14" class="node"><title>Receivable</title>
<polygon fill="none" stroke="black" points="396,-396 304,-396 304,-360 396,-360 396,-396"/>
<text text-anchor="middle" x="350" y="-374.3" font-family="Consolas" font-size="14.00" fill="lightblue">Receivable</text>
</g>
<!-- Receivable&#45;&gt;IReceivable -->
<g id="edge14" class="edge"><title>Receivable&#45;&gt;IReceivable</title>
<path fill="none" stroke="black" d="M396.342,-378C416.128,-378 434.75,-378 434.75,-378 434.75,-378 434.75,-334.169 434.75,-334.169"/>
<polygon fill="black" stroke="black" points="438.25,-334.169 434.75,-324.169 431.25,-334.169 438.25,-334.169"/>
</g>
<!-- TradeLine -->
<g id="node28" class="node"><title>TradeLine</title>
<polygon fill="none" stroke="black" points="392,-324 308,-324 308,-288 392,-288 392,-324"/>
<text text-anchor="middle" x="350" y="-302.3" font-family="Consolas" font-size="14.00" fill="blue">TradeLine</text>
</g>
<!-- Receivable&#45;&gt;TradeLine -->
<g id="edge15" class="edge"><title>Receivable&#45;&gt;TradeLine</title>
<path fill="none" stroke="black" d="M350,-359.831C350,-359.831 350,-334.413 350,-334.413"/>
<polygon fill="black" stroke="black" points="353.5,-334.413 350,-324.413 346.5,-334.413 353.5,-334.413"/>
</g>
<!-- TransactionId -->
<g id="node15" class="node"><title>TransactionId</title>
<polygon fill="none" stroke="black" points="919,-108 805,-108 805,-72 919,-72 919,-108"/>
<text text-anchor="middle" x="862" y="-86.3" font-family="Consolas" font-size="14.00" fill="lightblue">TransactionId</text>
</g>
<!-- TransactionId&#45;&gt;ITransactionId -->
<g id="edge51" class="edge"><title>TransactionId&#45;&gt;ITransactionId</title>
<path fill="none" stroke="black" d="M862,-71.8314C862,-71.8314 862,-46.4133 862,-46.4133"/>
<polygon fill="black" stroke="black" points="865.5,-46.4132 862,-36.4133 858.5,-46.4133 865.5,-46.4132"/>
</g>
<!-- DepositAccount -->
<g id="node16" class="node"><title>DepositAccount</title>
<polygon fill="none" stroke="black" points="225,-612 103,-612 103,-576 225,-576 225,-612"/>
<text text-anchor="middle" x="164" y="-590.3" font-family="Consolas" font-size="14.00" fill="lightblue">DepositAccount</text>
</g>
<!-- Account -->
<g id="node27" class="node"><title>Account</title>
<polygon fill="none" stroke="black" points="379.5,-540 310.5,-540 310.5,-504 379.5,-504 379.5,-540"/>
<text text-anchor="middle" x="345" y="-518.3" font-family="Consolas" font-size="14.00" fill="blue">Account</text>
</g>
<!-- DepositAccount&#45;&gt;Account -->
<g id="edge13" class="edge"><title>DepositAccount&#45;&gt;Account</title>
<path fill="none" stroke="black" d="M164,-575.578C164,-566.721 164,-558 164,-558 164,-558 345,-558 345,-558 345,-558 345,-550.422 345,-550.422"/>
<polygon fill="black" stroke="black" points="348.5,-550.422 345,-540.422 341.5,-550.422 348.5,-550.422"/>
</g>
<!-- Transactions -->
<g id="node18" class="node"><title>Transactions</title>
<polygon fill="none" stroke="black" points="779.5,-180 672.5,-180 672.5,-144 779.5,-144 779.5,-180"/>
<text text-anchor="middle" x="726" y="-158.3" font-family="Consolas" font-size="14.00" fill="lightblue">Transactions</text>
</g>
<!-- Transactions&#45;&gt;ITransaction -->
<g id="edge46" class="edge"><title>Transactions&#45;&gt;ITransaction</title>
<path fill="none" stroke="black" stroke-dasharray="1,5" d="M729.5,-143.831C729.5,-143.831 729.5,-120.413 729.5,-120.413"/>
<polygon fill="black" stroke="black" points="729.5,-120.413 725.5,-114.413 729.5,-108.413 733.5,-114.413 729.5,-120.413"/>
</g>
<!-- Transactions&#45;&gt;ITransactionable -->
<g id="edge47" class="edge"><title>Transactions&#45;&gt;ITransactionable</title>
<path fill="none" stroke="black" d="M676,-143.831C676,-122.502 676,-90 676,-90 676,-90 671.543,-90 671.543,-90"/>
<polygon fill="black" stroke="black" points="671.543,-86.5001 661.543,-90 671.542,-93.5001 671.543,-86.5001"/>
</g>
<!-- Mortgage -->
<g id="node19" class="node"><title>Mortgage</title>
<polygon fill="none" stroke="black" points="450.5,-756 373.5,-756 373.5,-720 450.5,-720 450.5,-756"/>
<text text-anchor="middle" x="412" y="-734.3" font-family="Consolas" font-size="14.00" fill="blue">Mortgage</text>
</g>
<!-- SecuredFixedRateLoan -->
<g id="node20" class="node"><title>SecuredFixedRateLoan</title>
<polygon fill="none" stroke="black" points="495.5,-684 328.5,-684 328.5,-648 495.5,-648 495.5,-684"/>
<text text-anchor="middle" x="412" y="-662.3" font-family="Consolas" font-size="14.00" fill="blue">SecuredFixedRateLoan</text>
</g>
<!-- Mortgage&#45;&gt;SecuredFixedRateLoan -->
<g id="edge1" class="edge"><title>Mortgage&#45;&gt;SecuredFixedRateLoan</title>
<path fill="none" stroke="black" d="M412,-719.831C412,-719.831 412,-694.413 412,-694.413"/>
<polygon fill="black" stroke="black" points="415.5,-694.413 412,-684.413 408.5,-694.413 415.5,-694.413"/>
</g>
<!-- FixedRateLoan -->
<g id="node21" class="node"><title>FixedRateLoan</title>
<polygon fill="none" stroke="black" points="513,-612 399,-612 399,-576 513,-576 513,-612"/>
<text text-anchor="middle" x="456" y="-590.3" font-family="Consolas" font-size="14.00" fill="blue">FixedRateLoan</text>
</g>
<!-- SecuredFixedRateLoan&#45;&gt;FixedRateLoan -->
<g id="edge2" class="edge"><title>SecuredFixedRateLoan&#45;&gt;FixedRateLoan</title>
<path fill="none" stroke="black" d="M447.25,-647.831C447.25,-647.831 447.25,-622.413 447.25,-622.413"/>
<polygon fill="black" stroke="black" points="450.75,-622.413 447.25,-612.413 443.75,-622.413 450.75,-622.413"/>
</g>
<!-- FixedRateLoan&#45;&gt;LoanBase -->
<g id="edge6" class="edge"><title>FixedRateLoan&#45;&gt;LoanBase</title>
<path fill="none" stroke="black" d="M443,-575.831C443,-575.831 443,-550.413 443,-550.413"/>
<polygon fill="black" stroke="black" points="446.5,-550.413 443,-540.413 439.5,-550.413 446.5,-550.413"/>
</g>
<!-- CreditCardAccount -->
<g id="node22" class="node"><title>CreditCardAccount</title>
<polygon fill="none" stroke="black" points="658,-684 514,-684 514,-648 658,-648 658,-684"/>
<text text-anchor="middle" x="586" y="-662.3" font-family="Consolas" font-size="14.00" fill="blue">CreditCardAccount</text>
</g>
<!-- CreditCardAccount&#45;&gt;ICreditCard -->
<g id="edge5" class="edge"><title>CreditCardAccount&#45;&gt;ICreditCard</title>
<path fill="none" stroke="black" stroke-dasharray="1,5" d="M640.25,-647.858C640.25,-589.132 640.25,-408 640.25,-408 640.25,-408 825.667,-408 825.667,-408 825.667,-408 825.667,-406.143 825.667,-406.143"/>
<polygon fill="black" stroke="black" points="829.167,-406.143 825.667,-396.143 822.167,-406.143 829.167,-406.143"/>
<text text-anchor="middle" x="628.75" y="-641.458" font-family="Consolas" font-size="8.00">HAS&#45;A</text>
</g>
<!-- CreditCardAccount&#45;&gt;IAccount -->
<g id="edge4" class="edge"><title>CreditCardAccount&#45;&gt;IAccount</title>
<path fill="none" stroke="black" d="M541.5,-647.653C541.5,-574.292 541.5,-306 541.5,-306 541.5,-306 597.385,-306 597.385,-306"/>
<polygon fill="black" stroke="black" points="597.385,-309.5 607.385,-306 597.385,-302.5 597.385,-309.5"/>
</g>
<!-- CreditCardAccount&#45;&gt;FixedRateLoan -->
<g id="edge3" class="edge"><title>CreditCardAccount&#45;&gt;FixedRateLoan</title>
<path fill="none" stroke="black" d="M513.949,-666C508.023,-666 504.25,-666 504.25,-666 504.25,-666 504.25,-622.169 504.25,-622.169"/>
<polygon fill="black" stroke="black" points="507.75,-622.169 504.25,-612.169 500.75,-622.169 507.75,-622.169"/>
</g>
<!-- NamedReceivable&#45;&gt;Receivable -->
<g id="edge24" class="edge"><title>NamedReceivable&#45;&gt;Receivable</title>
<path fill="none" stroke="black" d="M350,-431.831C350,-431.831 350,-406.413 350,-406.413"/>
<polygon fill="black" stroke="black" points="353.5,-406.413 350,-396.413 346.5,-406.413 353.5,-406.413"/>
</g>
<!-- Rent -->
<g id="node24" class="node"><title>Rent</title>
<polygon fill="none" stroke="black" points="292,-540 238,-540 238,-504 292,-504 292,-540"/>
<text text-anchor="middle" x="265" y="-518.3" font-family="Consolas" font-size="14.00" fill="blue">Rent</text>
</g>
<!-- Rent&#45;&gt;NamedReceivable -->
<g id="edge8" class="edge"><title>Rent&#45;&gt;NamedReceivable</title>
<path fill="none" stroke="black" d="M282.75,-503.831C282.75,-503.831 282.75,-478.413 282.75,-478.413"/>
<polygon fill="black" stroke="black" points="286.25,-478.413 282.75,-468.413 279.25,-478.413 286.25,-478.413"/>
</g>
<!-- CheckingAccount -->
<g id="node25" class="node"><title>CheckingAccount</title>
<polygon fill="none" stroke="black" points="269.5,-684 140.5,-684 140.5,-648 269.5,-648 269.5,-684"/>
<text text-anchor="middle" x="205" y="-662.3" font-family="Consolas" font-size="14.00" fill="blue">CheckingAccount</text>
</g>
<!-- CheckingAccount&#45;&gt;DepositAccount -->
<g id="edge9" class="edge"><title>CheckingAccount&#45;&gt;DepositAccount</title>
<path fill="none" stroke="black" d="M182.75,-647.831C182.75,-647.831 182.75,-622.413 182.75,-622.413"/>
<polygon fill="black" stroke="black" points="186.25,-622.413 182.75,-612.413 179.25,-622.413 186.25,-622.413"/>
</g>
<!-- SavingsAccount -->
<g id="node26" class="node"><title>SavingsAccount</title>
<polygon fill="none" stroke="black" points="122,-684 7.10543e-015,-684 7.10543e-015,-648 122,-648 122,-684"/>
<text text-anchor="middle" x="61" y="-662.3" font-family="Consolas" font-size="14.00" fill="blue">SavingsAccount</text>
</g>
<!-- SavingsAccount&#45;&gt;DepositAccount -->
<g id="edge10" class="edge"><title>SavingsAccount&#45;&gt;DepositAccount</title>
<path fill="none" stroke="black" d="M112.5,-647.831C112.5,-647.831 112.5,-622.413 112.5,-622.413"/>
<polygon fill="black" stroke="black" points="116,-622.413 112.5,-612.413 109,-622.413 116,-622.413"/>
</g>
<!-- Account&#45;&gt;IAccount -->
<g id="edge12" class="edge"><title>Account&#45;&gt;IAccount</title>
<path fill="none" stroke="black" d="M356.5,-503.578C356.5,-494.721 356.5,-486 356.5,-486 356.5,-486 676.833,-486 676.833,-486 676.833,-486 676.833,-334.25 676.833,-334.25"/>
<polygon fill="black" stroke="black" points="680.333,-334.25 676.833,-324.25 673.333,-334.25 680.333,-334.25"/>
</g>
<!-- Account&#45;&gt;NamedReceivable -->
<g id="edge11" class="edge"><title>Account&#45;&gt;NamedReceivable</title>
<path fill="none" stroke="black" d="M333.5,-503.831C333.5,-503.831 333.5,-478.413 333.5,-478.413"/>
<polygon fill="black" stroke="black" points="337,-478.413 333.5,-468.413 330,-478.413 337,-478.413"/>
</g>
<!-- TradeLine&#45;&gt;ITradeLine -->
<g id="edge19" class="edge"><title>TradeLine&#45;&gt;ITradeLine</title>
<path fill="none" stroke="black" d="M350,-287.831C350,-266.502 350,-234 350,-234 350,-234 392.978,-234 392.978,-234"/>
<polygon fill="black" stroke="black" points="392.978,-237.5 402.978,-234 392.978,-230.5 392.978,-237.5"/>
</g>
<!-- Balance -->
<g id="node29" class="node"><title>Balance</title>
<polygon fill="none" stroke="black" points="760.5,-252 691.5,-252 691.5,-216 760.5,-216 760.5,-252"/>
<text text-anchor="middle" x="726" y="-230.3" font-family="Consolas" font-size="14.00" fill="blue">Balance</text>
</g>
<!-- Balance&#45;&gt;IBalance -->
<g id="edge26" class="edge"><title>Balance&#45;&gt;IBalance</title>
<path fill="none" stroke="black" d="M691.338,-234C678.496,-234 667,-234 667,-234 667,-234 667,-156 667,-156 667,-156 649.774,-156 649.774,-156"/>
<polygon fill="black" stroke="black" points="649.774,-152.5 639.774,-156 649.774,-159.5 649.774,-152.5"/>
</g>
<!-- Balance&#45;&gt;Transactions -->
<g id="edge27" class="edge"><title>Balance&#45;&gt;Transactions</title>
<path fill="none" stroke="black" d="M726,-215.831C726,-215.831 726,-190.413 726,-190.413"/>
<polygon fill="black" stroke="black" points="729.5,-190.413 726,-180.413 722.5,-190.413 729.5,-190.413"/>
</g>
<!-- VariableRateLoan -->
<g id="node30" class="node"><title>VariableRateLoan</title>
<polygon fill="none" stroke="black" points="380.5,-612 243.5,-612 243.5,-576 380.5,-576 380.5,-612"/>
<text text-anchor="middle" x="312" y="-590.3" font-family="Consolas" font-size="14.00" fill="blue">VariableRateLoan</text>
</g>
<!-- VariableRateLoan&#45;&gt;LoanBase -->
<g id="edge28" class="edge"><title>VariableRateLoan&#45;&gt;LoanBase</title>
<path fill="none" stroke="black" d="M380.556,-594C384.36,-594 386.667,-594 386.667,-594 386.667,-594 386.667,-528 386.667,-528 386.667,-528 394.491,-528 394.491,-528"/>
<polygon fill="black" stroke="black" points="394.491,-531.5 404.491,-528 394.491,-524.5 394.491,-531.5"/>
</g>
<!-- Security -->
<g id="node31" class="node"><title>Security</title>
<polygon fill="none" stroke="black" points="1080.5,-468 1003.5,-468 1003.5,-432 1080.5,-432 1080.5,-468"/>
<text text-anchor="middle" x="1042" y="-446.3" font-family="Consolas" font-size="14.00" fill="blue">Security</text>
</g>
<!-- Security&#45;&gt;IValoresTempus -->
<g id="edge29" class="edge"><title>Security&#45;&gt;IValoresTempus</title>
<path fill="none" stroke="black" d="M1029.17,-431.857C1029.17,-425.539 1029.17,-420 1029.17,-420 1029.17,-420 588.25,-420 588.25,-420 588.25,-420 588.25,-262.173 588.25,-262.173"/>
<polygon fill="black" stroke="black" points="591.75,-262.173 588.25,-252.173 584.75,-262.173 591.75,-262.173"/>
</g>
<!-- Pecuniam -->
<g id="node32" class="node"><title>Pecuniam</title>
<polygon fill="none" stroke="black" points="1080.5,-396 1003.5,-396 1003.5,-360 1080.5,-360 1080.5,-396"/>
<text text-anchor="middle" x="1042" y="-374.3" font-family="Consolas" font-size="14.00" fill="blue">Pecuniam</text>
</g>
<!-- Security&#45;&gt;Pecuniam -->
<g id="edge30" class="edge"><title>Security&#45;&gt;Pecuniam</title>
<path fill="none" stroke="black" d="M1054.83,-431.831C1054.83,-431.831 1054.83,-406.413 1054.83,-406.413"/>
<polygon fill="black" stroke="black" points="1058.33,-406.413 1054.83,-396.413 1051.33,-406.413 1058.33,-406.413"/>
</g>
<!-- Cusip -->
<g id="node33" class="node"><title>Cusip</title>
<polygon fill="none" stroke="black" points="985,-396 931,-396 931,-360 985,-360 985,-396"/>
<text text-anchor="middle" x="958" y="-374.3" font-family="Consolas" font-size="14.00" fill="blue">Cusip</text>
</g>
<!-- Security&#45;&gt;Cusip -->
<g id="edge31" class="edge"><title>Security&#45;&gt;Cusip</title>
<path fill="none" stroke="black" stroke-dasharray="1,5" d="M1003.11,-450C984.411,-450 966,-450 966,-450 966,-450 966,-406.169 966,-406.169"/>
<polygon fill="black" stroke="black" points="969.5,-406.169 966,-396.169 962.5,-406.169 969.5,-406.169"/>
<text text-anchor="middle" x="998.109" y="-452.6" font-family="Consolas" font-size="8.00">Id</text>
</g>
<!-- Currency -->
<g id="node34" class="node"><title>Currency</title>
<polygon fill="none" stroke="black" points="1064.5,-324 987.5,-324 987.5,-288 1064.5,-288 1064.5,-324"/>
<text text-anchor="middle" x="1026" y="-302.3" font-family="Consolas" font-size="14.00" fill="blue">Currency</text>
</g>
<!-- Pecuniam&#45;&gt;Currency -->
<g id="edge33" class="edge"><title>Pecuniam&#45;&gt;Currency</title>
<path fill="none" stroke="black" stroke-dasharray="1,5" d="M1034,-359.831C1034,-359.831 1034,-334.413 1034,-334.413"/>
<polygon fill="black" stroke="black" points="1037.5,-334.413 1034,-324.413 1030.5,-334.413 1037.5,-334.413"/>
<text text-anchor="middle" x="1029" y="-353.431" font-family="Consolas" font-size="8.00">Id</text>
</g>
<!-- Cusip&#45;&gt;Identifier -->
<g id="edge32" class="edge"><title>Cusip&#45;&gt;Identifier</title>
<path fill="none" stroke="black" d="M972,-359.762C972,-359.762 972,-262.09 972,-262.09"/>
<polygon fill="black" stroke="black" points="975.5,-262.09 972,-252.09 968.5,-262.09 975.5,-262.09"/>
</g>
<!-- Currency&#45;&gt;Identifier -->
<g id="edge34" class="edge"><title>Currency&#45;&gt;Identifier</title>
<path fill="none" stroke="black" d="M1012.75,-287.831C1012.75,-287.831 1012.75,-262.413 1012.75,-262.413"/>
<polygon fill="black" stroke="black" points="1016.25,-262.413 1012.75,-252.413 1009.25,-262.413 1016.25,-262.413"/>
</g>
<!-- PersonalCreditScore -->
<g id="node35" class="node"><title>PersonalCreditScore</title>
<polygon fill="none" stroke="black" points="1257.5,-396 1098.5,-396 1098.5,-360 1257.5,-360 1257.5,-396"/>
<text text-anchor="middle" x="1178" y="-374.3" font-family="Consolas" font-size="14.00" fill="blue">PersonalCreditScore</text>
</g>
<!-- PersonalCreditScore&#45;&gt;CreditScore -->
<g id="edge36" class="edge"><title>PersonalCreditScore&#45;&gt;CreditScore</title>
<path fill="none" stroke="black" d="M1140,-359.831C1140,-359.831 1140,-334.413 1140,-334.413"/>
<polygon fill="black" stroke="black" points="1143.5,-334.413 1140,-324.413 1136.5,-334.413 1143.5,-334.413"/>
</g>
<!-- CreditCardNumber&#45;&gt;Identifier -->
<g id="edge37" class="edge"><title>CreditCardNumber&#45;&gt;Identifier</title>
<path fill="none" stroke="black" d="M926.75,-287.831C926.75,-266.502 926.75,-234 926.75,-234 926.75,-234 935.974,-234 935.974,-234"/>
<polygon fill="black" stroke="black" points="935.974,-237.5 945.974,-234 935.974,-230.5 935.974,-237.5"/>
</g>
<!-- VisaCc -->
<g id="node37" class="node"><title>VisaCc</title>
<polygon fill="none" stroke="black" points="631,-540 569,-540 569,-504 631,-504 631,-540"/>
<text text-anchor="middle" x="600" y="-518.3" font-family="Consolas" font-size="14.00" fill="blue">VisaCc</text>
</g>
<!-- VisaCc&#45;&gt;CreditCard -->
<g id="edge38" class="edge"><title>VisaCc&#45;&gt;CreditCard</title>
<path fill="none" stroke="black" d="M621,-503.831C621,-482.502 621,-450 621,-450 621,-450 749.794,-450 749.794,-450"/>
<polygon fill="black" stroke="black" points="749.794,-453.5 759.794,-450 749.794,-446.5 749.794,-453.5"/>
</g>
<!-- MasterCardCc -->
<g id="node38" class="node"><title>MasterCardCc</title>
<polygon fill="none" stroke="black" points="756.5,-540 649.5,-540 649.5,-504 756.5,-504 756.5,-540"/>
<text text-anchor="middle" x="703" y="-518.3" font-family="Consolas" font-size="14.00" fill="blue">MasterCardCc</text>
</g>
<!-- MasterCardCc&#45;&gt;CreditCard -->
<g id="edge39" class="edge"><title>MasterCardCc&#45;&gt;CreditCard</title>
<path fill="none" stroke="black" d="M756.558,-522C763.082,-522 767.5,-522 767.5,-522 767.5,-522 767.5,-478.169 767.5,-478.169"/>
<polygon fill="black" stroke="black" points="771,-478.169 767.5,-468.169 764,-478.169 771,-478.169"/>
</g>
<!-- AmexCc -->
<g id="node39" class="node"><title>AmexCc</title>
<polygon fill="none" stroke="black" points="837,-540 775,-540 775,-504 837,-504 837,-540"/>
<text text-anchor="middle" x="806" y="-518.3" font-family="Consolas" font-size="14.00" fill="blue">AmexCc</text>
</g>
<!-- AmexCc&#45;&gt;CreditCard -->
<g id="edge40" class="edge"><title>AmexCc&#45;&gt;CreditCard</title>
<path fill="none" stroke="black" d="M806,-503.831C806,-503.831 806,-478.413 806,-478.413"/>
<polygon fill="black" stroke="black" points="809.5,-478.413 806,-468.413 802.5,-478.413 809.5,-478.413"/>
</g>
<!-- DiscoverCc -->
<g id="node40" class="node"><title>DiscoverCc</title>
<polygon fill="none" stroke="black" points="947,-540 855,-540 855,-504 947,-504 947,-540"/>
<text text-anchor="middle" x="901" y="-518.3" font-family="Consolas" font-size="14.00" fill="blue">DiscoverCc</text>
</g>
<!-- DiscoverCc&#45;&gt;CreditCard -->
<g id="edge41" class="edge"><title>DiscoverCc&#45;&gt;CreditCard</title>
<path fill="none" stroke="black" d="M854.863,-522C848.724,-522 844.5,-522 844.5,-522 844.5,-522 844.5,-478.169 844.5,-478.169"/>
<polygon fill="black" stroke="black" points="848,-478.169 844.5,-468.169 841,-478.169 848,-478.169"/>
</g>
<!-- AccountId -->
<g id="node41" class="node"><title>AccountId</title>
<polygon fill="none" stroke="black" points="1284,-324 1200,-324 1200,-288 1284,-288 1284,-324"/>
<text text-anchor="middle" x="1242" y="-302.3" font-family="Consolas" font-size="14.00" fill="blue">AccountId</text>
</g>
<!-- AccountId&#45;&gt;Identifier -->
<g id="edge45" class="edge"><title>AccountId&#45;&gt;Identifier</title>
<path fill="none" stroke="black" d="M1242,-287.909C1242,-264.867 1242,-228 1242,-228 1242,-228 1048.15,-228 1048.15,-228"/>
<polygon fill="black" stroke="black" points="1048.15,-224.5 1038.15,-228 1048.15,-231.5 1048.15,-224.5"/>
</g>
<!-- Transaction -->
<g id="node42" class="node"><title>Transaction</title>
<polygon fill="none" stroke="black" points="907.5,-180 808.5,-180 808.5,-144 907.5,-144 907.5,-180"/>
<text text-anchor="middle" x="858" y="-158.3" font-family="Consolas" font-size="14.00" fill="blue">Transaction</text>
</g>
<!-- Transaction&#45;&gt;ITransaction -->
<g id="edge48" class="edge"><title>Transaction&#45;&gt;ITransaction</title>
<path fill="none" stroke="black" d="M808.392,-162C794.444,-162 783,-162 783,-162 783,-162 783,-118.169 783,-118.169"/>
<polygon fill="black" stroke="black" points="786.5,-118.169 783,-108.169 779.5,-118.169 786.5,-118.169"/>
</g>
<!-- Transaction&#45;&gt;TransactionId -->
<g id="edge49" class="edge"><title>Transaction&#45;&gt;TransactionId</title>
<path fill="none" stroke="black" d="M858,-143.831C858,-143.831 858,-118.413 858,-118.413"/>
<polygon fill="black" stroke="black" points="861.5,-118.413 858,-108.413 854.5,-118.413 861.5,-118.413"/>
</g>
<!-- TraceTransactionId -->
<g id="node43" class="node"><title>TraceTransactionId</title>
<polygon fill="none" stroke="black" points="1089,-108 937,-108 937,-72 1089,-72 1089,-108"/>
<text text-anchor="middle" x="1013" y="-86.3" font-family="Consolas" font-size="14.00" fill="blue">TraceTransactionId</text>
</g>
<!-- TraceTransactionId&#45;&gt;ITransactionId -->
<g id="edge52" class="edge"><title>TraceTransactionId&#45;&gt;ITransactionId</title>
<path fill="none" stroke="black" d="M1013,-71.8314C1013,-50.502 1013,-18 1013,-18 1013,-18 933.417,-18 933.417,-18"/>
<polygon fill="black" stroke="black" points="933.418,-14.5001 923.417,-18 933.417,-21.5001 933.418,-14.5001"/>
</g>
<!-- Journal -->
<g id="node44" class="node"><title>Journal</title>
<polygon fill="none" stroke="black" points="760.5,-396 691.5,-396 691.5,-360 760.5,-360 760.5,-396"/>
<text text-anchor="middle" x="726" y="-374.3" font-family="Consolas" font-size="14.00" fill="blue">Journal</text>
</g>
<!-- Journal&#45;&gt;IAccount -->
<g id="edge54" class="edge"><title>Journal&#45;&gt;IAccount</title>
<path fill="none" stroke="black" d="M691.181,-378C685.094,-378 680.667,-378 680.667,-378 680.667,-378 680.667,-334.169 680.667,-334.169"/>
<polygon fill="black" stroke="black" points="684.167,-334.169 680.667,-324.169 677.167,-334.169 684.167,-334.169"/>
</g>
<!-- Journal&#45;&gt;Balance -->
<g id="edge53" class="edge"><title>Journal&#45;&gt;Balance</title>
<path fill="none" stroke="black" d="M726,-359.762C726,-359.762 726,-262.09 726,-262.09"/>
<polygon fill="black" stroke="black" points="729.5,-262.09 726,-252.09 722.5,-262.09 729.5,-262.09"/>
</g>
<!-- Ledger -->
<g id="node45" class="node"><title>Ledger</title>
<polygon fill="none" stroke="black" points="673,-396 611,-396 611,-360 673,-360 673,-396"/>
<text text-anchor="middle" x="642" y="-374.3" font-family="Consolas" font-size="14.00" fill="blue">Ledger</text>
</g>
<!-- Ledger&#45;&gt;IAccount -->
<g id="edge55" class="edge"><title>Ledger&#45;&gt;IAccount</title>
<path fill="none" stroke="black" stroke-dasharray="1,5" d="M642,-359.831C642,-359.831 642,-336.413 642,-336.413"/>
<polygon fill="black" stroke="black" points="642,-336.413 638,-330.413 642,-324.413 646,-330.413 642,-336.413"/>
</g>
</g>
</svg>
