<?xml version="1.0" encoding="UTF-8" standalone="no"?>
<!DOCTYPE svg PUBLIC "-//W3C//DTD SVG 1.1//EN"
 "http://www.w3.org/Graphics/SVG/1.1/DTD/svg11.dtd">
<!-- Generated by graphviz version 2.38.0 (20140413.2041)
 -->
<!-- Title: noFutureRandDataSp Pages: 1 -->
<svg width="1436pt" height="933pt"
 viewBox="0.00 0.00 1436.00 933.00" xmlns="http://www.w3.org/2000/svg" xmlns:xlink="http://www.w3.org/1999/xlink">
<g id="graph0" class="graph" transform="scale(1 1) rotate(0) translate(4 929)">
<title>noFutureRandDataSp</title>
<polygon fill="white" stroke="none" points="-4,4 -4,-929 1432,-929 1432,4 -4,4"/>
<!-- StringId -->
<g id="node1" class="node"><title>StringId</title>
<polygon fill="none" stroke="black" points="628,-36 506,-36 506,-0 628,-0 628,-36"/>
<text text-anchor="middle" x="567" y="-14.3" font-family="Consolas" font-size="14.00">IIdentifier&lt;T&gt;</text>
</g>
<!-- Mortgage -->
<g id="node2" class="node"><title>Mortgage</title>
<polygon fill="none" stroke="black" points="1057.5,-925 980.5,-925 980.5,-889 1057.5,-889 1057.5,-925"/>
<text text-anchor="middle" x="1019" y="-903.3" font-family="Consolas" font-size="14.00">Mortgage</text>
</g>
<!-- SecuredFixedRateLoan -->
<g id="node3" class="node"><title>SecuredFixedRateLoan</title>
<polygon fill="none" stroke="black" points="1102.5,-852 935.5,-852 935.5,-816 1102.5,-816 1102.5,-852"/>
<text text-anchor="middle" x="1019" y="-830.3" font-family="Consolas" font-size="14.00">SecuredFixedRateLoan</text>
</g>
<!-- Mortgage&#45;&gt;SecuredFixedRateLoan -->
<g id="edge1" class="edge"><title>Mortgage&#45;&gt;SecuredFixedRateLoan</title>
<path fill="none" stroke="black" d="M1019,-888.813C1019,-880.789 1019,-871.047 1019,-862.069"/>
<polygon fill="black" stroke="black" points="1022.5,-862.029 1019,-852.029 1015.5,-862.029 1022.5,-862.029"/>
</g>
<!-- FixedRateLoan -->
<g id="node4" class="node"><title>FixedRateLoan</title>
<polygon fill="none" stroke="black" points="1076,-779 962,-779 962,-743 1076,-743 1076,-779"/>
<text text-anchor="middle" x="1019" y="-757.3" font-family="Consolas" font-size="14.00">FixedRateLoan</text>
</g>
<!-- SecuredFixedRateLoan&#45;&gt;FixedRateLoan -->
<g id="edge2" class="edge"><title>SecuredFixedRateLoan&#45;&gt;FixedRateLoan</title>
<path fill="none" stroke="black" d="M1019,-815.813C1019,-807.789 1019,-798.047 1019,-789.069"/>
<polygon fill="black" stroke="black" points="1022.5,-789.029 1019,-779.029 1015.5,-789.029 1022.5,-789.029"/>
</g>
<!-- LoanBase -->
<g id="node7" class="node"><title>LoanBase</title>
<polygon fill="none" stroke="black" points="1057.5,-706 980.5,-706 980.5,-670 1057.5,-670 1057.5,-706"/>
<text text-anchor="middle" x="1019" y="-684.3" font-family="Consolas" font-size="14.00">LoanBase</text>
</g>
<!-- FixedRateLoan&#45;&gt;LoanBase -->
<g id="edge5" class="edge"><title>FixedRateLoan&#45;&gt;LoanBase</title>
<path fill="none" stroke="black" d="M1019,-742.813C1019,-734.789 1019,-725.047 1019,-716.069"/>
<polygon fill="black" stroke="black" points="1022.5,-716.029 1019,-706.029 1015.5,-716.029 1022.5,-716.029"/>
</g>
<!-- CreditCardAccount -->
<g id="node5" class="node"><title>CreditCardAccount</title>
<polygon fill="none" stroke="black" points="818,-852 674,-852 674,-816 818,-816 818,-852"/>
<text text-anchor="middle" x="746" y="-830.3" font-family="Consolas" font-size="14.00">CreditCardAccount</text>
</g>
<!-- CreditCardAccount&#45;&gt;FixedRateLoan -->
<g id="edge3" class="edge"><title>CreditCardAccount&#45;&gt;FixedRateLoan</title>
<path fill="none" stroke="black" d="M811.39,-815.994C853.83,-804.956 908.994,-790.61 951.79,-779.479"/>
<polygon fill="black" stroke="black" points="952.757,-782.844 961.554,-776.94 950.995,-776.07 952.757,-782.844"/>
</g>
<!-- IAccount -->
<g id="node6" class="node"><title>IAccount</title>
<polygon fill="none" stroke="black" points="777.5,-579 700.5,-579 700.5,-543 777.5,-543 777.5,-579"/>
<text text-anchor="middle" x="739" y="-557.3" font-family="Consolas" font-size="14.00">IAccount</text>
</g>
<!-- CreditCardAccount&#45;&gt;IAccount -->
<g id="edge4" class="edge"><title>CreditCardAccount&#45;&gt;IAccount</title>
<path fill="none" stroke="black" d="M691.61,-815.947C668.156,-804.891 646,-787.657 646,-762 646,-762 646,-762 646,-651 646,-621.941 669.994,-599.44 693.607,-584.333"/>
<polygon fill="black" stroke="black" points="695.503,-587.276 702.244,-579.103 691.877,-581.288 695.503,-587.276"/>
</g>
<!-- IAsset -->
<g id="node17" class="node"><title>IAsset</title>
<polygon fill="none" stroke="black" points="814,-371 752,-371 752,-335 814,-335 814,-371"/>
<text text-anchor="middle" x="783" y="-349.3" font-family="Consolas" font-size="14.00">IAsset</text>
</g>
<!-- IAccount&#45;&gt;IAsset -->
<g id="edge22" class="edge"><title>IAccount&#45;&gt;IAsset</title>
<path fill="none" stroke="black" d="M742.676,-542.791C750.33,-506.955 768.03,-424.087 777.223,-381.047"/>
<polygon fill="black" stroke="black" points="780.7,-381.526 779.366,-371.015 773.854,-380.064 780.7,-381.526"/>
</g>
<!-- ITempore -->
<g id="node21" class="node"><title>ITempore</title>
<polygon fill="none" stroke="black" points="780.5,-290 703.5,-290 703.5,-254 780.5,-254 780.5,-290"/>
<text text-anchor="middle" x="742" y="-268.3" font-family="Consolas" font-size="14.00">ITempore</text>
</g>
<!-- IAccount&#45;&gt;ITempore -->
<g id="edge23" class="edge"><title>IAccount&#45;&gt;ITempore</title>
<path fill="none" stroke="black" d="M734.336,-542.75C729.933,-524.925 724,-496.228 724,-471 724,-471 724,-471 724,-352 724,-334.285 728.356,-314.881 732.782,-299.736"/>
<polygon fill="black" stroke="black" points="736.181,-300.594 735.805,-290.006 729.496,-298.517 736.181,-300.594"/>
</g>
<!-- NamedReceivable -->
<g id="node8" class="node"><title>NamedReceivable</title>
<polygon fill="none" stroke="black" points="939.5,-633 810.5,-633 810.5,-597 939.5,-597 939.5,-633"/>
<text text-anchor="middle" x="875" y="-611.3" font-family="Consolas" font-size="14.00">NamedReceivable</text>
</g>
<!-- LoanBase&#45;&gt;NamedReceivable -->
<g id="edge6" class="edge"><title>LoanBase&#45;&gt;NamedReceivable</title>
<path fill="none" stroke="black" d="M984.508,-669.994C964.794,-660.273 939.874,-647.987 918.789,-637.59"/>
<polygon fill="black" stroke="black" points="920.226,-634.397 909.709,-633.114 917.13,-640.675 920.226,-634.397"/>
</g>
<!-- ILoan -->
<g id="node20" class="node"><title>ILoan</title>
<polygon fill="none" stroke="black" points="1046,-633 992,-633 992,-597 1046,-597 1046,-633"/>
<text text-anchor="middle" x="1019" y="-611.3" font-family="Consolas" font-size="14.00">ILoan</text>
</g>
<!-- LoanBase&#45;&gt;ILoan -->
<g id="edge17" class="edge"><title>LoanBase&#45;&gt;ILoan</title>
<path fill="none" stroke="black" d="M1019,-669.813C1019,-661.789 1019,-652.047 1019,-643.069"/>
<polygon fill="black" stroke="black" points="1022.5,-643.029 1019,-633.029 1015.5,-643.029 1022.5,-643.029"/>
</g>
<!-- Receivable -->
<g id="node13" class="node"><title>Receivable</title>
<polygon fill="none" stroke="black" points="1024,-525 932,-525 932,-489 1024,-489 1024,-525"/>
<text text-anchor="middle" x="978" y="-503.3" font-family="Consolas" font-size="14.00">Receivable</text>
</g>
<!-- NamedReceivable&#45;&gt;Receivable -->
<g id="edge24" class="edge"><title>NamedReceivable&#45;&gt;Receivable</title>
<path fill="none" stroke="black" d="M891.549,-596.969C908.417,-579.61 934.757,-552.503 953.932,-532.769"/>
<polygon fill="black" stroke="black" points="956.691,-534.952 961.15,-525.341 951.671,-530.073 956.691,-534.952"/>
</g>
<!-- VocaBase -->
<g id="node18" class="node"><title>VocaBase</title>
<polygon fill="none" stroke="black" points="913.5,-525 836.5,-525 836.5,-489 913.5,-489 913.5,-525"/>
<text text-anchor="middle" x="875" y="-503.3" font-family="Consolas" font-size="14.00">VocaBase</text>
</g>
<!-- NamedReceivable&#45;&gt;VocaBase -->
<g id="edge57" class="edge"><title>NamedReceivable&#45;&gt;VocaBase</title>
<path fill="none" stroke="black" stroke-dasharray="1,5" d="M875,-596.969C875,-580.378 875,-554.883 875,-535.431"/>
<polygon fill="black" stroke="black" points="878.5,-535.341 875,-525.341 871.5,-535.341 878.5,-535.341"/>
<text text-anchor="middle" x="886.5" y="-559.1" font-family="Consolas" font-size="8.00">HAS&#45;A</text>
</g>
<!-- IVoca -->
<g id="node19" class="node"><title>IVoca</title>
<polygon fill="none" stroke="black" points="844,-452 790,-452 790,-416 844,-416 844,-452"/>
<text text-anchor="middle" x="817" y="-430.3" font-family="Consolas" font-size="14.00">IVoca</text>
</g>
<!-- NamedReceivable&#45;&gt;IVoca -->
<g id="edge25" class="edge"><title>NamedReceivable&#45;&gt;IVoca</title>
<path fill="none" stroke="black" d="M863.131,-596.826C851.821,-579.524 835.319,-551.644 827,-525 820.646,-504.648 818.217,-480.6 817.339,-462.485"/>
<polygon fill="black" stroke="black" points="820.83,-462.187 816.977,-452.318 813.835,-462.437 820.83,-462.187"/>
</g>
<!-- Rent -->
<g id="node9" class="node"><title>Rent</title>
<polygon fill="none" stroke="black" points="902,-706 848,-706 848,-670 902,-670 902,-706"/>
<text text-anchor="middle" x="875" y="-684.3" font-family="Consolas" font-size="14.00">Rent</text>
</g>
<!-- Rent&#45;&gt;NamedReceivable -->
<g id="edge7" class="edge"><title>Rent&#45;&gt;NamedReceivable</title>
<path fill="none" stroke="black" d="M875,-669.813C875,-661.789 875,-652.047 875,-643.069"/>
<polygon fill="black" stroke="black" points="878.5,-643.029 875,-633.029 871.5,-643.029 878.5,-643.029"/>
</g>
<!-- CheckingAccount -->
<g id="node10" class="node"><title>CheckingAccount</title>
<polygon fill="none" stroke="black" points="943.5,-779 814.5,-779 814.5,-743 943.5,-743 943.5,-779"/>
<text text-anchor="middle" x="879" y="-757.3" font-family="Consolas" font-size="14.00">CheckingAccount</text>
</g>
<!-- DepositAccount -->
<g id="node11" class="node"><title>DepositAccount</title>
<polygon fill="none" stroke="black" points="819,-706 697,-706 697,-670 819,-670 819,-706"/>
<text text-anchor="middle" x="758" y="-684.3" font-family="Consolas" font-size="14.00">DepositAccount</text>
</g>
<!-- CheckingAccount&#45;&gt;DepositAccount -->
<g id="edge8" class="edge"><title>CheckingAccount&#45;&gt;DepositAccount</title>
<path fill="none" stroke="black" d="M850.017,-742.994C833.823,-733.491 813.449,-721.536 795.991,-711.292"/>
<polygon fill="black" stroke="black" points="797.562,-708.156 787.165,-706.114 794.019,-714.193 797.562,-708.156"/>
</g>
<!-- DepositAccount&#45;&gt;IAccount -->
<g id="edge11" class="edge"><title>DepositAccount&#45;&gt;IAccount</title>
<path fill="none" stroke="black" d="M755.398,-669.881C752.246,-649.146 746.897,-613.953 743.168,-589.422"/>
<polygon fill="black" stroke="black" points="746.595,-588.673 741.632,-579.313 739.674,-589.725 746.595,-588.673"/>
</g>
<!-- DepositAccount&#45;&gt;NamedReceivable -->
<g id="edge10" class="edge"><title>DepositAccount&#45;&gt;NamedReceivable</title>
<path fill="none" stroke="black" d="M786.024,-669.994C801.54,-660.579 821.023,-648.755 837.799,-638.575"/>
<polygon fill="black" stroke="black" points="840.065,-641.294 846.799,-633.114 836.434,-635.309 840.065,-641.294"/>
</g>
<!-- SavingsAccount -->
<g id="node12" class="node"><title>SavingsAccount</title>
<polygon fill="none" stroke="black" points="796,-779 674,-779 674,-743 796,-743 796,-779"/>
<text text-anchor="middle" x="735" y="-757.3" font-family="Consolas" font-size="14.00">SavingsAccount</text>
</g>
<!-- SavingsAccount&#45;&gt;DepositAccount -->
<g id="edge9" class="edge"><title>SavingsAccount&#45;&gt;DepositAccount</title>
<path fill="none" stroke="black" d="M740.568,-742.813C743.195,-734.702 746.391,-724.836 749.326,-715.777"/>
<polygon fill="black" stroke="black" points="752.731,-716.621 752.484,-706.029 746.072,-714.463 752.731,-716.621"/>
</g>
<!-- IReceivable -->
<g id="node14" class="node"><title>IReceivable</title>
<polygon fill="none" stroke="black" points="961.5,-452 862.5,-452 862.5,-416 961.5,-416 961.5,-452"/>
<text text-anchor="middle" x="912" y="-430.3" font-family="Consolas" font-size="14.00">IReceivable</text>
</g>
<!-- Receivable&#45;&gt;IReceivable -->
<g id="edge12" class="edge"><title>Receivable&#45;&gt;IReceivable</title>
<path fill="none" stroke="black" d="M962.023,-488.813C953.835,-480.005 943.722,-469.125 934.736,-459.458"/>
<polygon fill="black" stroke="black" points="937.202,-456.97 927.83,-452.029 932.075,-461.736 937.202,-456.97"/>
</g>
<!-- TradeLine -->
<g id="node15" class="node"><title>TradeLine</title>
<polygon fill="none" stroke="black" points="1064,-452 980,-452 980,-416 1064,-416 1064,-452"/>
<text text-anchor="middle" x="1022" y="-430.3" font-family="Consolas" font-size="14.00">TradeLine</text>
</g>
<!-- Receivable&#45;&gt;TradeLine -->
<g id="edge13" class="edge"><title>Receivable&#45;&gt;TradeLine</title>
<path fill="none" stroke="black" d="M988.651,-488.813C993.894,-480.353 1000.32,-469.984 1006.13,-460.612"/>
<polygon fill="black" stroke="black" points="1009.15,-462.373 1011.45,-452.029 1003.2,-458.685 1009.15,-462.373"/>
</g>
<!-- ITradeLine -->
<g id="node16" class="node"><title>ITradeLine</title>
<polygon fill="none" stroke="black" points="977,-371 885,-371 885,-335 977,-335 977,-371"/>
<text text-anchor="middle" x="931" y="-349.3" font-family="Consolas" font-size="14.00">ITradeLine</text>
</g>
<!-- IReceivable&#45;&gt;ITradeLine -->
<g id="edge14" class="edge"><title>IReceivable&#45;&gt;ITradeLine</title>
<path fill="none" stroke="black" d="M916.123,-415.858C918.563,-405.713 921.708,-392.634 924.478,-381.117"/>
<polygon fill="black" stroke="black" points="927.95,-381.65 926.885,-371.108 921.144,-380.013 927.95,-381.65"/>
</g>
<!-- IReceivable&#45;&gt;IAsset -->
<g id="edge15" class="edge"><title>IReceivable&#45;&gt;IAsset</title>
<path fill="none" stroke="black" d="M884.009,-415.858C865.161,-404.315 840.11,-388.974 819.672,-376.458"/>
<polygon fill="black" stroke="black" points="821.292,-373.346 810.936,-371.108 817.636,-379.316 821.292,-373.346"/>
</g>
<!-- TradeLine&#45;&gt;ITradeLine -->
<g id="edge18" class="edge"><title>TradeLine&#45;&gt;ITradeLine</title>
<path fill="none" stroke="black" d="M1002.25,-415.858C989.495,-404.781 972.706,-390.207 958.63,-377.987"/>
<polygon fill="black" stroke="black" points="960.553,-375.021 950.707,-371.108 955.964,-380.307 960.553,-375.021"/>
</g>
<!-- ITradeLine&#45;&gt;ITempore -->
<g id="edge19" class="edge"><title>ITradeLine&#45;&gt;ITempore</title>
<path fill="none" stroke="black" d="M889.99,-334.858C860.571,-322.562 820.841,-305.955 789.953,-293.044"/>
<polygon fill="black" stroke="black" points="791.249,-289.792 780.673,-289.165 788.549,-296.251 791.249,-289.792"/>
</g>
<!-- ITransactionable -->
<g id="node22" class="node"><title>ITransactionable</title>
<polygon fill="none" stroke="black" points="1000.5,-182 863.5,-182 863.5,-146 1000.5,-146 1000.5,-182"/>
<text text-anchor="middle" x="932" y="-160.3" font-family="Consolas" font-size="14.00">ITransactionable</text>
</g>
<!-- ITradeLine&#45;&gt;ITransactionable -->
<g id="edge20" class="edge"><title>ITradeLine&#45;&gt;ITransactionable</title>
<path fill="none" stroke="black" d="M949.419,-334.98C960.4,-323.497 973.283,-307.322 979,-290 990.505,-255.141 969.8,-215.586 952.327,-190.478"/>
<polygon fill="black" stroke="black" points="955.047,-188.267 946.339,-182.231 949.382,-192.38 955.047,-188.267"/>
</g>
<!-- IObviate -->
<g id="node23" class="node"><title>IObviate</title>
<polygon fill="none" stroke="black" points="875.5,-290 798.5,-290 798.5,-254 875.5,-254 875.5,-290"/>
<text text-anchor="middle" x="837" y="-268.3" font-family="Consolas" font-size="14.00">IObviate</text>
</g>
<!-- ITradeLine&#45;&gt;IObviate -->
<g id="edge21" class="edge"><title>ITradeLine&#45;&gt;IObviate</title>
<path fill="none" stroke="black" d="M910.603,-334.858C897.3,-323.678 879.757,-308.934 865.134,-296.645"/>
<polygon fill="black" stroke="black" points="867.264,-293.863 857.357,-290.108 862.76,-299.222 867.264,-293.863"/>
</g>
<!-- IBalance -->
<g id="node24" class="node"><title>IBalance</title>
<polygon fill="none" stroke="black" points="970.5,-290 893.5,-290 893.5,-254 970.5,-254 970.5,-290"/>
<text text-anchor="middle" x="932" y="-268.3" font-family="Consolas" font-size="14.00">IBalance</text>
</g>
<!-- ITradeLine&#45;&gt;IBalance -->
<g id="edge26" class="edge"><title>ITradeLine&#45;&gt;IBalance</title>
<path fill="none" stroke="black" stroke-dasharray="1,5" d="M931.217,-334.858C931.345,-324.713 931.511,-311.634 931.657,-300.117"/>
<polygon fill="black" stroke="black" points="935.156,-300.152 931.783,-290.108 928.157,-300.063 935.156,-300.152"/>
<text text-anchor="middle" x="943.5" y="-310.6" font-family="Consolas" font-size="8.00">HAS&#45;A</text>
</g>
<!-- VocaBase&#45;&gt;IVoca -->
<g id="edge16" class="edge"><title>VocaBase&#45;&gt;IVoca</title>
<path fill="none" stroke="black" d="M860.96,-488.813C853.907,-480.179 845.228,-469.555 837.45,-460.034"/>
<polygon fill="black" stroke="black" points="839.948,-457.559 830.911,-452.029 834.527,-461.988 839.948,-457.559"/>
</g>
<!-- IBalance&#45;&gt;ITransactionable -->
<g id="edge49" class="edge"><title>IBalance&#45;&gt;ITransactionable</title>
<path fill="none" stroke="black" d="M932,-253.969C932,-237.378 932,-211.883 932,-192.431"/>
<polygon fill="black" stroke="black" points="935.5,-192.341 932,-182.341 928.5,-192.341 935.5,-192.341"/>
</g>
<!-- Balance -->
<g id="node25" class="node"><title>Balance</title>
<polygon fill="none" stroke="black" points="1077.5,-371 1008.5,-371 1008.5,-335 1077.5,-335 1077.5,-371"/>
<text text-anchor="middle" x="1043" y="-349.3" font-family="Consolas" font-size="14.00">Balance</text>
</g>
<!-- Balance&#45;&gt;IBalance -->
<g id="edge27" class="edge"><title>Balance&#45;&gt;IBalance</title>
<path fill="none" stroke="black" d="M1018.91,-334.858C1002.91,-323.471 981.72,-308.386 964.267,-295.965"/>
<polygon fill="black" stroke="black" points="966.215,-293.055 956.038,-290.108 962.156,-298.758 966.215,-293.055"/>
</g>
<!-- Ledger -->
<g id="node26" class="node"><title>Ledger</title>
<polygon fill="none" stroke="black" points="1092,-290 1030,-290 1030,-254 1092,-254 1092,-290"/>
<text text-anchor="middle" x="1061" y="-268.3" font-family="Consolas" font-size="14.00">Ledger</text>
</g>
<!-- Balance&#45;&gt;Ledger -->
<g id="edge28" class="edge"><title>Balance&#45;&gt;Ledger</title>
<path fill="none" stroke="black" d="M1046.91,-334.858C1049.22,-324.713 1052.2,-311.634 1054.82,-300.117"/>
<polygon fill="black" stroke="black" points="1058.29,-300.636 1057.1,-290.108 1051.47,-299.081 1058.29,-300.636"/>
</g>
<!-- ITransaction -->
<g id="node46" class="node"><title>ITransaction</title>
<polygon fill="none" stroke="black" points="1125.5,-182 1018.5,-182 1018.5,-146 1125.5,-146 1125.5,-182"/>
<text text-anchor="middle" x="1072" y="-160.3" font-family="Consolas" font-size="14.00">ITransaction</text>
</g>
<!-- Ledger&#45;&gt;ITransaction -->
<g id="edge51" class="edge"><title>Ledger&#45;&gt;ITransaction</title>
<path fill="none" stroke="black" stroke-dasharray="1,5" d="M1062.77,-253.969C1064.43,-237.916 1066.96,-213.526 1068.96,-194.34"/>
<polygon fill="black" stroke="black" points="1068.96,-194.277 1065.6,-187.896 1070.2,-182.341 1073.56,-188.721 1068.96,-194.277"/>
</g>
<!-- VariableRateLoan -->
<g id="node27" class="node"><title>VariableRateLoan</title>
<polygon fill="none" stroke="black" points="1231.5,-779 1094.5,-779 1094.5,-743 1231.5,-743 1231.5,-779"/>
<text text-anchor="middle" x="1163" y="-757.3" font-family="Consolas" font-size="14.00">VariableRateLoan</text>
</g>
<!-- VariableRateLoan&#45;&gt;LoanBase -->
<g id="edge29" class="edge"><title>VariableRateLoan&#45;&gt;LoanBase</title>
<path fill="none" stroke="black" d="M1128.51,-742.994C1108.79,-733.273 1083.87,-720.987 1062.79,-710.59"/>
<polygon fill="black" stroke="black" points="1064.23,-707.397 1053.71,-706.114 1061.13,-713.675 1064.23,-707.397"/>
</g>
<!-- Security -->
<g id="node28" class="node"><title>Security</title>
<polygon fill="none" stroke="black" points="537.5,-452 460.5,-452 460.5,-416 537.5,-416 537.5,-452"/>
<text text-anchor="middle" x="499" y="-430.3" font-family="Consolas" font-size="14.00">Security</text>
</g>
<!-- Security&#45;&gt;IAsset -->
<g id="edge30" class="edge"><title>Security&#45;&gt;IAsset</title>
<path fill="none" stroke="black" d="M537.597,-422.263C591.138,-407.37 687.514,-380.561 742.201,-365.349"/>
<polygon fill="black" stroke="black" points="743.212,-368.701 751.908,-362.649 741.336,-361.957 743.212,-368.701"/>
</g>
<!-- Pecuniam -->
<g id="node29" class="node"><title>Pecuniam</title>
<polygon fill="none" stroke="black" points="537.5,-371 460.5,-371 460.5,-335 537.5,-335 537.5,-371"/>
<text text-anchor="middle" x="499" y="-349.3" font-family="Consolas" font-size="14.00">Pecuniam</text>
</g>
<!-- Security&#45;&gt;Pecuniam -->
<g id="edge31" class="edge"><title>Security&#45;&gt;Pecuniam</title>
<path fill="none" stroke="black" d="M499,-415.858C499,-405.713 499,-392.634 499,-381.117"/>
<polygon fill="black" stroke="black" points="502.5,-381.108 499,-371.108 495.5,-381.108 502.5,-381.108"/>
</g>
<!-- Cusip -->
<g id="node30" class="node"><title>Cusip</title>
<polygon fill="none" stroke="black" points="384,-371 330,-371 330,-335 384,-335 384,-371"/>
<text text-anchor="middle" x="357" y="-349.3" font-family="Consolas" font-size="14.00">Cusip</text>
</g>
<!-- Security&#45;&gt;Cusip -->
<g id="edge32" class="edge"><title>Security&#45;&gt;Cusip</title>
<path fill="none" stroke="black" stroke-dasharray="1,5" d="M468.188,-415.858C446.153,-403.599 416.417,-387.056 393.241,-374.162"/>
<polygon fill="black" stroke="black" points="394.832,-371.042 384.392,-369.239 391.429,-377.16 394.832,-371.042"/>
<text text-anchor="middle" x="438" y="-391.6" font-family="Consolas" font-size="8.00">Id</text>
</g>
<!-- Currency -->
<g id="node34" class="node"><title>Currency</title>
<polygon fill="none" stroke="black" points="706.5,-236 629.5,-236 629.5,-200 706.5,-200 706.5,-236"/>
<text text-anchor="middle" x="668" y="-214.3" font-family="Consolas" font-size="14.00">Currency</text>
</g>
<!-- Pecuniam&#45;&gt;Currency -->
<g id="edge36" class="edge"><title>Pecuniam&#45;&gt;Currency</title>
<path fill="none" stroke="black" stroke-dasharray="1,5" d="M537.586,-347.292C573.555,-340.782 625.895,-325.495 655,-290 664.877,-277.954 668.227,-260.865 669.06,-246.471"/>
<polygon fill="black" stroke="black" points="672.567,-246.187 669.273,-236.117 665.568,-246.043 672.567,-246.187"/>
<text text-anchor="middle" x="640" y="-310.6" font-family="Consolas" font-size="8.00">Id</text>
</g>
<!-- INumera -->
<g id="node35" class="node"><title>INumera</title>
<polygon fill="none" stroke="black" points="469.5,-290 400.5,-290 400.5,-254 469.5,-254 469.5,-290"/>
<text text-anchor="middle" x="435" y="-268.3" font-family="Consolas" font-size="14.00">INumera</text>
</g>
<!-- Pecuniam&#45;&gt;INumera -->
<g id="edge38" class="edge"><title>Pecuniam&#45;&gt;INumera</title>
<path fill="none" stroke="black" d="M485.113,-334.858C476.391,-324.092 464.992,-310.021 455.269,-298.02"/>
<polygon fill="black" stroke="black" points="457.874,-295.675 448.86,-290.108 452.435,-300.082 457.874,-295.675"/>
</g>
<!-- RIdentifierWithChkDigit -->
<g id="node31" class="node"><title>RIdentifierWithChkDigit</title>
<polygon fill="none" stroke="black" points="279.5,-290 90.5,-290 90.5,-254 279.5,-254 279.5,-290"/>
<text text-anchor="middle" x="185" y="-268.3" font-family="Consolas" font-size="14.00">RIdentifierWithChkDigit</text>
</g>
<!-- Cusip&#45;&gt;RIdentifierWithChkDigit -->
<g id="edge33" class="edge"><title>Cusip&#45;&gt;RIdentifierWithChkDigit</title>
<path fill="none" stroke="black" d="M329.746,-339.482C303.392,-327.378 262.939,-308.797 231.491,-294.353"/>
<polygon fill="black" stroke="black" points="232.594,-291.009 222.046,-290.015 229.673,-297.37 232.594,-291.009"/>
</g>
<!-- RIdentifier -->
<g id="node32" class="node"><title>RIdentifier</title>
<polygon fill="none" stroke="black" points="389.5,-182 290.5,-182 290.5,-146 389.5,-146 389.5,-182"/>
<text text-anchor="middle" x="340" y="-160.3" font-family="Consolas" font-size="14.00">RIdentifier</text>
</g>
<!-- RIdentifierWithChkDigit&#45;&gt;RIdentifier -->
<g id="edge34" class="edge"><title>RIdentifierWithChkDigit&#45;&gt;RIdentifier</title>
<path fill="none" stroke="black" d="M209.903,-253.969C236.039,-236.096 277.284,-207.889 306.314,-188.037"/>
<polygon fill="black" stroke="black" points="308.623,-190.698 314.901,-182.164 304.671,-184.92 308.623,-190.698"/>
</g>
<!-- Identifier -->
<g id="node33" class="node"><title>Identifier</title>
<polygon fill="none" stroke="black" points="613,-109 521,-109 521,-73 613,-73 613,-109"/>
<text text-anchor="middle" x="567" y="-87.3" font-family="Consolas" font-size="14.00">Identifier</text>
</g>
<!-- RIdentifier&#45;&gt;Identifier -->
<g id="edge35" class="edge"><title>RIdentifier&#45;&gt;Identifier</title>
<path fill="none" stroke="black" d="M389.536,-147.506C425.342,-136.307 473.758,-121.164 510.974,-109.524"/>
<polygon fill="black" stroke="black" points="512.167,-112.818 520.666,-106.492 510.077,-106.137 512.167,-112.818"/>
</g>
<!-- Identifier&#45;&gt;StringId -->
<g id="edge48" class="edge"><title>Identifier&#45;&gt;StringId</title>
<path fill="none" stroke="black" d="M567,-72.8129C567,-64.7895 567,-55.0475 567,-46.0691"/>
<polygon fill="black" stroke="black" points="570.5,-46.0288 567,-36.0288 563.5,-46.0289 570.5,-46.0288"/>
</g>
<!-- Currency&#45;&gt;Identifier -->
<g id="edge37" class="edge"><title>Currency&#45;&gt;Identifier</title>
<path fill="none" stroke="black" d="M659.319,-199.781C651.389,-184.837 638.821,-162.993 625,-146 616.369,-135.388 605.694,-124.874 595.864,-115.983"/>
<polygon fill="black" stroke="black" points="598.03,-113.225 588.218,-109.229 593.396,-118.472 598.03,-113.225"/>
</g>
<!-- CreditScore -->
<g id="node36" class="node"><title>CreditScore</title>
<polygon fill="none" stroke="black" points="616.5,-182 517.5,-182 517.5,-146 616.5,-146 616.5,-182"/>
<text text-anchor="middle" x="567" y="-160.3" font-family="Consolas" font-size="14.00">CreditScore</text>
</g>
<!-- CreditScore&#45;&gt;Identifier -->
<g id="edge39" class="edge"><title>CreditScore&#45;&gt;Identifier</title>
<path fill="none" stroke="black" d="M567,-145.813C567,-137.789 567,-128.047 567,-119.069"/>
<polygon fill="black" stroke="black" points="570.5,-119.029 567,-109.029 563.5,-119.029 570.5,-119.029"/>
</g>
<!-- PersonalCreditScore -->
<g id="node37" class="node"><title>PersonalCreditScore</title>
<polygon fill="none" stroke="black" points="646.5,-290 487.5,-290 487.5,-254 646.5,-254 646.5,-290"/>
<text text-anchor="middle" x="567" y="-268.3" font-family="Consolas" font-size="14.00">PersonalCreditScore</text>
</g>
<!-- PersonalCreditScore&#45;&gt;CreditScore -->
<g id="edge40" class="edge"><title>PersonalCreditScore&#45;&gt;CreditScore</title>
<path fill="none" stroke="black" d="M567,-253.969C567,-237.378 567,-211.883 567,-192.431"/>
<polygon fill="black" stroke="black" points="570.5,-192.341 567,-182.341 563.5,-192.341 570.5,-192.341"/>
</g>
<!-- CreditCardNumber -->
<g id="node38" class="node"><title>CreditCardNumber</title>
<polygon fill="none" stroke="black" points="253.5,-371 116.5,-371 116.5,-335 253.5,-335 253.5,-371"/>
<text text-anchor="middle" x="185" y="-349.3" font-family="Consolas" font-size="14.00">CreditCardNumber</text>
</g>
<!-- CreditCardNumber&#45;&gt;RIdentifierWithChkDigit -->
<g id="edge41" class="edge"><title>CreditCardNumber&#45;&gt;RIdentifierWithChkDigit</title>
<path fill="none" stroke="black" d="M185,-334.858C185,-324.713 185,-311.634 185,-300.117"/>
<polygon fill="black" stroke="black" points="188.5,-300.108 185,-290.108 181.5,-300.108 188.5,-300.108"/>
</g>
<!-- VisaCc -->
<g id="node39" class="node"><title>VisaCc</title>
<polygon fill="none" stroke="black" points="62,-633 0,-633 0,-597 62,-597 62,-633"/>
<text text-anchor="middle" x="31" y="-611.3" font-family="Consolas" font-size="14.00">VisaCc</text>
</g>
<!-- CreditCard -->
<g id="node40" class="node"><title>CreditCard</title>
<polygon fill="none" stroke="black" points="231,-525 139,-525 139,-489 231,-489 231,-525"/>
<text text-anchor="middle" x="185" y="-503.3" font-family="Consolas" font-size="14.00">CreditCard</text>
</g>
<!-- VisaCc&#45;&gt;CreditCard -->
<g id="edge42" class="edge"><title>VisaCc&#45;&gt;CreditCard</title>
<path fill="none" stroke="black" d="M55.7428,-596.969C81.7096,-579.096 122.689,-550.889 151.532,-531.037"/>
<polygon fill="black" stroke="black" points="153.81,-533.717 160.063,-525.164 149.842,-527.951 153.81,-533.717"/>
</g>
<!-- ICreditCard -->
<g id="node44" class="node"><title>ICreditCard</title>
<polygon fill="none" stroke="black" points="234.5,-452 135.5,-452 135.5,-416 234.5,-416 234.5,-452"/>
<text text-anchor="middle" x="185" y="-430.3" font-family="Consolas" font-size="14.00">ICreditCard</text>
</g>
<!-- CreditCard&#45;&gt;ICreditCard -->
<g id="edge46" class="edge"><title>CreditCard&#45;&gt;ICreditCard</title>
<path fill="none" stroke="black" d="M185,-488.813C185,-480.789 185,-471.047 185,-462.069"/>
<polygon fill="black" stroke="black" points="188.5,-462.029 185,-452.029 181.5,-462.029 188.5,-462.029"/>
</g>
<!-- MasterCardCc -->
<g id="node41" class="node"><title>MasterCardCc</title>
<polygon fill="none" stroke="black" points="187.5,-633 80.5,-633 80.5,-597 187.5,-597 187.5,-633"/>
<text text-anchor="middle" x="134" y="-611.3" font-family="Consolas" font-size="14.00">MasterCardCc</text>
</g>
<!-- MasterCardCc&#45;&gt;CreditCard -->
<g id="edge43" class="edge"><title>MasterCardCc&#45;&gt;CreditCard</title>
<path fill="none" stroke="black" d="M142.194,-596.969C150.324,-580.071 162.899,-553.935 172.319,-534.356"/>
<polygon fill="black" stroke="black" points="175.475,-535.869 176.657,-525.341 169.167,-532.834 175.475,-535.869"/>
</g>
<!-- AmexCc -->
<g id="node42" class="node"><title>AmexCc</title>
<polygon fill="none" stroke="black" points="268,-633 206,-633 206,-597 268,-597 268,-633"/>
<text text-anchor="middle" x="237" y="-611.3" font-family="Consolas" font-size="14.00">AmexCc</text>
</g>
<!-- AmexCc&#45;&gt;CreditCard -->
<g id="edge44" class="edge"><title>AmexCc&#45;&gt;CreditCard</title>
<path fill="none" stroke="black" d="M228.645,-596.969C220.355,-580.071 207.534,-553.935 197.929,-534.356"/>
<polygon fill="black" stroke="black" points="201.053,-532.777 193.507,-525.341 194.769,-535.86 201.053,-532.777"/>
</g>
<!-- DiscoverCc -->
<g id="node43" class="node"><title>DiscoverCc</title>
<polygon fill="none" stroke="black" points="378,-633 286,-633 286,-597 378,-597 378,-633"/>
<text text-anchor="middle" x="332" y="-611.3" font-family="Consolas" font-size="14.00">DiscoverCc</text>
</g>
<!-- DiscoverCc&#45;&gt;CreditCard -->
<g id="edge45" class="edge"><title>DiscoverCc&#45;&gt;CreditCard</title>
<path fill="none" stroke="black" d="M308.382,-596.969C283.669,-579.149 244.711,-551.057 217.192,-531.214"/>
<polygon fill="black" stroke="black" points="219.206,-528.351 209.048,-525.341 215.112,-534.028 219.206,-528.351"/>
</g>
<!-- ICreditCard&#45;&gt;CreditCardNumber -->
<g id="edge47" class="edge"><title>ICreditCard&#45;&gt;CreditCardNumber</title>
<path fill="none" stroke="black" stroke-dasharray="1,5" d="M185,-415.858C185,-405.713 185,-392.634 185,-381.117"/>
<polygon fill="black" stroke="black" points="188.5,-381.108 185,-371.108 181.5,-381.108 188.5,-381.108"/>
<text text-anchor="middle" x="196.5" y="-391.6" font-family="Consolas" font-size="8.00">HAS&#45;A</text>
</g>
<!-- AccountId -->
<g id="node45" class="node"><title>AccountId</title>
<polygon fill="none" stroke="black" points="382,-290 298,-290 298,-254 382,-254 382,-290"/>
<text text-anchor="middle" x="340" y="-268.3" font-family="Consolas" font-size="14.00">AccountId</text>
</g>
<!-- AccountId&#45;&gt;RIdentifier -->
<g id="edge50" class="edge"><title>AccountId&#45;&gt;RIdentifier</title>
<path fill="none" stroke="black" d="M340,-253.969C340,-237.378 340,-211.883 340,-192.431"/>
<polygon fill="black" stroke="black" points="343.5,-192.341 340,-182.341 336.5,-192.341 343.5,-192.341"/>
</g>
<!-- ITransactionId -->
<g id="node49" class="node"><title>ITransactionId</title>
<polygon fill="none" stroke="black" points="1262,-109 1140,-109 1140,-73 1262,-73 1262,-109"/>
<text text-anchor="middle" x="1201" y="-87.3" font-family="Consolas" font-size="14.00">ITransactionId</text>
</g>
<!-- ITransaction&#45;&gt;ITransactionId -->
<g id="edge54" class="edge"><title>ITransaction&#45;&gt;ITransactionId</title>
<path fill="none" stroke="black" d="M1102.9,-145.994C1120.32,-136.404 1142.28,-124.317 1161.01,-114.011"/>
<polygon fill="black" stroke="black" points="1162.83,-117.002 1169.91,-109.114 1159.46,-110.869 1162.83,-117.002"/>
</g>
<!-- Transaction -->
<g id="node47" class="node"><title>Transaction</title>
<polygon fill="none" stroke="black" points="1219.5,-290 1120.5,-290 1120.5,-254 1219.5,-254 1219.5,-290"/>
<text text-anchor="middle" x="1170" y="-268.3" font-family="Consolas" font-size="14.00">Transaction</text>
</g>
<!-- Transaction&#45;&gt;ITransaction -->
<g id="edge52" class="edge"><title>Transaction&#45;&gt;ITransaction</title>
<path fill="none" stroke="black" d="M1154.25,-253.969C1138.21,-236.61 1113.14,-209.503 1094.9,-189.769"/>
<polygon fill="black" stroke="black" points="1097.39,-187.307 1088.03,-182.341 1092.25,-192.059 1097.39,-187.307"/>
</g>
<!-- TransactionId -->
<g id="node48" class="node"><title>TransactionId</title>
<polygon fill="none" stroke="black" points="1258,-182 1144,-182 1144,-146 1258,-146 1258,-182"/>
<text text-anchor="middle" x="1201" y="-160.3" font-family="Consolas" font-size="14.00">TransactionId</text>
</g>
<!-- Transaction&#45;&gt;TransactionId -->
<g id="edge53" class="edge"><title>Transaction&#45;&gt;TransactionId</title>
<path fill="none" stroke="black" d="M1174.98,-253.969C1179.86,-237.301 1187.36,-211.646 1193.06,-192.161"/>
<polygon fill="black" stroke="black" points="1196.48,-192.921 1195.93,-182.341 1189.76,-190.956 1196.48,-192.921"/>
</g>
<!-- TransactionId&#45;&gt;ITransactionId -->
<g id="edge55" class="edge"><title>TransactionId&#45;&gt;ITransactionId</title>
<path fill="none" stroke="black" d="M1201,-145.813C1201,-137.789 1201,-128.047 1201,-119.069"/>
<polygon fill="black" stroke="black" points="1204.5,-119.029 1201,-109.029 1197.5,-119.029 1204.5,-119.029"/>
</g>
<!-- TraceTransactionId -->
<g id="node50" class="node"><title>TraceTransactionId</title>
<polygon fill="none" stroke="black" points="1428,-182 1276,-182 1276,-146 1428,-146 1428,-182"/>
<text text-anchor="middle" x="1352" y="-160.3" font-family="Consolas" font-size="14.00">TraceTransactionId</text>
</g>
<!-- TraceTransactionId&#45;&gt;ITransactionId -->
<g id="edge56" class="edge"><title>TraceTransactionId&#45;&gt;ITransactionId</title>
<path fill="none" stroke="black" d="M1315.83,-145.994C1295.07,-136.23 1268.79,-123.876 1246.62,-113.451"/>
<polygon fill="black" stroke="black" points="1247.94,-110.201 1237.4,-109.114 1244.96,-116.536 1247.94,-110.201"/>
</g>
</g>
</svg>
