<?xml version="1.0" encoding="UTF-8" standalone="no"?>
<!DOCTYPE svg PUBLIC "-//W3C//DTD SVG 1.1//EN"
 "http://www.w3.org/Graphics/SVG/1.1/DTD/svg11.dtd">
<!-- Generated by graphviz version 2.38.0 (20140413.2041)
 -->
<!-- Title: noFutureRandDataSp Pages: 1 -->
<svg width="1257pt" height="764pt"
 viewBox="0.00 0.00 1256.50 764.00" xmlns="http://www.w3.org/2000/svg" xmlns:xlink="http://www.w3.org/1999/xlink">
<g id="graph0" class="graph" transform="scale(1 1) rotate(0) translate(4 760)">
<title>noFutureRandDataSp</title>
<polygon fill="white" stroke="none" points="-4,4 -4,-760 1252.5,-760 1252.5,4 -4,4"/>
<!-- LoanBase -->
<g id="node1" class="node"><title>LoanBase</title>
<polygon fill="none" stroke="black" points="534,-540 457,-540 457,-504 534,-504 534,-540"/>
<text text-anchor="middle" x="495.5" y="-518.3" font-family="Consolas" font-size="14.00" fill="lightblue">LoanBase</text>
</g>
<!-- ILoan -->
<g id="node7" class="node"><title>ILoan</title>
<polygon fill="none" stroke="black" points="570.5,-468 516.5,-468 516.5,-432 570.5,-432 570.5,-468"/>
<text text-anchor="middle" x="543.5" y="-446.3" font-family="Consolas" font-size="14.00" fill="grey">ILoan</text>
</g>
<!-- LoanBase&#45;&gt;ILoan -->
<g id="edge18" class="edge"><title>LoanBase&#45;&gt;ILoan</title>
<path fill="none" stroke="black" d="M525.25,-503.831C525.25,-503.831 525.25,-478.413 525.25,-478.413"/>
<polygon fill="black" stroke="black" points="528.75,-478.413 525.25,-468.413 521.75,-478.413 528.75,-478.413"/>
</g>
<!-- NamedReceivable -->
<g id="node23" class="node"><title>NamedReceivable</title>
<polygon fill="none" stroke="black" points="424,-468 295,-468 295,-432 424,-432 424,-468"/>
<text text-anchor="middle" x="359.5" y="-446.3" font-family="Consolas" font-size="14.00" fill="blue">NamedReceivable</text>
</g>
<!-- LoanBase&#45;&gt;NamedReceivable -->
<g id="edge7" class="edge"><title>LoanBase&#45;&gt;NamedReceivable</title>
<path fill="none" stroke="black" d="M464,-503.831C464,-482.502 464,-450 464,-450 464,-450 434.195,-450 434.195,-450"/>
<polygon fill="black" stroke="black" points="434.195,-446.5 424.195,-450 434.195,-453.5 434.195,-446.5"/>
</g>
<!-- CreditCard -->
<g id="node2" class="node"><title>CreditCard</title>
<polygon fill="none" stroke="black" points="916.5,-468 824.5,-468 824.5,-432 916.5,-432 916.5,-468"/>
<text text-anchor="middle" x="870.5" y="-446.3" font-family="Consolas" font-size="14.00" fill="lightblue">CreditCard</text>
</g>
<!-- ICreditCard -->
<g id="node4" class="node"><title>ICreditCard</title>
<polygon fill="none" stroke="black" points="1009,-396 910,-396 910,-360 1009,-360 1009,-396"/>
<text text-anchor="middle" x="959.5" y="-374.3" font-family="Consolas" font-size="14.00" fill="grey">ICreditCard</text>
</g>
<!-- CreditCard&#45;&gt;ICreditCard -->
<g id="edge41" class="edge"><title>CreditCard&#45;&gt;ICreditCard</title>
<path fill="none" stroke="black" d="M901,-431.831C901,-410.502 901,-378 901,-378 901,-378 901.863,-378 901.863,-378"/>
<polygon fill="black" stroke="black" points="899.632,-381.5 909.632,-378 899.632,-374.5 899.632,-381.5"/>
</g>
<!-- CreditScore -->
<g id="node3" class="node"><title>CreditScore</title>
<polygon fill="none" stroke="black" points="1146,-324 1047,-324 1047,-288 1146,-288 1146,-324"/>
<text text-anchor="middle" x="1096.5" y="-302.3" font-family="Consolas" font-size="14.00" fill="lightblue">CreditScore</text>
</g>
<!-- Identifier -->
<g id="node17" class="node"><title>Identifier</title>
<polygon fill="none" stroke="black" points="943.5,-252 851.5,-252 851.5,-216 943.5,-216 943.5,-252"/>
<text text-anchor="middle" x="897.5" y="-230.3" font-family="Consolas" font-size="14.00" fill="lightblue">Identifier</text>
</g>
<!-- CreditScore&#45;&gt;Identifier -->
<g id="edge34" class="edge"><title>CreditScore&#45;&gt;Identifier</title>
<path fill="none" stroke="black" d="M1096.5,-287.965C1096.5,-268.424 1096.5,-240 1096.5,-240 1096.5,-240 953.655,-240 953.655,-240"/>
<polygon fill="black" stroke="black" points="953.655,-236.5 943.655,-240 953.655,-243.5 953.655,-236.5"/>
</g>
<!-- CreditCardNumber -->
<g id="node36" class="node"><title>CreditCardNumber</title>
<polygon fill="none" stroke="black" points="1029,-324 892,-324 892,-288 1029,-288 1029,-324"/>
<text text-anchor="middle" x="960.5" y="-302.3" font-family="Consolas" font-size="14.00" fill="blue">CreditCardNumber</text>
</g>
<!-- ICreditCard&#45;&gt;CreditCardNumber -->
<g id="edge42" class="edge"><title>ICreditCard&#45;&gt;CreditCardNumber</title>
<path fill="none" stroke="black" stroke-dasharray="1,5" d="M959.5,-359.831C959.5,-359.831 959.5,-334.413 959.5,-334.413"/>
<polygon fill="black" stroke="black" points="963,-334.413 959.5,-324.413 956,-334.413 963,-334.413"/>
<text text-anchor="middle" x="948" y="-353.431" font-family="Consolas" font-size="8.00">HAS&#45;A</text>
</g>
<!-- IAccount -->
<g id="node5" class="node"><title>IAccount</title>
<polygon fill="none" stroke="black" points="634,-324 557,-324 557,-288 634,-288 634,-324"/>
<text text-anchor="middle" x="595.5" y="-302.3" font-family="Consolas" font-size="14.00" fill="grey">IAccount</text>
</g>
<!-- IValoresTempus -->
<g id="node13" class="node"><title>IValoresTempus</title>
<polygon fill="none" stroke="black" points="656.5,-252 534.5,-252 534.5,-216 656.5,-216 656.5,-252"/>
<text text-anchor="middle" x="595.5" y="-230.3" font-family="Consolas" font-size="14.00" fill="grey">IValoresTempus</text>
</g>
<!-- IAccount&#45;&gt;IValoresTempus -->
<g id="edge21" class="edge"><title>IAccount&#45;&gt;IValoresTempus</title>
<path fill="none" stroke="black" d="M595.5,-287.831C595.5,-287.831 595.5,-262.413 595.5,-262.413"/>
<polygon fill="black" stroke="black" points="599,-262.413 595.5,-252.413 592,-262.413 599,-262.413"/>
</g>
<!-- IAccount&#45;&gt;Identifier -->
<g id="edge22" class="edge"><title>IAccount&#45;&gt;Identifier</title>
<path fill="none" stroke="black" stroke-dasharray="1,5" d="M634.27,-306C651.84,-306 668.75,-306 668.75,-306 668.75,-306 668.75,-225 668.75,-225 668.75,-225 841.484,-225 841.484,-225"/>
<polygon fill="black" stroke="black" points="841.484,-228.5 851.484,-225 841.484,-221.5 841.484,-228.5"/>
<text text-anchor="middle" x="645.77" y="-308.6" font-family="Consolas" font-size="8.00">HAS&#45;A</text>
</g>
<!-- IBalance -->
<g id="node6" class="node"><title>IBalance</title>
<polygon fill="none" stroke="black" points="402,-180 325,-180 325,-144 402,-144 402,-180"/>
<text text-anchor="middle" x="363.5" y="-158.3" font-family="Consolas" font-size="14.00" fill="grey">IBalance</text>
</g>
<!-- ITransactionable -->
<g id="node11" class="node"><title>ITransactionable</title>
<polygon fill="none" stroke="black" points="417,-108 280,-108 280,-72 417,-72 417,-108"/>
<text text-anchor="middle" x="348.5" y="-86.3" font-family="Consolas" font-size="14.00" fill="grey">ITransactionable</text>
</g>
<!-- IBalance&#45;&gt;ITransactionable -->
<g id="edge43" class="edge"><title>IBalance&#45;&gt;ITransactionable</title>
<path fill="none" stroke="black" d="M363.5,-143.831C363.5,-143.831 363.5,-118.413 363.5,-118.413"/>
<polygon fill="black" stroke="black" points="367,-118.413 363.5,-108.413 360,-118.413 367,-118.413"/>
</g>
<!-- IReceivable -->
<g id="node8" class="node"><title>IReceivable</title>
<polygon fill="none" stroke="black" points="425,-324 326,-324 326,-288 425,-288 425,-324"/>
<text text-anchor="middle" x="375.5" y="-302.3" font-family="Consolas" font-size="14.00" fill="grey">IReceivable</text>
</g>
<!-- ITradeLine -->
<g id="node9" class="node"><title>ITradeLine</title>
<polygon fill="none" stroke="black" points="361.5,-252 269.5,-252 269.5,-216 361.5,-216 361.5,-252"/>
<text text-anchor="middle" x="315.5" y="-230.3" font-family="Consolas" font-size="14.00" fill="grey">ITradeLine</text>
</g>
<!-- IReceivable&#45;&gt;ITradeLine -->
<g id="edge16" class="edge"><title>IReceivable&#45;&gt;ITradeLine</title>
<path fill="none" stroke="black" d="M343.75,-287.831C343.75,-287.831 343.75,-262.413 343.75,-262.413"/>
<polygon fill="black" stroke="black" points="347.25,-262.413 343.75,-252.413 340.25,-262.413 347.25,-262.413"/>
</g>
<!-- IReceivable&#45;&gt;IValoresTempus -->
<g id="edge17" class="edge"><title>IReceivable&#45;&gt;IValoresTempus</title>
<path fill="none" stroke="black" d="M425.201,-306C475.453,-306 545.75,-306 545.75,-306 545.75,-306 545.75,-262.169 545.75,-262.169"/>
<polygon fill="black" stroke="black" points="549.25,-262.169 545.75,-252.169 542.25,-262.169 549.25,-262.169"/>
</g>
<!-- ITradeLine&#45;&gt;IBalance -->
<g id="edge24" class="edge"><title>ITradeLine&#45;&gt;IBalance</title>
<path fill="none" stroke="black" stroke-dasharray="1,5" d="M343.25,-215.831C343.25,-215.831 343.25,-190.413 343.25,-190.413"/>
<polygon fill="black" stroke="black" points="346.75,-190.413 343.25,-180.413 339.75,-190.413 346.75,-190.413"/>
<text text-anchor="middle" x="331.75" y="-209.431" font-family="Consolas" font-size="8.00">HAS&#45;A</text>
</g>
<!-- ITradeLine&#45;&gt;ITransactionable -->
<g id="edge20" class="edge"><title>ITradeLine&#45;&gt;ITransactionable</title>
<path fill="none" stroke="black" d="M302.5,-215.762C302.5,-215.762 302.5,-118.09 302.5,-118.09"/>
<polygon fill="black" stroke="black" points="306,-118.09 302.5,-108.09 299,-118.09 306,-118.09"/>
</g>
<!-- ITransaction -->
<g id="node10" class="node"><title>ITransaction</title>
<polygon fill="none" stroke="black" points="542,-108 435,-108 435,-72 542,-72 542,-108"/>
<text text-anchor="middle" x="488.5" y="-86.3" font-family="Consolas" font-size="14.00" fill="grey">ITransaction</text>
</g>
<!-- ITransactionId -->
<g id="node12" class="node"><title>ITransactionId</title>
<polygon fill="none" stroke="black" points="678.5,-36 556.5,-36 556.5,-0 678.5,-0 678.5,-36"/>
<text text-anchor="middle" x="617.5" y="-14.3" font-family="Consolas" font-size="14.00" fill="grey">ITransactionId</text>
</g>
<!-- ITransaction&#45;&gt;ITransactionId -->
<g id="edge49" class="edge"><title>ITransaction&#45;&gt;ITransactionId</title>
<path fill="none" stroke="black" d="M488.5,-71.8314C488.5,-50.502 488.5,-18 488.5,-18 488.5,-18 546.4,-18 546.4,-18"/>
<polygon fill="black" stroke="black" points="546.4,-21.5001 556.4,-18 546.4,-14.5001 546.4,-21.5001"/>
</g>
<!-- Receivable -->
<g id="node14" class="node"><title>Receivable</title>
<polygon fill="none" stroke="black" points="383.5,-396 291.5,-396 291.5,-360 383.5,-360 383.5,-396"/>
<text text-anchor="middle" x="337.5" y="-374.3" font-family="Consolas" font-size="14.00" fill="lightblue">Receivable</text>
</g>
<!-- Receivable&#45;&gt;IReceivable -->
<g id="edge14" class="edge"><title>Receivable&#45;&gt;IReceivable</title>
<path fill="none" stroke="black" d="M354.75,-359.831C354.75,-359.831 354.75,-334.413 354.75,-334.413"/>
<polygon fill="black" stroke="black" points="358.25,-334.413 354.75,-324.413 351.25,-334.413 358.25,-334.413"/>
</g>
<!-- TradeLine -->
<g id="node28" class="node"><title>TradeLine</title>
<polygon fill="none" stroke="black" points="307.5,-324 223.5,-324 223.5,-288 307.5,-288 307.5,-324"/>
<text text-anchor="middle" x="265.5" y="-302.3" font-family="Consolas" font-size="14.00" fill="blue">TradeLine</text>
</g>
<!-- Receivable&#45;&gt;TradeLine -->
<g id="edge15" class="edge"><title>Receivable&#45;&gt;TradeLine</title>
<path fill="none" stroke="black" d="M299.5,-359.831C299.5,-359.831 299.5,-334.413 299.5,-334.413"/>
<polygon fill="black" stroke="black" points="303,-334.413 299.5,-324.413 296,-334.413 303,-334.413"/>
</g>
<!-- TransactionId -->
<g id="node15" class="node"><title>TransactionId</title>
<polygon fill="none" stroke="black" points="674.5,-108 560.5,-108 560.5,-72 674.5,-72 674.5,-108"/>
<text text-anchor="middle" x="617.5" y="-86.3" font-family="Consolas" font-size="14.00" fill="lightblue">TransactionId</text>
</g>
<!-- TransactionId&#45;&gt;ITransactionId -->
<g id="edge50" class="edge"><title>TransactionId&#45;&gt;ITransactionId</title>
<path fill="none" stroke="black" d="M617.5,-71.8314C617.5,-71.8314 617.5,-46.4133 617.5,-46.4133"/>
<polygon fill="black" stroke="black" points="621,-46.4132 617.5,-36.4133 614,-46.4133 621,-46.4132"/>
</g>
<!-- DepositAccount -->
<g id="node16" class="node"><title>DepositAccount</title>
<polygon fill="none" stroke="black" points="269.5,-612 147.5,-612 147.5,-576 269.5,-576 269.5,-612"/>
<text text-anchor="middle" x="208.5" y="-590.3" font-family="Consolas" font-size="14.00" fill="lightblue">DepositAccount</text>
</g>
<!-- Account -->
<g id="node27" class="node"><title>Account</title>
<polygon fill="none" stroke="black" points="434,-540 365,-540 365,-504 434,-504 434,-540"/>
<text text-anchor="middle" x="399.5" y="-518.3" font-family="Consolas" font-size="14.00" fill="blue">Account</text>
</g>
<!-- DepositAccount&#45;&gt;Account -->
<g id="edge13" class="edge"><title>DepositAccount&#45;&gt;Account</title>
<path fill="none" stroke="black" d="M246.5,-575.944C246.5,-564.561 246.5,-552 246.5,-552 246.5,-552 381.5,-552 381.5,-552 381.5,-552 381.5,-550.143 381.5,-550.143"/>
<polygon fill="black" stroke="black" points="385,-550.143 381.5,-540.143 378,-550.143 385,-550.143"/>
</g>
<!-- Transactions -->
<g id="node18" class="node"><title>Transactions</title>
<polygon fill="none" stroke="black" points="527,-180 420,-180 420,-144 527,-144 527,-180"/>
<text text-anchor="middle" x="473.5" y="-158.3" font-family="Consolas" font-size="14.00" fill="lightblue">Transactions</text>
</g>
<!-- Transactions&#45;&gt;ITransaction -->
<g id="edge45" class="edge"><title>Transactions&#45;&gt;ITransaction</title>
<path fill="none" stroke="black" stroke-dasharray="1,5" d="M481,-143.831C481,-143.831 481,-120.413 481,-120.413"/>
<polygon fill="black" stroke="black" points="481,-120.413 477,-114.413 481,-108.413 485,-114.413 481,-120.413"/>
</g>
<!-- Transactions&#45;&gt;ITransactionable -->
<g id="edge46" class="edge"><title>Transactions&#45;&gt;ITransactionable</title>
<path fill="none" stroke="black" d="M427.5,-143.831C427.5,-122.502 427.5,-90 427.5,-90 427.5,-90 426.467,-90 426.467,-90"/>
<polygon fill="black" stroke="black" points="427.172,-86.5001 417.172,-90 427.172,-93.5001 427.172,-86.5001"/>
</g>
<!-- Mortgage -->
<g id="node19" class="node"><title>Mortgage</title>
<polygon fill="none" stroke="black" points="410,-756 333,-756 333,-720 410,-720 410,-756"/>
<text text-anchor="middle" x="371.5" y="-734.3" font-family="Consolas" font-size="14.00" fill="blue">Mortgage</text>
</g>
<!-- SecuredFixedRateLoan -->
<g id="node20" class="node"><title>SecuredFixedRateLoan</title>
<polygon fill="none" stroke="black" points="455,-684 288,-684 288,-648 455,-648 455,-684"/>
<text text-anchor="middle" x="371.5" y="-662.3" font-family="Consolas" font-size="14.00" fill="blue">SecuredFixedRateLoan</text>
</g>
<!-- Mortgage&#45;&gt;SecuredFixedRateLoan -->
<g id="edge1" class="edge"><title>Mortgage&#45;&gt;SecuredFixedRateLoan</title>
<path fill="none" stroke="black" d="M371.5,-719.831C371.5,-719.831 371.5,-694.413 371.5,-694.413"/>
<polygon fill="black" stroke="black" points="375,-694.413 371.5,-684.413 368,-694.413 375,-694.413"/>
</g>
<!-- FixedRateLoan -->
<g id="node21" class="node"><title>FixedRateLoan</title>
<polygon fill="none" stroke="black" points="414.5,-612 300.5,-612 300.5,-576 414.5,-576 414.5,-612"/>
<text text-anchor="middle" x="357.5" y="-590.3" font-family="Consolas" font-size="14.00" fill="blue">FixedRateLoan</text>
</g>
<!-- SecuredFixedRateLoan&#45;&gt;FixedRateLoan -->
<g id="edge2" class="edge"><title>SecuredFixedRateLoan&#45;&gt;FixedRateLoan</title>
<path fill="none" stroke="black" d="M338.5,-647.831C338.5,-647.831 338.5,-622.413 338.5,-622.413"/>
<polygon fill="black" stroke="black" points="342,-622.413 338.5,-612.413 335,-622.413 342,-622.413"/>
</g>
<!-- FixedRateLoan&#45;&gt;LoanBase -->
<g id="edge6" class="edge"><title>FixedRateLoan&#45;&gt;LoanBase</title>
<path fill="none" stroke="black" d="M398,-575.857C398,-569.539 398,-564 398,-564 398,-564 482.667,-564 482.667,-564 482.667,-564 482.667,-550.056 482.667,-550.056"/>
<polygon fill="black" stroke="black" points="486.167,-550.055 482.667,-540.056 479.167,-550.056 486.167,-550.055"/>
</g>
<!-- CreditCardAccount -->
<g id="node22" class="node"><title>CreditCardAccount</title>
<polygon fill="none" stroke="black" points="670.5,-684 526.5,-684 526.5,-648 670.5,-648 670.5,-684"/>
<text text-anchor="middle" x="598.5" y="-662.3" font-family="Consolas" font-size="14.00" fill="blue">CreditCardAccount</text>
</g>
<!-- CreditCardAccount&#45;&gt;ICreditCard -->
<g id="edge5" class="edge"><title>CreditCardAccount&#45;&gt;ICreditCard</title>
<path fill="none" stroke="black" stroke-dasharray="1,5" d="M627.5,-647.911C627.5,-591.1 627.5,-420 627.5,-420 627.5,-420 963.25,-420 963.25,-420 963.25,-420 963.25,-406.056 963.25,-406.056"/>
<polygon fill="black" stroke="black" points="966.75,-406.055 963.25,-396.056 959.75,-406.056 966.75,-406.055"/>
<text text-anchor="middle" x="616" y="-641.511" font-family="Consolas" font-size="8.00">HAS&#45;A</text>
</g>
<!-- CreditCardAccount&#45;&gt;IAccount -->
<g id="edge4" class="edge"><title>CreditCardAccount&#45;&gt;IAccount</title>
<path fill="none" stroke="black" d="M597,-647.653C597,-647.653 597,-334.31 597,-334.31"/>
<polygon fill="black" stroke="black" points="600.5,-334.31 597,-324.31 593.5,-334.31 600.5,-334.31"/>
</g>
<!-- CreditCardAccount&#45;&gt;FixedRateLoan -->
<g id="edge3" class="edge"><title>CreditCardAccount&#45;&gt;FixedRateLoan</title>
<path fill="none" stroke="black" d="M548.25,-647.578C548.25,-638.721 548.25,-630 548.25,-630 548.25,-630 376.5,-630 376.5,-630 376.5,-630 376.5,-622.422 376.5,-622.422"/>
<polygon fill="black" stroke="black" points="380,-622.422 376.5,-612.422 373,-622.422 380,-622.422"/>
</g>
<!-- NamedReceivable&#45;&gt;Receivable -->
<g id="edge23" class="edge"><title>NamedReceivable&#45;&gt;Receivable</title>
<path fill="none" stroke="black" d="M339.25,-431.831C339.25,-431.831 339.25,-406.413 339.25,-406.413"/>
<polygon fill="black" stroke="black" points="342.75,-406.413 339.25,-396.413 335.75,-406.413 342.75,-406.413"/>
</g>
<!-- Rent -->
<g id="node24" class="node"><title>Rent</title>
<polygon fill="none" stroke="black" points="346.5,-540 292.5,-540 292.5,-504 346.5,-504 346.5,-540"/>
<text text-anchor="middle" x="319.5" y="-518.3" font-family="Consolas" font-size="14.00" fill="blue">Rent</text>
</g>
<!-- Rent&#45;&gt;NamedReceivable -->
<g id="edge8" class="edge"><title>Rent&#45;&gt;NamedReceivable</title>
<path fill="none" stroke="black" d="M320.75,-503.831C320.75,-503.831 320.75,-478.413 320.75,-478.413"/>
<polygon fill="black" stroke="black" points="324.25,-478.413 320.75,-468.413 317.25,-478.413 324.25,-478.413"/>
</g>
<!-- CheckingAccount -->
<g id="node25" class="node"><title>CheckingAccount</title>
<polygon fill="none" stroke="black" points="129,-684 0,-684 0,-648 129,-648 129,-684"/>
<text text-anchor="middle" x="64.5" y="-662.3" font-family="Consolas" font-size="14.00" fill="blue">CheckingAccount</text>
</g>
<!-- CheckingAccount&#45;&gt;DepositAccount -->
<g id="edge9" class="edge"><title>CheckingAccount&#45;&gt;DepositAccount</title>
<path fill="none" stroke="black" d="M64.5,-647.831C64.5,-626.502 64.5,-594 64.5,-594 64.5,-594 137.431,-594 137.431,-594"/>
<polygon fill="black" stroke="black" points="137.431,-597.5 147.431,-594 137.431,-590.5 137.431,-597.5"/>
</g>
<!-- SavingsAccount -->
<g id="node26" class="node"><title>SavingsAccount</title>
<polygon fill="none" stroke="black" points="269.5,-684 147.5,-684 147.5,-648 269.5,-648 269.5,-684"/>
<text text-anchor="middle" x="208.5" y="-662.3" font-family="Consolas" font-size="14.00" fill="blue">SavingsAccount</text>
</g>
<!-- SavingsAccount&#45;&gt;DepositAccount -->
<g id="edge10" class="edge"><title>SavingsAccount&#45;&gt;DepositAccount</title>
<path fill="none" stroke="black" d="M208.5,-647.831C208.5,-647.831 208.5,-622.413 208.5,-622.413"/>
<polygon fill="black" stroke="black" points="212,-622.413 208.5,-612.413 205,-622.413 212,-622.413"/>
</g>
<!-- Account&#45;&gt;IAccount -->
<g id="edge12" class="edge"><title>Account&#45;&gt;IAccount</title>
<path fill="none" stroke="black" d="M429,-503.936C429,-471.791 429,-408 429,-408 429,-408 566,-408 566,-408 566,-408 566,-334.236 566,-334.236"/>
<polygon fill="black" stroke="black" points="569.5,-334.236 566,-324.236 562.5,-334.236 569.5,-334.236"/>
</g>
<!-- Account&#45;&gt;NamedReceivable -->
<g id="edge11" class="edge"><title>Account&#45;&gt;NamedReceivable</title>
<path fill="none" stroke="black" d="M394.5,-503.831C394.5,-503.831 394.5,-478.413 394.5,-478.413"/>
<polygon fill="black" stroke="black" points="398,-478.413 394.5,-468.413 391,-478.413 398,-478.413"/>
</g>
<!-- TradeLine&#45;&gt;ITradeLine -->
<g id="edge19" class="edge"><title>TradeLine&#45;&gt;ITradeLine</title>
<path fill="none" stroke="black" d="M288.5,-287.831C288.5,-287.831 288.5,-262.413 288.5,-262.413"/>
<polygon fill="black" stroke="black" points="292,-262.413 288.5,-252.413 285,-262.413 292,-262.413"/>
</g>
<!-- Balance -->
<g id="node29" class="node"><title>Balance</title>
<polygon fill="none" stroke="black" points="488,-252 419,-252 419,-216 488,-216 488,-252"/>
<text text-anchor="middle" x="453.5" y="-230.3" font-family="Consolas" font-size="14.00" fill="blue">Balance</text>
</g>
<!-- Balance&#45;&gt;IBalance -->
<g id="edge25" class="edge"><title>Balance&#45;&gt;IBalance</title>
<path fill="none" stroke="black" d="M418.886,-234C400.538,-234 381.75,-234 381.75,-234 381.75,-234 381.75,-190.169 381.75,-190.169"/>
<polygon fill="black" stroke="black" points="385.25,-190.169 381.75,-180.169 378.25,-190.169 385.25,-190.169"/>
</g>
<!-- Balance&#45;&gt;Transactions -->
<g id="edge26" class="edge"><title>Balance&#45;&gt;Transactions</title>
<path fill="none" stroke="black" d="M454,-215.831C454,-215.831 454,-190.413 454,-190.413"/>
<polygon fill="black" stroke="black" points="457.5,-190.413 454,-180.413 450.5,-190.413 457.5,-190.413"/>
</g>
<!-- VariableRateLoan -->
<g id="node30" class="node"><title>VariableRateLoan</title>
<polygon fill="none" stroke="black" points="570,-612 433,-612 433,-576 570,-576 570,-612"/>
<text text-anchor="middle" x="501.5" y="-590.3" font-family="Consolas" font-size="14.00" fill="blue">VariableRateLoan</text>
</g>
<!-- VariableRateLoan&#45;&gt;LoanBase -->
<g id="edge27" class="edge"><title>VariableRateLoan&#45;&gt;LoanBase</title>
<path fill="none" stroke="black" d="M508.333,-575.831C508.333,-575.831 508.333,-550.413 508.333,-550.413"/>
<polygon fill="black" stroke="black" points="511.833,-550.413 508.333,-540.413 504.833,-550.413 511.833,-550.413"/>
</g>
<!-- Security -->
<g id="node31" class="node"><title>Security</title>
<polygon fill="none" stroke="black" points="806,-468 729,-468 729,-432 806,-432 806,-468"/>
<text text-anchor="middle" x="767.5" y="-446.3" font-family="Consolas" font-size="14.00" fill="blue">Security</text>
</g>
<!-- Security&#45;&gt;IValoresTempus -->
<g id="edge28" class="edge"><title>Security&#45;&gt;IValoresTempus</title>
<path fill="none" stroke="black" d="M735.25,-431.992C735.25,-381.63 735.25,-243 735.25,-243 735.25,-243 666.796,-243 666.796,-243"/>
<polygon fill="black" stroke="black" points="666.796,-239.5 656.796,-243 666.796,-246.5 666.796,-239.5"/>
</g>
<!-- Pecuniam -->
<g id="node32" class="node"><title>Pecuniam</title>
<polygon fill="none" stroke="black" points="891,-396 814,-396 814,-360 891,-360 891,-396"/>
<text text-anchor="middle" x="852.5" y="-374.3" font-family="Consolas" font-size="14.00" fill="blue">Pecuniam</text>
</g>
<!-- Security&#45;&gt;Pecuniam -->
<g id="edge29" class="edge"><title>Security&#45;&gt;Pecuniam</title>
<path fill="none" stroke="black" d="M801.5,-431.831C801.5,-410.502 801.5,-378 801.5,-378 801.5,-378 803.846,-378 803.846,-378"/>
<polygon fill="black" stroke="black" points="803.846,-381.5 813.846,-378 803.846,-374.5 803.846,-381.5"/>
</g>
<!-- Cusip -->
<g id="node33" class="node"><title>Cusip</title>
<polygon fill="none" stroke="black" points="795.5,-396 741.5,-396 741.5,-360 795.5,-360 795.5,-396"/>
<text text-anchor="middle" x="768.5" y="-374.3" font-family="Consolas" font-size="14.00" fill="blue">Cusip</text>
</g>
<!-- Security&#45;&gt;Cusip -->
<g id="edge30" class="edge"><title>Security&#45;&gt;Cusip</title>
<path fill="none" stroke="black" stroke-dasharray="1,5" d="M768.5,-431.831C768.5,-431.831 768.5,-406.413 768.5,-406.413"/>
<polygon fill="black" stroke="black" points="772,-406.413 768.5,-396.413 765,-406.413 772,-406.413"/>
<text text-anchor="middle" x="763.5" y="-425.431" font-family="Consolas" font-size="8.00">Id</text>
</g>
<!-- Currency -->
<g id="node34" class="node"><title>Currency</title>
<polygon fill="none" stroke="black" points="874,-324 797,-324 797,-288 874,-288 874,-324"/>
<text text-anchor="middle" x="835.5" y="-302.3" font-family="Consolas" font-size="14.00" fill="blue">Currency</text>
</g>
<!-- Pecuniam&#45;&gt;Currency -->
<g id="edge32" class="edge"><title>Pecuniam&#45;&gt;Currency</title>
<path fill="none" stroke="black" stroke-dasharray="1,5" d="M844,-359.831C844,-359.831 844,-334.413 844,-334.413"/>
<polygon fill="black" stroke="black" points="847.5,-334.413 844,-324.413 840.5,-334.413 847.5,-334.413"/>
<text text-anchor="middle" x="839" y="-353.431" font-family="Consolas" font-size="8.00">Id</text>
</g>
<!-- Cusip&#45;&gt;Identifier -->
<g id="edge31" class="edge"><title>Cusip&#45;&gt;Identifier</title>
<path fill="none" stroke="black" d="M768.5,-359.762C768.5,-321.014 768.5,-234 768.5,-234 768.5,-234 841.292,-234 841.292,-234"/>
<polygon fill="black" stroke="black" points="841.292,-237.5 851.292,-234 841.292,-230.5 841.292,-237.5"/>
</g>
<!-- Currency&#45;&gt;Identifier -->
<g id="edge33" class="edge"><title>Currency&#45;&gt;Identifier</title>
<path fill="none" stroke="black" d="M862.75,-287.831C862.75,-287.831 862.75,-262.413 862.75,-262.413"/>
<polygon fill="black" stroke="black" points="866.25,-262.413 862.75,-252.413 859.25,-262.413 866.25,-262.413"/>
</g>
<!-- PersonalCreditScore -->
<g id="node35" class="node"><title>PersonalCreditScore</title>
<polygon fill="none" stroke="black" points="1186,-396 1027,-396 1027,-360 1186,-360 1186,-396"/>
<text text-anchor="middle" x="1106.5" y="-374.3" font-family="Consolas" font-size="14.00" fill="blue">PersonalCreditScore</text>
</g>
<!-- PersonalCreditScore&#45;&gt;CreditScore -->
<g id="edge35" class="edge"><title>PersonalCreditScore&#45;&gt;CreditScore</title>
<path fill="none" stroke="black" d="M1096.5,-359.831C1096.5,-359.831 1096.5,-334.413 1096.5,-334.413"/>
<polygon fill="black" stroke="black" points="1100,-334.413 1096.5,-324.413 1093,-334.413 1100,-334.413"/>
</g>
<!-- CreditCardNumber&#45;&gt;Identifier -->
<g id="edge36" class="edge"><title>CreditCardNumber&#45;&gt;Identifier</title>
<path fill="none" stroke="black" d="M917.75,-287.831C917.75,-287.831 917.75,-262.413 917.75,-262.413"/>
<polygon fill="black" stroke="black" points="921.25,-262.413 917.75,-252.413 914.25,-262.413 921.25,-262.413"/>
</g>
<!-- VisaCc -->
<g id="node37" class="node"><title>VisaCc</title>
<polygon fill="none" stroke="black" points="693.5,-540 631.5,-540 631.5,-504 693.5,-504 693.5,-540"/>
<text text-anchor="middle" x="662.5" y="-518.3" font-family="Consolas" font-size="14.00" fill="blue">VisaCc</text>
</g>
<!-- VisaCc&#45;&gt;CreditCard -->
<g id="edge37" class="edge"><title>VisaCc&#45;&gt;CreditCard</title>
<path fill="none" stroke="black" d="M689,-503.578C689,-494.721 689,-486 689,-486 689,-486 828.833,-486 828.833,-486 828.833,-486 828.833,-478.422 828.833,-478.422"/>
<polygon fill="black" stroke="black" points="832.333,-478.422 828.833,-468.422 825.333,-478.422 832.333,-478.422"/>
</g>
<!-- MasterCardCc -->
<g id="node38" class="node"><title>MasterCardCc</title>
<polygon fill="none" stroke="black" points="819,-540 712,-540 712,-504 819,-504 819,-540"/>
<text text-anchor="middle" x="765.5" y="-518.3" font-family="Consolas" font-size="14.00" fill="blue">MasterCardCc</text>
</g>
<!-- MasterCardCc&#45;&gt;CreditCard -->
<g id="edge38" class="edge"><title>MasterCardCc&#45;&gt;CreditCard</title>
<path fill="none" stroke="black" d="M819.146,-522C827.359,-522 833.167,-522 833.167,-522 833.167,-522 833.167,-478.169 833.167,-478.169"/>
<polygon fill="black" stroke="black" points="836.667,-478.169 833.167,-468.169 829.667,-478.169 836.667,-478.169"/>
</g>
<!-- AmexCc -->
<g id="node39" class="node"><title>AmexCc</title>
<polygon fill="none" stroke="black" points="899.5,-540 837.5,-540 837.5,-504 899.5,-504 899.5,-540"/>
<text text-anchor="middle" x="868.5" y="-518.3" font-family="Consolas" font-size="14.00" fill="blue">AmexCc</text>
</g>
<!-- AmexCc&#45;&gt;CreditCard -->
<g id="edge39" class="edge"><title>AmexCc&#45;&gt;CreditCard</title>
<path fill="none" stroke="black" d="M868.5,-503.831C868.5,-503.831 868.5,-478.413 868.5,-478.413"/>
<polygon fill="black" stroke="black" points="872,-478.413 868.5,-468.413 865,-478.413 872,-478.413"/>
</g>
<!-- DiscoverCc -->
<g id="node40" class="node"><title>DiscoverCc</title>
<polygon fill="none" stroke="black" points="1009.5,-540 917.5,-540 917.5,-504 1009.5,-504 1009.5,-540"/>
<text text-anchor="middle" x="963.5" y="-518.3" font-family="Consolas" font-size="14.00" fill="blue">DiscoverCc</text>
</g>
<!-- DiscoverCc&#45;&gt;CreditCard -->
<g id="edge40" class="edge"><title>DiscoverCc&#45;&gt;CreditCard</title>
<path fill="none" stroke="black" d="M917.415,-522C911.802,-522 908,-522 908,-522 908,-522 908,-478.169 908,-478.169"/>
<polygon fill="black" stroke="black" points="911.5,-478.169 908,-468.169 904.5,-478.169 911.5,-478.169"/>
</g>
<!-- AccountId -->
<g id="node41" class="node"><title>AccountId</title>
<polygon fill="none" stroke="black" points="1248.5,-324 1164.5,-324 1164.5,-288 1248.5,-288 1248.5,-324"/>
<text text-anchor="middle" x="1206.5" y="-302.3" font-family="Consolas" font-size="14.00" fill="blue">AccountId</text>
</g>
<!-- AccountId&#45;&gt;Identifier -->
<g id="edge44" class="edge"><title>AccountId&#45;&gt;Identifier</title>
<path fill="none" stroke="black" d="M1206.5,-287.909C1206.5,-264.867 1206.5,-228 1206.5,-228 1206.5,-228 953.76,-228 953.76,-228"/>
<polygon fill="black" stroke="black" points="953.76,-224.5 943.76,-228 953.76,-231.5 953.76,-224.5"/>
</g>
<!-- Transaction -->
<g id="node42" class="node"><title>Transaction</title>
<polygon fill="none" stroke="black" points="663,-180 564,-180 564,-144 663,-144 663,-180"/>
<text text-anchor="middle" x="613.5" y="-158.3" font-family="Consolas" font-size="14.00" fill="blue">Transaction</text>
</g>
<!-- Transaction&#45;&gt;ITransaction -->
<g id="edge47" class="edge"><title>Transaction&#45;&gt;ITransaction</title>
<path fill="none" stroke="black" d="M563.726,-162C549.732,-162 538.25,-162 538.25,-162 538.25,-162 538.25,-118.169 538.25,-118.169"/>
<polygon fill="black" stroke="black" points="541.75,-118.169 538.25,-108.169 534.75,-118.169 541.75,-118.169"/>
</g>
<!-- Transaction&#45;&gt;TransactionId -->
<g id="edge48" class="edge"><title>Transaction&#45;&gt;TransactionId</title>
<path fill="none" stroke="black" d="M613.5,-143.831C613.5,-143.831 613.5,-118.413 613.5,-118.413"/>
<polygon fill="black" stroke="black" points="617,-118.413 613.5,-108.413 610,-118.413 617,-118.413"/>
</g>
<!-- TraceTransactionId -->
<g id="node43" class="node"><title>TraceTransactionId</title>
<polygon fill="none" stroke="black" points="844.5,-108 692.5,-108 692.5,-72 844.5,-72 844.5,-108"/>
<text text-anchor="middle" x="768.5" y="-86.3" font-family="Consolas" font-size="14.00" fill="blue">TraceTransactionId</text>
</g>
<!-- TraceTransactionId&#45;&gt;ITransactionId -->
<g id="edge51" class="edge"><title>TraceTransactionId&#45;&gt;ITransactionId</title>
<path fill="none" stroke="black" d="M768.5,-71.8314C768.5,-50.502 768.5,-18 768.5,-18 768.5,-18 688.917,-18 688.917,-18"/>
<polygon fill="black" stroke="black" points="688.918,-14.5001 678.917,-18 688.917,-21.5001 688.918,-14.5001"/>
</g>
<!-- Journal -->
<g id="node44" class="node"><title>Journal</title>
<polygon fill="none" stroke="black" points="471,-396 402,-396 402,-360 471,-360 471,-396"/>
<text text-anchor="middle" x="436.5" y="-374.3" font-family="Consolas" font-size="14.00" fill="blue">Journal</text>
</g>
<!-- Journal&#45;&gt;IAccount -->
<g id="edge53" class="edge"><title>Journal&#45;&gt;IAccount</title>
<path fill="none" stroke="black" d="M471.319,-378C508.306,-378 561.5,-378 561.5,-378 561.5,-378 561.5,-334.169 561.5,-334.169"/>
<polygon fill="black" stroke="black" points="565,-334.169 561.5,-324.169 558,-334.169 565,-334.169"/>
</g>
<!-- Journal&#45;&gt;Balance -->
<g id="edge52" class="edge"><title>Journal&#45;&gt;Balance</title>
<path fill="none" stroke="black" d="M448,-359.762C448,-359.762 448,-262.09 448,-262.09"/>
<polygon fill="black" stroke="black" points="451.5,-262.09 448,-252.09 444.5,-262.09 451.5,-262.09"/>
</g>
<!-- Ledger -->
<g id="node45" class="node"><title>Ledger</title>
<polygon fill="none" stroke="black" points="685.5,-396 623.5,-396 623.5,-360 685.5,-360 685.5,-396"/>
<text text-anchor="middle" x="654.5" y="-374.3" font-family="Consolas" font-size="14.00" fill="blue">Ledger</text>
</g>
<!-- Ledger&#45;&gt;IAccount -->
<g id="edge54" class="edge"><title>Ledger&#45;&gt;IAccount</title>
<path fill="none" stroke="black" stroke-dasharray="1,5" d="M628.75,-359.831C628.75,-359.831 628.75,-336.413 628.75,-336.413"/>
<polygon fill="black" stroke="black" points="628.75,-336.413 624.75,-330.413 628.75,-324.413 632.75,-330.413 628.75,-336.413"/>
</g>
</g>
</svg>
