<?xml version="1.0" encoding="UTF-8" standalone="no"?>
<!DOCTYPE svg PUBLIC "-//W3C//DTD SVG 1.1//EN"
 "http://www.w3.org/Graphics/SVG/1.1/DTD/svg11.dtd">
<!-- Generated by graphviz version 2.38.0 (20140413.2041)
 -->
<!-- Title: noFutureRandDataSp Pages: 1 -->
<svg width="1290pt" height="933pt"
 viewBox="0.00 0.00 1289.71 933.00" xmlns="http://www.w3.org/2000/svg" xmlns:xlink="http://www.w3.org/1999/xlink">
<g id="graph0" class="graph" transform="scale(1 1) rotate(0) translate(4 929)">
<title>noFutureRandDataSp</title>
<polygon fill="white" stroke="none" points="-4,4 -4,-929 1285.71,-929 1285.71,4 -4,4"/>
<!-- StringId -->
<g id="node1" class="node"><title>StringId</title>
<polygon fill="none" stroke="black" points="368.213,-36 246.213,-36 246.213,-0 368.213,-0 368.213,-36"/>
<text text-anchor="middle" x="307.213" y="-14.3" font-family="Consolas" font-size="14.00">IIdentifier&lt;T&gt;</text>
</g>
<!-- Mortgage -->
<g id="node2" class="node"><title>Mortgage</title>
<polygon fill="none" stroke="black" points="1107.71,-925 1030.71,-925 1030.71,-889 1107.71,-889 1107.71,-925"/>
<text text-anchor="middle" x="1069.21" y="-903.3" font-family="Consolas" font-size="14.00">Mortgage</text>
</g>
<!-- SecuredFixedRateLoan -->
<g id="node3" class="node"><title>SecuredFixedRateLoan</title>
<polygon fill="none" stroke="black" points="1152.71,-852 985.713,-852 985.713,-816 1152.71,-816 1152.71,-852"/>
<text text-anchor="middle" x="1069.21" y="-830.3" font-family="Consolas" font-size="14.00">SecuredFixedRateLoan</text>
</g>
<!-- Mortgage&#45;&gt;SecuredFixedRateLoan -->
<g id="edge1" class="edge"><title>Mortgage&#45;&gt;SecuredFixedRateLoan</title>
<path fill="none" stroke="black" d="M1069.21,-888.813C1069.21,-880.789 1069.21,-871.047 1069.21,-862.069"/>
<polygon fill="black" stroke="black" points="1072.71,-862.029 1069.21,-852.029 1065.71,-862.029 1072.71,-862.029"/>
</g>
<!-- FixedRateLoan -->
<g id="node4" class="node"><title>FixedRateLoan</title>
<polygon fill="none" stroke="black" points="1126.21,-779 1012.21,-779 1012.21,-743 1126.21,-743 1126.21,-779"/>
<text text-anchor="middle" x="1069.21" y="-757.3" font-family="Consolas" font-size="14.00">FixedRateLoan</text>
</g>
<!-- SecuredFixedRateLoan&#45;&gt;FixedRateLoan -->
<g id="edge2" class="edge"><title>SecuredFixedRateLoan&#45;&gt;FixedRateLoan</title>
<path fill="none" stroke="black" d="M1069.21,-815.813C1069.21,-807.789 1069.21,-798.047 1069.21,-789.069"/>
<polygon fill="black" stroke="black" points="1072.71,-789.029 1069.21,-779.029 1065.71,-789.029 1072.71,-789.029"/>
</g>
<!-- LoanBase -->
<g id="node7" class="node"><title>LoanBase</title>
<polygon fill="none" stroke="black" points="1107.71,-706 1030.71,-706 1030.71,-670 1107.71,-670 1107.71,-706"/>
<text text-anchor="middle" x="1069.21" y="-684.3" font-family="Consolas" font-size="14.00">LoanBase</text>
</g>
<!-- FixedRateLoan&#45;&gt;LoanBase -->
<g id="edge5" class="edge"><title>FixedRateLoan&#45;&gt;LoanBase</title>
<path fill="none" stroke="black" d="M1069.21,-742.813C1069.21,-734.789 1069.21,-725.047 1069.21,-716.069"/>
<polygon fill="black" stroke="black" points="1072.71,-716.029 1069.21,-706.029 1065.71,-716.029 1072.71,-716.029"/>
</g>
<!-- CreditCardAccount -->
<g id="node5" class="node"><title>CreditCardAccount</title>
<polygon fill="none" stroke="black" points="868.213,-852 724.213,-852 724.213,-816 868.213,-816 868.213,-852"/>
<text text-anchor="middle" x="796.213" y="-830.3" font-family="Consolas" font-size="14.00">CreditCardAccount</text>
</g>
<!-- CreditCardAccount&#45;&gt;FixedRateLoan -->
<g id="edge3" class="edge"><title>CreditCardAccount&#45;&gt;FixedRateLoan</title>
<path fill="none" stroke="black" d="M861.603,-815.994C904.043,-804.956 959.207,-790.61 1002,-779.479"/>
<polygon fill="black" stroke="black" points="1002.97,-782.844 1011.77,-776.94 1001.21,-776.07 1002.97,-782.844"/>
</g>
<!-- IAccount -->
<g id="node6" class="node"><title>IAccount</title>
<polygon fill="none" stroke="black" points="783.713,-579 706.713,-579 706.713,-543 783.713,-543 783.713,-579"/>
<text text-anchor="middle" x="745.213" y="-557.3" font-family="Consolas" font-size="14.00">IAccount</text>
</g>
<!-- CreditCardAccount&#45;&gt;IAccount -->
<g id="edge4" class="edge"><title>CreditCardAccount&#45;&gt;IAccount</title>
<path fill="none" stroke="black" d="M741.823,-815.947C718.369,-804.891 696.213,-787.657 696.213,-762 696.213,-762 696.213,-762 696.213,-651 696.213,-627.418 709.577,-604.193 722.347,-587.385"/>
<polygon fill="black" stroke="black" points="725.374,-589.204 728.897,-579.211 719.912,-584.826 725.374,-589.204"/>
</g>
<!-- IAsset -->
<g id="node17" class="node"><title>IAsset</title>
<polygon fill="none" stroke="black" points="829.213,-371 767.213,-371 767.213,-335 829.213,-335 829.213,-371"/>
<text text-anchor="middle" x="798.213" y="-349.3" font-family="Consolas" font-size="14.00">IAsset</text>
</g>
<!-- IAccount&#45;&gt;IAsset -->
<g id="edge22" class="edge"><title>IAccount&#45;&gt;IAsset</title>
<path fill="none" stroke="black" d="M749.64,-542.791C758.88,-506.879 780.271,-423.735 791.324,-380.774"/>
<polygon fill="black" stroke="black" points="794.733,-381.572 793.835,-371.015 787.954,-379.828 794.733,-381.572"/>
</g>
<!-- ITempore -->
<g id="node21" class="node"><title>ITempore</title>
<polygon fill="none" stroke="black" points="783.713,-290 706.713,-290 706.713,-254 783.713,-254 783.713,-290"/>
<text text-anchor="middle" x="745.213" y="-268.3" font-family="Consolas" font-size="14.00">ITempore</text>
</g>
<!-- IAccount&#45;&gt;ITempore -->
<g id="edge23" class="edge"><title>IAccount&#45;&gt;ITempore</title>
<path fill="none" stroke="black" d="M743.38,-542.961C741.616,-525.064 739.213,-496.088 739.213,-471 739.213,-471 739.213,-471 739.213,-352 739.213,-334.844 740.637,-315.653 742.098,-300.481"/>
<polygon fill="black" stroke="black" points="745.61,-300.536 743.148,-290.232 738.647,-299.823 745.61,-300.536"/>
</g>
<!-- NamedReceivable -->
<g id="node8" class="node"><title>NamedReceivable</title>
<polygon fill="none" stroke="black" points="1006.71,-633 877.713,-633 877.713,-597 1006.71,-597 1006.71,-633"/>
<text text-anchor="middle" x="942.213" y="-611.3" font-family="Consolas" font-size="14.00">NamedReceivable</text>
</g>
<!-- LoanBase&#45;&gt;NamedReceivable -->
<g id="edge6" class="edge"><title>LoanBase&#45;&gt;NamedReceivable</title>
<path fill="none" stroke="black" d="M1038.79,-669.994C1021.64,-660.404 1000.02,-648.317 981.584,-638.011"/>
<polygon fill="black" stroke="black" points="983.261,-634.938 972.824,-633.114 979.845,-641.048 983.261,-634.938"/>
</g>
<!-- ILoan -->
<g id="node20" class="node"><title>ILoan</title>
<polygon fill="none" stroke="black" points="1096.21,-633 1042.21,-633 1042.21,-597 1096.21,-597 1096.21,-633"/>
<text text-anchor="middle" x="1069.21" y="-611.3" font-family="Consolas" font-size="14.00">ILoan</text>
</g>
<!-- LoanBase&#45;&gt;ILoan -->
<g id="edge17" class="edge"><title>LoanBase&#45;&gt;ILoan</title>
<path fill="none" stroke="black" d="M1069.21,-669.813C1069.21,-661.789 1069.21,-652.047 1069.21,-643.069"/>
<polygon fill="black" stroke="black" points="1072.71,-643.029 1069.21,-633.029 1065.71,-643.029 1072.71,-643.029"/>
</g>
<!-- Receivable -->
<g id="node13" class="node"><title>Receivable</title>
<polygon fill="none" stroke="black" points="988.213,-525 896.213,-525 896.213,-489 988.213,-489 988.213,-525"/>
<text text-anchor="middle" x="942.213" y="-503.3" font-family="Consolas" font-size="14.00">Receivable</text>
</g>
<!-- NamedReceivable&#45;&gt;Receivable -->
<g id="edge24" class="edge"><title>NamedReceivable&#45;&gt;Receivable</title>
<path fill="none" stroke="black" d="M942.213,-596.969C942.213,-580.378 942.213,-554.883 942.213,-535.431"/>
<polygon fill="black" stroke="black" points="945.713,-535.341 942.213,-525.341 938.713,-535.341 945.713,-535.341"/>
</g>
<!-- IVoca -->
<g id="node19" class="node"><title>IVoca</title>
<polygon fill="none" stroke="black" points="876.213,-525 822.213,-525 822.213,-489 876.213,-489 876.213,-525"/>
<text text-anchor="middle" x="849.213" y="-503.3" font-family="Consolas" font-size="14.00">IVoca</text>
</g>
<!-- NamedReceivable&#45;&gt;IVoca -->
<g id="edge25" class="edge"><title>NamedReceivable&#45;&gt;IVoca</title>
<path fill="none" stroke="black" d="M927.271,-596.969C912.108,-579.687 888.468,-552.743 871.175,-533.032"/>
<polygon fill="black" stroke="black" points="873.653,-530.549 864.427,-525.341 868.391,-535.166 873.653,-530.549"/>
</g>
<!-- Rent -->
<g id="node9" class="node"><title>Rent</title>
<polygon fill="none" stroke="black" points="969.213,-706 915.213,-706 915.213,-670 969.213,-670 969.213,-706"/>
<text text-anchor="middle" x="942.213" y="-684.3" font-family="Consolas" font-size="14.00">Rent</text>
</g>
<!-- Rent&#45;&gt;NamedReceivable -->
<g id="edge7" class="edge"><title>Rent&#45;&gt;NamedReceivable</title>
<path fill="none" stroke="black" d="M942.213,-669.813C942.213,-661.789 942.213,-652.047 942.213,-643.069"/>
<polygon fill="black" stroke="black" points="945.713,-643.029 942.213,-633.029 938.713,-643.029 945.713,-643.029"/>
</g>
<!-- CheckingAccount -->
<g id="node10" class="node"><title>CheckingAccount</title>
<polygon fill="none" stroke="black" points="853.713,-779 724.713,-779 724.713,-743 853.713,-743 853.713,-779"/>
<text text-anchor="middle" x="789.213" y="-757.3" font-family="Consolas" font-size="14.00">CheckingAccount</text>
</g>
<!-- DepositAccount -->
<g id="node11" class="node"><title>DepositAccount</title>
<polygon fill="none" stroke="black" points="874.213,-706 752.213,-706 752.213,-670 874.213,-670 874.213,-706"/>
<text text-anchor="middle" x="813.213" y="-684.3" font-family="Consolas" font-size="14.00">DepositAccount</text>
</g>
<!-- CheckingAccount&#45;&gt;DepositAccount -->
<g id="edge8" class="edge"><title>CheckingAccount&#45;&gt;DepositAccount</title>
<path fill="none" stroke="black" d="M795.023,-742.813C797.764,-734.702 801.099,-724.836 804.162,-715.777"/>
<polygon fill="black" stroke="black" points="807.57,-716.623 807.457,-706.029 800.939,-714.381 807.57,-716.623"/>
</g>
<!-- DepositAccount&#45;&gt;IAccount -->
<g id="edge11" class="edge"><title>DepositAccount&#45;&gt;IAccount</title>
<path fill="none" stroke="black" d="M798.647,-669.793C790.459,-659.558 780.459,-646.058 773.213,-633 765.477,-619.059 758.827,-602.537 753.952,-588.941"/>
<polygon fill="black" stroke="black" points="757.16,-587.51 750.581,-579.205 750.545,-589.8 757.16,-587.51"/>
</g>
<!-- DepositAccount&#45;&gt;NamedReceivable -->
<g id="edge10" class="edge"><title>DepositAccount&#45;&gt;NamedReceivable</title>
<path fill="none" stroke="black" d="M844.112,-669.994C861.535,-660.404 883.497,-648.317 902.221,-638.011"/>
<polygon fill="black" stroke="black" points="904.046,-641.002 911.119,-633.114 900.671,-634.869 904.046,-641.002"/>
</g>
<!-- SavingsAccount -->
<g id="node12" class="node"><title>SavingsAccount</title>
<polygon fill="none" stroke="black" points="994.213,-779 872.213,-779 872.213,-743 994.213,-743 994.213,-779"/>
<text text-anchor="middle" x="933.213" y="-757.3" font-family="Consolas" font-size="14.00">SavingsAccount</text>
</g>
<!-- SavingsAccount&#45;&gt;DepositAccount -->
<g id="edge9" class="edge"><title>SavingsAccount&#45;&gt;DepositAccount</title>
<path fill="none" stroke="black" d="M904.47,-742.994C888.409,-733.491 868.204,-721.536 850.89,-711.292"/>
<polygon fill="black" stroke="black" points="852.526,-708.194 842.137,-706.114 848.961,-714.218 852.526,-708.194"/>
</g>
<!-- IReceivable -->
<g id="node14" class="node"><title>IReceivable</title>
<polygon fill="none" stroke="black" points="920.713,-452 821.713,-452 821.713,-416 920.713,-416 920.713,-452"/>
<text text-anchor="middle" x="871.213" y="-430.3" font-family="Consolas" font-size="14.00">IReceivable</text>
</g>
<!-- Receivable&#45;&gt;IReceivable -->
<g id="edge12" class="edge"><title>Receivable&#45;&gt;IReceivable</title>
<path fill="none" stroke="black" d="M925.026,-488.813C916.13,-479.917 905.122,-468.909 895.385,-459.172"/>
<polygon fill="black" stroke="black" points="897.788,-456.625 888.242,-452.029 892.838,-461.575 897.788,-456.625"/>
</g>
<!-- TradeLine -->
<g id="node15" class="node"><title>TradeLine</title>
<polygon fill="none" stroke="black" points="1023.21,-452 939.213,-452 939.213,-416 1023.21,-416 1023.21,-452"/>
<text text-anchor="middle" x="981.213" y="-430.3" font-family="Consolas" font-size="14.00">TradeLine</text>
</g>
<!-- Receivable&#45;&gt;TradeLine -->
<g id="edge13" class="edge"><title>Receivable&#45;&gt;TradeLine</title>
<path fill="none" stroke="black" d="M951.654,-488.813C956.252,-480.441 961.879,-470.197 966.985,-460.903"/>
<polygon fill="black" stroke="black" points="970.112,-462.479 971.859,-452.029 963.977,-459.109 970.112,-462.479"/>
</g>
<!-- ITradeLine -->
<g id="node16" class="node"><title>ITradeLine</title>
<polygon fill="none" stroke="black" points="1027.21,-371 935.213,-371 935.213,-335 1027.21,-335 1027.21,-371"/>
<text text-anchor="middle" x="981.213" y="-349.3" font-family="Consolas" font-size="14.00">ITradeLine</text>
</g>
<!-- IReceivable&#45;&gt;ITradeLine -->
<g id="edge14" class="edge"><title>IReceivable&#45;&gt;ITradeLine</title>
<path fill="none" stroke="black" d="M895.081,-415.858C910.937,-404.471 931.941,-389.386 949.237,-376.965"/>
<polygon fill="black" stroke="black" points="951.31,-379.785 957.391,-371.108 947.227,-374.099 951.31,-379.785"/>
</g>
<!-- IReceivable&#45;&gt;IAsset -->
<g id="edge15" class="edge"><title>IReceivable&#45;&gt;IAsset</title>
<path fill="none" stroke="black" d="M855.373,-415.858C845.329,-404.988 832.172,-390.75 821.013,-378.674"/>
<polygon fill="black" stroke="black" points="823.379,-376.078 814.022,-371.108 818.238,-380.828 823.379,-376.078"/>
</g>
<!-- TradeLine&#45;&gt;ITradeLine -->
<g id="edge18" class="edge"><title>TradeLine&#45;&gt;ITradeLine</title>
<path fill="none" stroke="black" d="M981.213,-415.858C981.213,-405.713 981.213,-392.634 981.213,-381.117"/>
<polygon fill="black" stroke="black" points="984.713,-381.108 981.213,-371.108 977.713,-381.108 984.713,-381.108"/>
</g>
<!-- ITradeLine&#45;&gt;ITempore -->
<g id="edge19" class="edge"><title>ITradeLine&#45;&gt;ITempore</title>
<path fill="none" stroke="black" d="M935.148,-337.119C899.189,-325.432 847.738,-308.557 793.716,-290.138"/>
<polygon fill="black" stroke="black" points="794.555,-286.726 783.96,-286.805 792.291,-293.35 794.555,-286.726"/>
</g>
<!-- ITransactionable -->
<g id="node22" class="node"><title>ITransactionable</title>
<polygon fill="none" stroke="black" points="1070.71,-182 933.713,-182 933.713,-146 1070.71,-146 1070.71,-182"/>
<text text-anchor="middle" x="1002.21" y="-160.3" font-family="Consolas" font-size="14.00">ITransactionable</text>
</g>
<!-- ITradeLine&#45;&gt;ITransactionable -->
<g id="edge20" class="edge"><title>ITradeLine&#45;&gt;ITransactionable</title>
<path fill="none" stroke="black" d="M1017.55,-334.946C1035.07,-324.618 1054.38,-309.617 1064.21,-290 1081.72,-255.066 1052.55,-214.525 1028.57,-189.314"/>
<polygon fill="black" stroke="black" points="1030.87,-186.662 1021.35,-182.006 1025.89,-191.581 1030.87,-186.662"/>
</g>
<!-- IObviate -->
<g id="node23" class="node"><title>IObviate</title>
<polygon fill="none" stroke="black" points="1054.71,-290 977.713,-290 977.713,-254 1054.71,-254 1054.71,-290"/>
<text text-anchor="middle" x="1016.21" y="-268.3" font-family="Consolas" font-size="14.00">IObviate</text>
</g>
<!-- ITradeLine&#45;&gt;IObviate -->
<g id="edge21" class="edge"><title>ITradeLine&#45;&gt;IObviate</title>
<path fill="none" stroke="black" d="M991.853,-334.895C995.092,-329.308 998.507,-322.996 1001.21,-317 1003.66,-311.575 1005.94,-305.623 1007.95,-299.9"/>
<polygon fill="black" stroke="black" points="1011.41,-300.599 1011.25,-290.005 1004.77,-298.386 1011.41,-300.599"/>
</g>
<!-- IBalance -->
<g id="node24" class="node"><title>IBalance</title>
<polygon fill="none" stroke="black" points="959.713,-290 882.713,-290 882.713,-254 959.713,-254 959.713,-290"/>
<text text-anchor="middle" x="921.213" y="-268.3" font-family="Consolas" font-size="14.00">IBalance</text>
</g>
<!-- ITradeLine&#45;&gt;IBalance -->
<g id="edge26" class="edge"><title>ITradeLine&#45;&gt;IBalance</title>
<path fill="none" stroke="black" stroke-dasharray="1,5" d="M968.194,-334.858C960.095,-324.195 949.535,-310.291 940.479,-298.367"/>
<polygon fill="black" stroke="black" points="943.042,-295.955 934.207,-290.108 937.468,-300.189 943.042,-295.955"/>
<text text-anchor="middle" x="964.713" y="-310.6" font-family="Consolas" font-size="8.00">HAS&#45;A</text>
</g>
<!-- VocaBase -->
<g id="node18" class="node"><title>VocaBase</title>
<polygon fill="none" stroke="black" points="859.713,-633 782.713,-633 782.713,-597 859.713,-597 859.713,-633"/>
<text text-anchor="middle" x="821.213" y="-611.3" font-family="Consolas" font-size="14.00">VocaBase</text>
</g>
<!-- VocaBase&#45;&gt;IVoca -->
<g id="edge16" class="edge"><title>VocaBase&#45;&gt;IVoca</title>
<path fill="none" stroke="black" d="M825.712,-596.969C830.114,-580.301 836.891,-554.646 842.038,-535.161"/>
<polygon fill="black" stroke="black" points="845.462,-535.903 844.632,-525.341 838.694,-534.115 845.462,-535.903"/>
</g>
<!-- IBalance&#45;&gt;ITransactionable -->
<g id="edge49" class="edge"><title>IBalance&#45;&gt;ITransactionable</title>
<path fill="none" stroke="black" d="M934.227,-253.969C947.375,-236.764 967.84,-209.982 982.884,-190.295"/>
<polygon fill="black" stroke="black" points="985.671,-192.411 988.962,-182.341 980.109,-188.161 985.671,-192.411"/>
</g>
<!-- Balance -->
<g id="node25" class="node"><title>Balance</title>
<polygon fill="none" stroke="black" points="916.713,-371 847.713,-371 847.713,-335 916.713,-335 916.713,-371"/>
<text text-anchor="middle" x="882.213" y="-349.3" font-family="Consolas" font-size="14.00">Balance</text>
</g>
<!-- Balance&#45;&gt;IBalance -->
<g id="edge27" class="edge"><title>Balance&#45;&gt;IBalance</title>
<path fill="none" stroke="black" d="M890.675,-334.858C895.786,-324.506 902.405,-311.099 908.173,-299.414"/>
<polygon fill="black" stroke="black" points="911.479,-300.625 912.767,-290.108 905.202,-297.526 911.479,-300.625"/>
</g>
<!-- Ledger -->
<g id="node26" class="node"><title>Ledger</title>
<polygon fill="none" stroke="black" points="864.213,-290 802.213,-290 802.213,-254 864.213,-254 864.213,-290"/>
<text text-anchor="middle" x="833.213" y="-268.3" font-family="Consolas" font-size="14.00">Ledger</text>
</g>
<!-- Balance&#45;&gt;Ledger -->
<g id="edge28" class="edge"><title>Balance&#45;&gt;Ledger</title>
<path fill="none" stroke="black" d="M871.581,-334.858C865.031,-324.299 856.51,-310.561 849.162,-298.715"/>
<polygon fill="black" stroke="black" points="852.07,-296.762 843.824,-290.108 846.121,-300.451 852.07,-296.762"/>
</g>
<!-- ITransaction -->
<g id="node46" class="node"><title>ITransaction</title>
<polygon fill="none" stroke="black" points="789.713,-182 682.713,-182 682.713,-146 789.713,-146 789.713,-182"/>
<text text-anchor="middle" x="736.213" y="-160.3" font-family="Consolas" font-size="14.00">ITransaction</text>
</g>
<!-- Ledger&#45;&gt;ITransaction -->
<g id="edge51" class="edge"><title>Ledger&#45;&gt;ITransaction</title>
<path fill="none" stroke="black" stroke-dasharray="1,5" d="M817.628,-253.969C802.164,-237.071 778.248,-210.935 760.331,-191.356"/>
<polygon fill="black" stroke="black" points="760.182,-191.193 753.181,-189.467 752.081,-182.341 759.083,-184.067 760.182,-191.193"/>
</g>
<!-- VariableRateLoan -->
<g id="node27" class="node"><title>VariableRateLoan</title>
<polygon fill="none" stroke="black" points="1281.71,-779 1144.71,-779 1144.71,-743 1281.71,-743 1281.71,-779"/>
<text text-anchor="middle" x="1213.21" y="-757.3" font-family="Consolas" font-size="14.00">VariableRateLoan</text>
</g>
<!-- VariableRateLoan&#45;&gt;LoanBase -->
<g id="edge29" class="edge"><title>VariableRateLoan&#45;&gt;LoanBase</title>
<path fill="none" stroke="black" d="M1178.72,-742.994C1159.01,-733.273 1134.09,-720.987 1113,-710.59"/>
<polygon fill="black" stroke="black" points="1114.44,-707.397 1103.92,-706.114 1111.34,-713.675 1114.44,-707.397"/>
</g>
<!-- Security -->
<g id="node28" class="node"><title>Security</title>
<polygon fill="none" stroke="black" points="188.713,-452 111.713,-452 111.713,-416 188.713,-416 188.713,-452"/>
<text text-anchor="middle" x="150.213" y="-430.3" font-family="Consolas" font-size="14.00">Security</text>
</g>
<!-- Security&#45;&gt;IAsset -->
<g id="edge30" class="edge"><title>Security&#45;&gt;IAsset</title>
<path fill="none" stroke="black" d="M188.728,-420.056C194.218,-418.516 199.828,-417.103 205.213,-416 409.498,-374.169 659.476,-359.78 756.736,-355.548"/>
<polygon fill="black" stroke="black" points="757.176,-359.032 767.02,-355.114 756.881,-352.039 757.176,-359.032"/>
</g>
<!-- Pecuniam -->
<g id="node29" class="node"><title>Pecuniam</title>
<polygon fill="none" stroke="black" points="88.7128,-371 11.7128,-371 11.7128,-335 88.7128,-335 88.7128,-371"/>
<text text-anchor="middle" x="50.2128" y="-349.3" font-family="Consolas" font-size="14.00">Pecuniam</text>
</g>
<!-- Security&#45;&gt;Pecuniam -->
<g id="edge31" class="edge"><title>Security&#45;&gt;Pecuniam</title>
<path fill="none" stroke="black" d="M128.514,-415.858C114.362,-404.678 95.6987,-389.934 80.143,-377.645"/>
<polygon fill="black" stroke="black" points="81.8855,-374.561 71.869,-371.108 77.5462,-380.054 81.8855,-374.561"/>
</g>
<!-- Cusip -->
<g id="node30" class="node"><title>Cusip</title>
<polygon fill="none" stroke="black" points="177.213,-371 123.213,-371 123.213,-335 177.213,-335 177.213,-371"/>
<text text-anchor="middle" x="150.213" y="-349.3" font-family="Consolas" font-size="14.00">Cusip</text>
</g>
<!-- Security&#45;&gt;Cusip -->
<g id="edge32" class="edge"><title>Security&#45;&gt;Cusip</title>
<path fill="none" stroke="black" stroke-dasharray="1,5" d="M150.213,-415.858C150.213,-405.713 150.213,-392.634 150.213,-381.117"/>
<polygon fill="black" stroke="black" points="153.713,-381.108 150.213,-371.108 146.713,-381.108 153.713,-381.108"/>
<text text-anchor="middle" x="155.213" y="-391.6" font-family="Consolas" font-size="8.00">Id</text>
</g>
<!-- Currency -->
<g id="node34" class="node"><title>Currency</title>
<polygon fill="none" stroke="black" points="136.713,-236 59.7128,-236 59.7128,-200 136.713,-200 136.713,-236"/>
<text text-anchor="middle" x="98.2128" y="-214.3" font-family="Consolas" font-size="14.00">Currency</text>
</g>
<!-- Pecuniam&#45;&gt;Currency -->
<g id="edge36" class="edge"><title>Pecuniam&#45;&gt;Currency</title>
<path fill="none" stroke="black" stroke-dasharray="1,5" d="M32.2227,-334.728C13.2279,-314.346 -11.6783,-279.949 6.21285,-254 16.2679,-239.417 33.2636,-230.905 49.9308,-225.939"/>
<polygon fill="black" stroke="black" points="50.8572,-229.314 59.6513,-223.405 49.0918,-222.54 50.8572,-229.314"/>
<text text-anchor="middle" x="22.2128" y="-310.6" font-family="Consolas" font-size="8.00">Id</text>
</g>
<!-- INumera -->
<g id="node35" class="node"><title>INumera</title>
<polygon fill="none" stroke="black" points="84.7128,-290 15.7128,-290 15.7128,-254 84.7128,-254 84.7128,-290"/>
<text text-anchor="middle" x="50.2128" y="-268.3" font-family="Consolas" font-size="14.00">INumera</text>
</g>
<!-- Pecuniam&#45;&gt;INumera -->
<g id="edge38" class="edge"><title>Pecuniam&#45;&gt;INumera</title>
<path fill="none" stroke="black" d="M50.2128,-334.858C50.2128,-324.713 50.2128,-311.634 50.2128,-300.117"/>
<polygon fill="black" stroke="black" points="53.7129,-300.108 50.2128,-290.108 46.7129,-300.108 53.7129,-300.108"/>
</g>
<!-- RIdentifierWithChkDigit -->
<g id="node31" class="node"><title>RIdentifierWithChkDigit</title>
<polygon fill="none" stroke="black" points="291.713,-290 102.713,-290 102.713,-254 291.713,-254 291.713,-290"/>
<text text-anchor="middle" x="197.213" y="-268.3" font-family="Consolas" font-size="14.00">RIdentifierWithChkDigit</text>
</g>
<!-- Cusip&#45;&gt;RIdentifierWithChkDigit -->
<g id="edge33" class="edge"><title>Cusip&#45;&gt;RIdentifierWithChkDigit</title>
<path fill="none" stroke="black" d="M160.411,-334.858C166.693,-324.299 174.866,-310.561 181.914,-298.715"/>
<polygon fill="black" stroke="black" points="184.929,-300.492 187.034,-290.108 178.914,-296.913 184.929,-300.492"/>
</g>
<!-- RIdentifier -->
<g id="node32" class="node"><title>RIdentifier</title>
<polygon fill="none" stroke="black" points="356.713,-182 257.713,-182 257.713,-146 356.713,-146 356.713,-182"/>
<text text-anchor="middle" x="307.213" y="-160.3" font-family="Consolas" font-size="14.00">RIdentifier</text>
</g>
<!-- RIdentifierWithChkDigit&#45;&gt;RIdentifier -->
<g id="edge34" class="edge"><title>RIdentifierWithChkDigit&#45;&gt;RIdentifier</title>
<path fill="none" stroke="black" d="M214.886,-253.969C232.98,-236.533 261.28,-209.263 281.78,-189.508"/>
<polygon fill="black" stroke="black" points="284.446,-191.8 289.218,-182.341 279.588,-186.759 284.446,-191.8"/>
</g>
<!-- Identifier -->
<g id="node33" class="node"><title>Identifier</title>
<polygon fill="none" stroke="black" points="353.213,-109 261.213,-109 261.213,-73 353.213,-73 353.213,-109"/>
<text text-anchor="middle" x="307.213" y="-87.3" font-family="Consolas" font-size="14.00">Identifier</text>
</g>
<!-- RIdentifier&#45;&gt;Identifier -->
<g id="edge35" class="edge"><title>RIdentifier&#45;&gt;Identifier</title>
<path fill="none" stroke="black" d="M307.213,-145.813C307.213,-137.789 307.213,-128.047 307.213,-119.069"/>
<polygon fill="black" stroke="black" points="310.713,-119.029 307.213,-109.029 303.713,-119.029 310.713,-119.029"/>
</g>
<!-- Identifier&#45;&gt;StringId -->
<g id="edge48" class="edge"><title>Identifier&#45;&gt;StringId</title>
<path fill="none" stroke="black" d="M307.213,-72.8129C307.213,-64.7895 307.213,-55.0475 307.213,-46.0691"/>
<polygon fill="black" stroke="black" points="310.713,-46.0288 307.213,-36.0288 303.713,-46.0289 310.713,-46.0288"/>
</g>
<!-- Currency&#45;&gt;Identifier -->
<g id="edge37" class="edge"><title>Currency&#45;&gt;Identifier</title>
<path fill="none" stroke="black" d="M126.835,-199.881C164.018,-177.643 229.009,-138.773 269.989,-114.263"/>
<polygon fill="black" stroke="black" points="271.816,-117.249 278.602,-109.112 268.223,-111.241 271.816,-117.249"/>
</g>
<!-- CreditScore -->
<g id="node36" class="node"><title>CreditScore</title>
<polygon fill="none" stroke="black" points="507.713,-182 408.713,-182 408.713,-146 507.713,-146 507.713,-182"/>
<text text-anchor="middle" x="458.213" y="-160.3" font-family="Consolas" font-size="14.00">CreditScore</text>
</g>
<!-- CreditScore&#45;&gt;Identifier -->
<g id="edge39" class="edge"><title>CreditScore&#45;&gt;Identifier</title>
<path fill="none" stroke="black" d="M422.045,-145.994C401.279,-136.23 375.006,-123.876 352.833,-113.451"/>
<polygon fill="black" stroke="black" points="354.148,-110.201 343.609,-109.114 351.17,-116.536 354.148,-110.201"/>
</g>
<!-- PersonalCreditScore -->
<g id="node37" class="node"><title>PersonalCreditScore</title>
<polygon fill="none" stroke="black" points="571.713,-290 412.713,-290 412.713,-254 571.713,-254 571.713,-290"/>
<text text-anchor="middle" x="492.213" y="-268.3" font-family="Consolas" font-size="14.00">PersonalCreditScore</text>
</g>
<!-- PersonalCreditScore&#45;&gt;CreditScore -->
<g id="edge40" class="edge"><title>PersonalCreditScore&#45;&gt;CreditScore</title>
<path fill="none" stroke="black" d="M486.75,-253.969C481.379,-237.224 473.099,-211.41 466.839,-191.892"/>
<polygon fill="black" stroke="black" points="470.162,-190.794 463.775,-182.341 463.497,-192.932 470.162,-190.794"/>
</g>
<!-- CreditCardNumber -->
<g id="node38" class="node"><title>CreditCardNumber</title>
<polygon fill="none" stroke="black" points="332.713,-371 195.713,-371 195.713,-335 332.713,-335 332.713,-371"/>
<text text-anchor="middle" x="264.213" y="-349.3" font-family="Consolas" font-size="14.00">CreditCardNumber</text>
</g>
<!-- CreditCardNumber&#45;&gt;RIdentifierWithChkDigit -->
<g id="edge41" class="edge"><title>CreditCardNumber&#45;&gt;RIdentifierWithChkDigit</title>
<path fill="none" stroke="black" d="M249.675,-334.858C240.544,-324.092 228.61,-310.021 218.432,-298.02"/>
<polygon fill="black" stroke="black" points="220.86,-295.471 211.722,-290.108 215.521,-299.999 220.86,-295.471"/>
</g>
<!-- VisaCc -->
<g id="node39" class="node"><title>VisaCc</title>
<polygon fill="none" stroke="black" points="141.213,-633 79.2128,-633 79.2128,-597 141.213,-597 141.213,-633"/>
<text text-anchor="middle" x="110.213" y="-611.3" font-family="Consolas" font-size="14.00">VisaCc</text>
</g>
<!-- CreditCard -->
<g id="node40" class="node"><title>CreditCard</title>
<polygon fill="none" stroke="black" points="310.213,-525 218.213,-525 218.213,-489 310.213,-489 310.213,-525"/>
<text text-anchor="middle" x="264.213" y="-503.3" font-family="Consolas" font-size="14.00">CreditCard</text>
</g>
<!-- VisaCc&#45;&gt;CreditCard -->
<g id="edge42" class="edge"><title>VisaCc&#45;&gt;CreditCard</title>
<path fill="none" stroke="black" d="M134.956,-596.969C160.922,-579.096 201.902,-550.889 230.745,-531.037"/>
<polygon fill="black" stroke="black" points="233.023,-533.717 239.276,-525.164 229.054,-527.951 233.023,-533.717"/>
</g>
<!-- ICreditCard -->
<g id="node44" class="node"><title>ICreditCard</title>
<polygon fill="none" stroke="black" points="313.713,-452 214.713,-452 214.713,-416 313.713,-416 313.713,-452"/>
<text text-anchor="middle" x="264.213" y="-430.3" font-family="Consolas" font-size="14.00">ICreditCard</text>
</g>
<!-- CreditCard&#45;&gt;ICreditCard -->
<g id="edge46" class="edge"><title>CreditCard&#45;&gt;ICreditCard</title>
<path fill="none" stroke="black" d="M264.213,-488.813C264.213,-480.789 264.213,-471.047 264.213,-462.069"/>
<polygon fill="black" stroke="black" points="267.713,-462.029 264.213,-452.029 260.713,-462.029 267.713,-462.029"/>
</g>
<!-- MasterCardCc -->
<g id="node41" class="node"><title>MasterCardCc</title>
<polygon fill="none" stroke="black" points="266.713,-633 159.713,-633 159.713,-597 266.713,-597 266.713,-633"/>
<text text-anchor="middle" x="213.213" y="-611.3" font-family="Consolas" font-size="14.00">MasterCardCc</text>
</g>
<!-- MasterCardCc&#45;&gt;CreditCard -->
<g id="edge43" class="edge"><title>MasterCardCc&#45;&gt;CreditCard</title>
<path fill="none" stroke="black" d="M221.407,-596.969C229.537,-580.071 242.112,-553.935 251.532,-534.356"/>
<polygon fill="black" stroke="black" points="254.688,-535.869 255.87,-525.341 248.38,-532.834 254.688,-535.869"/>
</g>
<!-- AmexCc -->
<g id="node42" class="node"><title>AmexCc</title>
<polygon fill="none" stroke="black" points="347.213,-633 285.213,-633 285.213,-597 347.213,-597 347.213,-633"/>
<text text-anchor="middle" x="316.213" y="-611.3" font-family="Consolas" font-size="14.00">AmexCc</text>
</g>
<!-- AmexCc&#45;&gt;CreditCard -->
<g id="edge44" class="edge"><title>AmexCc&#45;&gt;CreditCard</title>
<path fill="none" stroke="black" d="M307.858,-596.969C299.568,-580.071 286.747,-553.935 277.142,-534.356"/>
<polygon fill="black" stroke="black" points="280.266,-532.777 272.72,-525.341 273.982,-535.86 280.266,-532.777"/>
</g>
<!-- DiscoverCc -->
<g id="node43" class="node"><title>DiscoverCc</title>
<polygon fill="none" stroke="black" points="457.213,-633 365.213,-633 365.213,-597 457.213,-597 457.213,-633"/>
<text text-anchor="middle" x="411.213" y="-611.3" font-family="Consolas" font-size="14.00">DiscoverCc</text>
</g>
<!-- DiscoverCc&#45;&gt;CreditCard -->
<g id="edge45" class="edge"><title>DiscoverCc&#45;&gt;CreditCard</title>
<path fill="none" stroke="black" d="M387.595,-596.969C362.882,-579.149 323.924,-551.057 296.405,-531.214"/>
<polygon fill="black" stroke="black" points="298.419,-528.351 288.261,-525.341 294.325,-534.028 298.419,-528.351"/>
</g>
<!-- ICreditCard&#45;&gt;CreditCardNumber -->
<g id="edge47" class="edge"><title>ICreditCard&#45;&gt;CreditCardNumber</title>
<path fill="none" stroke="black" stroke-dasharray="1,5" d="M264.213,-415.858C264.213,-405.713 264.213,-392.634 264.213,-381.117"/>
<polygon fill="black" stroke="black" points="267.713,-381.108 264.213,-371.108 260.713,-381.108 267.713,-381.108"/>
<text text-anchor="middle" x="275.713" y="-391.6" font-family="Consolas" font-size="8.00">HAS&#45;A</text>
</g>
<!-- AccountId -->
<g id="node45" class="node"><title>AccountId</title>
<polygon fill="none" stroke="black" points="394.213,-290 310.213,-290 310.213,-254 394.213,-254 394.213,-290"/>
<text text-anchor="middle" x="352.213" y="-268.3" font-family="Consolas" font-size="14.00">AccountId</text>
</g>
<!-- AccountId&#45;&gt;RIdentifier -->
<g id="edge50" class="edge"><title>AccountId&#45;&gt;RIdentifier</title>
<path fill="none" stroke="black" d="M344.983,-253.969C337.842,-237.148 326.814,-211.173 318.515,-191.624"/>
<polygon fill="black" stroke="black" points="321.704,-190.178 314.574,-182.341 315.261,-192.913 321.704,-190.178"/>
</g>
<!-- ITransactionHistory -->
<g id="node48" class="node"><title>ITransactionHistory</title>
<polygon fill="none" stroke="black" points="815.713,-109 656.713,-109 656.713,-73 815.713,-73 815.713,-109"/>
<text text-anchor="middle" x="736.213" y="-87.3" font-family="Consolas" font-size="14.00">ITransactionHistory</text>
</g>
<!-- ITransaction&#45;&gt;ITransactionHistory -->
<g id="edge53" class="edge"><title>ITransaction&#45;&gt;ITransactionHistory</title>
<path fill="none" stroke="black" d="M736.213,-145.813C736.213,-137.789 736.213,-128.047 736.213,-119.069"/>
<polygon fill="black" stroke="black" points="739.713,-119.029 736.213,-109.029 732.713,-119.029 739.713,-119.029"/>
</g>
<!-- Transaction -->
<g id="node47" class="node"><title>Transaction</title>
<polygon fill="none" stroke="black" points="688.713,-290 589.713,-290 589.713,-254 688.713,-254 688.713,-290"/>
<text text-anchor="middle" x="639.213" y="-268.3" font-family="Consolas" font-size="14.00">Transaction</text>
</g>
<!-- Transaction&#45;&gt;ITransaction -->
<g id="edge52" class="edge"><title>Transaction&#45;&gt;ITransaction</title>
<path fill="none" stroke="black" d="M654.798,-253.969C670.683,-236.61 695.488,-209.503 713.547,-189.769"/>
<polygon fill="black" stroke="black" points="716.176,-192.081 720.345,-182.341 711.012,-187.355 716.176,-192.081"/>
</g>
</g>
</svg>
