<?xml version="1.0" encoding="UTF-8" standalone="no"?>
<!DOCTYPE svg PUBLIC "-//W3C//DTD SVG 1.1//EN"
 "http://www.w3.org/Graphics/SVG/1.1/DTD/svg11.dtd">
<!-- Generated by graphviz version 2.38.0 (20140413.2041)
 -->
<!-- Title: noFutureRandDataSp Pages: 1 -->
<svg width="1473pt" height="933pt"
 viewBox="0.00 0.00 1472.50 933.00" xmlns="http://www.w3.org/2000/svg" xmlns:xlink="http://www.w3.org/1999/xlink">
<g id="graph0" class="graph" transform="scale(1 1) rotate(0) translate(4 929)">
<title>noFutureRandDataSp</title>
<polygon fill="white" stroke="none" points="-4,4 -4,-929 1468.5,-929 1468.5,4 -4,4"/>
<!-- PecuniamIdentifier -->
<g id="node1" class="node"><title>PecuniamIdentifier</title>
<polygon fill="none" stroke="black" points="246.5,-290 72.5,-290 72.5,-254 246.5,-254 246.5,-290"/>
<text text-anchor="middle" x="159.5" y="-268.3" font-family="Consolas" font-size="14.00">IIdentifier&lt;Pecuniam&gt;</text>
</g>
<!-- StringId -->
<g id="node2" class="node"><title>StringId</title>
<polygon fill="none" stroke="black" points="1142,-36 983,-36 983,-0 1142,-0 1142,-36"/>
<text text-anchor="middle" x="1062.5" y="-14.3" font-family="Consolas" font-size="14.00">IIdentifier&lt;string&gt;</text>
</g>
<!-- Mortgage -->
<g id="node3" class="node"><title>Mortgage</title>
<polygon fill="none" stroke="black" points="467,-925 390,-925 390,-889 467,-889 467,-925"/>
<text text-anchor="middle" x="428.5" y="-903.3" font-family="Consolas" font-size="14.00">Mortgage</text>
</g>
<!-- SecuredFixedRateLoan -->
<g id="node4" class="node"><title>SecuredFixedRateLoan</title>
<polygon fill="none" stroke="black" points="512,-852 345,-852 345,-816 512,-816 512,-852"/>
<text text-anchor="middle" x="428.5" y="-830.3" font-family="Consolas" font-size="14.00">SecuredFixedRateLoan</text>
</g>
<!-- Mortgage&#45;&gt;SecuredFixedRateLoan -->
<g id="edge1" class="edge"><title>Mortgage&#45;&gt;SecuredFixedRateLoan</title>
<path fill="none" stroke="black" d="M428.5,-888.813C428.5,-880.789 428.5,-871.047 428.5,-862.069"/>
<polygon fill="black" stroke="black" points="432,-862.029 428.5,-852.029 425,-862.029 432,-862.029"/>
</g>
<!-- FixedRateLoan -->
<g id="node5" class="node"><title>FixedRateLoan</title>
<polygon fill="none" stroke="black" points="485.5,-779 371.5,-779 371.5,-743 485.5,-743 485.5,-779"/>
<text text-anchor="middle" x="428.5" y="-757.3" font-family="Consolas" font-size="14.00">FixedRateLoan</text>
</g>
<!-- SecuredFixedRateLoan&#45;&gt;FixedRateLoan -->
<g id="edge2" class="edge"><title>SecuredFixedRateLoan&#45;&gt;FixedRateLoan</title>
<path fill="none" stroke="black" d="M428.5,-815.813C428.5,-807.789 428.5,-798.047 428.5,-789.069"/>
<polygon fill="black" stroke="black" points="432,-789.029 428.5,-779.029 425,-789.029 432,-789.029"/>
</g>
<!-- LoanBase -->
<g id="node8" class="node"><title>LoanBase</title>
<polygon fill="none" stroke="black" points="467,-706 390,-706 390,-670 467,-670 467,-706"/>
<text text-anchor="middle" x="428.5" y="-684.3" font-family="Consolas" font-size="14.00">LoanBase</text>
</g>
<!-- FixedRateLoan&#45;&gt;LoanBase -->
<g id="edge5" class="edge"><title>FixedRateLoan&#45;&gt;LoanBase</title>
<path fill="none" stroke="black" d="M428.5,-742.813C428.5,-734.789 428.5,-725.047 428.5,-716.069"/>
<polygon fill="black" stroke="black" points="432,-716.029 428.5,-706.029 425,-716.029 432,-716.029"/>
</g>
<!-- CreditCardAccount -->
<g id="node6" class="node"><title>CreditCardAccount</title>
<polygon fill="none" stroke="black" points="773.5,-852 629.5,-852 629.5,-816 773.5,-816 773.5,-852"/>
<text text-anchor="middle" x="701.5" y="-830.3" font-family="Consolas" font-size="14.00">CreditCardAccount</text>
</g>
<!-- CreditCardAccount&#45;&gt;FixedRateLoan -->
<g id="edge3" class="edge"><title>CreditCardAccount&#45;&gt;FixedRateLoan</title>
<path fill="none" stroke="black" d="M636.11,-815.994C593.67,-804.956 538.506,-790.61 495.71,-779.479"/>
<polygon fill="black" stroke="black" points="496.505,-776.07 485.946,-776.94 494.743,-782.844 496.505,-776.07"/>
</g>
<!-- IAccount -->
<g id="node7" class="node"><title>IAccount</title>
<polygon fill="none" stroke="black" points="646,-579 569,-579 569,-543 646,-543 646,-579"/>
<text text-anchor="middle" x="607.5" y="-557.3" font-family="Consolas" font-size="14.00">IAccount</text>
</g>
<!-- CreditCardAccount&#45;&gt;IAccount -->
<g id="edge4" class="edge"><title>CreditCardAccount&#45;&gt;IAccount</title>
<path fill="none" stroke="black" d="M755.89,-815.947C779.344,-804.891 801.5,-787.657 801.5,-762 801.5,-762 801.5,-762 801.5,-651 801.5,-587.204 713.759,-568.963 656.291,-563.857"/>
<polygon fill="black" stroke="black" points="656.536,-560.366 646.293,-563.073 655.988,-567.344 656.536,-560.366"/>
</g>
<!-- IAsset -->
<g id="node18" class="node"><title>IAsset</title>
<polygon fill="none" stroke="black" points="643.5,-371 581.5,-371 581.5,-335 643.5,-335 643.5,-371"/>
<text text-anchor="middle" x="612.5" y="-349.3" font-family="Consolas" font-size="14.00">IAsset</text>
</g>
<!-- IAccount&#45;&gt;IAsset -->
<g id="edge27" class="edge"><title>IAccount&#45;&gt;IAsset</title>
<path fill="none" stroke="black" d="M607.918,-542.791C608.788,-506.955 610.799,-424.087 611.844,-381.047"/>
<polygon fill="black" stroke="black" points="615.343,-381.097 612.087,-371.015 608.345,-380.927 615.343,-381.097"/>
</g>
<!-- ITempore -->
<g id="node24" class="node"><title>ITempore</title>
<polygon fill="none" stroke="black" points="592,-290 515,-290 515,-254 592,-254 592,-290"/>
<text text-anchor="middle" x="553.5" y="-268.3" font-family="Consolas" font-size="14.00">ITempore</text>
</g>
<!-- IAccount&#45;&gt;ITempore -->
<g id="edge28" class="edge"><title>IAccount&#45;&gt;ITempore</title>
<path fill="none" stroke="black" d="M589.218,-542.775C573.552,-526.076 553.5,-499.194 553.5,-471 553.5,-471 553.5,-471 553.5,-352 553.5,-334.893 553.5,-315.703 553.5,-300.52"/>
<polygon fill="black" stroke="black" points="557,-300.26 553.5,-290.26 550,-300.26 557,-300.26"/>
</g>
<!-- NamedReceivable -->
<g id="node9" class="node"><title>NamedReceivable</title>
<polygon fill="none" stroke="black" points="470,-633 341,-633 341,-597 470,-597 470,-633"/>
<text text-anchor="middle" x="405.5" y="-611.3" font-family="Consolas" font-size="14.00">NamedReceivable</text>
</g>
<!-- LoanBase&#45;&gt;NamedReceivable -->
<g id="edge6" class="edge"><title>LoanBase&#45;&gt;NamedReceivable</title>
<path fill="none" stroke="black" d="M422.932,-669.813C420.305,-661.702 417.109,-651.836 414.174,-642.777"/>
<polygon fill="black" stroke="black" points="417.428,-641.463 411.016,-633.029 410.769,-643.621 417.428,-641.463"/>
</g>
<!-- ILoan -->
<g id="node23" class="node"><title>ILoan</title>
<polygon fill="none" stroke="black" points="542.5,-633 488.5,-633 488.5,-597 542.5,-597 542.5,-633"/>
<text text-anchor="middle" x="515.5" y="-611.3" font-family="Consolas" font-size="14.00">ILoan</text>
</g>
<!-- LoanBase&#45;&gt;ILoan -->
<g id="edge22" class="edge"><title>LoanBase&#45;&gt;ILoan</title>
<path fill="none" stroke="black" d="M449.56,-669.813C460.674,-660.743 474.479,-649.477 486.581,-639.6"/>
<polygon fill="black" stroke="black" points="489.099,-642.063 494.634,-633.029 484.673,-636.64 489.099,-642.063"/>
</g>
<!-- Receivable -->
<g id="node14" class="node"><title>Receivable</title>
<polygon fill="none" stroke="black" points="451.5,-525 359.5,-525 359.5,-489 451.5,-489 451.5,-525"/>
<text text-anchor="middle" x="405.5" y="-503.3" font-family="Consolas" font-size="14.00">Receivable</text>
</g>
<!-- NamedReceivable&#45;&gt;Receivable -->
<g id="edge29" class="edge"><title>NamedReceivable&#45;&gt;Receivable</title>
<path fill="none" stroke="black" d="M405.5,-596.969C405.5,-580.378 405.5,-554.883 405.5,-535.431"/>
<polygon fill="black" stroke="black" points="409,-535.341 405.5,-525.341 402,-535.341 409,-535.341"/>
</g>
<!-- Rent -->
<g id="node10" class="node"><title>Rent</title>
<polygon fill="none" stroke="black" points="371.5,-706 317.5,-706 317.5,-670 371.5,-670 371.5,-706"/>
<text text-anchor="middle" x="344.5" y="-684.3" font-family="Consolas" font-size="14.00">Rent</text>
</g>
<!-- Rent&#45;&gt;NamedReceivable -->
<g id="edge7" class="edge"><title>Rent&#45;&gt;NamedReceivable</title>
<path fill="none" stroke="black" d="M359.266,-669.813C366.759,-661.092 375.996,-650.34 384.239,-640.746"/>
<polygon fill="black" stroke="black" points="387.008,-642.895 390.87,-633.029 381.698,-638.333 387.008,-642.895"/>
</g>
<!-- CheckingAccount -->
<g id="node11" class="node"><title>CheckingAccount</title>
<polygon fill="none" stroke="black" points="633,-779 504,-779 504,-743 633,-743 633,-779"/>
<text text-anchor="middle" x="568.5" y="-757.3" font-family="Consolas" font-size="14.00">CheckingAccount</text>
</g>
<!-- DepositAccount -->
<g id="node12" class="node"><title>DepositAccount</title>
<polygon fill="none" stroke="black" points="634.5,-706 512.5,-706 512.5,-670 634.5,-670 634.5,-706"/>
<text text-anchor="middle" x="573.5" y="-684.3" font-family="Consolas" font-size="14.00">DepositAccount</text>
</g>
<!-- CheckingAccount&#45;&gt;DepositAccount -->
<g id="edge8" class="edge"><title>CheckingAccount&#45;&gt;DepositAccount</title>
<path fill="none" stroke="black" d="M569.71,-742.813C570.275,-734.789 570.961,-725.047 571.594,-716.069"/>
<polygon fill="black" stroke="black" points="575.09,-716.25 572.301,-706.029 568.107,-715.758 575.09,-716.25"/>
</g>
<!-- DepositAccount&#45;&gt;IAccount -->
<g id="edge11" class="edge"><title>DepositAccount&#45;&gt;IAccount</title>
<path fill="none" stroke="black" d="M578.156,-669.881C583.822,-649.053 593.455,-613.637 600.131,-589.092"/>
<polygon fill="black" stroke="black" points="603.543,-589.881 602.791,-579.313 596.789,-588.044 603.543,-589.881"/>
</g>
<!-- DepositAccount&#45;&gt;NamedReceivable -->
<g id="edge10" class="edge"><title>DepositAccount&#45;&gt;NamedReceivable</title>
<path fill="none" stroke="black" d="M533.26,-669.994C509.847,-660.099 480.142,-647.545 455.268,-637.033"/>
<polygon fill="black" stroke="black" points="456.568,-633.783 445.994,-633.114 453.843,-640.23 456.568,-633.783"/>
</g>
<!-- SavingsAccount -->
<g id="node13" class="node"><title>SavingsAccount</title>
<polygon fill="none" stroke="black" points="773.5,-779 651.5,-779 651.5,-743 773.5,-743 773.5,-779"/>
<text text-anchor="middle" x="712.5" y="-757.3" font-family="Consolas" font-size="14.00">SavingsAccount</text>
</g>
<!-- SavingsAccount&#45;&gt;DepositAccount -->
<g id="edge9" class="edge"><title>SavingsAccount&#45;&gt;DepositAccount</title>
<path fill="none" stroke="black" d="M679.206,-742.994C660.261,-733.317 636.337,-721.097 616.042,-710.73"/>
<polygon fill="black" stroke="black" points="617.502,-707.546 607.004,-706.114 614.317,-713.779 617.502,-707.546"/>
</g>
<!-- IReceivable -->
<g id="node15" class="node"><title>IReceivable</title>
<polygon fill="none" stroke="black" points="521,-452 422,-452 422,-416 521,-416 521,-452"/>
<text text-anchor="middle" x="471.5" y="-430.3" font-family="Consolas" font-size="14.00">IReceivable</text>
</g>
<!-- Receivable&#45;&gt;IReceivable -->
<g id="edge12" class="edge"><title>Receivable&#45;&gt;IReceivable</title>
<path fill="none" stroke="black" d="M421.477,-488.813C429.665,-480.005 439.778,-469.125 448.764,-459.458"/>
<polygon fill="black" stroke="black" points="451.425,-461.736 455.67,-452.029 446.298,-456.97 451.425,-461.736"/>
</g>
<!-- TradeLine -->
<g id="node16" class="node"><title>TradeLine</title>
<polygon fill="none" stroke="black" points="403.5,-452 319.5,-452 319.5,-416 403.5,-416 403.5,-452"/>
<text text-anchor="middle" x="361.5" y="-430.3" font-family="Consolas" font-size="14.00">TradeLine</text>
</g>
<!-- Receivable&#45;&gt;TradeLine -->
<g id="edge13" class="edge"><title>Receivable&#45;&gt;TradeLine</title>
<path fill="none" stroke="black" d="M394.849,-488.813C389.606,-480.353 383.18,-469.984 377.373,-460.612"/>
<polygon fill="black" stroke="black" points="380.296,-458.685 372.053,-452.029 374.346,-462.373 380.296,-458.685"/>
</g>
<!-- ITradeLine -->
<g id="node17" class="node"><title>ITradeLine</title>
<polygon fill="none" stroke="black" points="511.5,-371 419.5,-371 419.5,-335 511.5,-335 511.5,-371"/>
<text text-anchor="middle" x="465.5" y="-349.3" font-family="Consolas" font-size="14.00">ITradeLine</text>
</g>
<!-- IReceivable&#45;&gt;ITradeLine -->
<g id="edge14" class="edge"><title>IReceivable&#45;&gt;ITradeLine</title>
<path fill="none" stroke="black" d="M470.198,-415.858C469.428,-405.713 468.434,-392.634 467.56,-381.117"/>
<polygon fill="black" stroke="black" points="471.047,-380.815 466.799,-371.108 464.067,-381.345 471.047,-380.815"/>
</g>
<!-- IReceivable&#45;&gt;IAsset -->
<g id="edge15" class="edge"><title>IReceivable&#45;&gt;IAsset</title>
<path fill="none" stroke="black" d="M502.095,-415.858C522.881,-404.212 550.569,-388.699 573.017,-376.122"/>
<polygon fill="black" stroke="black" points="574.952,-379.05 581.965,-371.108 571.53,-372.943 574.952,-379.05"/>
</g>
<!-- IMereo -->
<g id="node19" class="node"><title>IMereo</title>
<polygon fill="none" stroke="black" points="168.5,-371 106.5,-371 106.5,-335 168.5,-335 168.5,-371"/>
<text text-anchor="middle" x="137.5" y="-349.3" font-family="Consolas" font-size="14.00">IMereo</text>
</g>
<!-- IReceivable&#45;&gt;IMereo -->
<g id="edge16" class="edge"><title>IReceivable&#45;&gt;IMereo</title>
<path fill="none" stroke="black" stroke-dasharray="1,5" d="M421.983,-418.504C418.779,-417.637 415.598,-416.795 412.5,-416 329.886,-394.805 232.313,-373.735 178.431,-362.442"/>
<polygon fill="black" stroke="black" points="179.078,-359.002 168.573,-360.383 177.646,-365.854 179.078,-359.002"/>
<text text-anchor="middle" x="349" y="-391.6" font-family="Consolas" font-size="8.00">HAS&#45;A</text>
</g>
<!-- TradeLine&#45;&gt;ITradeLine -->
<g id="edge23" class="edge"><title>TradeLine&#45;&gt;ITradeLine</title>
<path fill="none" stroke="black" d="M384.066,-415.858C398.921,-404.574 418.555,-389.66 434.821,-377.304"/>
<polygon fill="black" stroke="black" points="437.132,-379.944 442.978,-371.108 432.897,-374.37 437.132,-379.944"/>
</g>
<!-- ITradeLine&#45;&gt;ITempore -->
<g id="edge24" class="edge"><title>ITradeLine&#45;&gt;ITempore</title>
<path fill="none" stroke="black" d="M484.595,-334.858C496.934,-323.781 513.169,-309.207 526.781,-296.987"/>
<polygon fill="black" stroke="black" points="529.339,-299.393 534.443,-290.108 524.663,-294.184 529.339,-299.393"/>
</g>
<!-- ITransactionable -->
<g id="node25" class="node"><title>ITransactionable</title>
<polygon fill="none" stroke="black" points="402,-290 265,-290 265,-254 402,-254 402,-290"/>
<text text-anchor="middle" x="333.5" y="-268.3" font-family="Consolas" font-size="14.00">ITransactionable</text>
</g>
<!-- ITradeLine&#45;&gt;ITransactionable -->
<g id="edge25" class="edge"><title>ITradeLine&#45;&gt;ITransactionable</title>
<path fill="none" stroke="black" d="M436.858,-334.858C417.485,-323.264 391.708,-307.837 370.744,-295.29"/>
<polygon fill="black" stroke="black" points="372.464,-292.241 362.086,-290.108 368.869,-298.247 372.464,-292.241"/>
</g>
<!-- IObviate -->
<g id="node26" class="node"><title>IObviate</title>
<polygon fill="none" stroke="black" points="497,-290 420,-290 420,-254 497,-254 497,-290"/>
<text text-anchor="middle" x="458.5" y="-268.3" font-family="Consolas" font-size="14.00">IObviate</text>
</g>
<!-- ITradeLine&#45;&gt;IObviate -->
<g id="edge26" class="edge"><title>ITradeLine&#45;&gt;IObviate</title>
<path fill="none" stroke="black" d="M463.981,-334.858C463.082,-324.713 461.923,-311.634 460.903,-300.117"/>
<polygon fill="black" stroke="black" points="464.385,-299.76 460.016,-290.108 457.412,-300.378 464.385,-299.76"/>
</g>
<!-- IBalance -->
<g id="node27" class="node"><title>IBalance</title>
<polygon fill="none" stroke="black" points="864,-290 787,-290 787,-254 864,-254 864,-290"/>
<text text-anchor="middle" x="825.5" y="-268.3" font-family="Consolas" font-size="14.00">IBalance</text>
</g>
<!-- ITradeLine&#45;&gt;IBalance -->
<g id="edge30" class="edge"><title>ITradeLine&#45;&gt;IBalance</title>
<path fill="none" stroke="black" stroke-dasharray="1,5" d="M511.715,-344.959C571.074,-335.444 677.317,-316.831 776.95,-289.932"/>
<polygon fill="black" stroke="black" points="778.157,-293.23 786.88,-287.217 776.311,-286.478 778.157,-293.23"/>
<text text-anchor="middle" x="713" y="-310.6" font-family="Consolas" font-size="8.00">HAS&#45;A</text>
</g>
<!-- IMereo&#45;&gt;PecuniamIdentifier -->
<g id="edge21" class="edge"><title>IMereo&#45;&gt;PecuniamIdentifier</title>
<path fill="none" stroke="black" d="M142.274,-334.858C145.128,-324.609 148.816,-311.366 152.047,-299.765"/>
<polygon fill="black" stroke="black" points="155.425,-300.681 154.736,-290.108 148.681,-298.803 155.425,-300.681"/>
</g>
<!-- IVoca -->
<g id="node22" class="node"><title>IVoca</title>
<polygon fill="none" stroke="black" points="54.5,-290 0.5,-290 0.5,-254 54.5,-254 54.5,-290"/>
<text text-anchor="middle" x="27.5" y="-268.3" font-family="Consolas" font-size="14.00">IVoca</text>
</g>
<!-- IMereo&#45;&gt;IVoca -->
<g id="edge19" class="edge"><title>IMereo&#45;&gt;IVoca</title>
<path fill="none" stroke="black" d="M113.632,-334.858C97.7756,-323.471 76.7723,-308.386 59.4761,-295.965"/>
<polygon fill="black" stroke="black" points="61.4858,-293.099 51.3218,-290.108 57.4025,-298.785 61.4858,-293.099"/>
</g>
<!-- Mereo -->
<g id="node20" class="node"><title>Mereo</title>
<polygon fill="none" stroke="black" points="115.5,-452 61.5,-452 61.5,-416 115.5,-416 115.5,-452"/>
<text text-anchor="middle" x="88.5" y="-430.3" font-family="Consolas" font-size="14.00">Mereo</text>
</g>
<!-- Mereo&#45;&gt;IMereo -->
<g id="edge18" class="edge"><title>Mereo&#45;&gt;IMereo</title>
<path fill="none" stroke="black" d="M99.1323,-415.858C105.682,-405.299 114.203,-391.561 121.55,-379.715"/>
<polygon fill="black" stroke="black" points="124.592,-381.451 126.888,-371.108 118.643,-377.762 124.592,-381.451"/>
</g>
<!-- VocaBase -->
<g id="node21" class="node"><title>VocaBase</title>
<polygon fill="none" stroke="black" points="77,-371 0,-371 0,-335 77,-335 77,-371"/>
<text text-anchor="middle" x="38.5" y="-349.3" font-family="Consolas" font-size="14.00">VocaBase</text>
</g>
<!-- Mereo&#45;&gt;VocaBase -->
<g id="edge17" class="edge"><title>Mereo&#45;&gt;VocaBase</title>
<path fill="none" stroke="black" d="M77.6507,-415.858C70.9676,-405.299 62.2728,-391.561 54.7751,-379.715"/>
<polygon fill="black" stroke="black" points="57.6335,-377.686 49.3281,-371.108 51.7187,-381.43 57.6335,-377.686"/>
</g>
<!-- VocaBase&#45;&gt;IVoca -->
<g id="edge20" class="edge"><title>VocaBase&#45;&gt;IVoca</title>
<path fill="none" stroke="black" d="M36.1132,-334.858C34.7005,-324.713 32.8794,-311.634 31.2758,-300.117"/>
<polygon fill="black" stroke="black" points="34.7279,-299.53 29.8822,-290.108 27.7948,-300.496 34.7279,-299.53"/>
</g>
<!-- Balance -->
<g id="node28" class="node"><title>Balance</title>
<polygon fill="none" stroke="black" points="953,-371 884,-371 884,-335 953,-335 953,-371"/>
<text text-anchor="middle" x="918.5" y="-349.3" font-family="Consolas" font-size="14.00">Balance</text>
</g>
<!-- Balance&#45;&gt;IBalance -->
<g id="edge31" class="edge"><title>Balance&#45;&gt;IBalance</title>
<path fill="none" stroke="black" d="M898.32,-334.858C885.159,-323.678 867.802,-308.934 853.335,-296.645"/>
<polygon fill="black" stroke="black" points="855.528,-293.915 845.64,-290.108 850.996,-299.25 855.528,-293.915"/>
</g>
<!-- TransactionHistory -->
<g id="node29" class="node"><title>TransactionHistory</title>
<polygon fill="none" stroke="black" points="1034.5,-290 882.5,-290 882.5,-254 1034.5,-254 1034.5,-290"/>
<text text-anchor="middle" x="958.5" y="-268.3" font-family="Consolas" font-size="14.00">TransactionHistory</text>
</g>
<!-- Balance&#45;&gt;TransactionHistory -->
<g id="edge32" class="edge"><title>Balance&#45;&gt;TransactionHistory</title>
<path fill="none" stroke="black" d="M927.179,-334.858C932.473,-324.402 939.346,-310.83 945.303,-299.064"/>
<polygon fill="black" stroke="black" points="948.443,-300.611 949.838,-290.108 942.198,-297.449 948.443,-300.611"/>
</g>
<!-- VariableRateLoan -->
<g id="node30" class="node"><title>VariableRateLoan</title>
<polygon fill="none" stroke="black" points="353,-779 216,-779 216,-743 353,-743 353,-779"/>
<text text-anchor="middle" x="284.5" y="-757.3" font-family="Consolas" font-size="14.00">VariableRateLoan</text>
</g>
<!-- VariableRateLoan&#45;&gt;LoanBase -->
<g id="edge33" class="edge"><title>VariableRateLoan&#45;&gt;LoanBase</title>
<path fill="none" stroke="black" d="M318.992,-742.994C338.706,-733.273 363.626,-720.987 384.711,-710.59"/>
<polygon fill="black" stroke="black" points="386.37,-713.675 393.791,-706.114 383.274,-707.397 386.37,-713.675"/>
</g>
<!-- Security -->
<g id="node31" class="node"><title>Security</title>
<polygon fill="none" stroke="black" points="1104,-452 1027,-452 1027,-416 1104,-416 1104,-452"/>
<text text-anchor="middle" x="1065.5" y="-430.3" font-family="Consolas" font-size="14.00">Security</text>
</g>
<!-- Security&#45;&gt;IAsset -->
<g id="edge34" class="edge"><title>Security&#45;&gt;IAsset</title>
<path fill="none" stroke="black" d="M1026.88,-426.265C942.169,-411.492 740.697,-376.357 653.687,-361.183"/>
<polygon fill="black" stroke="black" points="654.111,-357.704 643.659,-359.434 652.909,-364.6 654.111,-357.704"/>
</g>
<!-- Pecuniam -->
<g id="node32" class="node"><title>Pecuniam</title>
<polygon fill="none" stroke="black" points="1104,-371 1027,-371 1027,-335 1104,-335 1104,-371"/>
<text text-anchor="middle" x="1065.5" y="-349.3" font-family="Consolas" font-size="14.00">Pecuniam</text>
</g>
<!-- Security&#45;&gt;Pecuniam -->
<g id="edge35" class="edge"><title>Security&#45;&gt;Pecuniam</title>
<path fill="none" stroke="black" d="M1065.5,-415.858C1065.5,-405.713 1065.5,-392.634 1065.5,-381.117"/>
<polygon fill="black" stroke="black" points="1069,-381.108 1065.5,-371.108 1062,-381.108 1069,-381.108"/>
</g>
<!-- Cusip -->
<g id="node33" class="node"><title>Cusip</title>
<polygon fill="none" stroke="black" points="1182.5,-371 1128.5,-371 1128.5,-335 1182.5,-335 1182.5,-371"/>
<text text-anchor="middle" x="1155.5" y="-349.3" font-family="Consolas" font-size="14.00">Cusip</text>
</g>
<!-- Security&#45;&gt;Cusip -->
<g id="edge36" class="edge"><title>Security&#45;&gt;Cusip</title>
<path fill="none" stroke="black" stroke-dasharray="1,5" d="M1085.03,-415.858C1097.65,-404.781 1114.25,-390.207 1128.17,-377.987"/>
<polygon fill="black" stroke="black" points="1130.8,-380.336 1136.01,-371.108 1126.19,-375.075 1130.8,-380.336"/>
<text text-anchor="middle" x="1118.5" y="-391.6" font-family="Consolas" font-size="8.00">Id</text>
</g>
<!-- Currency -->
<g id="node37" class="node"><title>Currency</title>
<polygon fill="none" stroke="black" points="1101,-236 1024,-236 1024,-200 1101,-200 1101,-236"/>
<text text-anchor="middle" x="1062.5" y="-214.3" font-family="Consolas" font-size="14.00">Currency</text>
</g>
<!-- Pecuniam&#45;&gt;Currency -->
<g id="edge40" class="edge"><title>Pecuniam&#45;&gt;Currency</title>
<path fill="none" stroke="black" stroke-dasharray="1,5" d="M1065.11,-334.885C1064.61,-312.44 1063.71,-272.799 1063.11,-246.215"/>
<polygon fill="black" stroke="black" points="1066.61,-245.968 1062.88,-236.049 1059.61,-246.126 1066.61,-245.968"/>
<text text-anchor="middle" x="1070.5" y="-310.6" font-family="Consolas" font-size="8.00">Id</text>
</g>
<!-- INumera -->
<g id="node38" class="node"><title>INumera</title>
<polygon fill="none" stroke="black" points="1160,-290 1091,-290 1091,-254 1160,-254 1160,-290"/>
<text text-anchor="middle" x="1125.5" y="-268.3" font-family="Consolas" font-size="14.00">INumera</text>
</g>
<!-- Pecuniam&#45;&gt;INumera -->
<g id="edge42" class="edge"><title>Pecuniam&#45;&gt;INumera</title>
<path fill="none" stroke="black" d="M1078.52,-334.858C1086.62,-324.195 1097.18,-310.291 1106.23,-298.367"/>
<polygon fill="black" stroke="black" points="1109.25,-300.189 1112.51,-290.108 1103.67,-295.955 1109.25,-300.189"/>
</g>
<!-- RIdentifierWithChkDigit -->
<g id="node34" class="node"><title>RIdentifierWithChkDigit</title>
<polygon fill="none" stroke="black" points="1367,-290 1178,-290 1178,-254 1367,-254 1367,-290"/>
<text text-anchor="middle" x="1272.5" y="-268.3" font-family="Consolas" font-size="14.00">RIdentifierWithChkDigit</text>
</g>
<!-- Cusip&#45;&gt;RIdentifierWithChkDigit -->
<g id="edge37" class="edge"><title>Cusip&#45;&gt;RIdentifierWithChkDigit</title>
<path fill="none" stroke="black" d="M1180.89,-334.858C1197.83,-323.419 1220.3,-308.249 1238.74,-295.795"/>
<polygon fill="black" stroke="black" points="1240.83,-298.605 1247.16,-290.108 1236.92,-292.804 1240.83,-298.605"/>
</g>
<!-- RIdentifier -->
<g id="node35" class="node"><title>RIdentifier</title>
<polygon fill="none" stroke="black" points="1223,-182 1124,-182 1124,-146 1223,-146 1223,-182"/>
<text text-anchor="middle" x="1173.5" y="-160.3" font-family="Consolas" font-size="14.00">RIdentifier</text>
</g>
<!-- RIdentifierWithChkDigit&#45;&gt;RIdentifier -->
<g id="edge38" class="edge"><title>RIdentifierWithChkDigit&#45;&gt;RIdentifier</title>
<path fill="none" stroke="black" d="M1256.59,-253.969C1240.38,-236.61 1215.06,-209.503 1196.63,-189.769"/>
<polygon fill="black" stroke="black" points="1199.08,-187.26 1189.7,-182.341 1193.96,-192.038 1199.08,-187.26"/>
</g>
<!-- Identifier -->
<g id="node36" class="node"><title>Identifier</title>
<polygon fill="none" stroke="black" points="1108.5,-109 1016.5,-109 1016.5,-73 1108.5,-73 1108.5,-109"/>
<text text-anchor="middle" x="1062.5" y="-87.3" font-family="Consolas" font-size="14.00">Identifier</text>
</g>
<!-- RIdentifier&#45;&gt;Identifier -->
<g id="edge39" class="edge"><title>RIdentifier&#45;&gt;Identifier</title>
<path fill="none" stroke="black" d="M1146.91,-145.994C1132.19,-136.579 1113.71,-124.755 1097.79,-114.575"/>
<polygon fill="black" stroke="black" points="1099.57,-111.554 1089.26,-109.114 1095.79,-117.45 1099.57,-111.554"/>
</g>
<!-- Identifier&#45;&gt;StringId -->
<g id="edge52" class="edge"><title>Identifier&#45;&gt;StringId</title>
<path fill="none" stroke="black" d="M1062.5,-72.8129C1062.5,-64.7895 1062.5,-55.0475 1062.5,-46.0691"/>
<polygon fill="black" stroke="black" points="1066,-46.0288 1062.5,-36.0288 1059,-46.0289 1066,-46.0288"/>
</g>
<!-- Currency&#45;&gt;Identifier -->
<g id="edge41" class="edge"><title>Currency&#45;&gt;Identifier</title>
<path fill="none" stroke="black" d="M1062.5,-199.881C1062.5,-179.146 1062.5,-143.953 1062.5,-119.422"/>
<polygon fill="black" stroke="black" points="1066,-119.313 1062.5,-109.313 1059,-119.313 1066,-119.313"/>
</g>
<!-- CreditScore -->
<g id="node39" class="node"><title>CreditScore</title>
<polygon fill="none" stroke="black" points="887,-182 788,-182 788,-146 887,-146 887,-182"/>
<text text-anchor="middle" x="837.5" y="-160.3" font-family="Consolas" font-size="14.00">CreditScore</text>
</g>
<!-- CreditScore&#45;&gt;Identifier -->
<g id="edge43" class="edge"><title>CreditScore&#45;&gt;Identifier</title>
<path fill="none" stroke="black" d="M887.156,-147.331C922.558,-136.16 970.184,-121.131 1006.87,-109.555"/>
<polygon fill="black" stroke="black" points="1007.94,-112.887 1016.42,-106.54 1005.83,-106.212 1007.94,-112.887"/>
</g>
<!-- PersonalCreditScore -->
<g id="node40" class="node"><title>PersonalCreditScore</title>
<polygon fill="none" stroke="black" points="769,-290 610,-290 610,-254 769,-254 769,-290"/>
<text text-anchor="middle" x="689.5" y="-268.3" font-family="Consolas" font-size="14.00">PersonalCreditScore</text>
</g>
<!-- PersonalCreditScore&#45;&gt;CreditScore -->
<g id="edge44" class="edge"><title>PersonalCreditScore&#45;&gt;CreditScore</title>
<path fill="none" stroke="black" d="M713.279,-253.969C738.16,-236.149 777.383,-208.057 805.089,-188.214"/>
<polygon fill="black" stroke="black" points="807.197,-191.009 813.289,-182.341 803.121,-185.318 807.197,-191.009"/>
</g>
<!-- CreditCardNumber -->
<g id="node41" class="node"><title>CreditCardNumber</title>
<polygon fill="none" stroke="black" points="1341,-371 1204,-371 1204,-335 1341,-335 1341,-371"/>
<text text-anchor="middle" x="1272.5" y="-349.3" font-family="Consolas" font-size="14.00">CreditCardNumber</text>
</g>
<!-- CreditCardNumber&#45;&gt;RIdentifierWithChkDigit -->
<g id="edge45" class="edge"><title>CreditCardNumber&#45;&gt;RIdentifierWithChkDigit</title>
<path fill="none" stroke="black" d="M1272.5,-334.858C1272.5,-324.713 1272.5,-311.634 1272.5,-300.117"/>
<polygon fill="black" stroke="black" points="1276,-300.108 1272.5,-290.108 1269,-300.108 1276,-300.108"/>
</g>
<!-- VisaCc -->
<g id="node42" class="node"><title>VisaCc</title>
<polygon fill="none" stroke="black" points="1148.5,-633 1086.5,-633 1086.5,-597 1148.5,-597 1148.5,-633"/>
<text text-anchor="middle" x="1117.5" y="-611.3" font-family="Consolas" font-size="14.00">VisaCc</text>
</g>
<!-- CreditCard -->
<g id="node43" class="node"><title>CreditCard</title>
<polygon fill="none" stroke="black" points="1318.5,-525 1226.5,-525 1226.5,-489 1318.5,-489 1318.5,-525"/>
<text text-anchor="middle" x="1272.5" y="-503.3" font-family="Consolas" font-size="14.00">CreditCard</text>
</g>
<!-- VisaCc&#45;&gt;CreditCard -->
<g id="edge46" class="edge"><title>VisaCc&#45;&gt;CreditCard</title>
<path fill="none" stroke="black" d="M1142.4,-596.969C1168.54,-579.096 1209.78,-550.889 1238.81,-531.037"/>
<polygon fill="black" stroke="black" points="1241.12,-533.698 1247.4,-525.164 1237.17,-527.92 1241.12,-533.698"/>
</g>
<!-- ICreditCard -->
<g id="node47" class="node"><title>ICreditCard</title>
<polygon fill="none" stroke="black" points="1322,-452 1223,-452 1223,-416 1322,-416 1322,-452"/>
<text text-anchor="middle" x="1272.5" y="-430.3" font-family="Consolas" font-size="14.00">ICreditCard</text>
</g>
<!-- CreditCard&#45;&gt;ICreditCard -->
<g id="edge50" class="edge"><title>CreditCard&#45;&gt;ICreditCard</title>
<path fill="none" stroke="black" d="M1272.5,-488.813C1272.5,-480.789 1272.5,-471.047 1272.5,-462.069"/>
<polygon fill="black" stroke="black" points="1276,-462.029 1272.5,-452.029 1269,-462.029 1276,-462.029"/>
</g>
<!-- MasterCardCc -->
<g id="node44" class="node"><title>MasterCardCc</title>
<polygon fill="none" stroke="black" points="1274,-633 1167,-633 1167,-597 1274,-597 1274,-633"/>
<text text-anchor="middle" x="1220.5" y="-611.3" font-family="Consolas" font-size="14.00">MasterCardCc</text>
</g>
<!-- MasterCardCc&#45;&gt;CreditCard -->
<g id="edge47" class="edge"><title>MasterCardCc&#45;&gt;CreditCard</title>
<path fill="none" stroke="black" d="M1228.85,-596.969C1237.14,-580.071 1249.97,-553.935 1259.57,-534.356"/>
<polygon fill="black" stroke="black" points="1262.73,-535.86 1263.99,-525.341 1256.45,-532.777 1262.73,-535.86"/>
</g>
<!-- AmexCc -->
<g id="node45" class="node"><title>AmexCc</title>
<polygon fill="none" stroke="black" points="1354.5,-633 1292.5,-633 1292.5,-597 1354.5,-597 1354.5,-633"/>
<text text-anchor="middle" x="1323.5" y="-611.3" font-family="Consolas" font-size="14.00">AmexCc</text>
</g>
<!-- AmexCc&#45;&gt;CreditCard -->
<g id="edge48" class="edge"><title>AmexCc&#45;&gt;CreditCard</title>
<path fill="none" stroke="black" d="M1315.31,-596.969C1307.18,-580.071 1294.6,-553.935 1285.18,-534.356"/>
<polygon fill="black" stroke="black" points="1288.33,-532.834 1280.84,-525.341 1282.02,-535.869 1288.33,-532.834"/>
</g>
<!-- DiscoverCc -->
<g id="node46" class="node"><title>DiscoverCc</title>
<polygon fill="none" stroke="black" points="1464.5,-633 1372.5,-633 1372.5,-597 1464.5,-597 1464.5,-633"/>
<text text-anchor="middle" x="1418.5" y="-611.3" font-family="Consolas" font-size="14.00">DiscoverCc</text>
</g>
<!-- DiscoverCc&#45;&gt;CreditCard -->
<g id="edge49" class="edge"><title>DiscoverCc&#45;&gt;CreditCard</title>
<path fill="none" stroke="black" d="M1395.04,-596.969C1370.6,-579.226 1332.14,-551.299 1304.83,-531.471"/>
<polygon fill="black" stroke="black" points="1306.53,-528.384 1296.38,-525.341 1302.42,-534.048 1306.53,-528.384"/>
</g>
<!-- ICreditCard&#45;&gt;CreditCardNumber -->
<g id="edge51" class="edge"><title>ICreditCard&#45;&gt;CreditCardNumber</title>
<path fill="none" stroke="black" stroke-dasharray="1,5" d="M1272.5,-415.858C1272.5,-405.713 1272.5,-392.634 1272.5,-381.117"/>
<polygon fill="black" stroke="black" points="1276,-381.108 1272.5,-371.108 1269,-381.108 1276,-381.108"/>
<text text-anchor="middle" x="1284" y="-391.6" font-family="Consolas" font-size="8.00">HAS&#45;A</text>
</g>
</g>
</svg>
