<?xml version="1.0" encoding="UTF-8" standalone="no"?>
<!DOCTYPE svg PUBLIC "-//W3C//DTD SVG 1.1//EN"
 "http://www.w3.org/Graphics/SVG/1.1/DTD/svg11.dtd">
<!-- Generated by graphviz version 2.38.0 (20140413.2041)
 -->
<!-- Title: noFutureRandDataSp Pages: 1 -->
<svg width="807pt" height="744pt"
 viewBox="0.00 0.00 806.50 744.00" xmlns="http://www.w3.org/2000/svg" xmlns:xlink="http://www.w3.org/1999/xlink">
<g id="graph0" class="graph" transform="scale(1 1) rotate(0) translate(4 740)">
<title>noFutureRandDataSp</title>
<polygon fill="white" stroke="none" points="-4,4 -4,-740 802.5,-740 802.5,4 -4,4"/>
<!-- IIdentifier -->
<g id="node1" class="node"><title>IIdentifier</title>
<polygon fill="none" stroke="black" points="282.5,-109 108.5,-109 108.5,-73 282.5,-73 282.5,-109"/>
<text text-anchor="middle" x="195.5" y="-87.3" font-family="Consolas" font-size="14.00">IIdentifier&lt;Pecuniam&gt;</text>
</g>
<!-- ICited -->
<g id="node22" class="node"><title>ICited</title>
<polygon fill="none" stroke="black" points="226.5,-36 164.5,-36 164.5,-0 226.5,-0 226.5,-36"/>
<text text-anchor="middle" x="195.5" y="-14.3" font-family="Consolas" font-size="14.00">ICited</text>
</g>
<!-- IIdentifier&#45;&gt;ICited -->
<g id="edge22" class="edge"><title>IIdentifier&#45;&gt;ICited</title>
<path fill="none" stroke="black" d="M195.5,-72.8129C195.5,-64.7895 195.5,-55.0475 195.5,-46.0691"/>
<polygon fill="black" stroke="black" points="199,-46.0288 195.5,-36.0288 192,-46.0289 199,-46.0288"/>
</g>
<!-- Mortgage -->
<g id="node2" class="node"><title>Mortgage</title>
<polygon fill="none" stroke="black" points="251,-736 174,-736 174,-700 251,-700 251,-736"/>
<text text-anchor="middle" x="212.5" y="-714.3" font-family="Consolas" font-size="14.00">Mortgage</text>
</g>
<!-- SecuredFixedRateLoan -->
<g id="node3" class="node"><title>SecuredFixedRateLoan</title>
<polygon fill="none" stroke="black" points="296,-663 129,-663 129,-627 296,-627 296,-663"/>
<text text-anchor="middle" x="212.5" y="-641.3" font-family="Consolas" font-size="14.00">SecuredFixedRateLoan</text>
</g>
<!-- Mortgage&#45;&gt;SecuredFixedRateLoan -->
<g id="edge1" class="edge"><title>Mortgage&#45;&gt;SecuredFixedRateLoan</title>
<path fill="none" stroke="black" d="M212.5,-699.813C212.5,-691.789 212.5,-682.047 212.5,-673.069"/>
<polygon fill="black" stroke="black" points="216,-673.029 212.5,-663.029 209,-673.029 216,-673.029"/>
</g>
<!-- FixedRateLoan -->
<g id="node4" class="node"><title>FixedRateLoan</title>
<polygon fill="none" stroke="black" points="269.5,-590 155.5,-590 155.5,-554 269.5,-554 269.5,-590"/>
<text text-anchor="middle" x="212.5" y="-568.3" font-family="Consolas" font-size="14.00">FixedRateLoan</text>
</g>
<!-- SecuredFixedRateLoan&#45;&gt;FixedRateLoan -->
<g id="edge2" class="edge"><title>SecuredFixedRateLoan&#45;&gt;FixedRateLoan</title>
<path fill="none" stroke="black" d="M212.5,-626.813C212.5,-618.789 212.5,-609.047 212.5,-600.069"/>
<polygon fill="black" stroke="black" points="216,-600.029 212.5,-590.029 209,-600.029 216,-600.029"/>
</g>
<!-- LoanBase -->
<g id="node7" class="node"><title>LoanBase</title>
<polygon fill="none" stroke="black" points="251,-517 174,-517 174,-481 251,-481 251,-517"/>
<text text-anchor="middle" x="212.5" y="-495.3" font-family="Consolas" font-size="14.00">LoanBase</text>
</g>
<!-- FixedRateLoan&#45;&gt;LoanBase -->
<g id="edge5" class="edge"><title>FixedRateLoan&#45;&gt;LoanBase</title>
<path fill="none" stroke="black" d="M212.5,-553.813C212.5,-545.789 212.5,-536.047 212.5,-527.069"/>
<polygon fill="black" stroke="black" points="216,-527.029 212.5,-517.029 209,-527.029 216,-527.029"/>
</g>
<!-- CreditCardAccount -->
<g id="node5" class="node"><title>CreditCardAccount</title>
<polygon fill="none" stroke="black" points="557.5,-663 413.5,-663 413.5,-627 557.5,-627 557.5,-663"/>
<text text-anchor="middle" x="485.5" y="-641.3" font-family="Consolas" font-size="14.00">CreditCardAccount</text>
</g>
<!-- CreditCardAccount&#45;&gt;FixedRateLoan -->
<g id="edge3" class="edge"><title>CreditCardAccount&#45;&gt;FixedRateLoan</title>
<path fill="none" stroke="black" d="M420.11,-626.994C377.67,-615.956 322.506,-601.61 279.71,-590.479"/>
<polygon fill="black" stroke="black" points="280.505,-587.07 269.946,-587.94 278.743,-593.844 280.505,-587.07"/>
</g>
<!-- IAccount -->
<g id="node6" class="node"><title>IAccount</title>
<polygon fill="none" stroke="black" points="527,-390 450,-390 450,-354 527,-354 527,-390"/>
<text text-anchor="middle" x="488.5" y="-368.3" font-family="Consolas" font-size="14.00">IAccount</text>
</g>
<!-- CreditCardAccount&#45;&gt;IAccount -->
<g id="edge4" class="edge"><title>CreditCardAccount&#45;&gt;IAccount</title>
<path fill="none" stroke="black" d="M539.89,-626.947C563.344,-615.891 585.5,-598.657 585.5,-573 585.5,-573 585.5,-573 585.5,-462 585.5,-432.383 560.645,-409.946 536.099,-395.008"/>
<polygon fill="black" stroke="black" points="537.53,-391.793 527.116,-389.844 534.041,-397.862 537.53,-391.793"/>
</g>
<!-- IAsset -->
<g id="node17" class="node"><title>IAsset</title>
<polygon fill="none" stroke="black" points="495.5,-182 433.5,-182 433.5,-146 495.5,-146 495.5,-182"/>
<text text-anchor="middle" x="464.5" y="-160.3" font-family="Consolas" font-size="14.00">IAsset</text>
</g>
<!-- IAccount&#45;&gt;IAsset -->
<g id="edge27" class="edge"><title>IAccount&#45;&gt;IAsset</title>
<path fill="none" stroke="black" d="M486.495,-353.791C482.32,-317.955 472.665,-235.087 467.651,-192.047"/>
<polygon fill="black" stroke="black" points="471.116,-191.543 466.482,-182.015 464.163,-192.353 471.116,-191.543"/>
</g>
<!-- ITempore -->
<g id="node24" class="node"><title>ITempore</title>
<polygon fill="none" stroke="black" points="533,-109 456,-109 456,-73 533,-73 533,-109"/>
<text text-anchor="middle" x="494.5" y="-87.3" font-family="Consolas" font-size="14.00">ITempore</text>
</g>
<!-- IAccount&#45;&gt;ITempore -->
<g id="edge28" class="edge"><title>IAccount&#45;&gt;ITempore</title>
<path fill="none" stroke="black" d="M499.767,-353.72C509.998,-336.338 523.5,-308.399 523.5,-282 523.5,-282 523.5,-282 523.5,-163 523.5,-147.25 517.308,-130.896 510.647,-117.859"/>
<polygon fill="black" stroke="black" points="513.671,-116.095 505.795,-109.009 507.533,-119.46 513.671,-116.095"/>
</g>
<!-- Pondus -->
<g id="node8" class="node"><title>Pondus</title>
<polygon fill="none" stroke="black" points="335.5,-444 273.5,-444 273.5,-408 335.5,-408 335.5,-444"/>
<text text-anchor="middle" x="304.5" y="-422.3" font-family="Consolas" font-size="14.00">Pondus</text>
</g>
<!-- LoanBase&#45;&gt;Pondus -->
<g id="edge6" class="edge"><title>LoanBase&#45;&gt;Pondus</title>
<path fill="none" stroke="black" d="M234.771,-480.813C246.636,-471.656 261.403,-460.26 274.288,-450.316"/>
<polygon fill="black" stroke="black" points="276.656,-452.909 282.434,-444.029 272.379,-447.368 276.656,-452.909"/>
</g>
<!-- ILoan -->
<g id="node23" class="node"><title>ILoan</title>
<polygon fill="none" stroke="black" points="239.5,-444 185.5,-444 185.5,-408 239.5,-408 239.5,-444"/>
<text text-anchor="middle" x="212.5" y="-422.3" font-family="Consolas" font-size="14.00">ILoan</text>
</g>
<!-- LoanBase&#45;&gt;ILoan -->
<g id="edge23" class="edge"><title>LoanBase&#45;&gt;ILoan</title>
<path fill="none" stroke="black" d="M212.5,-480.813C212.5,-472.789 212.5,-463.047 212.5,-454.069"/>
<polygon fill="black" stroke="black" points="216,-454.029 212.5,-444.029 209,-454.029 216,-454.029"/>
</g>
<!-- Receivable -->
<g id="node13" class="node"><title>Receivable</title>
<polygon fill="none" stroke="black" points="350.5,-336 258.5,-336 258.5,-300 350.5,-300 350.5,-336"/>
<text text-anchor="middle" x="304.5" y="-314.3" font-family="Consolas" font-size="14.00">Receivable</text>
</g>
<!-- Pondus&#45;&gt;Receivable -->
<g id="edge29" class="edge"><title>Pondus&#45;&gt;Receivable</title>
<path fill="none" stroke="black" d="M304.5,-407.969C304.5,-391.378 304.5,-365.883 304.5,-346.431"/>
<polygon fill="black" stroke="black" points="308,-346.341 304.5,-336.341 301,-346.341 308,-346.341"/>
</g>
<!-- Rent -->
<g id="node9" class="node"><title>Rent</title>
<polygon fill="none" stroke="black" points="331.5,-517 277.5,-517 277.5,-481 331.5,-481 331.5,-517"/>
<text text-anchor="middle" x="304.5" y="-495.3" font-family="Consolas" font-size="14.00">Rent</text>
</g>
<!-- Rent&#45;&gt;Pondus -->
<g id="edge7" class="edge"><title>Rent&#45;&gt;Pondus</title>
<path fill="none" stroke="black" d="M304.5,-480.813C304.5,-472.789 304.5,-463.047 304.5,-454.069"/>
<polygon fill="black" stroke="black" points="308,-454.029 304.5,-444.029 301,-454.029 308,-454.029"/>
</g>
<!-- CheckingAccount -->
<g id="node10" class="node"><title>CheckingAccount</title>
<polygon fill="none" stroke="black" points="557,-590 428,-590 428,-554 557,-554 557,-590"/>
<text text-anchor="middle" x="492.5" y="-568.3" font-family="Consolas" font-size="14.00">CheckingAccount</text>
</g>
<!-- DepositAccount -->
<g id="node11" class="node"><title>DepositAccount</title>
<polygon fill="none" stroke="black" points="512.5,-517 390.5,-517 390.5,-481 512.5,-481 512.5,-517"/>
<text text-anchor="middle" x="451.5" y="-495.3" font-family="Consolas" font-size="14.00">DepositAccount</text>
</g>
<!-- CheckingAccount&#45;&gt;DepositAccount -->
<g id="edge8" class="edge"><title>CheckingAccount&#45;&gt;DepositAccount</title>
<path fill="none" stroke="black" d="M482.575,-553.813C477.74,-545.441 471.825,-535.197 466.458,-525.903"/>
<polygon fill="black" stroke="black" points="469.365,-523.938 461.334,-517.029 463.303,-527.439 469.365,-523.938"/>
</g>
<!-- DepositAccount&#45;&gt;IAccount -->
<g id="edge11" class="edge"><title>DepositAccount&#45;&gt;IAccount</title>
<path fill="none" stroke="black" d="M456.567,-480.881C462.732,-460.053 473.216,-424.637 480.481,-400.092"/>
<polygon fill="black" stroke="black" points="483.893,-400.895 483.375,-390.313 477.181,-398.908 483.893,-400.895"/>
</g>
<!-- DepositAccount&#45;&gt;Pondus -->
<g id="edge10" class="edge"><title>DepositAccount&#45;&gt;Pondus</title>
<path fill="none" stroke="black" d="M416.29,-480.994C394.885,-470.655 367.47,-457.414 345.146,-446.632"/>
<polygon fill="black" stroke="black" points="346.449,-443.374 335.922,-442.177 343.405,-449.678 346.449,-443.374"/>
</g>
<!-- SavingsAccount -->
<g id="node12" class="node"><title>SavingsAccount</title>
<polygon fill="none" stroke="black" points="409.5,-590 287.5,-590 287.5,-554 409.5,-554 409.5,-590"/>
<text text-anchor="middle" x="348.5" y="-568.3" font-family="Consolas" font-size="14.00">SavingsAccount</text>
</g>
<!-- SavingsAccount&#45;&gt;DepositAccount -->
<g id="edge9" class="edge"><title>SavingsAccount&#45;&gt;DepositAccount</title>
<path fill="none" stroke="black" d="M373.171,-553.994C386.703,-544.666 403.664,-532.974 418.34,-522.858"/>
<polygon fill="black" stroke="black" points="420.426,-525.671 426.673,-517.114 416.453,-519.907 420.426,-525.671"/>
</g>
<!-- IReceivable -->
<g id="node14" class="node"><title>IReceivable</title>
<polygon fill="none" stroke="black" points="422,-263 323,-263 323,-227 422,-227 422,-263"/>
<text text-anchor="middle" x="372.5" y="-241.3" font-family="Consolas" font-size="14.00">IReceivable</text>
</g>
<!-- Receivable&#45;&gt;IReceivable -->
<g id="edge12" class="edge"><title>Receivable&#45;&gt;IReceivable</title>
<path fill="none" stroke="black" d="M320.961,-299.813C329.397,-291.005 339.817,-280.125 349.075,-270.458"/>
<polygon fill="black" stroke="black" points="351.802,-272.672 356.191,-263.029 346.746,-267.83 351.802,-272.672"/>
</g>
<!-- TradeLine -->
<g id="node15" class="node"><title>TradeLine</title>
<polygon fill="none" stroke="black" points="304.5,-263 220.5,-263 220.5,-227 304.5,-227 304.5,-263"/>
<text text-anchor="middle" x="262.5" y="-241.3" font-family="Consolas" font-size="14.00">TradeLine</text>
</g>
<!-- Receivable&#45;&gt;TradeLine -->
<g id="edge13" class="edge"><title>Receivable&#45;&gt;TradeLine</title>
<path fill="none" stroke="black" d="M294.333,-299.813C289.38,-291.441 283.321,-281.197 277.823,-271.903"/>
<polygon fill="black" stroke="black" points="280.677,-269.854 272.573,-263.029 274.652,-273.418 280.677,-269.854"/>
</g>
<!-- ITradeLine -->
<g id="node16" class="node"><title>ITradeLine</title>
<polygon fill="none" stroke="black" points="415.5,-182 323.5,-182 323.5,-146 415.5,-146 415.5,-182"/>
<text text-anchor="middle" x="369.5" y="-160.3" font-family="Consolas" font-size="14.00">ITradeLine</text>
</g>
<!-- IReceivable&#45;&gt;ITradeLine -->
<g id="edge14" class="edge"><title>IReceivable&#45;&gt;ITradeLine</title>
<path fill="none" stroke="black" d="M371.849,-226.858C371.464,-216.713 370.967,-203.634 370.53,-192.117"/>
<polygon fill="black" stroke="black" points="374.027,-191.968 370.15,-182.108 367.032,-192.234 374.027,-191.968"/>
</g>
<!-- IReceivable&#45;&gt;IAsset -->
<g id="edge15" class="edge"><title>IReceivable&#45;&gt;IAsset</title>
<path fill="none" stroke="black" d="M392.463,-226.858C405.483,-215.678 422.653,-200.934 436.964,-188.645"/>
<polygon fill="black" stroke="black" points="439.27,-191.278 444.576,-182.108 434.709,-185.968 439.27,-191.278"/>
</g>
<!-- IMereo -->
<g id="node18" class="node"><title>IMereo</title>
<polygon fill="none" stroke="black" points="211.5,-182 149.5,-182 149.5,-146 211.5,-146 211.5,-182"/>
<text text-anchor="middle" x="180.5" y="-160.3" font-family="Consolas" font-size="14.00">IMereo</text>
</g>
<!-- IReceivable&#45;&gt;IMereo -->
<g id="edge16" class="edge"><title>IReceivable&#45;&gt;IMereo</title>
<path fill="none" stroke="black" stroke-dasharray="1,5" d="M330.839,-226.858C298.355,-213.492 253.494,-195.034 221.246,-181.765"/>
<polygon fill="black" stroke="black" points="222.25,-178.394 211.67,-177.825 219.586,-184.867 222.25,-178.394"/>
<text text-anchor="middle" x="307.5" y="-202.6" font-family="Consolas" font-size="8.00">Expectation</text>
</g>
<!-- TradeLine&#45;&gt;ITradeLine -->
<g id="edge24" class="edge"><title>TradeLine&#45;&gt;ITradeLine</title>
<path fill="none" stroke="black" d="M266.542,-226.703C269.41,-217.737 274.099,-207.189 281.5,-200 290.527,-191.232 302.022,-184.578 313.703,-179.558"/>
<polygon fill="black" stroke="black" points="315.044,-182.792 323.067,-175.873 312.48,-176.278 315.044,-182.792"/>
</g>
<!-- ITradeLine&#45;&gt;ITempore -->
<g id="edge25" class="edge"><title>ITradeLine&#45;&gt;ITempore</title>
<path fill="none" stroke="black" d="M399.441,-145.994C416.17,-136.491 437.218,-124.536 455.253,-114.292"/>
<polygon fill="black" stroke="black" points="457.404,-117.096 464.37,-109.114 453.947,-111.009 457.404,-117.096"/>
</g>
<!-- ITransactionable -->
<g id="node25" class="node"><title>ITransactionable</title>
<polygon fill="none" stroke="black" points="438,-109 301,-109 301,-73 438,-73 438,-109"/>
<text text-anchor="middle" x="369.5" y="-87.3" font-family="Consolas" font-size="14.00">ITransactionable</text>
</g>
<!-- ITradeLine&#45;&gt;ITransactionable -->
<g id="edge26" class="edge"><title>ITradeLine&#45;&gt;ITransactionable</title>
<path fill="none" stroke="black" d="M369.5,-145.813C369.5,-137.789 369.5,-128.047 369.5,-119.069"/>
<polygon fill="black" stroke="black" points="373,-119.029 369.5,-109.029 366,-119.029 373,-119.029"/>
</g>
<!-- IBalance -->
<g id="node26" class="node"><title>IBalance</title>
<polygon fill="none" stroke="black" points="628,-109 551,-109 551,-73 628,-73 628,-109"/>
<text text-anchor="middle" x="589.5" y="-87.3" font-family="Consolas" font-size="14.00">IBalance</text>
</g>
<!-- ITradeLine&#45;&gt;IBalance -->
<g id="edge30" class="edge"><title>ITradeLine&#45;&gt;IBalance</title>
<path fill="none" stroke="black" stroke-dasharray="1,5" d="M415.509,-148.761C454.04,-136.803 506.947,-120.296 540.883,-109.134"/>
<polygon fill="black" stroke="black" points="542.381,-112.325 550.769,-105.853 540.175,-105.681 542.381,-112.325"/>
</g>
<!-- IMereo&#45;&gt;IIdentifier -->
<g id="edge21" class="edge"><title>IMereo&#45;&gt;IIdentifier</title>
<path fill="none" stroke="black" d="M184.131,-145.813C185.826,-137.789 187.884,-128.047 189.781,-119.069"/>
<polygon fill="black" stroke="black" points="193.26,-119.536 191.902,-109.029 186.411,-118.089 193.26,-119.536"/>
</g>
<!-- IVoca -->
<g id="node21" class="node"><title>IVoca</title>
<polygon fill="none" stroke="black" points="90.5,-109 36.5,-109 36.5,-73 90.5,-73 90.5,-109"/>
<text text-anchor="middle" x="63.5" y="-87.3" font-family="Consolas" font-size="14.00">IVoca</text>
</g>
<!-- IMereo&#45;&gt;IVoca -->
<g id="edge19" class="edge"><title>IMereo&#45;&gt;IVoca</title>
<path fill="none" stroke="black" d="M152.476,-145.994C136.586,-136.352 116.536,-124.184 99.4925,-113.842"/>
<polygon fill="black" stroke="black" points="101.257,-110.818 90.8921,-108.623 97.6253,-116.803 101.257,-110.818"/>
</g>
<!-- Mereo -->
<g id="node19" class="node"><title>Mereo</title>
<polygon fill="none" stroke="black" points="192.5,-263 138.5,-263 138.5,-227 192.5,-227 192.5,-263"/>
<text text-anchor="middle" x="165.5" y="-241.3" font-family="Consolas" font-size="14.00">Mereo</text>
</g>
<!-- Mereo&#45;&gt;IMereo -->
<g id="edge18" class="edge"><title>Mereo&#45;&gt;IMereo</title>
<path fill="none" stroke="black" d="M168.755,-226.858C170.681,-216.713 173.165,-203.634 175.351,-192.117"/>
<polygon fill="black" stroke="black" points="178.825,-192.586 177.252,-182.108 171.948,-191.28 178.825,-192.586"/>
</g>
<!-- VocaBase -->
<g id="node20" class="node"><title>VocaBase</title>
<polygon fill="none" stroke="black" points="123,-182 46,-182 46,-146 123,-146 123,-182"/>
<text text-anchor="middle" x="84.5" y="-160.3" font-family="Consolas" font-size="14.00">VocaBase</text>
</g>
<!-- Mereo&#45;&gt;VocaBase -->
<g id="edge17" class="edge"><title>Mereo&#45;&gt;VocaBase</title>
<path fill="none" stroke="black" d="M147.924,-226.858C136.673,-215.885 121.902,-201.479 109.446,-189.33"/>
<polygon fill="black" stroke="black" points="111.644,-186.585 102.041,-182.108 106.757,-191.596 111.644,-186.585"/>
</g>
<!-- VocaBase&#45;&gt;IVoca -->
<g id="edge20" class="edge"><title>VocaBase&#45;&gt;IVoca</title>
<path fill="none" stroke="black" d="M79.4165,-145.813C77.0176,-137.702 74.0992,-127.836 71.4199,-118.777"/>
<polygon fill="black" stroke="black" points="74.7293,-117.625 68.5367,-109.029 68.0168,-119.611 74.7293,-117.625"/>
</g>
<!-- Balance -->
<g id="node27" class="node"><title>Balance</title>
<polygon fill="none" stroke="black" points="717,-182 648,-182 648,-146 717,-146 717,-182"/>
<text text-anchor="middle" x="682.5" y="-160.3" font-family="Consolas" font-size="14.00">Balance</text>
</g>
<!-- Balance&#45;&gt;IBalance -->
<g id="edge31" class="edge"><title>Balance&#45;&gt;IBalance</title>
<path fill="none" stroke="black" d="M659.987,-145.813C647.993,-136.656 633.066,-125.26 620.04,-115.316"/>
<polygon fill="black" stroke="black" points="621.878,-112.315 611.805,-109.029 617.63,-117.879 621.878,-112.315"/>
</g>
<!-- TransactionHistory -->
<g id="node28" class="node"><title>TransactionHistory</title>
<polygon fill="none" stroke="black" points="798.5,-109 646.5,-109 646.5,-73 798.5,-73 798.5,-109"/>
<text text-anchor="middle" x="722.5" y="-87.3" font-family="Consolas" font-size="14.00">TransactionHistory</text>
</g>
<!-- Balance&#45;&gt;TransactionHistory -->
<g id="edge32" class="edge"><title>Balance&#45;&gt;TransactionHistory</title>
<path fill="none" stroke="black" d="M692.183,-145.813C696.9,-137.441 702.671,-127.197 707.907,-117.903"/>
<polygon fill="black" stroke="black" points="711.047,-119.459 712.906,-109.029 704.948,-116.023 711.047,-119.459"/>
</g>
<!-- VariableRateLoan -->
<g id="node29" class="node"><title>VariableRateLoan</title>
<polygon fill="none" stroke="black" points="137,-590 0,-590 0,-554 137,-554 137,-590"/>
<text text-anchor="middle" x="68.5" y="-568.3" font-family="Consolas" font-size="14.00">VariableRateLoan</text>
</g>
<!-- VariableRateLoan&#45;&gt;LoanBase -->
<g id="edge33" class="edge"><title>VariableRateLoan&#45;&gt;LoanBase</title>
<path fill="none" stroke="black" d="M102.992,-553.994C122.706,-544.273 147.626,-531.987 168.711,-521.59"/>
<polygon fill="black" stroke="black" points="170.37,-524.675 177.791,-517.114 167.274,-518.397 170.37,-524.675"/>
</g>
</g>
</svg>
