<?xml version="1.0" encoding="UTF-8" standalone="no"?>
<!DOCTYPE svg PUBLIC "-//W3C//DTD SVG 1.1//EN"
 "http://www.w3.org/Graphics/SVG/1.1/DTD/svg11.dtd">
<!-- Generated by graphviz version 2.38.0 (20140413.2041)
 -->
<!-- Title: noFutureRandDataSp Pages: 1 -->
<svg width="1224pt" height="898pt"
 viewBox="0.00 0.00 1223.50 898.00" xmlns="http://www.w3.org/2000/svg" xmlns:xlink="http://www.w3.org/1999/xlink">
<g id="graph0" class="graph" transform="scale(1 1) rotate(0) translate(4 894)">
<title>noFutureRandDataSp</title>
<polygon fill="white" stroke="none" points="-4,4 -4,-894 1219.5,-894 1219.5,4 -4,4"/>
<!-- StringId -->
<g id="node1" class="node"><title>StringId</title>
<polygon fill="none" stroke="black" points="1002,-36 880,-36 880,-0 1002,-0 1002,-36"/>
<text text-anchor="middle" x="941" y="-14.3" font-family="Consolas" font-size="14.00">IIdentifier&lt;T&gt;</text>
</g>
<!-- Mortgage -->
<g id="node2" class="node"><title>Mortgage</title>
<polygon fill="none" stroke="black" points="458.5,-890 381.5,-890 381.5,-854 458.5,-854 458.5,-890"/>
<text text-anchor="middle" x="420" y="-868.3" font-family="Consolas" font-size="14.00">Mortgage</text>
</g>
<!-- SecuredFixedRateLoan -->
<g id="node3" class="node"><title>SecuredFixedRateLoan</title>
<polygon fill="none" stroke="black" points="503.5,-817 336.5,-817 336.5,-781 503.5,-781 503.5,-817"/>
<text text-anchor="middle" x="420" y="-795.3" font-family="Consolas" font-size="14.00">SecuredFixedRateLoan</text>
</g>
<!-- Mortgage&#45;&gt;SecuredFixedRateLoan -->
<g id="edge1" class="edge"><title>Mortgage&#45;&gt;SecuredFixedRateLoan</title>
<path fill="none" stroke="black" d="M420,-853.813C420,-845.789 420,-836.047 420,-827.069"/>
<polygon fill="black" stroke="black" points="423.5,-827.029 420,-817.029 416.5,-827.029 423.5,-827.029"/>
</g>
<!-- FixedRateLoan -->
<g id="node4" class="node"><title>FixedRateLoan</title>
<polygon fill="none" stroke="black" points="388,-744 274,-744 274,-708 388,-708 388,-744"/>
<text text-anchor="middle" x="331" y="-722.3" font-family="Consolas" font-size="14.00">FixedRateLoan</text>
</g>
<!-- SecuredFixedRateLoan&#45;&gt;FixedRateLoan -->
<g id="edge2" class="edge"><title>SecuredFixedRateLoan&#45;&gt;FixedRateLoan</title>
<path fill="none" stroke="black" d="M398.456,-780.813C386.977,-771.656 372.692,-760.26 360.227,-750.316"/>
<polygon fill="black" stroke="black" points="362.346,-747.529 352.346,-744.029 357.981,-753.001 362.346,-747.529"/>
</g>
<!-- LoanBase -->
<g id="node7" class="node"><title>LoanBase</title>
<polygon fill="none" stroke="black" points="421.5,-671 344.5,-671 344.5,-635 421.5,-635 421.5,-671"/>
<text text-anchor="middle" x="383" y="-649.3" font-family="Consolas" font-size="14.00">LoanBase</text>
</g>
<!-- FixedRateLoan&#45;&gt;LoanBase -->
<g id="edge5" class="edge"><title>FixedRateLoan&#45;&gt;LoanBase</title>
<path fill="none" stroke="black" d="M343.588,-707.813C349.847,-699.266 357.535,-688.769 364.454,-679.323"/>
<polygon fill="black" stroke="black" points="367.443,-681.165 370.528,-671.029 361.796,-677.028 367.443,-681.165"/>
</g>
<!-- CreditCardAccount -->
<g id="node5" class="node"><title>CreditCardAccount</title>
<polygon fill="none" stroke="black" points="318,-817 174,-817 174,-781 318,-781 318,-817"/>
<text text-anchor="middle" x="246" y="-795.3" font-family="Consolas" font-size="14.00">CreditCardAccount</text>
</g>
<!-- CreditCardAccount&#45;&gt;FixedRateLoan -->
<g id="edge3" class="edge"><title>CreditCardAccount&#45;&gt;FixedRateLoan</title>
<path fill="none" stroke="black" d="M266.576,-780.813C277.434,-771.743 290.922,-760.477 302.746,-750.6"/>
<polygon fill="black" stroke="black" points="305.182,-753.126 310.613,-744.029 300.695,-747.753 305.182,-753.126"/>
</g>
<!-- IAccount -->
<g id="node6" class="node"><title>IAccount</title>
<polygon fill="none" stroke="black" points="377.5,-452 300.5,-452 300.5,-416 377.5,-416 377.5,-452"/>
<text text-anchor="middle" x="339" y="-430.3" font-family="Consolas" font-size="14.00">IAccount</text>
</g>
<!-- CreditCardAccount&#45;&gt;IAccount -->
<g id="edge4" class="edge"><title>CreditCardAccount&#45;&gt;IAccount</title>
<path fill="none" stroke="black" d="M246,-780.784C246,-766.405 246,-745.366 246,-727 246,-727 246,-727 246,-506 246,-480.559 268.26,-463.017 290.999,-451.735"/>
<polygon fill="black" stroke="black" points="292.746,-454.784 300.368,-447.424 289.82,-448.424 292.746,-454.784"/>
</g>
<!-- IAsset -->
<g id="node18" class="node"><title>IAsset</title>
<polygon fill="none" stroke="black" points="476,-371 414,-371 414,-335 476,-335 476,-371"/>
<text text-anchor="middle" x="445" y="-349.3" font-family="Consolas" font-size="14.00">IAsset</text>
</g>
<!-- IAccount&#45;&gt;IAsset -->
<g id="edge22" class="edge"><title>IAccount&#45;&gt;IAsset</title>
<path fill="none" stroke="black" d="M372.26,-415.938C381.544,-410.643 391.43,-404.481 400,-398 407.516,-392.315 415.076,-385.466 421.797,-378.883"/>
<polygon fill="black" stroke="black" points="424.696,-380.93 429.248,-371.363 419.723,-376.003 424.696,-380.93"/>
</g>
<!-- ITempore -->
<g id="node20" class="node"><title>ITempore</title>
<polygon fill="none" stroke="black" points="468.5,-290 391.5,-290 391.5,-254 468.5,-254 468.5,-290"/>
<text text-anchor="middle" x="430" y="-268.3" font-family="Consolas" font-size="14.00">ITempore</text>
</g>
<!-- IAccount&#45;&gt;ITempore -->
<g id="edge24" class="edge"><title>IAccount&#45;&gt;ITempore</title>
<path fill="none" stroke="black" d="M348.739,-415.877C364.596,-387.995 396.11,-332.586 414.893,-299.562"/>
<polygon fill="black" stroke="black" points="418.154,-300.908 420.056,-290.485 412.069,-297.447 418.154,-300.908"/>
</g>
<!-- IBalance -->
<g id="node23" class="node"><title>IBalance</title>
<polygon fill="none" stroke="black" points="373.5,-290 296.5,-290 296.5,-254 373.5,-254 373.5,-290"/>
<text text-anchor="middle" x="335" y="-268.3" font-family="Consolas" font-size="14.00">IBalance</text>
</g>
<!-- IAccount&#45;&gt;IBalance -->
<g id="edge23" class="edge"><title>IAccount&#45;&gt;IBalance</title>
<path fill="none" stroke="black" stroke-dasharray="1,5" d="M338.572,-415.877C337.884,-388.354 336.525,-334.008 335.696,-300.849"/>
<polygon fill="black" stroke="black" points="339.186,-300.394 335.437,-290.485 332.188,-300.569 339.186,-300.394"/>
<text text-anchor="middle" x="349.5" y="-351.1" font-family="Consolas" font-size="8.00">HAS&#45;A</text>
</g>
<!-- NamedReceivable -->
<g id="node8" class="node"><title>NamedReceivable</title>
<polygon fill="none" stroke="black" points="581.5,-598 452.5,-598 452.5,-562 581.5,-562 581.5,-598"/>
<text text-anchor="middle" x="517" y="-576.3" font-family="Consolas" font-size="14.00">NamedReceivable</text>
</g>
<!-- LoanBase&#45;&gt;NamedReceivable -->
<g id="edge6" class="edge"><title>LoanBase&#45;&gt;NamedReceivable</title>
<path fill="none" stroke="black" d="M415.096,-634.994C433.277,-625.361 456.215,-613.207 475.723,-602.87"/>
<polygon fill="black" stroke="black" points="477.504,-605.888 484.701,-598.114 474.226,-599.703 477.504,-605.888"/>
</g>
<!-- ILoan -->
<g id="node19" class="node"><title>ILoan</title>
<polygon fill="none" stroke="black" points="396,-598 342,-598 342,-562 396,-562 396,-598"/>
<text text-anchor="middle" x="369" y="-576.3" font-family="Consolas" font-size="14.00">ILoan</text>
</g>
<!-- LoanBase&#45;&gt;ILoan -->
<g id="edge17" class="edge"><title>LoanBase&#45;&gt;ILoan</title>
<path fill="none" stroke="black" d="M379.611,-634.813C378.029,-626.789 376.108,-617.047 374.338,-608.069"/>
<polygon fill="black" stroke="black" points="377.726,-607.163 372.358,-598.029 370.859,-608.517 377.726,-607.163"/>
</g>
<!-- Receivable -->
<g id="node14" class="node"><title>Receivable</title>
<polygon fill="none" stroke="black" points="563,-525 471,-525 471,-489 563,-489 563,-525"/>
<text text-anchor="middle" x="517" y="-503.3" font-family="Consolas" font-size="14.00">Receivable</text>
</g>
<!-- NamedReceivable&#45;&gt;Receivable -->
<g id="edge25" class="edge"><title>NamedReceivable&#45;&gt;Receivable</title>
<path fill="none" stroke="black" d="M517,-561.813C517,-553.789 517,-544.047 517,-535.069"/>
<polygon fill="black" stroke="black" points="520.5,-535.029 517,-525.029 513.5,-535.029 520.5,-535.029"/>
</g>
<!-- Rent -->
<g id="node9" class="node"><title>Rent</title>
<polygon fill="none" stroke="black" points="595,-671 541,-671 541,-635 595,-635 595,-671"/>
<text text-anchor="middle" x="568" y="-649.3" font-family="Consolas" font-size="14.00">Rent</text>
</g>
<!-- Rent&#45;&gt;NamedReceivable -->
<g id="edge7" class="edge"><title>Rent&#45;&gt;NamedReceivable</title>
<path fill="none" stroke="black" d="M555.654,-634.813C549.515,-626.266 541.975,-615.769 535.19,-606.323"/>
<polygon fill="black" stroke="black" points="537.909,-604.109 529.232,-598.029 532.223,-608.193 537.909,-604.109"/>
</g>
<!-- CheckingAccount -->
<g id="node10" class="node"><title>CheckingAccount</title>
<polygon fill="none" stroke="black" points="811.5,-817 682.5,-817 682.5,-781 811.5,-781 811.5,-817"/>
<text text-anchor="middle" x="747" y="-795.3" font-family="Consolas" font-size="14.00">CheckingAccount</text>
</g>
<!-- DepositAccount -->
<g id="node11" class="node"><title>DepositAccount</title>
<polygon fill="none" stroke="black" points="684,-744 562,-744 562,-708 684,-708 684,-744"/>
<text text-anchor="middle" x="623" y="-722.3" font-family="Consolas" font-size="14.00">DepositAccount</text>
</g>
<!-- CheckingAccount&#45;&gt;DepositAccount -->
<g id="edge8" class="edge"><title>CheckingAccount&#45;&gt;DepositAccount</title>
<path fill="none" stroke="black" d="M717.299,-780.994C700.703,-771.491 679.824,-759.536 661.933,-749.292"/>
<polygon fill="black" stroke="black" points="663.306,-746.045 652.889,-744.114 659.827,-752.12 663.306,-746.045"/>
</g>
<!-- Account -->
<g id="node13" class="node"><title>Account</title>
<polygon fill="none" stroke="black" points="522.5,-671 453.5,-671 453.5,-635 522.5,-635 522.5,-671"/>
<text text-anchor="middle" x="488" y="-649.3" font-family="Consolas" font-size="14.00">Account</text>
</g>
<!-- DepositAccount&#45;&gt;Account -->
<g id="edge12" class="edge"><title>DepositAccount&#45;&gt;Account</title>
<path fill="none" stroke="black" d="M590.664,-707.994C572.348,-698.361 549.238,-686.207 529.585,-675.87"/>
<polygon fill="black" stroke="black" points="531.02,-672.671 520.54,-671.114 527.761,-678.866 531.02,-672.671"/>
</g>
<!-- SavingsAccount -->
<g id="node12" class="node"><title>SavingsAccount</title>
<polygon fill="none" stroke="black" points="664,-817 542,-817 542,-781 664,-781 664,-817"/>
<text text-anchor="middle" x="603" y="-795.3" font-family="Consolas" font-size="14.00">SavingsAccount</text>
</g>
<!-- SavingsAccount&#45;&gt;DepositAccount -->
<g id="edge9" class="edge"><title>SavingsAccount&#45;&gt;DepositAccount</title>
<path fill="none" stroke="black" d="M607.841,-780.813C610.126,-772.702 612.905,-762.836 615.457,-753.777"/>
<polygon fill="black" stroke="black" points="618.861,-754.603 618.203,-744.029 612.123,-752.705 618.861,-754.603"/>
</g>
<!-- Account&#45;&gt;IAccount -->
<g id="edge11" class="edge"><title>Account&#45;&gt;IAccount</title>
<path fill="none" stroke="black" d="M472.832,-634.94C463.822,-624.532 452.364,-610.807 443,-598 408.919,-551.387 373.681,-493.82 354.23,-461.066"/>
<polygon fill="black" stroke="black" points="357.048,-458.955 348.947,-452.127 351.022,-462.517 357.048,-458.955"/>
</g>
<!-- Account&#45;&gt;NamedReceivable -->
<g id="edge10" class="edge"><title>Account&#45;&gt;NamedReceivable</title>
<path fill="none" stroke="black" d="M495.02,-634.813C498.368,-626.615 502.45,-616.623 506.182,-607.485"/>
<polygon fill="black" stroke="black" points="509.503,-608.61 510.045,-598.029 503.023,-605.963 509.503,-608.61"/>
</g>
<!-- IReceivable -->
<g id="node15" class="node"><title>IReceivable</title>
<polygon fill="none" stroke="black" points="494.5,-452 395.5,-452 395.5,-416 494.5,-416 494.5,-452"/>
<text text-anchor="middle" x="445" y="-430.3" font-family="Consolas" font-size="14.00">IReceivable</text>
</g>
<!-- Receivable&#45;&gt;IReceivable -->
<g id="edge13" class="edge"><title>Receivable&#45;&gt;IReceivable</title>
<path fill="none" stroke="black" d="M499.571,-488.813C490.55,-479.917 479.387,-468.909 469.512,-459.172"/>
<polygon fill="black" stroke="black" points="471.847,-456.558 462.269,-452.029 466.932,-461.542 471.847,-456.558"/>
</g>
<!-- TradeLine -->
<g id="node16" class="node"><title>TradeLine</title>
<polygon fill="none" stroke="black" points="597,-452 513,-452 513,-416 597,-416 597,-452"/>
<text text-anchor="middle" x="555" y="-430.3" font-family="Consolas" font-size="14.00">TradeLine</text>
</g>
<!-- Receivable&#45;&gt;TradeLine -->
<g id="edge14" class="edge"><title>Receivable&#45;&gt;TradeLine</title>
<path fill="none" stroke="black" d="M526.199,-488.813C530.68,-480.441 536.162,-470.197 541.137,-460.903"/>
<polygon fill="black" stroke="black" points="544.253,-462.497 545.886,-452.029 538.081,-459.194 544.253,-462.497"/>
</g>
<!-- ITradeLine -->
<g id="node17" class="node"><title>ITradeLine</title>
<polygon fill="none" stroke="black" points="586,-371 494,-371 494,-335 586,-335 586,-371"/>
<text text-anchor="middle" x="540" y="-349.3" font-family="Consolas" font-size="14.00">ITradeLine</text>
</g>
<!-- IReceivable&#45;&gt;ITradeLine -->
<g id="edge15" class="edge"><title>IReceivable&#45;&gt;ITradeLine</title>
<path fill="none" stroke="black" d="M465.614,-415.858C479.058,-404.678 496.788,-389.934 511.566,-377.645"/>
<polygon fill="black" stroke="black" points="513.976,-380.193 519.427,-371.108 509.5,-374.811 513.976,-380.193"/>
</g>
<!-- IReceivable&#45;&gt;IAsset -->
<g id="edge16" class="edge"><title>IReceivable&#45;&gt;IAsset</title>
<path fill="none" stroke="black" d="M445,-415.858C445,-405.713 445,-392.634 445,-381.117"/>
<polygon fill="black" stroke="black" points="448.5,-381.108 445,-371.108 441.5,-381.108 448.5,-381.108"/>
</g>
<!-- TradeLine&#45;&gt;ITradeLine -->
<g id="edge18" class="edge"><title>TradeLine&#45;&gt;ITradeLine</title>
<path fill="none" stroke="black" d="M551.745,-415.858C549.819,-405.713 547.335,-392.634 545.149,-381.117"/>
<polygon fill="black" stroke="black" points="548.552,-380.28 543.248,-371.108 541.675,-381.586 548.552,-380.28"/>
</g>
<!-- ITradeLine&#45;&gt;ITempore -->
<g id="edge19" class="edge"><title>ITradeLine&#45;&gt;ITempore</title>
<path fill="none" stroke="black" d="M510.485,-334.974C501.488,-329.493 491.684,-323.223 483,-317 474.397,-310.835 465.408,-303.674 457.328,-296.943"/>
<polygon fill="black" stroke="black" points="459.495,-294.192 449.6,-290.407 454.975,-299.537 459.495,-294.192"/>
</g>
<!-- ITransactionable -->
<g id="node21" class="node"><title>ITransactionable</title>
<polygon fill="none" stroke="black" points="565.5,-182 428.5,-182 428.5,-146 565.5,-146 565.5,-182"/>
<text text-anchor="middle" x="497" y="-160.3" font-family="Consolas" font-size="14.00">ITransactionable</text>
</g>
<!-- ITradeLine&#45;&gt;ITransactionable -->
<g id="edge20" class="edge"><title>ITradeLine&#45;&gt;ITransactionable</title>
<path fill="none" stroke="black" d="M532.242,-334.965C526.944,-322.694 520.156,-305.616 516,-290 507.208,-256.962 502.081,-217.856 499.414,-192.294"/>
<polygon fill="black" stroke="black" points="502.886,-191.833 498.418,-182.226 495.92,-192.522 502.886,-191.833"/>
</g>
<!-- IObviate -->
<g id="node22" class="node"><title>IObviate</title>
<polygon fill="none" stroke="black" points="602.5,-290 525.5,-290 525.5,-254 602.5,-254 602.5,-290"/>
<text text-anchor="middle" x="564" y="-268.3" font-family="Consolas" font-size="14.00">IObviate</text>
</g>
<!-- ITradeLine&#45;&gt;IObviate -->
<g id="edge21" class="edge"><title>ITradeLine&#45;&gt;IObviate</title>
<path fill="none" stroke="black" d="M545.208,-334.858C548.321,-324.609 552.344,-311.366 555.869,-299.765"/>
<polygon fill="black" stroke="black" points="559.245,-300.694 558.803,-290.108 552.547,-298.659 559.245,-300.694"/>
</g>
<!-- ITradeLine&#45;&gt;IBalance -->
<g id="edge26" class="edge"><title>ITradeLine&#45;&gt;IBalance</title>
<path fill="none" stroke="black" stroke-dasharray="1,5" d="M493.55,-334.924C478.368,-329.285 461.442,-322.935 446,-317 425.297,-309.043 402.511,-300.052 382.999,-292.281"/>
<polygon fill="black" stroke="black" points="384.291,-289.028 373.706,-288.573 381.697,-295.53 384.291,-289.028"/>
<text text-anchor="middle" x="457.5" y="-310.6" font-family="Consolas" font-size="8.00">HAS&#45;A</text>
</g>
<!-- IBalance&#45;&gt;ITransactionable -->
<g id="edge49" class="edge"><title>IBalance&#45;&gt;ITransactionable</title>
<path fill="none" stroke="black" d="M361.028,-253.969C388.462,-236.019 431.824,-207.646 462.185,-187.78"/>
<polygon fill="black" stroke="black" points="464.316,-190.568 470.768,-182.164 460.484,-184.711 464.316,-190.568"/>
</g>
<!-- Balance -->
<g id="node24" class="node"><title>Balance</title>
<polygon fill="none" stroke="black" points="261.5,-371 192.5,-371 192.5,-335 261.5,-335 261.5,-371"/>
<text text-anchor="middle" x="227" y="-349.3" font-family="Consolas" font-size="14.00">Balance</text>
</g>
<!-- Balance&#45;&gt;IBalance -->
<g id="edge27" class="edge"><title>Balance&#45;&gt;IBalance</title>
<path fill="none" stroke="black" d="M250.434,-334.858C265.861,-323.574 286.249,-308.66 303.141,-296.304"/>
<polygon fill="black" stroke="black" points="305.607,-298.837 311.611,-290.108 301.474,-293.187 305.607,-298.837"/>
</g>
<!-- Journal -->
<g id="node25" class="node"><title>Journal</title>
<polygon fill="none" stroke="black" points="150.5,-290 81.5,-290 81.5,-254 150.5,-254 150.5,-290"/>
<text text-anchor="middle" x="116" y="-268.3" font-family="Consolas" font-size="14.00">Journal</text>
</g>
<!-- Balance&#45;&gt;Journal -->
<g id="edge28" class="edge"><title>Balance&#45;&gt;Journal</title>
<path fill="none" stroke="black" d="M202.915,-334.858C186.914,-323.471 165.72,-308.386 148.267,-295.965"/>
<polygon fill="black" stroke="black" points="150.215,-293.055 140.038,-290.108 146.156,-298.758 150.215,-293.055"/>
</g>
<!-- ITransaction -->
<g id="node45" class="node"><title>ITransaction</title>
<polygon fill="none" stroke="black" points="239.5,-182 132.5,-182 132.5,-146 239.5,-146 239.5,-182"/>
<text text-anchor="middle" x="186" y="-160.3" font-family="Consolas" font-size="14.00">ITransaction</text>
</g>
<!-- Journal&#45;&gt;ITransaction -->
<g id="edge51" class="edge"><title>Journal&#45;&gt;ITransaction</title>
<path fill="none" stroke="black" stroke-dasharray="1,5" d="M127.247,-253.969C138.203,-237.378 155.04,-211.883 167.885,-192.431"/>
<polygon fill="black" stroke="black" points="167.936,-192.354 167.904,-185.143 174.549,-182.341 174.58,-189.552 167.936,-192.354"/>
</g>
<!-- VariableRateLoan -->
<g id="node26" class="node"><title>VariableRateLoan</title>
<polygon fill="none" stroke="black" points="543.5,-744 406.5,-744 406.5,-708 543.5,-708 543.5,-744"/>
<text text-anchor="middle" x="475" y="-722.3" font-family="Consolas" font-size="14.00">VariableRateLoan</text>
</g>
<!-- VariableRateLoan&#45;&gt;LoanBase -->
<g id="edge29" class="edge"><title>VariableRateLoan&#45;&gt;LoanBase</title>
<path fill="none" stroke="black" d="M452.729,-707.813C440.864,-698.656 426.097,-687.26 413.212,-677.316"/>
<polygon fill="black" stroke="black" points="415.121,-674.368 405.066,-671.029 410.844,-679.909 415.121,-674.368"/>
</g>
<!-- Security -->
<g id="node27" class="node"><title>Security</title>
<polygon fill="none" stroke="black" points="692.5,-452 615.5,-452 615.5,-416 692.5,-416 692.5,-452"/>
<text text-anchor="middle" x="654" y="-430.3" font-family="Consolas" font-size="14.00">Security</text>
</g>
<!-- Security&#45;&gt;IAsset -->
<g id="edge30" class="edge"><title>Security&#45;&gt;IAsset</title>
<path fill="none" stroke="black" d="M615.345,-419.074C577.173,-405.281 520.551,-384.701 485.947,-371.269"/>
<polygon fill="black" stroke="black" points="486.969,-367.91 476.381,-367.513 484.411,-374.426 486.969,-367.91"/>
</g>
<!-- Pecuniam -->
<g id="node28" class="node"><title>Pecuniam</title>
<polygon fill="none" stroke="black" points="686.5,-371 609.5,-371 609.5,-335 686.5,-335 686.5,-371"/>
<text text-anchor="middle" x="648" y="-349.3" font-family="Consolas" font-size="14.00">Pecuniam</text>
</g>
<!-- Security&#45;&gt;Pecuniam -->
<g id="edge31" class="edge"><title>Security&#45;&gt;Pecuniam</title>
<path fill="none" stroke="black" d="M652.698,-415.858C651.928,-405.713 650.934,-392.634 650.06,-381.117"/>
<polygon fill="black" stroke="black" points="653.547,-380.815 649.299,-371.108 646.567,-381.345 653.547,-380.815"/>
</g>
<!-- Cusip -->
<g id="node29" class="node"><title>Cusip</title>
<polygon fill="none" stroke="black" points="759,-371 705,-371 705,-335 759,-335 759,-371"/>
<text text-anchor="middle" x="732" y="-349.3" font-family="Consolas" font-size="14.00">Cusip</text>
</g>
<!-- Security&#45;&gt;Cusip -->
<g id="edge32" class="edge"><title>Security&#45;&gt;Cusip</title>
<path fill="none" stroke="black" stroke-dasharray="1,5" d="M670.925,-415.858C681.759,-404.885 695.983,-390.479 707.978,-378.33"/>
<polygon fill="black" stroke="black" points="710.573,-380.683 715.108,-371.108 705.592,-375.765 710.573,-380.683"/>
<text text-anchor="middle" x="701" y="-391.6" font-family="Consolas" font-size="8.00">Id</text>
</g>
<!-- Currency -->
<g id="node33" class="node"><title>Currency</title>
<polygon fill="none" stroke="black" points="702.5,-236 625.5,-236 625.5,-200 702.5,-200 702.5,-236"/>
<text text-anchor="middle" x="664" y="-214.3" font-family="Consolas" font-size="14.00">Currency</text>
</g>
<!-- Pecuniam&#45;&gt;Currency -->
<g id="edge36" class="edge"><title>Pecuniam&#45;&gt;Currency</title>
<path fill="none" stroke="black" stroke-dasharray="1,5" d="M646.505,-334.8C645.214,-315.069 644.341,-281.85 650,-254 650.555,-251.268 651.313,-248.477 652.191,-245.721"/>
<polygon fill="black" stroke="black" points="655.575,-246.66 655.748,-236.066 649.007,-244.239 655.575,-246.66"/>
<text text-anchor="middle" x="651" y="-310.6" font-family="Consolas" font-size="8.00">Id</text>
</g>
<!-- INumera -->
<g id="node34" class="node"><title>INumera</title>
<polygon fill="none" stroke="black" points="728.5,-290 659.5,-290 659.5,-254 728.5,-254 728.5,-290"/>
<text text-anchor="middle" x="694" y="-268.3" font-family="Consolas" font-size="14.00">INumera</text>
</g>
<!-- Pecuniam&#45;&gt;INumera -->
<g id="edge38" class="edge"><title>Pecuniam&#45;&gt;INumera</title>
<path fill="none" stroke="black" d="M657.981,-334.858C664.07,-324.402 671.972,-310.83 678.824,-299.064"/>
<polygon fill="black" stroke="black" points="682.031,-300.511 684.038,-290.108 675.982,-296.989 682.031,-300.511"/>
</g>
<!-- RIdentifierWithChkDigit -->
<g id="node30" class="node"><title>RIdentifierWithChkDigit</title>
<polygon fill="none" stroke="black" points="935.5,-290 746.5,-290 746.5,-254 935.5,-254 935.5,-290"/>
<text text-anchor="middle" x="841" y="-268.3" font-family="Consolas" font-size="14.00">RIdentifierWithChkDigit</text>
</g>
<!-- Cusip&#45;&gt;RIdentifierWithChkDigit -->
<g id="edge33" class="edge"><title>Cusip&#45;&gt;RIdentifierWithChkDigit</title>
<path fill="none" stroke="black" d="M755.651,-334.858C771.22,-323.574 791.798,-308.66 808.846,-296.304"/>
<polygon fill="black" stroke="black" points="811.352,-298.811 817.395,-290.108 807.244,-293.143 811.352,-298.811"/>
</g>
<!-- RIdentifier -->
<g id="node31" class="node"><title>RIdentifier</title>
<polygon fill="none" stroke="black" points="990.5,-182 891.5,-182 891.5,-146 990.5,-146 990.5,-182"/>
<text text-anchor="middle" x="941" y="-160.3" font-family="Consolas" font-size="14.00">RIdentifier</text>
</g>
<!-- RIdentifierWithChkDigit&#45;&gt;RIdentifier -->
<g id="edge34" class="edge"><title>RIdentifierWithChkDigit&#45;&gt;RIdentifier</title>
<path fill="none" stroke="black" d="M857.067,-253.969C873.443,-236.61 899.016,-209.503 917.633,-189.769"/>
<polygon fill="black" stroke="black" points="920.325,-192.016 924.641,-182.341 915.233,-187.213 920.325,-192.016"/>
</g>
<!-- Identifier -->
<g id="node32" class="node"><title>Identifier</title>
<polygon fill="none" stroke="black" points="987,-109 895,-109 895,-73 987,-73 987,-109"/>
<text text-anchor="middle" x="941" y="-87.3" font-family="Consolas" font-size="14.00">Identifier</text>
</g>
<!-- RIdentifier&#45;&gt;Identifier -->
<g id="edge35" class="edge"><title>RIdentifier&#45;&gt;Identifier</title>
<path fill="none" stroke="black" d="M941,-145.813C941,-137.789 941,-128.047 941,-119.069"/>
<polygon fill="black" stroke="black" points="944.5,-119.029 941,-109.029 937.5,-119.029 944.5,-119.029"/>
</g>
<!-- Identifier&#45;&gt;StringId -->
<g id="edge48" class="edge"><title>Identifier&#45;&gt;StringId</title>
<path fill="none" stroke="black" d="M941,-72.8129C941,-64.7895 941,-55.0475 941,-46.0691"/>
<polygon fill="black" stroke="black" points="944.5,-46.0288 941,-36.0288 937.5,-46.0289 944.5,-46.0288"/>
</g>
<!-- Currency&#45;&gt;Identifier -->
<g id="edge37" class="edge"><title>Currency&#45;&gt;Identifier</title>
<path fill="none" stroke="black" d="M701.935,-199.881C751.836,-177.363 839.525,-137.792 893.7,-113.345"/>
<polygon fill="black" stroke="black" points="895.405,-116.415 903.08,-109.112 892.525,-110.035 895.405,-116.415"/>
</g>
<!-- CreditScore -->
<g id="node35" class="node"><title>CreditScore</title>
<polygon fill="none" stroke="black" points="1168.5,-182 1069.5,-182 1069.5,-146 1168.5,-146 1168.5,-182"/>
<text text-anchor="middle" x="1119" y="-160.3" font-family="Consolas" font-size="14.00">CreditScore</text>
</g>
<!-- CreditScore&#45;&gt;Identifier -->
<g id="edge39" class="edge"><title>CreditScore&#45;&gt;Identifier</title>
<path fill="none" stroke="black" d="M1076.36,-145.994C1051.45,-136.055 1019.81,-123.434 993.382,-112.894"/>
<polygon fill="black" stroke="black" points="994.49,-109.568 983.904,-109.114 991.896,-116.069 994.49,-109.568"/>
</g>
<!-- PersonalCreditScore -->
<g id="node36" class="node"><title>PersonalCreditScore</title>
<polygon fill="none" stroke="black" points="1215.5,-290 1056.5,-290 1056.5,-254 1215.5,-254 1215.5,-290"/>
<text text-anchor="middle" x="1136" y="-268.3" font-family="Consolas" font-size="14.00">PersonalCreditScore</text>
</g>
<!-- PersonalCreditScore&#45;&gt;CreditScore -->
<g id="edge40" class="edge"><title>PersonalCreditScore&#45;&gt;CreditScore</title>
<path fill="none" stroke="black" d="M1133.27,-253.969C1130.61,-237.378 1126.52,-211.883 1123.4,-192.431"/>
<polygon fill="black" stroke="black" points="1126.82,-191.66 1121.78,-182.341 1119.91,-192.769 1126.82,-191.66"/>
</g>
<!-- CreditCardNumber -->
<g id="node37" class="node"><title>CreditCardNumber</title>
<polygon fill="none" stroke="black" points="914.5,-371 777.5,-371 777.5,-335 914.5,-335 914.5,-371"/>
<text text-anchor="middle" x="846" y="-349.3" font-family="Consolas" font-size="14.00">CreditCardNumber</text>
</g>
<!-- CreditCardNumber&#45;&gt;RIdentifierWithChkDigit -->
<g id="edge41" class="edge"><title>CreditCardNumber&#45;&gt;RIdentifierWithChkDigit</title>
<path fill="none" stroke="black" d="M844.915,-334.858C844.273,-324.713 843.445,-311.634 842.716,-300.117"/>
<polygon fill="black" stroke="black" points="846.208,-299.867 842.083,-290.108 839.222,-300.31 846.208,-299.867"/>
</g>
<!-- VisaCc -->
<g id="node38" class="node"><title>VisaCc</title>
<polygon fill="none" stroke="black" points="706,-598 644,-598 644,-562 706,-562 706,-598"/>
<text text-anchor="middle" x="675" y="-576.3" font-family="Consolas" font-size="14.00">VisaCc</text>
</g>
<!-- CreditCard -->
<g id="node39" class="node"><title>CreditCard</title>
<polygon fill="none" stroke="black" points="892,-525 800,-525 800,-489 892,-489 892,-525"/>
<text text-anchor="middle" x="846" y="-503.3" font-family="Consolas" font-size="14.00">CreditCard</text>
</g>
<!-- VisaCc&#45;&gt;CreditCard -->
<g id="edge42" class="edge"><title>VisaCc&#45;&gt;CreditCard</title>
<path fill="none" stroke="black" d="M706.429,-565.604C709.325,-564.382 712.216,-563.165 715,-562 741.343,-550.973 770.733,-538.842 794.989,-528.877"/>
<polygon fill="black" stroke="black" points="796.437,-532.066 804.358,-525.03 793.778,-525.59 796.437,-532.066"/>
</g>
<!-- ICreditCard -->
<g id="node43" class="node"><title>ICreditCard</title>
<polygon fill="none" stroke="black" points="895.5,-452 796.5,-452 796.5,-416 895.5,-416 895.5,-452"/>
<text text-anchor="middle" x="846" y="-430.3" font-family="Consolas" font-size="14.00">ICreditCard</text>
</g>
<!-- CreditCard&#45;&gt;ICreditCard -->
<g id="edge46" class="edge"><title>CreditCard&#45;&gt;ICreditCard</title>
<path fill="none" stroke="black" d="M846,-488.813C846,-480.789 846,-471.047 846,-462.069"/>
<polygon fill="black" stroke="black" points="849.5,-462.029 846,-452.029 842.5,-462.029 849.5,-462.029"/>
</g>
<!-- MasterCardCc -->
<g id="node40" class="node"><title>MasterCardCc</title>
<polygon fill="none" stroke="black" points="831.5,-598 724.5,-598 724.5,-562 831.5,-562 831.5,-598"/>
<text text-anchor="middle" x="778" y="-576.3" font-family="Consolas" font-size="14.00">MasterCardCc</text>
</g>
<!-- MasterCardCc&#45;&gt;CreditCard -->
<g id="edge43" class="edge"><title>MasterCardCc&#45;&gt;CreditCard</title>
<path fill="none" stroke="black" d="M794.461,-561.813C802.897,-553.005 813.317,-542.125 822.575,-532.458"/>
<polygon fill="black" stroke="black" points="825.302,-534.672 829.691,-525.029 820.246,-529.83 825.302,-534.672"/>
</g>
<!-- AmexCc -->
<g id="node41" class="node"><title>AmexCc</title>
<polygon fill="none" stroke="black" points="912,-598 850,-598 850,-562 912,-562 912,-598"/>
<text text-anchor="middle" x="881" y="-576.3" font-family="Consolas" font-size="14.00">AmexCc</text>
</g>
<!-- AmexCc&#45;&gt;CreditCard -->
<g id="edge44" class="edge"><title>AmexCc&#45;&gt;CreditCard</title>
<path fill="none" stroke="black" d="M872.527,-561.813C868.443,-553.528 863.456,-543.41 858.912,-534.193"/>
<polygon fill="black" stroke="black" points="861.955,-532.451 854.395,-525.029 855.677,-535.546 861.955,-532.451"/>
</g>
<!-- DiscoverCc -->
<g id="node42" class="node"><title>DiscoverCc</title>
<polygon fill="none" stroke="black" points="1022,-598 930,-598 930,-562 1022,-562 1022,-598"/>
<text text-anchor="middle" x="976" y="-576.3" font-family="Consolas" font-size="14.00">DiscoverCc</text>
</g>
<!-- DiscoverCc&#45;&gt;CreditCard -->
<g id="edge45" class="edge"><title>DiscoverCc&#45;&gt;CreditCard</title>
<path fill="none" stroke="black" d="M944.862,-561.994C927.303,-552.404 905.171,-540.317 886.302,-530.011"/>
<polygon fill="black" stroke="black" points="887.789,-526.835 877.335,-525.114 884.433,-532.979 887.789,-526.835"/>
</g>
<!-- ICreditCard&#45;&gt;CreditCardNumber -->
<g id="edge47" class="edge"><title>ICreditCard&#45;&gt;CreditCardNumber</title>
<path fill="none" stroke="black" stroke-dasharray="1,5" d="M846,-415.858C846,-405.713 846,-392.634 846,-381.117"/>
<polygon fill="black" stroke="black" points="849.5,-381.108 846,-371.108 842.5,-381.108 849.5,-381.108"/>
<text text-anchor="middle" x="857.5" y="-391.6" font-family="Consolas" font-size="8.00">HAS&#45;A</text>
</g>
<!-- AccountId -->
<g id="node44" class="node"><title>AccountId</title>
<polygon fill="none" stroke="black" points="1038,-290 954,-290 954,-254 1038,-254 1038,-290"/>
<text text-anchor="middle" x="996" y="-268.3" font-family="Consolas" font-size="14.00">AccountId</text>
</g>
<!-- AccountId&#45;&gt;RIdentifier -->
<g id="edge50" class="edge"><title>AccountId&#45;&gt;RIdentifier</title>
<path fill="none" stroke="black" d="M987.163,-253.969C978.395,-237.071 964.834,-210.935 954.675,-191.356"/>
<polygon fill="black" stroke="black" points="957.71,-189.605 949.997,-182.341 951.496,-192.829 957.71,-189.605"/>
</g>
<!-- ITransactionId -->
<g id="node48" class="node"><title>ITransactionId</title>
<polygon fill="none" stroke="black" points="247,-109 125,-109 125,-73 247,-73 247,-109"/>
<text text-anchor="middle" x="186" y="-87.3" font-family="Consolas" font-size="14.00">ITransactionId</text>
</g>
<!-- ITransaction&#45;&gt;ITransactionId -->
<g id="edge54" class="edge"><title>ITransaction&#45;&gt;ITransactionId</title>
<path fill="none" stroke="black" d="M186,-145.813C186,-137.789 186,-128.047 186,-119.069"/>
<polygon fill="black" stroke="black" points="189.5,-119.029 186,-109.029 182.5,-119.029 189.5,-119.029"/>
</g>
<!-- Transaction -->
<g id="node46" class="node"><title>Transaction</title>
<polygon fill="none" stroke="black" points="267.5,-290 168.5,-290 168.5,-254 267.5,-254 267.5,-290"/>
<text text-anchor="middle" x="218" y="-268.3" font-family="Consolas" font-size="14.00">Transaction</text>
</g>
<!-- Transaction&#45;&gt;ITransaction -->
<g id="edge52" class="edge"><title>Transaction&#45;&gt;ITransaction</title>
<path fill="none" stroke="black" d="M212.859,-253.969C207.827,-237.301 200.082,-211.646 194.2,-192.161"/>
<polygon fill="black" stroke="black" points="197.476,-190.902 191.235,-182.341 190.774,-192.925 197.476,-190.902"/>
</g>
<!-- TransactionId -->
<g id="node47" class="node"><title>TransactionId</title>
<polygon fill="none" stroke="black" points="114,-182 0,-182 0,-146 114,-146 114,-182"/>
<text text-anchor="middle" x="57" y="-160.3" font-family="Consolas" font-size="14.00">TransactionId</text>
</g>
<!-- Transaction&#45;&gt;TransactionId -->
<g id="edge53" class="edge"><title>Transaction&#45;&gt;TransactionId</title>
<path fill="none" stroke="black" d="M192.133,-253.969C164.868,-236.019 121.774,-207.646 91.6003,-187.78"/>
<polygon fill="black" stroke="black" points="93.3471,-184.74 83.0702,-182.164 89.4978,-190.587 93.3471,-184.74"/>
</g>
<!-- TransactionId&#45;&gt;ITransactionId -->
<g id="edge55" class="edge"><title>TransactionId&#45;&gt;ITransactionId</title>
<path fill="none" stroke="black" d="M87.8987,-145.994C105.322,-136.404 127.284,-124.317 146.008,-114.011"/>
<polygon fill="black" stroke="black" points="147.833,-117.002 154.906,-109.114 144.458,-110.869 147.833,-117.002"/>
</g>
<!-- TraceTransactionId -->
<g id="node49" class="node"><title>TraceTransactionId</title>
<polygon fill="none" stroke="black" points="410,-182 258,-182 258,-146 410,-146 410,-182"/>
<text text-anchor="middle" x="334" y="-160.3" font-family="Consolas" font-size="14.00">TraceTransactionId</text>
</g>
<!-- TraceTransactionId&#45;&gt;ITransactionId -->
<g id="edge56" class="edge"><title>TraceTransactionId&#45;&gt;ITransactionId</title>
<path fill="none" stroke="black" d="M298.55,-145.994C278.197,-136.23 252.446,-123.876 230.714,-113.451"/>
<polygon fill="black" stroke="black" points="232.203,-110.283 221.673,-109.114 229.176,-116.595 232.203,-110.283"/>
</g>
</g>
</svg>
