<?xml version="1.0" encoding="UTF-8" standalone="no"?>
<!DOCTYPE svg PUBLIC "-//W3C//DTD SVG 1.1//EN"
 "http://www.w3.org/Graphics/SVG/1.1/DTD/svg11.dtd">
<!-- Generated by graphviz version 2.38.0 (20140413.2041)
 -->
<!-- Title: noFutureRandDataSp Pages: 1 -->
<svg width="1473pt" height="933pt"
 viewBox="0.00 0.00 1472.50 933.00" xmlns="http://www.w3.org/2000/svg" xmlns:xlink="http://www.w3.org/1999/xlink">
<g id="graph0" class="graph" transform="scale(1 1) rotate(0) translate(4 929)">
<title>noFutureRandDataSp</title>
<polygon fill="white" stroke="none" points="-4,4 -4,-929 1468.5,-929 1468.5,4 -4,4"/>
<!-- PecuniamIdentifier -->
<g id="node1" class="node"><title>PecuniamIdentifier</title>
<polygon fill="none" stroke="black" points="246.5,-290 72.5,-290 72.5,-254 246.5,-254 246.5,-290"/>
<text text-anchor="middle" x="159.5" y="-268.3" font-family="Consolas" font-size="14.00">IIdentifier&lt;Pecuniam&gt;</text>
</g>
<!-- StringId -->
<g id="node2" class="node"><title>StringId</title>
<polygon fill="none" stroke="black" points="1142,-36 983,-36 983,-0 1142,-0 1142,-36"/>
<text text-anchor="middle" x="1062.5" y="-14.3" font-family="Consolas" font-size="14.00">IIdentifier&lt;string&gt;</text>
</g>
<!-- Mortgage -->
<g id="node3" class="node"><title>Mortgage</title>
<polygon fill="none" stroke="black" points="480,-925 403,-925 403,-889 480,-889 480,-925"/>
<text text-anchor="middle" x="441.5" y="-903.3" font-family="Consolas" font-size="14.00">Mortgage</text>
</g>
<!-- SecuredFixedRateLoan -->
<g id="node4" class="node"><title>SecuredFixedRateLoan</title>
<polygon fill="none" stroke="black" points="525,-852 358,-852 358,-816 525,-816 525,-852"/>
<text text-anchor="middle" x="441.5" y="-830.3" font-family="Consolas" font-size="14.00">SecuredFixedRateLoan</text>
</g>
<!-- Mortgage&#45;&gt;SecuredFixedRateLoan -->
<g id="edge1" class="edge"><title>Mortgage&#45;&gt;SecuredFixedRateLoan</title>
<path fill="none" stroke="black" d="M441.5,-888.813C441.5,-880.789 441.5,-871.047 441.5,-862.069"/>
<polygon fill="black" stroke="black" points="445,-862.029 441.5,-852.029 438,-862.029 445,-862.029"/>
</g>
<!-- FixedRateLoan -->
<g id="node5" class="node"><title>FixedRateLoan</title>
<polygon fill="none" stroke="black" points="498.5,-779 384.5,-779 384.5,-743 498.5,-743 498.5,-779"/>
<text text-anchor="middle" x="441.5" y="-757.3" font-family="Consolas" font-size="14.00">FixedRateLoan</text>
</g>
<!-- SecuredFixedRateLoan&#45;&gt;FixedRateLoan -->
<g id="edge2" class="edge"><title>SecuredFixedRateLoan&#45;&gt;FixedRateLoan</title>
<path fill="none" stroke="black" d="M441.5,-815.813C441.5,-807.789 441.5,-798.047 441.5,-789.069"/>
<polygon fill="black" stroke="black" points="445,-789.029 441.5,-779.029 438,-789.029 445,-789.029"/>
</g>
<!-- LoanBase -->
<g id="node8" class="node"><title>LoanBase</title>
<polygon fill="none" stroke="black" points="480,-706 403,-706 403,-670 480,-670 480,-706"/>
<text text-anchor="middle" x="441.5" y="-684.3" font-family="Consolas" font-size="14.00">LoanBase</text>
</g>
<!-- FixedRateLoan&#45;&gt;LoanBase -->
<g id="edge5" class="edge"><title>FixedRateLoan&#45;&gt;LoanBase</title>
<path fill="none" stroke="black" d="M441.5,-742.813C441.5,-734.789 441.5,-725.047 441.5,-716.069"/>
<polygon fill="black" stroke="black" points="445,-716.029 441.5,-706.029 438,-716.029 445,-716.029"/>
</g>
<!-- CreditCardAccount -->
<g id="node6" class="node"><title>CreditCardAccount</title>
<polygon fill="none" stroke="black" points="786.5,-852 642.5,-852 642.5,-816 786.5,-816 786.5,-852"/>
<text text-anchor="middle" x="714.5" y="-830.3" font-family="Consolas" font-size="14.00">CreditCardAccount</text>
</g>
<!-- CreditCardAccount&#45;&gt;FixedRateLoan -->
<g id="edge3" class="edge"><title>CreditCardAccount&#45;&gt;FixedRateLoan</title>
<path fill="none" stroke="black" d="M649.11,-815.994C606.67,-804.956 551.506,-790.61 508.71,-779.479"/>
<polygon fill="black" stroke="black" points="509.505,-776.07 498.946,-776.94 507.743,-782.844 509.505,-776.07"/>
</g>
<!-- IAccount -->
<g id="node7" class="node"><title>IAccount</title>
<polygon fill="none" stroke="black" points="630,-579 553,-579 553,-543 630,-543 630,-579"/>
<text text-anchor="middle" x="591.5" y="-557.3" font-family="Consolas" font-size="14.00">IAccount</text>
</g>
<!-- CreditCardAccount&#45;&gt;IAccount -->
<g id="edge4" class="edge"><title>CreditCardAccount&#45;&gt;IAccount</title>
<path fill="none" stroke="black" d="M768.89,-815.947C792.344,-804.891 814.5,-787.657 814.5,-762 814.5,-762 814.5,-762 814.5,-651 814.5,-613.757 705.851,-585.143 640.228,-571.258"/>
<polygon fill="black" stroke="black" points="640.591,-567.759 630.089,-569.157 639.171,-574.613 640.591,-567.759"/>
</g>
<!-- IAsset -->
<g id="node18" class="node"><title>IAsset</title>
<polygon fill="none" stroke="black" points="643.5,-371 581.5,-371 581.5,-335 643.5,-335 643.5,-371"/>
<text text-anchor="middle" x="612.5" y="-349.3" font-family="Consolas" font-size="14.00">IAsset</text>
</g>
<!-- IAccount&#45;&gt;IAsset -->
<g id="edge27" class="edge"><title>IAccount&#45;&gt;IAsset</title>
<path fill="none" stroke="black" d="M593.254,-542.791C596.908,-506.955 605.355,-424.087 609.743,-381.047"/>
<polygon fill="black" stroke="black" points="613.233,-381.319 610.765,-371.015 606.269,-380.609 613.233,-381.319"/>
</g>
<!-- ITempore -->
<g id="node24" class="node"><title>ITempore</title>
<polygon fill="none" stroke="black" points="592,-290 515,-290 515,-254 592,-254 592,-290"/>
<text text-anchor="middle" x="553.5" y="-268.3" font-family="Consolas" font-size="14.00">ITempore</text>
</g>
<!-- IAccount&#45;&gt;ITempore -->
<g id="edge28" class="edge"><title>IAccount&#45;&gt;ITempore</title>
<path fill="none" stroke="black" d="M579.267,-542.856C568.159,-525.576 553.5,-497.713 553.5,-471 553.5,-471 553.5,-471 553.5,-352 553.5,-334.893 553.5,-315.703 553.5,-300.52"/>
<polygon fill="black" stroke="black" points="557,-300.26 553.5,-290.26 550,-300.26 557,-300.26"/>
</g>
<!-- Pondus -->
<g id="node9" class="node"><title>Pondus</title>
<polygon fill="none" stroke="black" points="418.5,-633 356.5,-633 356.5,-597 418.5,-597 418.5,-633"/>
<text text-anchor="middle" x="387.5" y="-611.3" font-family="Consolas" font-size="14.00">Pondus</text>
</g>
<!-- LoanBase&#45;&gt;Pondus -->
<g id="edge6" class="edge"><title>LoanBase&#45;&gt;Pondus</title>
<path fill="none" stroke="black" d="M428.428,-669.813C421.862,-661.179 413.781,-650.555 406.54,-641.034"/>
<polygon fill="black" stroke="black" points="409.291,-638.87 400.452,-633.029 403.719,-643.107 409.291,-638.87"/>
</g>
<!-- ILoan -->
<g id="node23" class="node"><title>ILoan</title>
<polygon fill="none" stroke="black" points="490.5,-633 436.5,-633 436.5,-597 490.5,-597 490.5,-633"/>
<text text-anchor="middle" x="463.5" y="-611.3" font-family="Consolas" font-size="14.00">ILoan</text>
</g>
<!-- LoanBase&#45;&gt;ILoan -->
<g id="edge22" class="edge"><title>LoanBase&#45;&gt;ILoan</title>
<path fill="none" stroke="black" d="M446.826,-669.813C449.339,-661.702 452.396,-651.836 455.203,-642.777"/>
<polygon fill="black" stroke="black" points="458.607,-643.617 458.223,-633.029 451.92,-641.545 458.607,-643.617"/>
</g>
<!-- Receivable -->
<g id="node14" class="node"><title>Receivable</title>
<polygon fill="none" stroke="black" points="433.5,-525 341.5,-525 341.5,-489 433.5,-489 433.5,-525"/>
<text text-anchor="middle" x="387.5" y="-503.3" font-family="Consolas" font-size="14.00">Receivable</text>
</g>
<!-- Pondus&#45;&gt;Receivable -->
<g id="edge29" class="edge"><title>Pondus&#45;&gt;Receivable</title>
<path fill="none" stroke="black" d="M387.5,-596.969C387.5,-580.378 387.5,-554.883 387.5,-535.431"/>
<polygon fill="black" stroke="black" points="391,-535.341 387.5,-525.341 384,-535.341 391,-535.341"/>
</g>
<!-- Rent -->
<g id="node10" class="node"><title>Rent</title>
<polygon fill="none" stroke="black" points="384.5,-706 330.5,-706 330.5,-670 384.5,-670 384.5,-706"/>
<text text-anchor="middle" x="357.5" y="-684.3" font-family="Consolas" font-size="14.00">Rent</text>
</g>
<!-- Rent&#45;&gt;Pondus -->
<g id="edge7" class="edge"><title>Rent&#45;&gt;Pondus</title>
<path fill="none" stroke="black" d="M364.762,-669.813C368.226,-661.615 372.448,-651.623 376.309,-642.485"/>
<polygon fill="black" stroke="black" points="379.637,-643.603 380.305,-633.029 373.188,-640.878 379.637,-643.603"/>
</g>
<!-- CheckingAccount -->
<g id="node11" class="node"><title>CheckingAccount</title>
<polygon fill="none" stroke="black" points="646,-779 517,-779 517,-743 646,-743 646,-779"/>
<text text-anchor="middle" x="581.5" y="-757.3" font-family="Consolas" font-size="14.00">CheckingAccount</text>
</g>
<!-- DepositAccount -->
<g id="node12" class="node"><title>DepositAccount</title>
<polygon fill="none" stroke="black" points="649.5,-706 527.5,-706 527.5,-670 649.5,-670 649.5,-706"/>
<text text-anchor="middle" x="588.5" y="-684.3" font-family="Consolas" font-size="14.00">DepositAccount</text>
</g>
<!-- CheckingAccount&#45;&gt;DepositAccount -->
<g id="edge8" class="edge"><title>CheckingAccount&#45;&gt;DepositAccount</title>
<path fill="none" stroke="black" d="M583.195,-742.813C583.986,-734.789 584.946,-725.047 585.831,-716.069"/>
<polygon fill="black" stroke="black" points="589.323,-716.324 586.821,-706.029 582.357,-715.637 589.323,-716.324"/>
</g>
<!-- DepositAccount&#45;&gt;IAccount -->
<g id="edge11" class="edge"><title>DepositAccount&#45;&gt;IAccount</title>
<path fill="none" stroke="black" d="M588.911,-669.881C589.408,-649.146 590.253,-613.953 590.842,-589.422"/>
<polygon fill="black" stroke="black" points="594.343,-589.394 591.084,-579.313 587.345,-589.226 594.343,-589.394"/>
</g>
<!-- DepositAccount&#45;&gt;Pondus -->
<g id="edge10" class="edge"><title>DepositAccount&#45;&gt;Pondus</title>
<path fill="none" stroke="black" d="M534.092,-669.924C504.984,-660.518 468.39,-648.264 428.283,-633.175"/>
<polygon fill="black" stroke="black" points="429.44,-629.871 418.849,-629.597 426.958,-636.416 429.44,-629.871"/>
</g>
<!-- SavingsAccount -->
<g id="node13" class="node"><title>SavingsAccount</title>
<polygon fill="none" stroke="black" points="786.5,-779 664.5,-779 664.5,-743 786.5,-743 786.5,-779"/>
<text text-anchor="middle" x="725.5" y="-757.3" font-family="Consolas" font-size="14.00">SavingsAccount</text>
</g>
<!-- SavingsAccount&#45;&gt;DepositAccount -->
<g id="edge9" class="edge"><title>SavingsAccount&#45;&gt;DepositAccount</title>
<path fill="none" stroke="black" d="M692.685,-742.994C674.013,-733.317 650.433,-721.097 630.43,-710.73"/>
<polygon fill="black" stroke="black" points="632.011,-707.607 621.522,-706.114 628.79,-713.822 632.011,-707.607"/>
</g>
<!-- IReceivable -->
<g id="node15" class="node"><title>IReceivable</title>
<polygon fill="none" stroke="black" points="521,-452 422,-452 422,-416 521,-416 521,-452"/>
<text text-anchor="middle" x="471.5" y="-430.3" font-family="Consolas" font-size="14.00">IReceivable</text>
</g>
<!-- Receivable&#45;&gt;IReceivable -->
<g id="edge12" class="edge"><title>Receivable&#45;&gt;IReceivable</title>
<path fill="none" stroke="black" d="M407.834,-488.813C418.565,-479.743 431.894,-468.477 443.578,-458.6"/>
<polygon fill="black" stroke="black" points="445.975,-461.157 451.353,-452.029 441.456,-455.811 445.975,-461.157"/>
</g>
<!-- TradeLine -->
<g id="node16" class="node"><title>TradeLine</title>
<polygon fill="none" stroke="black" points="403.5,-452 319.5,-452 319.5,-416 403.5,-416 403.5,-452"/>
<text text-anchor="middle" x="361.5" y="-430.3" font-family="Consolas" font-size="14.00">TradeLine</text>
</g>
<!-- Receivable&#45;&gt;TradeLine -->
<g id="edge13" class="edge"><title>Receivable&#45;&gt;TradeLine</title>
<path fill="none" stroke="black" d="M381.206,-488.813C378.204,-480.615 374.545,-470.623 371.199,-461.485"/>
<polygon fill="black" stroke="black" points="374.461,-460.215 367.736,-452.029 367.888,-462.623 374.461,-460.215"/>
</g>
<!-- ITradeLine -->
<g id="node17" class="node"><title>ITradeLine</title>
<polygon fill="none" stroke="black" points="512.5,-371 420.5,-371 420.5,-335 512.5,-335 512.5,-371"/>
<text text-anchor="middle" x="466.5" y="-349.3" font-family="Consolas" font-size="14.00">ITradeLine</text>
</g>
<!-- IReceivable&#45;&gt;ITradeLine -->
<g id="edge14" class="edge"><title>IReceivable&#45;&gt;ITradeLine</title>
<path fill="none" stroke="black" d="M470.415,-415.858C469.773,-405.713 468.945,-392.634 468.216,-381.117"/>
<polygon fill="black" stroke="black" points="471.708,-380.867 467.583,-371.108 464.722,-381.31 471.708,-380.867"/>
</g>
<!-- IReceivable&#45;&gt;IAsset -->
<g id="edge15" class="edge"><title>IReceivable&#45;&gt;IAsset</title>
<path fill="none" stroke="black" d="M502.095,-415.858C522.881,-404.212 550.569,-388.699 573.017,-376.122"/>
<polygon fill="black" stroke="black" points="574.952,-379.05 581.965,-371.108 571.53,-372.943 574.952,-379.05"/>
</g>
<!-- IMereo -->
<g id="node19" class="node"><title>IMereo</title>
<polygon fill="none" stroke="black" points="179.5,-371 117.5,-371 117.5,-335 179.5,-335 179.5,-371"/>
<text text-anchor="middle" x="148.5" y="-349.3" font-family="Consolas" font-size="14.00">IMereo</text>
</g>
<!-- IReceivable&#45;&gt;IMereo -->
<g id="edge16" class="edge"><title>IReceivable&#45;&gt;IMereo</title>
<path fill="none" stroke="black" stroke-dasharray="1,5" d="M421.975,-418.536C418.773,-417.661 415.594,-416.809 412.5,-416 333.925,-395.467 241.374,-374.455 189.359,-362.932"/>
<polygon fill="black" stroke="black" points="190.032,-359.496 179.513,-360.757 188.522,-366.331 190.032,-359.496"/>
<text text-anchor="middle" x="352" y="-391.6" font-family="Consolas" font-size="8.00">HAS&#45;A</text>
</g>
<!-- TradeLine&#45;&gt;ITradeLine -->
<g id="edge23" class="edge"><title>TradeLine&#45;&gt;ITradeLine</title>
<path fill="none" stroke="black" d="M384.283,-415.858C399.281,-404.574 419.103,-389.66 435.526,-377.304"/>
<polygon fill="black" stroke="black" points="437.874,-379.917 443.761,-371.108 433.666,-374.324 437.874,-379.917"/>
</g>
<!-- ITradeLine&#45;&gt;ITempore -->
<g id="edge24" class="edge"><title>ITradeLine&#45;&gt;ITempore</title>
<path fill="none" stroke="black" d="M485.378,-334.858C497.576,-323.781 513.627,-309.207 527.084,-296.987"/>
<polygon fill="black" stroke="black" points="529.609,-299.422 534.659,-290.108 524.903,-294.24 529.609,-299.422"/>
</g>
<!-- ITransactionable -->
<g id="node25" class="node"><title>ITransactionable</title>
<polygon fill="none" stroke="black" points="402,-290 265,-290 265,-254 402,-254 402,-290"/>
<text text-anchor="middle" x="333.5" y="-268.3" font-family="Consolas" font-size="14.00">ITransactionable</text>
</g>
<!-- ITradeLine&#45;&gt;ITransactionable -->
<g id="edge25" class="edge"><title>ITradeLine&#45;&gt;ITransactionable</title>
<path fill="none" stroke="black" d="M437.641,-334.858C418.121,-323.264 392.149,-307.837 371.026,-295.29"/>
<polygon fill="black" stroke="black" points="372.688,-292.206 362.303,-290.108 369.113,-298.224 372.688,-292.206"/>
</g>
<!-- IObviate -->
<g id="node26" class="node"><title>IObviate</title>
<polygon fill="none" stroke="black" points="497,-290 420,-290 420,-254 497,-254 497,-290"/>
<text text-anchor="middle" x="458.5" y="-268.3" font-family="Consolas" font-size="14.00">IObviate</text>
</g>
<!-- ITradeLine&#45;&gt;IObviate -->
<g id="edge26" class="edge"><title>ITradeLine&#45;&gt;IObviate</title>
<path fill="none" stroke="black" d="M464.764,-334.858C463.737,-324.713 462.412,-311.634 461.246,-300.117"/>
<polygon fill="black" stroke="black" points="464.722,-299.705 460.232,-290.108 457.758,-300.41 464.722,-299.705"/>
</g>
<!-- IBalance -->
<g id="node27" class="node"><title>IBalance</title>
<polygon fill="none" stroke="black" points="864,-290 787,-290 787,-254 864,-254 864,-290"/>
<text text-anchor="middle" x="825.5" y="-268.3" font-family="Consolas" font-size="14.00">IBalance</text>
</g>
<!-- ITradeLine&#45;&gt;IBalance -->
<g id="edge30" class="edge"><title>ITradeLine&#45;&gt;IBalance</title>
<path fill="none" stroke="black" stroke-dasharray="1,5" d="M512.565,-344.943C571.733,-335.413 677.635,-316.781 776.979,-289.925"/>
<polygon fill="black" stroke="black" points="778.158,-293.231 786.879,-287.215 776.31,-286.479 778.158,-293.231"/>
<text text-anchor="middle" x="714" y="-310.6" font-family="Consolas" font-size="8.00">HAS&#45;A</text>
</g>
<!-- IMereo&#45;&gt;PecuniamIdentifier -->
<g id="edge21" class="edge"><title>IMereo&#45;&gt;PecuniamIdentifier</title>
<path fill="none" stroke="black" d="M150.887,-334.858C152.299,-324.713 154.121,-311.634 155.724,-300.117"/>
<polygon fill="black" stroke="black" points="159.205,-300.496 157.118,-290.108 152.272,-299.53 159.205,-300.496"/>
</g>
<!-- IVoca -->
<g id="node22" class="node"><title>IVoca</title>
<polygon fill="none" stroke="black" points="54.5,-290 0.5,-290 0.5,-254 54.5,-254 54.5,-290"/>
<text text-anchor="middle" x="27.5" y="-268.3" font-family="Consolas" font-size="14.00">IVoca</text>
</g>
<!-- IMereo&#45;&gt;IVoca -->
<g id="edge19" class="edge"><title>IMereo&#45;&gt;IVoca</title>
<path fill="none" stroke="black" d="M122.245,-334.858C104.645,-323.367 81.279,-308.112 62.1558,-295.627"/>
<polygon fill="black" stroke="black" points="63.9908,-292.645 53.704,-290.108 60.1639,-298.506 63.9908,-292.645"/>
</g>
<!-- Mereo -->
<g id="node20" class="node"><title>Mereo</title>
<polygon fill="none" stroke="black" points="121.5,-452 67.5,-452 67.5,-416 121.5,-416 121.5,-452"/>
<text text-anchor="middle" x="94.5" y="-430.3" font-family="Consolas" font-size="14.00">Mereo</text>
</g>
<!-- Mereo&#45;&gt;IMereo -->
<g id="edge18" class="edge"><title>Mereo&#45;&gt;IMereo</title>
<path fill="none" stroke="black" d="M106.217,-415.858C113.506,-405.195 123.01,-391.291 131.161,-379.367"/>
<polygon fill="black" stroke="black" points="134.052,-381.339 136.806,-371.108 128.273,-377.389 134.052,-381.339"/>
</g>
<!-- VocaBase -->
<g id="node21" class="node"><title>VocaBase</title>
<polygon fill="none" stroke="black" points="77,-371 0,-371 0,-335 77,-335 77,-371"/>
<text text-anchor="middle" x="38.5" y="-349.3" font-family="Consolas" font-size="14.00">VocaBase</text>
</g>
<!-- Mereo&#45;&gt;VocaBase -->
<g id="edge17" class="edge"><title>Mereo&#45;&gt;VocaBase</title>
<path fill="none" stroke="black" d="M82.3488,-415.858C74.7903,-405.195 64.9344,-391.291 56.4815,-379.367"/>
<polygon fill="black" stroke="black" points="59.2659,-377.243 50.6275,-371.108 53.5552,-381.291 59.2659,-377.243"/>
</g>
<!-- VocaBase&#45;&gt;IVoca -->
<g id="edge20" class="edge"><title>VocaBase&#45;&gt;IVoca</title>
<path fill="none" stroke="black" d="M36.1132,-334.858C34.7005,-324.713 32.8794,-311.634 31.2758,-300.117"/>
<polygon fill="black" stroke="black" points="34.7279,-299.53 29.8822,-290.108 27.7948,-300.496 34.7279,-299.53"/>
</g>
<!-- Balance -->
<g id="node28" class="node"><title>Balance</title>
<polygon fill="none" stroke="black" points="981,-371 912,-371 912,-335 981,-335 981,-371"/>
<text text-anchor="middle" x="946.5" y="-349.3" font-family="Consolas" font-size="14.00">Balance</text>
</g>
<!-- Balance&#45;&gt;IBalance -->
<g id="edge31" class="edge"><title>Balance&#45;&gt;IBalance</title>
<path fill="none" stroke="black" d="M920.245,-334.858C902.645,-323.367 879.279,-308.112 860.156,-295.627"/>
<polygon fill="black" stroke="black" points="861.991,-292.645 851.704,-290.108 858.164,-298.506 861.991,-292.645"/>
</g>
<!-- TransactionHistory -->
<g id="node29" class="node"><title>TransactionHistory</title>
<polygon fill="none" stroke="black" points="1034.5,-290 882.5,-290 882.5,-254 1034.5,-254 1034.5,-290"/>
<text text-anchor="middle" x="958.5" y="-268.3" font-family="Consolas" font-size="14.00">TransactionHistory</text>
</g>
<!-- Balance&#45;&gt;TransactionHistory -->
<g id="edge32" class="edge"><title>Balance&#45;&gt;TransactionHistory</title>
<path fill="none" stroke="black" d="M949.104,-334.858C950.645,-324.713 952.632,-311.634 954.381,-300.117"/>
<polygon fill="black" stroke="black" points="957.86,-300.521 955.901,-290.108 950.939,-299.469 957.86,-300.521"/>
</g>
<!-- VariableRateLoan -->
<g id="node30" class="node"><title>VariableRateLoan</title>
<polygon fill="none" stroke="black" points="366,-779 229,-779 229,-743 366,-743 366,-779"/>
<text text-anchor="middle" x="297.5" y="-757.3" font-family="Consolas" font-size="14.00">VariableRateLoan</text>
</g>
<!-- VariableRateLoan&#45;&gt;LoanBase -->
<g id="edge33" class="edge"><title>VariableRateLoan&#45;&gt;LoanBase</title>
<path fill="none" stroke="black" d="M331.992,-742.994C351.706,-733.273 376.626,-720.987 397.711,-710.59"/>
<polygon fill="black" stroke="black" points="399.37,-713.675 406.791,-706.114 396.274,-707.397 399.37,-713.675"/>
</g>
<!-- Security -->
<g id="node31" class="node"><title>Security</title>
<polygon fill="none" stroke="black" points="1107,-452 1030,-452 1030,-416 1107,-416 1107,-452"/>
<text text-anchor="middle" x="1068.5" y="-430.3" font-family="Consolas" font-size="14.00">Security</text>
</g>
<!-- Security&#45;&gt;IAsset -->
<g id="edge34" class="edge"><title>Security&#45;&gt;IAsset</title>
<path fill="none" stroke="black" d="M1029.62,-426.265C944.249,-411.474 741.054,-376.271 653.641,-361.128"/>
<polygon fill="black" stroke="black" points="654.022,-357.641 643.571,-359.383 652.827,-364.539 654.022,-357.641"/>
</g>
<!-- Pecuniam -->
<g id="node32" class="node"><title>Pecuniam</title>
<polygon fill="none" stroke="black" points="1107,-371 1030,-371 1030,-335 1107,-335 1107,-371"/>
<text text-anchor="middle" x="1068.5" y="-349.3" font-family="Consolas" font-size="14.00">Pecuniam</text>
</g>
<!-- Security&#45;&gt;Pecuniam -->
<g id="edge35" class="edge"><title>Security&#45;&gt;Pecuniam</title>
<path fill="none" stroke="black" d="M1068.5,-415.858C1068.5,-405.713 1068.5,-392.634 1068.5,-381.117"/>
<polygon fill="black" stroke="black" points="1072,-381.108 1068.5,-371.108 1065,-381.108 1072,-381.108"/>
</g>
<!-- Cusip -->
<g id="node33" class="node"><title>Cusip</title>
<polygon fill="none" stroke="black" points="1182.5,-371 1128.5,-371 1128.5,-335 1182.5,-335 1182.5,-371"/>
<text text-anchor="middle" x="1155.5" y="-349.3" font-family="Consolas" font-size="14.00">Cusip</text>
</g>
<!-- Security&#45;&gt;Cusip -->
<g id="edge36" class="edge"><title>Security&#45;&gt;Cusip</title>
<path fill="none" stroke="black" stroke-dasharray="1,5" d="M1087.38,-415.858C1099.58,-404.781 1115.63,-390.207 1129.08,-377.987"/>
<polygon fill="black" stroke="black" points="1131.61,-380.422 1136.66,-371.108 1126.9,-375.24 1131.61,-380.422"/>
<text text-anchor="middle" x="1120.5" y="-391.6" font-family="Consolas" font-size="8.00">Id</text>
</g>
<!-- Currency -->
<g id="node37" class="node"><title>Currency</title>
<polygon fill="none" stroke="black" points="1101,-236 1024,-236 1024,-200 1101,-200 1101,-236"/>
<text text-anchor="middle" x="1062.5" y="-214.3" font-family="Consolas" font-size="14.00">Currency</text>
</g>
<!-- Pecuniam&#45;&gt;Currency -->
<g id="edge40" class="edge"><title>Pecuniam&#45;&gt;Currency</title>
<path fill="none" stroke="black" stroke-dasharray="1,5" d="M1067.73,-334.885C1066.72,-312.44 1064.93,-272.799 1063.73,-246.215"/>
<polygon fill="black" stroke="black" points="1067.22,-245.882 1063.27,-236.049 1060.22,-246.197 1067.22,-245.882"/>
<text text-anchor="middle" x="1072.5" y="-310.6" font-family="Consolas" font-size="8.00">Id</text>
</g>
<!-- INumera -->
<g id="node38" class="node"><title>INumera</title>
<polygon fill="none" stroke="black" points="1160,-290 1091,-290 1091,-254 1160,-254 1160,-290"/>
<text text-anchor="middle" x="1125.5" y="-268.3" font-family="Consolas" font-size="14.00">INumera</text>
</g>
<!-- Pecuniam&#45;&gt;INumera -->
<g id="edge42" class="edge"><title>Pecuniam&#45;&gt;INumera</title>
<path fill="none" stroke="black" d="M1080.87,-334.858C1088.56,-324.195 1098.59,-310.291 1107.2,-298.367"/>
<polygon fill="black" stroke="black" points="1110.14,-300.266 1113.16,-290.108 1104.47,-296.17 1110.14,-300.266"/>
</g>
<!-- RIdentifierWithChkDigit -->
<g id="node34" class="node"><title>RIdentifierWithChkDigit</title>
<polygon fill="none" stroke="black" points="1367,-290 1178,-290 1178,-254 1367,-254 1367,-290"/>
<text text-anchor="middle" x="1272.5" y="-268.3" font-family="Consolas" font-size="14.00">RIdentifierWithChkDigit</text>
</g>
<!-- Cusip&#45;&gt;RIdentifierWithChkDigit -->
<g id="edge37" class="edge"><title>Cusip&#45;&gt;RIdentifierWithChkDigit</title>
<path fill="none" stroke="black" d="M1180.89,-334.858C1197.83,-323.419 1220.3,-308.249 1238.74,-295.795"/>
<polygon fill="black" stroke="black" points="1240.83,-298.605 1247.16,-290.108 1236.92,-292.804 1240.83,-298.605"/>
</g>
<!-- RIdentifier -->
<g id="node35" class="node"><title>RIdentifier</title>
<polygon fill="none" stroke="black" points="1223,-182 1124,-182 1124,-146 1223,-146 1223,-182"/>
<text text-anchor="middle" x="1173.5" y="-160.3" font-family="Consolas" font-size="14.00">RIdentifier</text>
</g>
<!-- RIdentifierWithChkDigit&#45;&gt;RIdentifier -->
<g id="edge38" class="edge"><title>RIdentifierWithChkDigit&#45;&gt;RIdentifier</title>
<path fill="none" stroke="black" d="M1256.59,-253.969C1240.38,-236.61 1215.06,-209.503 1196.63,-189.769"/>
<polygon fill="black" stroke="black" points="1199.08,-187.26 1189.7,-182.341 1193.96,-192.038 1199.08,-187.26"/>
</g>
<!-- Identifier -->
<g id="node36" class="node"><title>Identifier</title>
<polygon fill="none" stroke="black" points="1108.5,-109 1016.5,-109 1016.5,-73 1108.5,-73 1108.5,-109"/>
<text text-anchor="middle" x="1062.5" y="-87.3" font-family="Consolas" font-size="14.00">Identifier</text>
</g>
<!-- RIdentifier&#45;&gt;Identifier -->
<g id="edge39" class="edge"><title>RIdentifier&#45;&gt;Identifier</title>
<path fill="none" stroke="black" d="M1146.91,-145.994C1132.19,-136.579 1113.71,-124.755 1097.79,-114.575"/>
<polygon fill="black" stroke="black" points="1099.57,-111.554 1089.26,-109.114 1095.79,-117.45 1099.57,-111.554"/>
</g>
<!-- Identifier&#45;&gt;StringId -->
<g id="edge52" class="edge"><title>Identifier&#45;&gt;StringId</title>
<path fill="none" stroke="black" d="M1062.5,-72.8129C1062.5,-64.7895 1062.5,-55.0475 1062.5,-46.0691"/>
<polygon fill="black" stroke="black" points="1066,-46.0288 1062.5,-36.0288 1059,-46.0289 1066,-46.0288"/>
</g>
<!-- Currency&#45;&gt;Identifier -->
<g id="edge41" class="edge"><title>Currency&#45;&gt;Identifier</title>
<path fill="none" stroke="black" d="M1062.5,-199.881C1062.5,-179.146 1062.5,-143.953 1062.5,-119.422"/>
<polygon fill="black" stroke="black" points="1066,-119.313 1062.5,-109.313 1059,-119.313 1066,-119.313"/>
</g>
<!-- CreditScore -->
<g id="node39" class="node"><title>CreditScore</title>
<polygon fill="none" stroke="black" points="887,-182 788,-182 788,-146 887,-146 887,-182"/>
<text text-anchor="middle" x="837.5" y="-160.3" font-family="Consolas" font-size="14.00">CreditScore</text>
</g>
<!-- CreditScore&#45;&gt;Identifier -->
<g id="edge43" class="edge"><title>CreditScore&#45;&gt;Identifier</title>
<path fill="none" stroke="black" d="M887.156,-147.331C922.558,-136.16 970.184,-121.131 1006.87,-109.555"/>
<polygon fill="black" stroke="black" points="1007.94,-112.887 1016.42,-106.54 1005.83,-106.212 1007.94,-112.887"/>
</g>
<!-- PersonalCreditScore -->
<g id="node40" class="node"><title>PersonalCreditScore</title>
<polygon fill="none" stroke="black" points="769,-290 610,-290 610,-254 769,-254 769,-290"/>
<text text-anchor="middle" x="689.5" y="-268.3" font-family="Consolas" font-size="14.00">PersonalCreditScore</text>
</g>
<!-- PersonalCreditScore&#45;&gt;CreditScore -->
<g id="edge44" class="edge"><title>PersonalCreditScore&#45;&gt;CreditScore</title>
<path fill="none" stroke="black" d="M713.279,-253.969C738.16,-236.149 777.383,-208.057 805.089,-188.214"/>
<polygon fill="black" stroke="black" points="807.197,-191.009 813.289,-182.341 803.121,-185.318 807.197,-191.009"/>
</g>
<!-- CreditCardNumber -->
<g id="node41" class="node"><title>CreditCardNumber</title>
<polygon fill="none" stroke="black" points="1341,-371 1204,-371 1204,-335 1341,-335 1341,-371"/>
<text text-anchor="middle" x="1272.5" y="-349.3" font-family="Consolas" font-size="14.00">CreditCardNumber</text>
</g>
<!-- CreditCardNumber&#45;&gt;RIdentifierWithChkDigit -->
<g id="edge45" class="edge"><title>CreditCardNumber&#45;&gt;RIdentifierWithChkDigit</title>
<path fill="none" stroke="black" d="M1272.5,-334.858C1272.5,-324.713 1272.5,-311.634 1272.5,-300.117"/>
<polygon fill="black" stroke="black" points="1276,-300.108 1272.5,-290.108 1269,-300.108 1276,-300.108"/>
</g>
<!-- VisaCc -->
<g id="node42" class="node"><title>VisaCc</title>
<polygon fill="none" stroke="black" points="1148.5,-633 1086.5,-633 1086.5,-597 1148.5,-597 1148.5,-633"/>
<text text-anchor="middle" x="1117.5" y="-611.3" font-family="Consolas" font-size="14.00">VisaCc</text>
</g>
<!-- CreditCard -->
<g id="node43" class="node"><title>CreditCard</title>
<polygon fill="none" stroke="black" points="1318.5,-525 1226.5,-525 1226.5,-489 1318.5,-489 1318.5,-525"/>
<text text-anchor="middle" x="1272.5" y="-503.3" font-family="Consolas" font-size="14.00">CreditCard</text>
</g>
<!-- VisaCc&#45;&gt;CreditCard -->
<g id="edge46" class="edge"><title>VisaCc&#45;&gt;CreditCard</title>
<path fill="none" stroke="black" d="M1142.4,-596.969C1168.54,-579.096 1209.78,-550.889 1238.81,-531.037"/>
<polygon fill="black" stroke="black" points="1241.12,-533.698 1247.4,-525.164 1237.17,-527.92 1241.12,-533.698"/>
</g>
<!-- ICreditCard -->
<g id="node47" class="node"><title>ICreditCard</title>
<polygon fill="none" stroke="black" points="1322,-452 1223,-452 1223,-416 1322,-416 1322,-452"/>
<text text-anchor="middle" x="1272.5" y="-430.3" font-family="Consolas" font-size="14.00">ICreditCard</text>
</g>
<!-- CreditCard&#45;&gt;ICreditCard -->
<g id="edge50" class="edge"><title>CreditCard&#45;&gt;ICreditCard</title>
<path fill="none" stroke="black" d="M1272.5,-488.813C1272.5,-480.789 1272.5,-471.047 1272.5,-462.069"/>
<polygon fill="black" stroke="black" points="1276,-462.029 1272.5,-452.029 1269,-462.029 1276,-462.029"/>
</g>
<!-- MasterCardCc -->
<g id="node44" class="node"><title>MasterCardCc</title>
<polygon fill="none" stroke="black" points="1274,-633 1167,-633 1167,-597 1274,-597 1274,-633"/>
<text text-anchor="middle" x="1220.5" y="-611.3" font-family="Consolas" font-size="14.00">MasterCardCc</text>
</g>
<!-- MasterCardCc&#45;&gt;CreditCard -->
<g id="edge47" class="edge"><title>MasterCardCc&#45;&gt;CreditCard</title>
<path fill="none" stroke="black" d="M1228.85,-596.969C1237.14,-580.071 1249.97,-553.935 1259.57,-534.356"/>
<polygon fill="black" stroke="black" points="1262.73,-535.86 1263.99,-525.341 1256.45,-532.777 1262.73,-535.86"/>
</g>
<!-- AmexCc -->
<g id="node45" class="node"><title>AmexCc</title>
<polygon fill="none" stroke="black" points="1354.5,-633 1292.5,-633 1292.5,-597 1354.5,-597 1354.5,-633"/>
<text text-anchor="middle" x="1323.5" y="-611.3" font-family="Consolas" font-size="14.00">AmexCc</text>
</g>
<!-- AmexCc&#45;&gt;CreditCard -->
<g id="edge48" class="edge"><title>AmexCc&#45;&gt;CreditCard</title>
<path fill="none" stroke="black" d="M1315.31,-596.969C1307.18,-580.071 1294.6,-553.935 1285.18,-534.356"/>
<polygon fill="black" stroke="black" points="1288.33,-532.834 1280.84,-525.341 1282.02,-535.869 1288.33,-532.834"/>
</g>
<!-- DiscoverCc -->
<g id="node46" class="node"><title>DiscoverCc</title>
<polygon fill="none" stroke="black" points="1464.5,-633 1372.5,-633 1372.5,-597 1464.5,-597 1464.5,-633"/>
<text text-anchor="middle" x="1418.5" y="-611.3" font-family="Consolas" font-size="14.00">DiscoverCc</text>
</g>
<!-- DiscoverCc&#45;&gt;CreditCard -->
<g id="edge49" class="edge"><title>DiscoverCc&#45;&gt;CreditCard</title>
<path fill="none" stroke="black" d="M1395.04,-596.969C1370.6,-579.226 1332.14,-551.299 1304.83,-531.471"/>
<polygon fill="black" stroke="black" points="1306.53,-528.384 1296.38,-525.341 1302.42,-534.048 1306.53,-528.384"/>
</g>
<!-- ICreditCard&#45;&gt;CreditCardNumber -->
<g id="edge51" class="edge"><title>ICreditCard&#45;&gt;CreditCardNumber</title>
<path fill="none" stroke="black" stroke-dasharray="1,5" d="M1272.5,-415.858C1272.5,-405.713 1272.5,-392.634 1272.5,-381.117"/>
<polygon fill="black" stroke="black" points="1276,-381.108 1272.5,-371.108 1269,-381.108 1276,-381.108"/>
<text text-anchor="middle" x="1284" y="-391.6" font-family="Consolas" font-size="8.00">HAS&#45;A</text>
</g>
</g>
</svg>
